<svg version="1.1" xmlns="http://www.w3.org/2000/svg" viewBox="0 0 858.9999999999997 339.42857142857133" width="858.9999999999997" height="339.42857142857133">
  <!-- svg-source:excalidraw -->
  
  <defs>
    <style>
      @font-face {
        font-family: "Virgil";
        src: url("https://excalidraw.com/Virgil.woff2");
      }
      @font-face {
        font-family: "Cascadia";
        src: url("https://excalidraw.com/Cascadia.woff2");
      }
    </style>
  </defs>
  <g stroke-linecap="round" transform="translate(310.5 10) rotate(0 118.99999999999986 37.71428571428572)"><path d="M0.28 0.03 C76.43 2.14, 154.62 3.49, 237.97 -0.33 M-0.46 -0.43 C89.49 1.6, 179.75 1.37, 237.51 -0.57 M237.55 1.73 C236.42 21.29, 236.79 44.11, 239.59 74.41 M238.05 -0.47 C237.57 19.06, 237.96 40.01, 238.83 74.8 M236.81 76.41 C163.97 74.34, 88.9 73.48, 1.28 74.6 M237.53 74.88 C156.74 76.22, 75.17 76, 0.82 75.97 M-1.46 77.18 C0.64 57.63, 0.16 41.86, -1.12 0.64 M0.44 76.39 C0.05 52.89, 1.32 30.18, 0.96 -0.81" stroke="#000000" stroke-width="1" fill="none"></path></g><g transform="translate(381.4999999999999 24.714285714285666) rotate(0 48 23)"><text x="48" y="33" font-family="Virgil, Segoe UI Emoji" font-size="36px" fill="#000000" text-anchor="middle" style="white-space: pre;" direction="ltr">BinOp</text></g><g stroke-linecap="round" transform="translate(10 210.66666666666663) rotate(0 119 57.71428571428572)"><path d="M0.67 1.19 C92.25 1.08, 186.29 2.73, 239.3 -1.51 M-0.61 0.78 C93.62 -1.02, 185.96 -0.21, 237.94 0.23 M237.98 -1.72 C239.68 35.51, 240.79 70.68, 239.05 116.55 M238.81 0.06 C239.4 28.7, 238.97 55.55, 238.71 115.97 M238.45 116.78 C189.18 115.37, 139.33 113.89, 1.1 117.08 M238.04 114.73 C171.98 114.34, 107.73 114.64, -0.27 116.06 M-0.38 115.44 C-0.37 89.96, -0.21 66.15, 0.02 1.29 M-0.59 115.27 C1.79 90.25, 1.04 65.23, -0.26 -0.23" stroke="#000000" stroke-width="1" fill="none"></path></g><g transform="translate(48.499999999999886 222.3809523809523) rotate(0 80.5 46)"><text x="80.5" y="33" font-family="Virgil, Segoe UI Emoji" font-size="36px" fill="#000000" text-anchor="middle" style="white-space: pre;" direction="ltr">Constant</text><text x="80.5" y="79" font-family="Virgil, Segoe UI Emoji" font-size="36px" fill="#000000" text-anchor="middle" style="white-space: pre;" direction="ltr">10</text></g><g stroke-linecap="round" transform="translate(310.5 210.66666666666663) rotate(0 118.99999999999986 57.71428571428572)"><path d="M0.84 0.26 C78.73 0.88, 155.38 1.09, 238.73 -1.34 M0.07 -0.21 C55.93 0.47, 111.65 0.81, 237.32 0.09 M239.71 0.26 C237.66 36.89, 239.01 78.64, 238.98 116.02 M237.4 0.98 C236.92 31.91, 237 65.6, 238.08 115.93 M237.8 115.42 C156.98 116.4, 76.07 114.54, -1.41 116.69 M237.42 115.98 C187.63 116.1, 137.63 116, -0.16 115.08 M0.79 115 C0.95 90.26, -1.44 61.35, -0.96 1.19 M-0.01 116.06 C-0.79 71.67, -0.39 30.32, -0.97 0.44" stroke="#000000" stroke-width="1" fill="none"></path></g><g transform="translate(361.4999999999999 245.3809523809523) rotate(0 68 23)"><text x="68" y="33" font-family="Virgil, Segoe UI Emoji" font-size="36px" fill="#000000" text-anchor="middle" style="white-space: pre;" direction="ltr">CallPipe</text></g><g stroke-linecap="round" transform="translate(610.9999999999999 210.66666666666663) rotate(0 118.99999999999989 59.38095238095235)"><path d="M0.16 -0.36 C82.58 -1.85, 162.71 -2.01, 236.91 -0.6 M0.22 0.8 C79.05 0.47, 159.25 0.92, 238.59 -0.01 M236.4 -1.97 C237.18 31.94, 236.04 63.02, 237.33 118.69 M237.31 0.68 C238.46 43.18, 239.81 84.75, 237.73 117.79 M238.19 120.19 C188.09 118.19, 139.49 116.43, 1.59 120.35 M237.61 119.5 C156.03 117.73, 74.88 118.91, -0.44 118.7 M-1.88 118.43 C-0.88 83.47, -1.04 50.54, -1.17 1.79 M-0.4 118.02 C-1.62 76.76, -0.02 34.74, -0.13 -0.64" stroke="#000000" stroke-width="1" fill="none"></path></g><g transform="translate(675.4999999999999 224.04761904761904) rotate(0 54.5 46)"><text x="54.5" y="33" font-family="Virgil, Segoe UI Emoji" font-size="36px" fill="#000000" text-anchor="middle" style="white-space: pre;" direction="ltr">Name</text><text x="54.5" y="79" font-family="Virgil, Segoe UI Emoji" font-size="36px" fill="#000000" text-anchor="middle" style="white-space: pre;" direction="ltr">double</text></g><g stroke-linecap="round"><g transform="translate(425.39497614752736 94.73911907988042) rotate(0 -2.738332296484913 53.313938293804654)"><path d="M-0.18 0.59 C-0.82 18.1, -3.64 87.9, -4.12 105.43 M-1.73 -0.14 C-2.54 17.51, -5 88.91, -5.3 106.77" stroke="#000000" stroke-width="1" fill="none"></path></g><g transform="translate(425.39497614752736 94.73911907988042) rotate(0 -2.738332296484913 53.313938293804654)"><path d="M-13.81 77.57 C-12.7 87.23, -9.52 93.68, -5.78 107.1 M-13.88 78.88 C-12.69 87.41, -9.51 96.6, -4.32 107.22" stroke="#000000" stroke-width="1" fill="none"></path></g><g transform="translate(425.39497614752736 94.73911907988042) rotate(0 -2.738332296484913 53.313938293804654)"><path d="M6.7 78.13 C2.13 87.6, -0.38 93.9, -5.78 107.1 M6.64 79.43 C0.91 87.87, -2.83 96.88, -4.32 107.22" stroke="#000000" stroke-width="1" fill="none"></path></g></g><g stroke-linecap="round"><g transform="translate(384.4591052228661 97.47107113108495) rotate(0 -100.55662554130366 54.305463337318145)"><path d="M0.45 0.67 C-33.05 18.69, -166.87 90.85, -200.39 108.64 M-0.77 -0.03 C-34.52 17.59, -168.66 88.72, -201.56 106.77" stroke="#000000" stroke-width="1" fill="none"></path></g><g transform="translate(384.4591052228661 97.47107113108495) rotate(0 -100.55662554130366 54.305463337318145)"><path d="M-180.48 83.67 C-187.68 91.09, -196.77 101.39, -203.25 106.2 M-180.69 83.49 C-188.22 92.43, -194.45 100.05, -201.03 106.17" stroke="#000000" stroke-width="1" fill="none"></path></g><g transform="translate(384.4591052228661 97.47107113108495) rotate(0 -100.55662554130366 54.305463337318145)"><path d="M-170.76 101.74 C-181.44 102.87, -193.93 106.85, -203.25 106.2 M-170.97 101.56 C-181.81 104.23, -191.38 105.67, -201.03 106.17" stroke="#000000" stroke-width="1" fill="none"></path></g></g><g stroke-linecap="round"><g transform="translate(471.80800586940904 102.51796175655511) rotate(0 100.26352085389354 43.90859877732703)"><path d="M0.5 -1.15 C33.96 13.33, 167.84 72.79, 201.22 88.02 M-0.7 0.86 C32.57 15.96, 166.91 74.37, 200.33 88.97" stroke="#000000" stroke-width="1" fill="none"></path></g><g transform="translate(471.80800586940904 102.51796175655511) rotate(0 100.26352085389354 43.90859877732703)"><path d="M168.46 87.27 C178.67 87.03, 192.49 88.29, 201 88.25 M170.06 87.34 C178.09 88.17, 184.77 88.62, 200.33 88.6" stroke="#000000" stroke-width="1" fill="none"></path></g><g transform="translate(471.80800586940904 102.51796175655511) rotate(0 100.26352085389354 43.90859877732703)"><path d="M176.66 68.46 C184.27 74.62, 195.31 82.25, 201 88.25 M178.26 68.53 C184.36 73.97, 189.01 79.09, 200.33 88.6" stroke="#000000" stroke-width="1" fill="none"></path></g></g><g stroke-linecap="round" transform="translate(141.551587301587 104.69047619047603) rotate(0 91.11111111111114 28)"><path d="M87.03 -0.04 C99.54 -0.83, 114.77 0.29, 126.83 1.86 C138.9 3.43, 150.78 6.12, 159.42 9.39 C168.06 12.65, 175.14 17.49, 178.65 21.45 C182.16 25.4, 182.72 29.27, 180.48 33.12 C178.24 36.96, 172.78 41.4, 165.2 44.52 C157.62 47.65, 146.73 49.89, 135 51.86 C123.28 53.82, 108.23 56.14, 94.88 56.31 C81.52 56.49, 67 54.44, 54.87 52.91 C42.74 51.38, 30.8 50.06, 22.1 47.13 C13.39 44.2, 6.03 39.35, 2.64 35.32 C-0.74 31.28, -0.56 26.71, 1.8 22.9 C4.16 19.09, 9.06 15.66, 16.8 12.46 C24.54 9.27, 34.69 5.86, 48.25 3.75 C61.8 1.63, 87.77 0.13, 98.15 -0.22 C108.52 -0.57, 110.38 1.24, 110.49 1.62 M131.94 2.68 C143.94 3.83, 155.84 6.07, 163.79 9.4 C171.74 12.72, 177.02 18.69, 179.66 22.64 C182.31 26.58, 182.75 29.19, 179.67 33.09 C176.6 36.99, 169.71 42.54, 161.21 46.06 C152.71 49.57, 140.45 52.66, 128.68 54.17 C116.9 55.68, 103.68 55.11, 90.54 55.09 C77.4 55.08, 61.87 55.71, 49.84 54.08 C37.8 52.44, 26.51 48.47, 18.33 45.29 C10.16 42.12, 3.27 38.81, 0.77 35 C-1.72 31.19, -0.15 26.5, 3.36 22.46 C6.87 18.41, 13.86 14.07, 21.85 10.75 C29.84 7.42, 39.86 4.51, 51.31 2.53 C62.77 0.55, 77.09 -1.4, 90.58 -1.13 C104.07 -0.86, 125.72 3.48, 132.26 4.15 C138.79 4.83, 130.77 2.55, 129.77 2.91" stroke="none" stroke-width="0" fill="#ffffff"></path><path d="M115.82 0.62 C128.45 1.11, 142.35 3.46, 152.26 6.15 C162.17 8.83, 170.45 12.99, 175.28 16.72 C180.11 20.46, 182.09 24.47, 181.24 28.57 C180.38 32.67, 176.44 37.58, 170.15 41.33 C163.86 45.08, 153.98 48.76, 143.5 51.08 C133.03 53.4, 120.13 54.51, 107.31 55.26 C94.48 56.01, 79.24 56.68, 66.56 55.59 C53.88 54.5, 41.29 51.53, 31.24 48.71 C21.19 45.89, 11.54 42.26, 6.26 38.68 C0.98 35.1, -1.17 31.37, -0.44 27.24 C0.3 23.12, 4.28 17.46, 10.67 13.94 C17.07 10.41, 27.3 8.27, 37.93 6.09 C48.56 3.91, 59.8 1.48, 74.45 0.86 C89.11 0.24, 116.15 1.86, 125.88 2.36 C135.61 2.86, 133.68 3.3, 132.82 3.84 M77.69 -0.43 C89.5 -1.58, 104.26 -0.73, 116.76 0.52 C129.26 1.77, 142.86 4.43, 152.7 7.09 C162.54 9.74, 170.75 12.75, 175.82 16.46 C180.9 20.18, 183.94 25.33, 183.14 29.36 C182.35 33.4, 177.86 37.04, 171.04 40.69 C164.22 44.33, 153.06 48.77, 142.24 51.23 C131.42 53.69, 119.26 54.65, 106.12 55.45 C92.97 56.24, 76.18 57.2, 63.37 56 C50.56 54.79, 38.86 51.34, 29.27 48.24 C19.69 45.14, 10.87 41.17, 5.88 37.4 C0.88 33.63, -1.49 29.55, -0.67 25.61 C0.15 21.67, 4.03 16.99, 10.77 13.76 C17.51 10.52, 28.81 8.39, 39.8 6.21 C50.79 4.02, 70.65 1.41, 76.7 0.65 C82.75 -0.12, 75.59 1.41, 76.11 1.62" stroke="#000000" stroke-width="1" fill="none"></path></g><g transform="translate(146.551587301587 109.69047619047603) rotate(0 86 23)"><text x="86" y="33" font-family="Virgil, Segoe UI Emoji" font-size="36px" fill="#000000" text-anchor="middle" style="white-space: pre;" direction="ltr">left</text></g><g stroke-linecap="round" transform="translate(552.6626984126982 106.91269841269832) rotate(0 91.11111111111114 28)"><path d="M59.64 1.12 C70.96 -0.5, 85.62 0.18, 98.48 0.54 C111.35 0.89, 125.39 1.22, 136.84 3.25 C148.29 5.28, 159.63 9.12, 167.2 12.73 C174.77 16.34, 180.37 21.03, 182.26 24.91 C184.14 28.79, 182.66 32.42, 178.51 36.01 C174.36 39.61, 166.53 43.32, 157.36 46.48 C148.19 49.64, 135.97 53.34, 123.5 54.98 C111.02 56.63, 95.74 56.96, 82.53 56.35 C69.32 55.74, 55.41 53.36, 44.22 51.32 C33.03 49.29, 22.6 47.38, 15.38 44.12 C8.15 40.87, 2.6 35.93, 0.85 31.81 C-0.91 27.7, 0.84 23.23, 4.87 19.45 C8.89 15.67, 14.38 12.37, 24.99 9.14 C35.6 5.91, 59.54 1.42, 68.51 0.09 C77.48 -1.24, 78.47 0.73, 78.8 1.17 M88.71 -0.36 C101.43 -1.21, 116.76 0.14, 128.54 1.58 C140.32 3.01, 150.99 4.86, 159.39 8.25 C167.79 11.63, 175.65 17.96, 178.95 21.89 C182.25 25.83, 181.62 27.88, 179.19 31.84 C176.76 35.8, 172.18 42.4, 164.37 45.66 C156.57 48.92, 144.05 49.88, 132.36 51.41 C120.66 52.94, 107.23 54.5, 94.22 54.84 C81.2 55.19, 66.18 54.87, 54.29 53.48 C42.4 52.08, 31.61 49.5, 22.89 46.46 C14.18 43.42, 5.61 38.97, 2 35.23 C-1.62 31.49, -1.5 28.03, 1.21 24 C3.92 19.96, 10.6 14.37, 18.27 11.04 C25.95 7.7, 35.73 5.96, 47.25 3.96 C58.77 1.96, 80.47 -0.45, 87.42 -0.98 C94.36 -1.5, 88.6 0.04, 88.91 0.81" stroke="none" stroke-width="0" fill="#ffffff"></path><path d="M117.84 1.04 C130.39 1.59, 143.61 4.69, 153.38 7.32 C163.16 9.96, 171.79 12.99, 176.5 16.85 C181.21 20.71, 182.74 26.45, 181.66 30.48 C180.57 34.51, 176.59 37.57, 169.99 41.05 C163.4 44.54, 153.09 48.85, 142.08 51.38 C131.08 53.92, 116.88 55.77, 103.96 56.23 C91.03 56.7, 77.08 55.33, 64.51 54.16 C51.94 52.98, 38.35 51.83, 28.54 49.18 C18.73 46.53, 10.52 42.04, 5.65 38.28 C0.79 34.51, -1.81 30.55, -0.62 26.61 C0.56 22.67, 5.88 18.22, 12.77 14.65 C19.66 11.07, 30.03 7.55, 40.7 5.15 C51.36 2.75, 62.31 0.81, 76.78 0.23 C91.24 -0.34, 117.28 0.84, 127.48 1.7 C137.68 2.56, 138.53 4.88, 137.96 5.38 M55.46 2.02 C66.48 0.09, 83.26 -1.03, 96.59 -0.58 C109.91 -0.13, 123.78 2.67, 135.39 4.73 C147.01 6.78, 158.61 8.61, 166.29 11.76 C173.96 14.91, 179.12 19.62, 181.46 23.64 C183.8 27.67, 183.84 32.07, 180.35 35.92 C176.85 39.76, 169.59 43.53, 160.47 46.7 C151.36 49.88, 137.82 53.47, 125.66 54.96 C113.49 56.46, 100.38 56.03, 87.47 55.68 C74.57 55.33, 60.04 54.57, 48.24 52.87 C36.44 51.17, 24.27 48.63, 16.67 45.46 C9.07 42.29, 4.88 38.03, 2.63 33.86 C0.38 29.68, -0.09 24.44, 3.16 20.42 C6.41 16.39, 13.56 12.65, 22.12 9.72 C30.67 6.79, 48.81 3.9, 54.5 2.84 C60.19 1.78, 55.44 2.87, 56.27 3.36" stroke="#000000" stroke-width="1" fill="none"></path></g><g transform="translate(557.6626984126982 111.91269841269832) rotate(0 86 23)"><text x="86" y="33" font-family="Virgil, Segoe UI Emoji" font-size="36px" fill="#000000" text-anchor="middle" style="white-space: pre;" direction="ltr">right</text></g><g stroke-linecap="round" transform="translate(370.4404761904758 108.0238095238094) rotate(0 53.5 28)"><path d="M27.96 2.49 C36 -0.16, 49.62 -0.63, 59.23 -0.17 C68.84 0.29, 78.08 1.95, 85.63 5.25 C93.18 8.55, 101.21 14.67, 104.51 19.64 C107.81 24.61, 107.61 30.25, 105.43 35.04 C103.25 39.83, 98.22 44.96, 91.43 48.4 C84.63 51.85, 74.16 54.8, 64.67 55.7 C55.17 56.59, 43.56 55.79, 34.46 53.78 C25.35 51.77, 15.6 47.82, 10.03 43.65 C4.46 39.48, 1.6 33.6, 1.04 28.76 C0.47 23.92, 1.05 19.04, 6.64 14.61 C12.23 10.18, 28.58 4.35, 34.57 2.16 C40.57 -0.03, 42.36 0.99, 42.62 1.47 M64.74 -0.75 C73.74 -0.12, 83.82 5.05, 90.65 8.67 C97.48 12.29, 103.4 16.48, 105.72 20.96 C108.04 25.44, 107.47 30.79, 104.57 35.56 C101.67 40.32, 95.88 46.22, 88.32 49.55 C80.77 52.87, 69.17 54.75, 59.24 55.5 C49.31 56.25, 37.56 56.35, 28.75 54.04 C19.93 51.74, 11.08 46.06, 6.36 41.69 C1.63 37.31, -0.3 32.78, 0.43 27.8 C1.15 22.81, 5.05 16.11, 10.71 11.75 C16.36 7.4, 25.36 3.61, 34.35 1.66 C43.33 -0.29, 59.68 0.07, 64.62 0.08 C69.56 0.09, 64.23 1, 63.97 1.72" stroke="none" stroke-width="0" fill="#ffffff"></path><path d="M58.24 1.07 C67.57 1.23, 79.29 2.77, 86.91 5.7 C94.52 8.63, 100.82 13.76, 103.91 18.66 C107 23.57, 107.81 30.12, 105.44 35.13 C103.06 40.13, 96.5 45.3, 89.65 48.68 C82.81 52.07, 73.8 54.57, 64.36 55.45 C54.91 56.32, 42.15 55.79, 32.98 53.93 C23.81 52.07, 14.82 48.49, 9.36 44.27 C3.91 40.05, 0.74 33.56, 0.25 28.6 C-0.25 23.64, 1.59 18.94, 6.38 14.54 C11.18 10.14, 19.9 4.73, 29.02 2.21 C38.13 -0.32, 55.29 -0.43, 61.08 -0.62 C66.86 -0.8, 63.79 0.64, 63.73 1.1 M32.9 2.13 C40.96 0.06, 53.28 0.94, 62.73 1.68 C72.19 2.43, 82.54 3.44, 89.63 6.58 C96.72 9.72, 102.98 15.37, 105.26 20.54 C107.54 25.71, 106.23 32.9, 103.31 37.58 C100.38 42.26, 95.2 45.33, 87.7 48.62 C80.2 51.91, 68.27 56.49, 58.29 57.33 C48.3 58.18, 36.21 56.44, 27.78 53.69 C19.36 50.93, 12.32 45.1, 7.73 40.81 C3.15 36.51, 0.12 32.96, 0.27 27.9 C0.42 22.84, 2.98 14.94, 8.65 10.43 C14.31 5.93, 30.07 2.36, 34.27 0.85 C38.47 -0.67, 33.44 0.86, 33.83 1.35" stroke="#000000" stroke-width="1" fill="none"></path></g><g transform="translate(375.4404761904758 113.0238095238094) rotate(0 48.5 23)"><text x="48.5" y="33" font-family="Virgil, Segoe UI Emoji" font-size="36px" fill="#000000" text-anchor="middle" style="white-space: pre;" direction="ltr">op</text></g></svg>