<svg version="1.1" xmlns="http://www.w3.org/2000/svg" viewBox="0 0 858.9999999999997 671.4285714285713" width="858.9999999999997" height="671.4285714285713">
  <!-- svg-source:excalidraw -->
  
  <defs>
    <style>
      @font-face {
        font-family: "Virgil";
        src: url("https://excalidraw.com/Virgil.woff2");
      }
      @font-face {
        font-family: "Cascadia";
        src: url("https://excalidraw.com/Cascadia.woff2");
      }
    </style>
  </defs>
  <g stroke-linecap="round" transform="translate(310.4999999999999 10) rotate(0 118.99999999999989 37.71428571428571)"><path d="M1.3 -1.33 C58.9 2.63, 117.2 0.93, 236.98 1.52 M0.17 0.56 C71.67 0.94, 142.98 0.62, 237.27 -0.33 M236.3 0.85 C236.66 24.6, 236.39 50.08, 236.61 73.81 M238.09 0.42 C237 18.85, 238.42 39.13, 238.84 75.43 M239.19 74.68 C168.72 72.85, 97.79 74.99, 1.11 74.64 M238.34 75.23 C160.74 74.25, 82.37 75.53, -0.08 75.87 M0.18 75.03 C1.32 50.1, 0.41 20.38, 0.73 -1.72 M0.5 75.79 C0.88 58.18, 0.14 41.32, 0.16 0.1" stroke="#000000" stroke-width="1" fill="none"></path></g><g transform="translate(369.9999999999999 24.714285714285694) rotate(0 59.5 23)"><text x="59.5" y="33" font-family="Virgil, Segoe UI Emoji" font-size="36px" fill="#000000" text-anchor="middle" style="white-space: pre;" direction="ltr">Module</text></g><g stroke-linecap="round" transform="translate(310.5 154.00000000000003) rotate(0 118.99999999999983 37.714285714285694)"><path d="M0.57 1.42 C65.87 1.68, 132.9 1.53, 236.6 0.78 M-0.67 -0.52 C94.33 -1.69, 189.66 -2.13, 237.71 0.2 M237.96 -0.24 C238.24 21.02, 236.77 45.12, 237.36 75.79 M237.2 0.09 C238.38 16.03, 237.4 32.28, 237.88 75.42 M238.12 76.07 C173.45 74.26, 110.3 74.57, 1.15 75.82 M238.59 75.62 C164.38 76.78, 90.26 76.98, 0.22 75 M-0.46 74.52 C-1.23 60.86, 0 44.4, 1.21 1.63 M0.07 75.39 C0.96 56.87, 0.8 36.12, 0.63 -0.84" stroke="#000000" stroke-width="1" fill="none"></path></g><g transform="translate(389.9999999999999 168.7142857142857) rotate(0 39.5 23)"><text x="39.5" y="33" font-family="Virgil, Segoe UI Emoji" font-size="36px" fill="#000000" text-anchor="middle" style="white-space: pre;" direction="ltr">Expr</text></g><g stroke-linecap="round" transform="translate(310.5 298) rotate(0 118.99999999999983 37.714285714285694)"><path d="M0.28 0.03 C76.43 2.14, 154.62 3.49, 237.97 -0.33 M-0.46 -0.43 C89.49 1.6, 179.75 1.37, 237.51 -0.57 M237.55 1.73 C236.42 21.29, 236.79 44.11, 239.59 74.41 M238.05 -0.47 C237.57 19.06, 237.96 40.01, 238.83 74.8 M236.81 76.41 C163.97 74.34, 88.9 73.48, 1.28 74.6 M237.53 74.88 C156.74 76.22, 75.17 76, 0.82 75.97 M-1.46 77.18 C0.64 57.63, 0.16 41.86, -1.12 0.64 M0.44 76.39 C0.05 52.89, 1.32 30.18, 0.96 -0.81" stroke="#000000" stroke-width="1" fill="none"></path></g><g transform="translate(381.4999999999999 312.71428571428567) rotate(0 48 23)"><text x="48" y="33" font-family="Virgil, Segoe UI Emoji" font-size="36px" fill="#000000" text-anchor="middle" style="white-space: pre;" direction="ltr">BinOp</text></g><g stroke-linecap="round" transform="translate(10 441.9999999999999) rotate(0 118.99999999999983 37.71428571428572)"><path d="M0.67 1.19 C92.25 1.08, 186.29 2.73, 239.3 -1.51 M-0.61 0.78 C93.62 -1.02, 185.96 -0.21, 237.94 0.23 M237.98 -1.72 C239.35 23.22, 240.47 46.09, 239.05 76.55 M238.81 0.06 C239.06 19.02, 238.63 36.19, 238.71 75.97 M238.45 76.78 C189.18 75.37, 139.33 73.89, 1.1 77.08 M238.04 74.73 C171.98 74.34, 107.73 74.64, -0.27 76.06 M-0.38 75.44 C-0.59 58.29, -0.43 42.81, 0.02 1.29 M-0.59 75.27 C1.45 58.83, 0.7 42.37, -0.26 -0.23" stroke="#000000" stroke-width="1" fill="none"></path></g><g transform="translate(47.999999999999886 456.71428571428555) rotate(0 81 23)"><text x="81" y="33" font-family="Virgil, Segoe UI Emoji" font-size="36px" fill="#000000" text-anchor="middle" style="white-space: pre;" direction="ltr">Constant</text></g><g stroke-linecap="round" transform="translate(310.5 441.9999999999999) rotate(0 118.99999999999983 37.71428571428572)"><path d="M0.84 0.26 C78.73 0.88, 155.38 1.09, 238.73 -1.34 M0.07 -0.21 C55.93 0.47, 111.65 0.81, 237.32 0.09 M239.71 0.26 C237.3 23.59, 238.65 52.03, 238.98 76.02 M237.4 0.98 C237.18 20.59, 237.27 42.96, 238.08 75.93 M237.8 75.42 C156.98 76.4, 76.07 74.54, -1.41 76.69 M237.42 75.98 C187.63 76.1, 137.63 76, -0.16 75.08 M0.79 75 C0.81 59.65, -1.58 40.13, -0.96 1.19 M-0.01 76.06 C-0.79 46.49, -0.39 19.96, -0.97 0.44" stroke="#000000" stroke-width="1" fill="none"></path></g><g transform="translate(361.4999999999999 456.71428571428555) rotate(0 68 23)"><text x="68" y="33" font-family="Virgil, Segoe UI Emoji" font-size="36px" fill="#000000" text-anchor="middle" style="white-space: pre;" direction="ltr">CallPipe</text></g><g stroke-linecap="round" transform="translate(610.9999999999999 441.9999999999999) rotate(0 118.99999999999989 37.71428571428572)"><path d="M0.16 -0.36 C82.58 -1.85, 162.71 -2.01, 236.91 -0.6 M0.22 0.8 C79.05 0.47, 159.25 0.92, 238.59 -0.01 M236.4 -1.97 C237.19 20.61, 236.04 40.34, 237.33 75.36 M237.31 0.68 C238.1 27.71, 239.44 53.81, 237.73 74.46 M238.19 76.85 C188.09 74.85, 139.49 73.1, 1.59 77.01 M237.61 76.17 C156.03 74.4, 74.88 75.58, -0.44 75.37 M-1.88 75.1 C-1.13 52.64, -1.29 32.22, -1.17 1.79 M-0.4 74.69 C-1.36 48.62, 0.24 21.79, -0.13 -0.64" stroke="#000000" stroke-width="1" fill="none"></path></g><g transform="translate(684.4999999999999 456.71428571428555) rotate(0 45.5 23)"><text x="45.5" y="33" font-family="Virgil, Segoe UI Emoji" font-size="36px" fill="#000000" text-anchor="middle" style="white-space: pre;" direction="ltr">Name</text></g><g stroke-linecap="round" transform="translate(610.9999999999999 585.9999999999999) rotate(0 118.99999999999989 37.71428571428572)"><path d="M-0.61 -0.46 C88.36 1.29, 178.36 1.28, 237.43 -0.11 M0.42 0.2 C78.11 1.48, 158.56 1.02, 238.24 0.34 M236.43 -0.99 C238.86 22.13, 237.97 48.85, 236.94 74.35 M238.33 -0.31 C237.86 27.69, 238.99 55.64, 238.22 75.06 M237.37 74.85 C166.85 76.55, 97.71 76.24, -0.43 76.17 M237.87 75.92 C159.7 76.67, 82.56 77.88, -0.5 75.55 M1.64 76.44 C0.58 59.42, -1.7 44.99, -1.19 -0.04 M0.46 75.77 C-0.44 56.72, 0.72 37.74, -0.46 -0.65" stroke="#000000" stroke-width="1" fill="none"></path></g><g transform="translate(686.4999999999999 600.7142857142856) rotate(0 43.5 23)"><text x="43.5" y="33" font-family="Virgil, Segoe UI Emoji" font-size="36px" fill="#000000" text-anchor="middle" style="white-space: pre;" direction="ltr">Load</text></g><g stroke-linecap="round"><g transform="translate(426.2499999999999 92.2142857142857) rotate(0 -0.5724057609174906 26.150715910112467)"><path d="M0.3 0.95 C0.18 9.61, -0.3 42.25, -0.3 50.93 M-1 0.4 C-1.35 9.27, -1.52 43.44, -1.41 51.9" stroke="#000000" stroke-width="1" fill="none"></path></g><g transform="translate(426.2499999999999 92.2142857142857) rotate(0 -0.5724057609174906 26.150715910112467)"><path d="M-8.77 26.98 C-9.35 36.14, -2.9 43.78, -2.22 52.89 M-10.1 26.98 C-8.38 32.63, -5.67 39.45, -1.71 52.41" stroke="#000000" stroke-width="1" fill="none"></path></g><g transform="translate(426.2499999999999 92.2142857142857) rotate(0 -0.5724057609174906 26.150715910112467)"><path d="M9.01 26.95 C2.46 36.16, 2.93 43.81, -2.22 52.89 M7.68 26.94 C5.06 32.66, 3.42 39.48, -1.71 52.41" stroke="#000000" stroke-width="1" fill="none"></path></g></g><g stroke-linecap="round"><g transform="translate(424.2499999999999 238.2142857142857) rotate(0 0.01878257963676333 25.422824822580424)"><path d="M0.39 0.9 C0.55 9.17, 0.97 40.81, 0.9 48.99 M-0.87 0.32 C-0.78 8.85, 0.41 42.55, 0.43 50.52" stroke="#000000" stroke-width="1" fill="none"></path></g><g transform="translate(424.2499999999999 238.2142857142857) rotate(0 0.01878257963676333 25.422824822580424)"><path d="M-6.94 29.18 C-5.98 34.31, -1.73 39.34, 0.88 51.02 M-8.98 28.04 C-5.19 35.17, -3.07 41.34, -0.24 50.89" stroke="#000000" stroke-width="1" fill="none"></path></g><g transform="translate(424.2499999999999 238.2142857142857) rotate(0 0.01878257963676333 25.422824822580424)"><path d="M9.82 28.83 C5.87 34.12, 5.21 39.25, 0.88 51.02 M7.78 27.68 C6.35 35.06, 3.26 41.33, -0.24 50.89" stroke="#000000" stroke-width="1" fill="none"></path></g></g><g stroke-linecap="round"><g transform="translate(423.2499999999999 380.21428571428567) rotate(0 -1.0227738482085442 24.413024767851482)"><path d="M-0.18 0.59 C-0.2 8.47, -0.58 39.73, -0.44 47.63 M-1.73 -0.14 C-1.93 7.88, -1.94 40.74, -1.63 48.97" stroke="#000000" stroke-width="1" fill="none"></path></g><g transform="translate(423.2499999999999 380.21428571428567) rotate(0 -1.0227738482085442 24.413024767851482)"><path d="M-9.2 25.81 C-8.37 33.79, -5.45 38.57, -2.11 49.3 M-9.27 27.11 C-8.35 33.61, -5.49 40.77, -0.64 49.42" stroke="#000000" stroke-width="1" fill="none"></path></g><g transform="translate(423.2499999999999 380.21428571428567) rotate(0 -1.0227738482085442 24.413024767851482)"><path d="M7.21 25.55 C3.5 33.58, 1.87 38.43, -2.11 49.3 M7.14 26.86 C2.53 33.52, -0.15 40.76, -0.64 49.42" stroke="#000000" stroke-width="1" fill="none"></path></g></g><g stroke-linecap="round"><g transform="translate(422.2499999999999 381.21428571428567) rotate(0 -135.57407874177682 23.730932017001322)"><path d="M0.45 0.67 C-44.72 8.5, -225.23 39.9, -270.43 47.49 M-0.77 -0.03 C-46.19 7.4, -227.03 37.76, -271.6 45.62" stroke="#000000" stroke-width="1" fill="none"></path></g><g transform="translate(422.2499999999999 381.21428571428567) rotate(0 -135.57407874177682 23.730932017001322)"><path d="M-244.43 30.03 C-253.79 34.85, -265.01 42.51, -273.29 45.05 M-244.64 29.86 C-254.24 36.17, -262.56 41.22, -271.07 45.02" stroke="#000000" stroke-width="1" fill="none"></path></g><g transform="translate(422.2499999999999 381.21428571428567) rotate(0 -135.57407874177682 23.730932017001322)"><path d="M-240.97 50.26 C-251.62 48.01, -264.05 48.6, -273.29 45.05 M-241.17 50.08 C-251.95 49.44, -261.46 47.57, -271.07 45.02" stroke="#000000" stroke-width="1" fill="none"></path></g></g><g stroke-linecap="round"><g transform="translate(423.2499999999999 381.21428571428567) rotate(0 149.19978656594174 24.336824152055186)"><path d="M0.5 -1.15 C50.27 6.81, 249.4 40.17, 299.1 48.88 M-0.7 0.86 C48.89 9.44, 248.47 41.75, 298.2 49.83" stroke="#000000" stroke-width="1" fill="none"></path></g><g transform="translate(423.2499999999999 381.21428571428567) rotate(0 149.19978656594174 24.336824152055186)"><path d="M266.81 55.6 C276.79 52.83, 290.45 51.56, 298.87 49.1 M268.4 55.67 C276.28 54.64, 282.84 53.24, 298.2 49.46" stroke="#000000" stroke-width="1" fill="none"></path></g><g transform="translate(423.2499999999999 381.21428571428567) rotate(0 149.19978656594174 24.336824152055186)"><path d="M270.1 35.34 C279.15 39.45, 291.7 45.04, 298.87 49.1 M271.69 35.42 C278.86 39.39, 284.61 43.01, 298.2 49.46" stroke="#000000" stroke-width="1" fill="none"></path></g></g><g stroke-linecap="round"><g transform="translate(731.2499999999999 526.2142857142857) rotate(0 -0.015983859067773665 23.05719887614248)"><path d="M-0.68 -0.53 C-0.87 7.32, -0.32 38.82, -0.51 46.64 M1.16 1.81 C0.8 9.34, -1.11 37.78, -1.2 44.86" stroke="#000000" stroke-width="1" fill="none"></path></g><g transform="translate(731.2499999999999 526.2142857142857) rotate(0 -0.015983859067773665 23.05719887614248)"><path d="M-9.01 23.75 C-4.67 29.42, -2.57 38.35, 0.19 45.26 M-9.12 22.34 C-5.87 31.73, -2.84 38.87, -1.27 44.46" stroke="#000000" stroke-width="1" fill="none"></path></g><g transform="translate(731.2499999999999 526.2142857142857) rotate(0 -0.015983859067773665 23.05719887614248)"><path d="M6.72 24.43 C5.47 29.77, 1.99 38.46, 0.19 45.26 M6.6 23.02 C4.18 32.17, 1.52 39.07, -1.27 44.46" stroke="#000000" stroke-width="1" fill="none"></path></g></g></svg>