<?xml version="1.0" encoding="UTF-8" standalone="no"?>
<!-- Created with Inkscape (http://www.inkscape.org/) -->

<svg
   xmlns:dc="http://purl.org/dc/elements/1.1/"
   xmlns:cc="http://creativecommons.org/ns#"
   xmlns:rdf="http://www.w3.org/1999/02/22-rdf-syntax-ns#"
   xmlns:svg="http://www.w3.org/2000/svg"
   xmlns="http://www.w3.org/2000/svg"
   xmlns:sodipodi="http://sodipodi.sourceforge.net/DTD/sodipodi-0.dtd"
   xmlns:inkscape="http://www.inkscape.org/namespaces/inkscape"
   version="1.1"
   id="svg2"
   xml:space="preserve"
   width="73.02729"
   height="73.841476"
   viewBox="0 0 73.02729 73.841476"
   sodipodi:docname="ep2020_2022-logo-device.svg"
   inkscape:version="0.92.5 (2060ec1f9f, 2020-04-08)"><metadata
     id="metadata8"><rdf:RDF><cc:Work
         rdf:about=""><dc:format>image/svg+xml</dc:format><dc:type
           rdf:resource="http://purl.org/dc/dcmitype/StillImage" /><dc:title></dc:title></cc:Work></rdf:RDF></metadata><defs
     id="defs6"><clipPath
       clipPathUnits="userSpaceOnUse"
       id="clipPath22"><path
         d="M 0,0 V 62.362 H 62.362 V 0 Z"
         id="path20"
         inkscape:connector-curvature="0"
         style="clip-rule:evenodd" /></clipPath></defs><sodipodi:namedview
     pagecolor="#ffffff"
     bordercolor="#666666"
     borderopacity="1"
     objecttolerance="10"
     gridtolerance="10"
     guidetolerance="10"
     inkscape:pageopacity="0"
     inkscape:pageshadow="2"
     inkscape:window-width="1920"
     inkscape:window-height="1043"
     id="namedview4"
     showgrid="false"
     fit-margin-top="0"
     fit-margin-left="0"
     fit-margin-right="0"
     fit-margin-bottom="0"
     inkscape:zoom="2.838267"
     inkscape:cx="-28.487683"
     inkscape:cy="38.328795"
     inkscape:window-x="0"
     inkscape:window-y="0"
     inkscape:window-maximized="1"
     inkscape:current-layer="g10" /><g
     id="g10"
     inkscape:groupmode="layer"
     inkscape:label="ep2020_2022-logo-device"
     transform="matrix(1.3333333,0,0,-1.3333333,-5.7625481,77.087355)"><g
       id="g905"
       transform="translate(-76.895516,31.709491)"><g
         transform="translate(77.424007,-32.766474)"
         id="g24"><g
           id="g26"><path
             d="m 38.566,12.891 c 1.369,0 2.484,-1.119 2.484,-2.504 0,-1.397 -1.115,-2.527 -2.484,-2.527 -1.365,0 -2.475,1.13 -2.475,2.527 0,1.385 1.11,2.504 2.475,2.504 z m 7.423,31.866 v -5.876 c 0,-4.544 -3.854,-8.376 -8.253,-8.376 H 24.543 c -3.109,0 -5.757,-2.286 -6.436,-5.229 -0.111,-0.481 -0.172,-0.978 -0.172,-1.484 V 11.215 c 0,-3.583 3.114,-5.688 6.608,-6.718 4.182,-1.227 8.19,-1.45 13.197,0 3.328,0.967 6.608,2.899 6.608,6.718 v 5.036 H 31.145 v 1.676 h 13.199 6.6 c 3.843,0 5.272,2.683 6.605,6.698 1.385,4.14 1.321,8.116 0,13.424 -0.947,3.83 -2.758,6.708 -6.605,6.708 z"
             style="fill:#ed7b18;fill-opacity:1;fill-rule:nonzero;stroke:none"
             id="path28"
             inkscape:connector-curvature="0" /></g></g><g
         transform="translate(77.424007,-32.766474)"
         id="g30"><g
           id="g32"><path
             d="m 23.704,54.823 c 1.363,0 2.477,-1.129 2.477,-2.528 0,-1.382 -1.114,-2.507 -2.477,-2.507 -1.369,0 -2.479,1.125 -2.479,2.507 0,1.395 1.11,2.528 2.479,2.528 z m 7.148,4.049 C 28.588,58.858 26.433,58.667 24.535,58.336 18.946,57.342 17.928,55.272 17.933,51.46 v -5.033 l 13.21,0.007 v -1.677 l -13.21,-0.006 h -4.957 c -3.842,0 -7.202,-2.31 -8.252,-6.707 C 3.507,33.013 3.459,29.875 4.726,24.615 5.667,20.702 7.908,17.921 11.75,17.921 h 4.545 v 6.03 c 0,4.363 3.77,8.212 8.254,8.212 l 13.195,0.004 c 3.671,0 6.607,3.029 6.604,6.714 L 44.34,51.47 c 0,3.58 -3.022,6.267 -6.609,6.87 -2.27,0.373 -4.625,0.543 -6.879,0.532 z"
             style="fill:#3ead41;fill-opacity:1;fill-rule:nonzero;stroke:none"
             id="path34"
             inkscape:connector-curvature="0" /></g></g><g
         transform="translate(77.424007,-32.766474)"
         id="g36"><g
           id="g38"><path
             d="m 44.344,48.395 v 3.071 c 0,0.215 -0.014,0.425 -0.039,0.631 -0.004,0.037 -0.009,0.073 -0.014,0.108 -0.011,0.097 -0.021,0.199 -0.038,0.297 -0.003,0 -0.009,0 -0.009,0 -0.514,3.056 -3.278,5.295 -6.513,5.834 -2.195,0.365 -4.461,0.536 -6.649,0.536 -0.075,0 -0.152,0 -0.235,0 -2.259,-0.01 -4.414,-0.205 -6.312,-0.536 -0.592,-0.107 -1.129,-0.222 -1.621,-0.353 -0.003,0 -0.013,-0.004 -0.017,-0.004 -4.157,-1.099 -4.969,-3.111 -4.969,-6.513 v -5.032 l 11.134,0.002 c 0,0 0,0 0,0 h 2.077 V 44.764 L 20.331,44.758 c 0,0 0,0 0,0 h -1.904 c 0,0 0,0 0,0 h -0.494 -4.957 c -0.146,0 -0.286,-0.007 -0.425,-0.015 0,0 -0.004,0 -0.004,0.004 -0.021,0 -0.039,-0.004 -0.06,-0.004 C 12.308,44.734 12.13,44.718 11.955,44.7 11.905,44.697 11.848,44.689 11.798,44.683 11.627,44.661 11.456,44.632 11.287,44.602 11.233,44.593 11.177,44.582 11.12,44.568 10.96,44.534 10.798,44.497 10.64,44.454 10.581,44.436 10.517,44.42 10.458,44.401 10.309,44.361 10.155,44.309 10.01,44.258 9.942,44.234 9.878,44.211 9.814,44.186 9.673,44.13 9.539,44.073 9.403,44.015 9.329,43.982 9.257,43.947 9.189,43.912 9.061,43.854 8.938,43.79 8.815,43.722 8.739,43.679 8.661,43.633 8.586,43.584 8.475,43.517 8.361,43.449 8.254,43.379 8.175,43.322 8.092,43.262 8.011,43.208 7.912,43.135 7.815,43.062 7.717,42.984 7.633,42.919 7.548,42.846 7.462,42.769 7.377,42.695 7.291,42.62 7.212,42.543 7.123,42.459 7.037,42.367 6.952,42.28 6.88,42.202 6.807,42.131 6.74,42.054 6.651,41.952 6.561,41.842 6.476,41.736 6.416,41.663 6.356,41.589 6.302,41.515 6.209,41.39 6.123,41.258 6.038,41.127 5.991,41.058 5.943,40.995 5.902,40.921 5.806,40.774 5.721,40.617 5.638,40.455 5.607,40.396 5.574,40.339 5.539,40.28 5.448,40.093 5.356,39.897 5.272,39.701 5.253,39.664 5.237,39.63 5.22,39.59 5.024,39.111 4.856,38.598 4.726,38.055 4.65,37.745 4.582,37.448 4.518,37.149 4.51,37.116 4.504,37.081 4.498,37.048 4.446,36.822 4.397,36.599 4.357,36.383 4.332,36.256 4.308,36.133 4.285,36.003 4.264,35.885 4.239,35.763 4.217,35.644 4.187,35.485 4.161,35.332 4.136,35.18 4.132,35.146 4.123,35.112 4.118,35.078 c 0,0 0,0 0,0 -0.272,-1.687 -0.368,-3.226 -0.285,-4.83 0,0 0,0 0,0 0,-0.034 0.005,-0.068 0.01,-0.101 0.007,-0.169 0.021,-0.345 0.035,-0.52 0.006,-0.084 0.01,-0.171 0.019,-0.255 0.014,-0.156 0.031,-0.314 0.047,-0.471 0.013,-0.129 0.028,-0.257 0.048,-0.385 0.017,-0.122 0.028,-0.24 0.047,-0.365 0.029,-0.195 0.058,-0.401 0.093,-0.599 0.007,-0.064 0.021,-0.125 0.029,-0.189 0.006,-0.024 0.01,-0.045 0.013,-0.068 0,0 0,0 0,0 0.115,-0.667 0.26,-1.369 0.429,-2.108 0,0 0,0 0,0 0.043,-0.18 0.082,-0.357 0.123,-0.542 0.223,-0.921 0.52,-1.776 0.89,-2.552 0.027,-0.05 0.047,-0.104 0.072,-0.157 0.004,-0.014 0.01,-0.021 0.019,-0.034 0,0 0,0 0.001,0 0.155,-0.307 0.326,-0.597 0.502,-0.876 0.006,-0.008 0.006,-0.018 0.01,-0.021 0.025,-0.043 0.054,-0.077 0.082,-0.121 0.036,-0.054 0.071,-0.105 0.11,-0.16 0.082,-0.113 0.161,-0.221 0.247,-0.329 0.039,-0.044 0.071,-0.092 0.107,-0.136 0.007,-0.006 0.017,-0.02 0.024,-0.029 0.006,0 0.006,-0.004 0.008,-0.004 0.856,-1.022 1.941,-1.741 3.269,-2.073 0.071,-0.016 0.143,-0.039 0.221,-0.054 0.126,-0.026 0.258,-0.047 0.386,-0.068 0.043,-0.01 0.086,-0.017 0.132,-0.021 -0.004,0 -0.008,0.004 -0.014,0.004 0.307,-0.039 0.627,-0.068 0.953,-0.068 h 4.545 v 6.032 c 0,4.359 3.769,8.211 8.253,8.211 h 6.722 c 0,0 0,0 0,0 h 6.034 c 0,0 0,0 0,0.004 h 0.437 c 0.587,0 1.148,0.084 1.69,0.23 0,-0.004 0.004,-0.004 0.004,-0.01 0.055,0.019 0.104,0.04 0.161,0.057 0.098,0.03 0.192,0.06 0.285,0.094 0.114,0.037 0.23,0.078 0.341,0.128 0.098,0.04 0.196,0.084 0.288,0.131 0.071,0.034 0.144,0.058 0.213,0.098 -0.005,0 -0.005,0.004 -0.007,0.004 2.156,1.11 3.629,3.384 3.623,5.986 v 4.757 c 0,0 0,0 0,0 v 3.716 c 0,0 0,0 0,0 l 0.01,1.011 c 0,0 0,0 0,0 z m -20.059,1.462 c -0.083,-0.02 -0.167,-0.034 -0.253,-0.049 -0.012,0 -0.025,-0.004 -0.039,-0.004 -0.091,-0.011 -0.186,-0.016 -0.284,-0.016 0,0 -0.005,0 -0.005,0 -0.011,0 -0.025,0 -0.038,0 -0.067,0 -0.13,0.005 -0.194,0.009 -0.039,0.004 -0.076,0.007 -0.116,0.017 -0.038,0.004 -0.078,0.009 -0.116,0.018 -0.04,0.007 -0.083,0.015 -0.127,0.029 -0.03,0.007 -0.06,0.017 -0.088,0.025 -0.047,0.014 -0.09,0.029 -0.135,0.043 -0.027,0.007 -0.047,0.017 -0.075,0.026 -0.046,0.017 -0.096,0.038 -0.144,0.059 -0.017,0.009 -0.034,0.018 -0.05,0.025 -0.052,0.025 -0.102,0.051 -0.155,0.082 -0.004,0.004 -0.011,0.009 -0.015,0.011 -0.605,0.362 -1.044,0.971 -1.179,1.691 0,0 -0.003,0.004 -0.003,0.004 -0.024,0.114 -0.035,0.229 -0.04,0.343 0,0 0.005,0 0.005,0 0,0.044 -0.005,0.082 -0.005,0.125 0,1.395 1.111,2.528 2.475,2.528 0.018,0 0.035,-0.006 0.057,-0.006 0.069,0 0.141,-0.003 0.209,-0.013 0.042,-0.004 0.08,-0.014 0.119,-0.018 0.041,-0.007 0.089,-0.011 0.132,-0.02 0.041,-0.009 0.085,-0.02 0.127,-0.034 0.039,-0.012 0.08,-0.021 0.119,-0.034 0.042,-0.012 0.086,-0.03 0.122,-0.047 0.038,-0.012 0.078,-0.029 0.112,-0.047 0.037,-0.018 0.081,-0.039 0.118,-0.06 0.04,-0.018 0.073,-0.037 0.107,-0.058 0.038,-0.022 0.072,-0.043 0.112,-0.068 0.033,-0.022 0.067,-0.049 0.101,-0.074 0.034,-0.023 0.07,-0.05 0.103,-0.076 0.032,-0.025 0.062,-0.054 0.093,-0.081 0.03,-0.028 0.064,-0.055 0.094,-0.086 0.03,-0.029 0.054,-0.059 0.084,-0.089 0.414,-0.45 0.668,-1.055 0.668,-1.717 0,-1.18 -0.812,-2.17 -1.896,-2.438 z M 4.65,27.006 C 4.993,26.831 5.36,26.697 5.727,26.578 6.123,26.449 6.523,26.34 6.924,26.244 6.537,26.135 6.147,26.011 5.769,25.858 5.488,25.748 5.217,25.619 4.97,25.459 4.846,25.99 4.739,26.503 4.65,27.006 Z m 33.09,5.595 h -0.327 c 0.154,0.575 0.283,1.153 0.391,1.74 0.345,-0.348 0.914,-0.961 1.362,-1.565 -0.459,-0.11 -0.937,-0.175 -1.426,-0.175 z m 6.176,14.512 c -0.173,-0.121 -0.334,-0.254 -0.475,-0.421 -0.469,-0.57 -0.578,-1.213 -0.324,-1.896 0.162,-0.444 0.435,-0.763 0.799,-0.972 V 38.89 c 0,-2.552 -1.506,-4.752 -3.658,-5.735 -0.718,0.455 -1.551,1.233 -1.986,1.659 1.092,0.2 2.172,0.443 3.213,0.859 0.493,0.201 0.978,0.431 1.328,0.852 0.466,0.567 0.578,1.212 0.321,1.895 -0.25,0.677 -0.756,1.078 -1.467,1.21 -0.162,0.029 -0.33,0.029 -0.495,0.043 0,0.038 0,0.071 0,0.106 0.028,0.858 -0.5,1.604 -1.321,1.874 -0.796,0.265 -1.681,-0.047 -2.165,-0.739 -0.348,-0.498 -0.558,-1.055 -0.745,-1.625 -0.051,-0.158 -0.095,-0.316 -0.141,-0.472 -0.155,0.634 -0.337,1.258 -0.581,1.868 -0.201,0.493 -0.431,0.978 -0.852,1.325 -0.571,0.47 -1.213,0.581 -1.897,0.327 -0.678,-0.253 -1.077,-0.762 -1.21,-1.47 -0.029,-0.161 -0.029,-0.327 -0.042,-0.495 -0.038,0 -0.071,0 -0.106,0.006 -0.861,0.025 -1.603,-0.502 -1.877,-1.322 -0.263,-0.796 0.048,-1.681 0.739,-2.166 0.499,-0.351 1.056,-0.557 1.627,-0.746 0.396,-0.127 0.796,-0.236 1.197,-0.333 -0.389,-0.108 -0.777,-0.23 -1.155,-0.385 -0.492,-0.198 -0.977,-0.428 -1.328,-0.851 -0.468,-0.569 -0.577,-1.212 -0.321,-1.897 0.007,-0.026 0.02,-0.046 0.033,-0.073 h -6.488 c -2.273,0 -4.443,-0.921 -6.11,-2.593 -1.634,-1.638 -2.568,-3.843 -2.568,-6.043 v -5.607 h -4.118 c -1.251,0 -2.707,0.323 -3.982,1.447 0.688,-0.082 1.386,0.229 1.799,0.817 0.35,0.497 0.557,1.056 0.746,1.623 0.27,0.832 0.457,1.678 0.611,2.538 0.502,-0.51 1.506,-1.588 1.87,-2.366 0.432,-0.91 0.401,-1.056 0.401,-1.056 l 0.809,0.81 v 0 l 0.809,0.808 c 0,0 -0.142,-0.03 -1.056,0.399 -0.778,0.367 -1.853,1.37 -2.364,1.873 1.092,0.2 2.172,0.442 3.21,0.86 0.493,0.199 0.978,0.428 1.328,0.85 0.47,0.569 0.578,1.213 0.323,1.898 -0.25,0.675 -0.756,1.076 -1.467,1.207 -0.162,0.03 -0.327,0.03 -0.494,0.041 0,0.039 0,0.073 0,0.107 0.025,0.86 -0.501,1.604 -1.324,1.877 -0.793,0.264 -1.681,-0.047 -2.164,-0.741 C 10.449,30.858 10.239,30.3 10.053,29.729 10.002,29.573 9.96,29.416 9.912,29.258 9.76,29.891 9.575,30.517 9.335,31.124 9.134,31.617 8.904,32.105 8.483,32.453 7.912,32.921 7.272,33.03 6.587,32.776 5.91,32.524 5.51,32.018 5.378,31.307 5.349,31.146 5.349,30.98 5.336,30.814 c -0.04,0 -0.073,0 -0.108,0.004 -0.366,0.01 -0.71,-0.081 -1.007,-0.253 -0.054,1.385 0.038,2.747 0.264,4.233 0.111,-0.066 0.225,-0.116 0.347,-0.16 0.798,-0.263 1.681,0.048 2.166,0.741 0.351,0.496 0.557,1.056 0.746,1.625 0.271,0.83 0.459,1.676 0.613,2.536 0.503,-0.511 1.505,-1.588 1.871,-2.365 0.428,-0.91 0.399,-1.055 0.399,-1.055 l 0.809,0.807 v 0 l 0.808,0.81 c 0,0 -0.142,-0.029 -1.056,0.397 -0.778,0.367 -1.853,1.372 -2.366,1.873 1.095,0.2 2.175,0.443 3.212,0.86 0.494,0.2 0.981,0.429 1.33,0.85 0.468,0.572 0.576,1.213 0.322,1.898 -0.107,0.293 -0.264,0.532 -0.464,0.718 h 4.682 c -0.21,-0.246 -0.356,-0.547 -0.424,-0.91 -0.03,-0.161 -0.03,-0.328 -0.04,-0.493 -0.039,0 -0.074,0 -0.108,0.004 -0.86,0.028 -1.602,-0.5 -1.876,-1.321 -0.264,-0.796 0.047,-1.68 0.742,-2.168 0.496,-0.348 1.053,-0.555 1.623,-0.744 0.397,-0.127 0.797,-0.238 1.196,-0.329 -0.388,-0.112 -0.775,-0.238 -1.152,-0.39 -0.493,-0.197 -0.981,-0.429 -1.329,-0.85 -0.469,-0.569 -0.577,-1.213 -0.323,-1.898 0.252,-0.675 0.758,-1.076 1.469,-1.207 0.161,-0.03 0.326,-0.03 0.492,-0.04 0,-0.038 0,-0.071 -0.003,-0.106 -0.027,-0.858 0.501,-1.604 1.322,-1.874 0.798,-0.265 1.681,0.045 2.166,0.739 0.348,0.499 0.557,1.055 0.744,1.626 0.272,0.828 0.46,1.674 0.615,2.534 0.5,-0.509 1.503,-1.588 1.869,-2.366 0.43,-0.91 0.4,-1.055 0.4,-1.055 l 0.808,0.809 v 0 l 0.81,0.809 c 0,0 -0.141,-0.031 -1.055,0.4 -0.779,0.365 -1.857,1.369 -2.366,1.872 1.094,0.199 2.174,0.441 3.212,0.859 0.493,0.199 0.978,0.428 1.328,0.85 0.469,0.57 0.578,1.214 0.323,1.898 -0.251,0.677 -0.757,1.077 -1.468,1.209 -0.16,0.029 -0.327,0.029 -0.496,0.041 0,0.038 0,0.074 0.007,0.106 0.026,0.861 -0.502,1.604 -1.323,1.877 -0.797,0.264 -1.681,-0.045 -2.166,-0.739 -0.348,-0.499 -0.557,-1.055 -0.743,-1.627 -0.053,-0.156 -0.094,-0.314 -0.142,-0.47 -0.154,0.631 -0.336,1.258 -0.578,1.868 -0.159,0.393 -0.341,0.776 -0.621,1.092 l 10.299,0.004 h 0.052 c 0.134,-0.089 0.284,-0.166 0.446,-0.216 0.796,-0.264 1.681,0.045 2.165,0.738 0.348,0.499 0.557,1.056 0.745,1.628 0.272,0.827 0.459,1.676 0.613,2.533 0.5,-0.51 1.507,-1.585 1.871,-2.365 0.429,-0.915 0.399,-1.054 0.399,-1.054 l 0.808,0.809 v 0 l 0.81,0.807 c 0,0 -0.141,-0.031 -1.055,0.4 -0.779,0.367 -1.855,1.37 -2.366,1.871 1.094,0.202 2.174,0.442 3.212,0.86 0.494,0.202 0.978,0.431 1.328,0.852 0.468,0.568 0.579,1.211 0.323,1.898 -0.25,0.675 -0.758,1.075 -1.467,1.207 -0.161,0.03 -0.327,0.03 -0.494,0.043 0,0.037 0,0.072 0,0.105 0.026,0.859 -0.503,1.603 -1.323,1.876 -0.797,0.264 -1.679,-0.046 -2.167,-0.739 -0.347,-0.499 -0.556,-1.056 -0.742,-1.626 -0.051,-0.158 -0.094,-0.313 -0.142,-0.472 -0.152,0.634 -0.334,1.259 -0.582,1.869 -0.2,0.493 -0.431,0.978 -0.85,1.325 -0.572,0.468 -1.214,0.58 -1.898,0.324 -0.678,-0.25 -1.076,-0.756 -1.207,-1.467 -0.031,-0.163 -0.031,-0.328 -0.044,-0.493 -0.039,0 -0.073,0 -0.107,0.004 -0.86,0.024 -1.605,-0.503 -1.875,-1.325 -0.264,-0.793 0.045,-1.679 0.739,-2.164 0.499,-0.349 1.055,-0.557 1.625,-0.746 0.395,-0.127 0.796,-0.236 1.196,-0.331 -0.387,-0.109 -0.773,-0.232 -1.153,-0.387 -0.495,-0.201 -0.978,-0.431 -1.327,-0.852 -0.468,-0.567 -0.58,-1.211 -0.325,-1.896 0.068,-0.182 0.159,-0.343 0.264,-0.485 L 18.367,46.852 c 0.296,0.14 0.569,0.355 0.765,0.639 0.348,0.499 0.557,1.056 0.744,1.626 0.273,0.829 0.459,1.675 0.614,2.535 0.162,-0.167 0.382,-0.396 0.612,-0.655 0.2,-0.405 0.484,-0.754 0.838,-1.025 0.169,-0.239 0.317,-0.472 0.421,-0.686 0.429,-0.91 0.399,-1.056 0.399,-1.056 l 0.808,0.81 v 0 l 0.334,0.332 c 1.506,0.107 2.7,1.374 2.7,2.923 0,0.785 -0.307,1.501 -0.8,2.03 0.196,0.436 0.204,0.91 0.022,1.408 -0.253,0.676 -0.757,1.076 -1.467,1.208 -0.163,0.029 -0.327,0.029 -0.493,0.043 0,0.036 0,0.071 0,0.104 0.007,0.234 -0.034,0.456 -0.107,0.669 0.268,0.059 0.549,0.114 0.846,0.166 1.927,0.332 4.088,0.514 6.249,0.524 h 0.23 c 2.238,0 4.454,-0.181 6.576,-0.528 2.809,-0.469 5.638,-2.465 6.16,-5.458 -0.675,-0.129 -1.233,-0.605 -1.458,-1.284 -0.264,-0.796 0.048,-1.683 0.74,-2.166 0.256,-0.181 0.532,-0.32 0.813,-0.444 z"
             style="fill:#18653a;fill-opacity:1;fill-rule:nonzero;stroke:none"
             id="path40"
             inkscape:connector-curvature="0" /></g></g><g
         transform="translate(77.424007,-32.766474)"
         id="g42"><g
           id="g44"><path
             d="m 57.927,27.959 c -0.11,-0.728 -0.27,-1.442 -0.467,-2.161 -0.404,-0.518 -1.021,-0.812 -1.652,-0.934 -0.605,-0.117 -1.196,-0.069 -1.749,0.23 -1.032,0.553 -1.173,1.658 -0.431,2.498 0.773,0.862 1.762,1.125 2.89,0.882 0.029,-0.007 0.06,-0.012 0.093,-0.016 0.024,-0.004 0.048,-0.004 0.088,-0.014 0,2.425 0,4.85 0,7.284 -0.874,-0.157 -1.742,-0.314 -2.605,-0.471 -1.242,-0.229 -2.48,-0.468 -3.722,-0.682 -0.21,-0.035 -0.221,-0.123 -0.221,-0.289 0,-2.804 -0.009,-5.608 -0.013,-8.41 -0.005,-1.375 -0.772,-2.259 -2.14,-2.478 -0.036,-0.002 -1.159,-0.04 -1.844,0.333 -0.374,0.204 -0.624,0.517 -0.695,0.966 -0.091,0.553 0.078,1.024 0.445,1.418 0.779,0.827 1.741,1.1 2.855,0.857 0.05,-0.011 0.107,-0.011 0.175,-0.02 0,3.585 0,7.163 0,10.757 2.631,0.425 5.261,0.858 7.907,1.286 0.108,-0.336 0.205,-0.68 0.299,-1.051 0.352,-1.415 0.611,-2.716 0.777,-3.951 -0.001,-2.009 -0.001,-4.021 0.01,-6.034 z m -26.794,2.124 c 0.931,-1.441 3.595,-5.97 4.548,-11.731 h -2.778 c -0.106,0.563 -0.247,1.129 -0.421,1.712 -0.966,3.212 -1.994,5.168 -2.786,6.321 V 7.014 l 0.807,-1.388 0.252,0.378 c 0.033,0.051 2.683,4.13 2.441,9.824 h 2.778 c 0.094,-1.44 0.064,-2.937 -0.136,-4.461 -0.111,-0.31 -0.175,-0.637 -0.175,-0.984 0,-0.032 0.004,-0.061 0.004,-0.092 C 35.481,9.263 35.222,8.224 34.855,7.182 34.446,6.012 34.021,4.979 33.584,4.067 32.742,3.964 31.911,3.916 31.091,3.916 c -2.093,0 -4.141,0.314 -6.434,0.992 -0.96,0.283 -2.185,0.738 -3.305,1.443 -0.544,1.53 -1.208,3.418 -2.02,5.757 -0.328,0.95 -0.66,1.894 -0.978,2.818 v 8.866 c 0,0.466 0.056,0.935 0.157,1.39 0.464,1.995 1.851,3.599 3.617,4.381 0.02,-0.02 0.045,-0.045 0.07,-0.068 0.396,-0.383 0.685,-0.662 1.393,-0.548 0.459,0.073 1.035,0.523 1.629,1.133 h 5.913 z M 20.692,26.376 c -0.611,0.287 -0.93,0.531 -1.135,0.687 -0.018,0.012 -0.034,0.026 -0.05,0.037 v -2.578 l 1.19,-2.047 v 3.901 z m 2.043,-0.637 c -0.225,0.016 -0.451,0.055 -0.664,0.123 -0.186,0.059 -0.362,0.121 -0.523,0.175 v -5.011 l 1.191,-2.043 v 6.756 z m 2.039,0.333 C 24.382,25.936 23.982,25.829 23.582,25.774 V 17.52 l 1.192,-2.043 z m 2.037,0.987 c -0.35,-0.214 -0.755,-0.435 -1.191,-0.64 V 14.017 l 1.191,-2.04 z m 2.039,0.398 c -0.292,0.303 -0.468,0.425 -0.494,0.444 l -0.17,0.116 -0.162,-0.131 C 28.015,27.882 27.883,27.777 27.663,27.621 V 10.516 l 1.19,-2.045 v 18.986 z m 11.216,-4.811 c 0,-0.08 0,-0.165 0,-0.216 -0.365,0.015 -0.708,0.068 -1.049,0.038 -0.802,-0.077 -1.463,-0.418 -1.903,-1.119 -0.425,-0.685 -0.217,-1.511 0.482,-1.905 0.531,-0.3 1.097,-0.354 1.692,-0.256 1.155,0.196 1.86,0.996 1.86,2.157 0.007,2.893 0.013,5.784 0.02,8.678 0,0.077 0,0.155 0,0.273 1.881,-0.27 2.97,-1.535 3.974,-2.934 -0.084,1.015 -0.515,1.869 -1.293,2.529 -0.489,0.414 -1.029,0.766 -1.535,1.163 -0.097,0.077 -0.192,0.152 -0.29,0.229 -0.613,-0.366 -1.273,-0.654 -1.966,-0.86 0.008,-2.595 0.008,-5.187 0.008,-7.777 z"
             style="fill:#f5bd89;fill-opacity:1;fill-rule:nonzero;stroke:none"
             id="path46"
             inkscape:connector-curvature="0" /></g></g></g></g></svg>