<svg id="Layer_2" data-name="Layer 2" xmlns="http://www.w3.org/2000/svg" viewBox="0 0 403.96 110"><text transform="translate(131.82 67.05)" style="font-size:53.47687911987305px;fill:#5a5a5d;font-family:NeutraText-Bold, Neutra Text;font-weight:700;letter-spacing:-0.009998114653465388em">C<tspan x="37.7" y="0" style="letter-spacing:-0.020005360005244444em">od</tspan><tspan x="94.17" y="0" style="letter-spacing:-0.004985361279262194em">e</tspan><tspan x="122.68" y="0" style="letter-spacing:-0.000018261396627334044em">smiths</tspan></text><text transform="translate(133.77 97.57)" style="font-size:20.42449951171875px;fill:#f58220;font-family:NeutraText-Bold, Neutra Text;font-weight:700">O<tspan x="16.34" y="0" style="letter-spacing:-0.014989466134743825em">r</tspan><tspan x="24.04" y="0" style="letter-spacing:-0.000023906644553020455em">dina S</tspan><tspan x="76.69" y="0" style="letter-spacing:-0.00999297742316255em">o</tspan><tspan x="87.62" y="0" style="letter-spacing:0.01004079071226859em">f</tspan><tspan x="95.63" y="0">t</tspan><tspan x="103.43" y="0" style="letter-spacing:-0.0199859548463251em">w</tspan><tspan x="117.09" y="0">a</tspan><tspan x="127.06" y="0" style="letter-spacing:-0.015013372779296846em">r</tspan><tspan x="134.76" y="0">e </tspan><tspan x="150.26" y="0" style="letter-spacing:-0.00999297742316255em">D</tspan><tspan x="164.05" y="0" style="letter-spacing:-0.0199859548463251em">e</tspan><tspan x="174.63" y="0" style="letter-spacing:-0.025006350202459397em">v</tspan><tspan x="184.12" y="0">elopme</tspan><tspan x="249.65" y="0" style="letter-spacing:-0.005020395356134295em">n</tspan><tspan x="260.37" y="0">t</tspan></text><rect x="12.16" y="12.16" width="85.69" height="85.69" transform="translate(-15.61 22.37) rotate(-20.2)" style="fill:#f58220"/><path d="M57,75.42a6.09,6.09,0,0,1,5.95-6.09V64.89H28.11a7.73,7.73,0,0,0,6.58,4.43c5.12.54,6.1,2.73,6.1,6.1a6.1,6.1,0,0,1-6.1,6.09v4.43H44.76c0-.12,0-.24,0-.36a4.27,4.27,0,1,1,8.54,0c0,.12,0,.24,0,.36h9.64V81.5A6.08,6.08,0,0,1,57,75.42Z" style="fill:#fff"/><rect x="46.13" y="39.68" width="44.58" height="4.73" rx="2.37" transform="translate(31.83 -29.44) rotate(31.32)" style="fill:#fff"/><rect x="51.47" y="24.11" width="12.17" height="23.92" transform="translate(27.14 -24.66) rotate(31.32)" style="fill:#fff"/><path d="M44.31,45.24H43l-1.23-2.09a3.42,3.42,0,0,1-.61-1.75,1.66,1.66,0,1,1,2.39,1.51Z" style="fill:#fff"/><path d="M39.37,45.24H38l-1.23-2.09a3.33,3.33,0,0,1-.61-1.75,1.66,1.66,0,1,1,2.39,1.51Z" style="fill:#fff"/><path d="M51.78,62.7H50.53V61H51.6c.41,0,.5-.18.5-.5V58.36a1.41,1.41,0,0,1,1.36-1.56,1.4,1.4,0,0,1-1.36-1.55V52.43c0-.33-.09-.5-.5-.5H50.53V50.26h1.25c1.18,0,2.31.45,2.31,2.11V55c0,.69.27,1,.84,1h.85v1.67h-.85c-.57,0-.84.28-.84,1v2C54.09,62.25,53,62.7,51.78,62.7Z" style="fill:#fff"/><path d="M48.19,55.88a1.24,1.24,0,1,1,1.25-1.24A1.22,1.22,0,0,1,48.19,55.88Zm0,3.37A1.24,1.24,0,1,1,49.44,58,1.22,1.22,0,0,1,48.19,59.25Z" style="fill:#fff"/><path d="M45.87,62.7H44.62c-1.18,0-2.31-.45-2.31-2.1v-2c0-.69-.27-1-.84-1h-.85V56h.85c.57,0,.84-.28.84-1V52.37c0-1.66,1.13-2.11,2.31-2.11h1.25v1.67H44.8c-.41,0-.5.17-.5.5v2.82a1.4,1.4,0,0,1-1.36,1.55,1.41,1.41,0,0,1,1.36,1.56v2.18c0,.32.09.5.5.5h1.07Z" style="fill:#fff"/></svg>