<svg version="1.1" xmlns="http://www.w3.org/2000/svg" viewBox="0 0 1105.7142857142858 439.99999999999955" width="2211.4285714285716" height="879.9999999999991">
  <!-- svg-source:excalidraw -->
  
  <defs>
    <style>
      @font-face {
        font-family: "Virgil";
        src: url("https://excalidraw.com/Virgil.woff2");
      }
      @font-face {
        font-family: "Cascadia";
        src: url("https://excalidraw.com/Cascadia.woff2");
      }
    </style>
  </defs>
  <g stroke-linecap="round" transform="translate(341.8412698412697 212.53968253968196) rotate(0 100.5 58.5)"><path d="M0 0 C0 0, 0 0, 0 0 M0 0 C0 0, 0 0, 0 0 M-0.97 6.2 C1.18 5.01, 3.33 2.1, 4.7 0.56 M-0.46 6.29 C1.34 5.02, 2.8 2.58, 4.95 0.02 M0.18 10.7 C1.92 10.81, 3.69 7.34, 11.32 0.47 M0.04 11.85 C3.77 6.74, 7.65 2.02, 10.26 -0.43 M1.35 19.76 C7.44 11.65, 12.76 3.35, 15.32 0 M-1 18.07 C3.44 12.79, 8.56 9.67, 16.49 1.12 M-0.44 23.3 C3.66 16.63, 12.08 11.68, 21.87 -0.19 M0.97 23.3 C5.17 18.38, 9.17 13.31, 21.91 -0.23 M-0.43 31.49 C5.83 23.52, 10.41 17.81, 26.85 -0.93 M0.73 30.5 C8.08 20.53, 18.94 9.66, 27 0.93 M0.29 35.88 C10.99 24.2, 21.78 10.5, 31.78 -1.9 M0.18 37.51 C7.75 27.58, 13.74 19.2, 32.59 -0.34 M-0.14 44.27 C10.02 32.15, 18.01 18.7, 37.82 1.49 M0.88 42.79 C12.62 26.71, 26.91 12.82, 37.02 0.16 M0.66 48.03 C11.09 32.79, 26.27 17.45, 41.94 1.12 M0.54 49.16 C13.18 32.24, 27.78 16.54, 41.91 -0.76 M0.92 53.76 C11.05 39.24, 25.6 25.63, 46.71 -0.83 M0.15 54.04 C11.81 41.42, 23.29 27.68, 47.38 -0.2 M0.47 62.4 C18.46 37.46, 36.97 17.51, 52.55 -0.94 M-0.79 60.98 C21.89 36.66, 41.27 12.68, 53.83 0.37 M0.31 68.88 C21.07 44.99, 40.91 18.29, 59.46 0.52 M-1.15 67.86 C11.56 52.65, 25.67 37.57, 57.16 0.58 M-0.32 73.42 C22.95 45.39, 45.88 20.77, 63.32 -1.44 M0.3 72.69 C17.24 53.37, 34.02 33.36, 64.55 0.66 M1.06 80.78 C17.52 55.23, 40.16 33.91, 69.55 -1.54 M-0.51 79.35 C25.93 48.4, 52.55 18.42, 69.69 0.97 M1.76 83.99 C27.62 57.65, 52.45 27.45, 73.46 -1.21 M0.12 85.79 C28.09 52.72, 55.57 22.41, 74.54 -0.54 M-0.3 91.38 C17.44 69.4, 39.32 47.52, 77.93 -1.59 M0.89 91.61 C18.48 70.2, 38.4 45.71, 78.56 -0.8 M1 98.29 C18.43 74.62, 39.3 50.56, 85.69 -0.58 M0.6 98.25 C25.18 68.74, 51.54 36.98, 84.5 -0.13 M0.97 102.34 C18.91 79.66, 39.19 60.36, 89.07 -1.73 M0.73 102.76 C28.35 70.33, 56.19 38.72, 89.6 -0.74 M1.18 110.71 C34.7 71.42, 66.1 32.81, 94.22 0.62 M-0.1 109.55 C23.59 83.09, 47 57.13, 95.38 -1.24 M1.06 115.84 C28.12 83.73, 55.51 55.95, 98.92 0.46 M0.99 114.64 C24.41 89.45, 48.22 62.89, 100.88 0.88 M2.24 119.42 C25.73 92.3, 49.69 65.15, 104.76 -0.97 M3.05 118.15 C37.28 79.22, 72.52 39.45, 106.4 -1.27 M6.91 118.22 C32.35 90.48, 57.44 63.6, 110.94 -0.11 M7.08 118.57 C32.29 90.14, 57.29 62.62, 110.74 -0.46 M14.87 119.29 C37.62 92.19, 59.91 65.59, 117.86 0.59 M12.63 118.5 C42.68 83.75, 70.87 50.53, 116.35 0.88 M17.79 121.19 C40.73 95.93, 60.38 71.68, 120.11 -0.02 M17.53 118.42 C56.14 76.42, 92.04 35, 121.77 0.46 M24.17 120.78 C63.38 76.07, 101.47 31.05, 127.54 1.45 M24.37 117.89 C48.26 94.59, 70.43 66.53, 126.25 -0.18 M29.13 120.19 C58.8 83.74, 91.2 48.72, 132.87 0.65 M29.76 119.08 C65.74 78.15, 102.16 37.2, 132.79 0.63 M34.6 117.81 C61.97 86.13, 87.37 55.58, 137.37 0.52 M34.09 118.28 C75.48 70.8, 115.93 25.03, 137.41 0.16 M39.14 119.36 C64.17 92.07, 89.11 63.43, 143.18 -1.7 M38.73 119.4 C80.55 73.36, 121.13 26.73, 142.9 0.78 M46.12 116.8 C81.28 78.9, 120.65 33.66, 147.04 0.48 M45.86 119.42 C73.23 87.16, 100.78 54.83, 148.04 -0.51 M49.53 119.39 C90.28 76.62, 125.93 31.56, 152.52 1.85 M49.65 119.98 C73.94 92.75, 96.28 66.45, 153.4 -0.62 M53.53 121.41 C90.35 83.5, 121.89 43.94, 159.78 0.48 M55.38 119.54 C82.8 89.28, 107.37 59.87, 158.58 1.18 M61.52 117.43 C90.79 81.76, 121.36 45.91, 165.84 0.71 M59.97 119.19 C95.57 78.85, 131.57 40.64, 163.91 0.68 M65.12 117.55 C91.05 89.43, 115.61 63.84, 170.29 0.19 M66.52 120.36 C101.53 77.49, 137.98 35.61, 169.75 0.33 M71.81 119.15 C95.95 91.62, 120.48 64.57, 175.6 0.81 M71.4 119.12 C96.8 92.14, 120.4 63.74, 174.23 0.65 M74.67 117.89 C103.25 90.92, 127.67 59.69, 180.79 -0.23 M75.48 119.62 C111.04 80.64, 146.24 40.41, 180.5 -0.2 M80.62 118.71 C120.85 73.71, 163.82 25.95, 185.76 0.55 M81.9 119.63 C120.01 74.96, 158.27 29.81, 186.46 -0.98 M88.16 118.84 C115.33 82.67, 146.07 47.42, 188.98 -0.11 M87.32 120.04 C124.72 76.25, 160.25 34.75, 190.04 0.18 M91.65 118.78 C117.61 89.93, 140.57 63.34, 195.78 -1.16 M93.67 118.33 C132.77 72.08, 172.35 27.69, 196.93 -0.74 M99.04 121.32 C131.61 78.87, 169.35 39.45, 200.08 1.72 M97.38 120.11 C131.35 78.81, 166.21 38.93, 201.83 -0.15 M104.12 118.52 C128.56 90.17, 150.93 61.43, 202.73 5.9 M103.17 118.57 C130.68 89.35, 157.08 58.47, 200.31 7.42 M108.28 118.73 C143.65 79.41, 177.9 39.52, 200.3 10.98 M109.25 120.05 C142.42 78.41, 175.26 40.41, 201.07 12.97 M112.74 117.59 C141.97 86.65, 173.66 51.59, 202.36 20.12 M113.11 119.46 C134.78 94.9, 157.01 69.74, 200.75 18.94 M120.33 121 C137.72 94.9, 159.43 74.58, 199.69 26.52 M118.76 119.85 C145.71 86.36, 171.82 55.2, 201.57 24.09 M123.72 120.16 C142.83 95.15, 165.08 73.55, 201.25 28.65 M124.45 119.86 C144.3 97.97, 161.24 75.41, 201.92 31.29 M131.16 118.54 C155.98 90.72, 179.45 60.88, 199.27 37.51 M129.98 119.24 C148.15 98.17, 168.36 74.34, 200.85 37.29 M134.77 118.89 C155.63 95.45, 180.57 67.77, 200.84 44.38 M134.39 118.36 C149.08 103.51, 161.74 87.09, 201.16 42.94 M140.23 118.26 C152.72 102.11, 168.69 87.42, 201.61 47.85 M139.25 119.7 C152.19 104.1, 166.6 88.52, 200.7 48.7 M147.1 118.95 C166.6 93.57, 185.89 71.36, 201.44 53.5 M146.39 119.33 C160.09 103.09, 173.89 86.87, 201.39 54.88 M150.5 119.57 C167.25 103.19, 181.1 84.65, 201.4 61.22 M151.16 118.46 C168.85 99.02, 186.93 77.75, 201.83 61.41 M157.42 117.99 C173.49 100.89, 190.34 79.85, 200.82 68.41 M156.16 118.87 C168.02 106.27, 178.45 93.34, 201.76 67.58 M160.43 118.39 C173 104.18, 188.91 86.71, 200.87 73.77 M160.53 118.49 C171.46 106.98, 182.72 95.54, 201.2 72.28 M165.29 118.95 C178.03 104.2, 191.21 92.08, 202.3 80.27 M166.99 119.59 C176.9 108.14, 186.13 96.41, 201.69 79.52 M171.98 119.14 C178.77 108.46, 189.97 100.03, 201.06 86.92 M172.44 118.54 C179.85 108.67, 188.46 99.33, 201.36 86.67 M175.73 118.97 C180.96 114.89, 186.75 106.54, 201.33 92 M176.41 119.59 C186.12 108.79, 195.47 99.06, 201.51 92.19 M182.61 118.73 C188.99 112.78, 192.8 108.2, 200.51 96.33 M182.23 119.08 C189.75 111.74, 196.38 103, 201.08 97.42 M187.29 117.98 C193.76 114.59, 197.16 106.37, 200.86 103.01 M188.22 118.97 C191.52 115.31, 197.38 109.94, 201.81 102.81 M193.3 118.75 C195.75 115.64, 199.61 111.72, 200.03 109.05 M193.42 118.61 C195.94 115.57, 199.76 111.59, 201.33 109.63 M198.39 119.44 C199.12 118.41, 199.22 118.3, 201.3 116.69 M198.48 119.28 C199.19 118.29, 200.02 117.24, 200.9 116.52 M0.18 117.16 C0.18 117.16, 0.18 117.16, 0.18 117.16 M0.18 117.16 C0.18 117.16, 0.18 117.16, 0.18 117.16 M5.5 117.06 C4.33 115.14, 3.37 114.92, 0.22 111.27 M5.48 117.05 C3.67 115.17, 1.85 113, -0.34 111.49 M13.44 117.18 C6.27 112.38, 2.27 107.47, 1.38 106.32 M11.71 116.8 C9.22 113.92, 4.91 111.05, 0.56 106.66 M20.39 117.99 C10.3 109.97, 4.46 103.75, -1.45 102.58 M19.34 117.21 C12.88 111.91, 6.67 105.21, -0.99 100.14 M22.72 115.19 C18.95 113.62, 11.5 107.35, 1.45 94.71 M24.62 116.94 C17.96 112.26, 11.48 105.28, -0.6 95.82 M31.97 118.46 C24.45 112.09, 16.7 103.56, -0.43 92.19 M29.68 116.59 C19.05 107.96, 6.3 96.85, -0.13 91.22 M34.59 116.08 C26.55 110.68, 19.74 102.62, -1.64 85.48 M35.94 116.29 C24.79 105.46, 13.24 96.31, 0.08 86.09 M41.24 117.24 C33.99 108.18, 25.51 102.61, 0.42 77.66 M42.45 116.39 C27.42 102.79, 10.32 89.71, -0.15 78.65 M48.55 116.45 C38.74 107.3, 26.22 99.71, -1.38 74.75 M49.14 116.41 C38.25 107.32, 25.69 97.38, -0.35 74.37 M56.39 116.49 C32.56 100.86, 15.32 80.65, 1.04 69.4 M55.59 116.46 C34.45 98.84, 15.15 81.62, -0.94 68.17 M61.08 115.39 C39.57 97.94, 15.08 75.86, -0.04 63.18 M61.78 116.73 C40.77 97.75, 19.11 79.54, -0.67 63.25 M65.14 114.86 C44.49 98.41, 21.07 75.82, 1.65 58.97 M67.32 116.41 C53.78 104.54, 38.74 93.1, 0.57 59.92 M74.37 118.49 C52.58 100.73, 36.48 85.98, -0.42 51.94 M73.96 116.39 C44.47 91.22, 15.65 66.87, 0.56 53.1 M79.47 116.19 C64.84 102.61, 46.26 87.93, -0.29 48.49 M78.85 118.24 C56.24 97.74, 31.93 76.92, -0.54 47.81 M85.39 115.15 C62.34 96.67, 40.16 76.94, -1.81 42.69 M85.26 117.61 C63.72 97.56, 42.42 79.71, -0.94 42.02 M92.56 118.82 C63.4 91.92, 38.07 69.45, -1.58 38.51 M91.38 117.75 C69.99 99.69, 49.41 80.22, -0.69 37.47 M98.6 115.29 C72.99 98.1, 52.32 78.91, 0 33.59 M97.5 116.37 C77.59 97.5, 55.61 79.82, 0.78 31.87 M103.38 115.57 C70.78 88.34, 36.06 58.26, -0.24 25.46 M104.61 116.45 C67.06 85.41, 28.93 53.19, 1.21 27.65 M110.72 117.98 C65.28 81.35, 21.61 40.97, 0.73 23.32 M109.53 117.07 C74.97 85.32, 38.45 54.22, -0.06 22.24 M117.65 115.12 C85.2 89.89, 54.55 65.08, 1.18 18.25 M115.76 116.95 C88.84 94.35, 61.68 70.21, 0.49 16.82 M123.7 116.82 C95.21 92.87, 67.24 70.69, -0.42 11.02 M122.17 117.87 C95.74 94.37, 71.28 72.62, -1.02 10.51 M128.58 118.61 C93.08 84.67, 57.39 55.53, -0.36 6.29 M128.28 117.6 C84.31 78.93, 40.44 40.05, 0.72 5.2 M133.25 115.88 C106.41 94.73, 79.44 69.4, -0.73 0.37 M134.75 116.65 C100.39 88.7, 66.72 60.37, 0.62 -0.23 M141.63 116.37 C87.96 70.13, 35.7 26.63, 1.88 -2.54 M140.63 117.16 C88.54 71.62, 35.25 24.74, 2.01 -3.24 M145.84 115.08 C108.27 84.32, 73.11 48.39, 7.06 -0.59 M146.11 116.4 C114.71 89.22, 81.21 62.46, 8.87 -3.26 M151.5 117.26 C121.48 89.18, 87.95 62.61, 15.38 -3.26 M153.27 116.18 C121.26 88.85, 90.15 61.01, 13.99 -2.22 M159.42 114.82 C107.22 72.61, 57.91 30.6, 22.63 -4.46 M157.33 115.84 C116.61 80.94, 74.92 44.12, 20.89 -3.2 M162.66 116.59 C132.44 87.79, 95.96 58.6, 25.81 -1.48 M165.15 116.93 C125.31 80.9, 85.59 46.3, 27.18 -2.79 M172.22 116.69 C131.65 83.84, 98.17 53.69, 32.17 -4.69 M170.49 118.12 C116.75 69.7, 63.37 22.12, 33.13 -2.34 M178.32 117.53 C130.11 76.88, 82.63 34.54, 40.89 -1.14 M176.73 116.74 C122.88 70.97, 69.58 23.48, 38.9 -3.07 M183.67 116.77 C134.83 74.49, 86.39 29.94, 44.38 -3.61 M183.67 116.16 C128.92 70.72, 76.35 24.99, 45.29 -2.57 M189.19 115.74 C162.05 91.49, 132.47 66.71, 49.55 -3.63 M188.72 116.73 C143.84 77.15, 98.34 38.43, 50.49 -3.37 M195.01 117.65 C159 86.62, 126.15 57.43, 55.49 -3.07 M195.45 116.58 C145.01 73.88, 94.8 30.26, 57.33 -4.02 M201.48 115.38 C147.71 71.77, 97.13 26.5, 62.53 -3.89 M200.07 115.76 C169.95 90.51, 137.19 61.85, 63.79 -2.32 M200.15 112.48 C171.68 84.91, 141.83 59.44, 69.95 -3.74 M201.89 111.87 C153.02 68.28, 105.96 26.06, 70.22 -2.44 M201.59 107.29 C173.21 82.31, 142.69 56.14, 77.27 -0.99 M200.67 106.59 C167.87 78.54, 134.53 48.31, 76.12 -3.44 M202.55 100.18 C162.45 70.67, 123.92 36.79, 81.48 -3.77 M201.3 101.51 C174.86 78.22, 146.35 53.79, 80.89 -1.79 M201.28 97.8 C165.65 63.8, 129.27 33.29, 86.75 -1.53 M200.55 96.76 C162.51 63.96, 125.58 32.65, 87.06 -2.49 M199.22 89.42 C174.55 68.64, 148.97 44.28, 93.52 -2.84 M200.31 89.98 C165.66 59.07, 128.59 26.07, 94.81 -2.31 M202.03 85.24 C170.86 60.7, 144.85 35.68, 100.17 -2.94 M202.16 85.03 C171.98 58.32, 140.65 32.18, 101.21 -2.85 M200.6 80.1 C172.37 56.33, 141.81 30.23, 104.3 -4.79 M201.76 80.26 C174.01 58.36, 148.34 34.25, 104.95 -3.13 M200.04 75.77 C174.04 48.83, 145.46 22.93, 111.99 -4.11 M201.46 75.26 C176.54 53.9, 154.42 34.01, 113.13 -2.08 M200.67 68.65 C179.14 48.73, 157.42 27.36, 119.52 -4.95 M200.72 69.09 C170.81 42.82, 138.65 15.07, 118.49 -3.65 M203.03 64.06 C175.93 40.41, 151.61 18.6, 122.42 -1.47 M200.67 65.05 C184.37 48.79, 167.08 33.96, 123.92 -2.06 M200.89 59.97 C181.65 38.58, 160.07 21.48, 129.15 -1.51 M200.53 58.93 C173.8 34.55, 146.79 9.98, 131.67 -2.87 M202.21 53.27 C178.83 33, 155.66 12.77, 134.42 -3.62 M202.22 53.76 C185.91 40.94, 172.21 30.38, 136.15 -3.55 M202.2 47.48 C179.25 29.84, 156.57 9.21, 144.4 -2.1 M200.77 48.03 C179.22 30.03, 156.25 9.29, 142.67 -1.98 M200.29 43.06 C185.49 29.18, 167.69 12.05, 146.46 -2.62 M200.85 42.49 C190.98 33.01, 178.58 23.94, 148.65 -3.57 M201.09 37.1 C185.74 21.57, 168.59 9.61, 154.23 -3.92 M201.27 36.36 C189.94 27.9, 177.17 17.4, 154.2 -2.48 M199.47 33.6 C187.68 18.91, 169.47 6.86, 161.26 -1.43 M201.49 32.1 C186.95 18.89, 170.99 5.98, 161.27 -2.74 M201.5 27.23 C192.38 17.63, 182.75 12.17, 166.34 -4.29 M200.11 25.65 C192.64 20.1, 186.35 13.35, 166.48 -2.77 M201.48 21.55 C192.71 15.27, 186.57 8.85, 174.75 -4.42 M201.36 21.19 C194.47 16.02, 186.22 8.86, 173.83 -1.89 M198.9 16.79 C194.21 8.15, 186.77 2.29, 179.95 -4.06 M201.62 15.39 C194.17 8.87, 185.66 3.16, 177.96 -3.48 M199.52 12.08 C196.31 5.79, 188.1 2, 184.66 -1.54 M201.92 10.13 C196.04 7.01, 189.51 1.61, 184.66 -2.14 M200.46 5.25 C198.14 3.48, 195.16 -0.8, 191 -2.76 M200.54 5 C197.46 1.84, 193.16 -0.86, 191.94 -2.73 M201.41 -0.04 C200.27 -0.93, 199 -1.97, 196.87 -2.93 M201.06 0.5 C199.71 -0.95, 198.68 -1.54, 197.41 -3.09" stroke="#40c057" stroke-width="0.5" fill="none"></path><path d="M1.23 -1.42 C73 -2.1, 143.58 -0.73, 201.17 0.19 M0.72 -0.81 C57.4 1.64, 115.75 2.08, 201.44 -0.67 M201.96 -0.63 C202.01 30.65, 199.57 59.97, 202.6 115.78 M200.54 0.78 C201.16 34.46, 202.26 66.96, 200.7 117.24 M202.17 115.29 C138.45 116.34, 77.68 116.26, -1.25 116.29 M200.9 117.5 C124.32 117.88, 46.12 118.56, 0.49 116.95 M-1.87 117.91 C0.99 76.4, 0.66 32.74, -0.09 -1.66 M-0.38 117.74 C-0.87 71.29, 0.12 26.87, -0.45 0.2" stroke="#000000" stroke-width="1" fill="none"></path></g><g transform="translate(346.8412698412697 248.03968253968196) rotate(0 95.5 23)"><text x="95.5" y="33" font-family="Virgil, Segoe UI Emoji" font-size="36px" fill="#000000" text-anchor="middle" style="white-space: pre;" direction="ltr">Tokenizer</text></g><g stroke-linecap="round" transform="translate(10 214.9841269841263) rotate(0 124 56)"><path d="M6.15 39.8 C6.15 39.8, 6.15 39.8, 6.15 39.8 M6.15 39.8 C6.15 39.8, 6.15 39.8, 6.15 39.8 M5.01 49.76 C12.01 39.01, 17.46 31.81, 28.57 18.99 M4.5 49.13 C10.52 40.97, 17.86 33.78, 28.83 18.89 M0.98 59.33 C15.64 43.98, 26.92 28.94, 38.23 19.11 M1.42 57.75 C12.77 43.85, 24.46 30.76, 36.24 16.23 M1.44 62.14 C15.53 49.53, 25.39 37, 45.14 14.71 M1.75 61.79 C15.26 45.56, 28.95 30.96, 43.24 14.23 M6.14 64.33 C16.76 52.07, 31.07 39.39, 52.54 12.39 M4.98 66.73 C20.9 47.5, 36.56 30.1, 50.2 12.61 M6.38 68.2 C26.45 46.73, 45.41 25.93, 56.88 9.67 M7.44 70.17 C26.19 46.11, 47.23 24.36, 58.62 9.47 M7.41 74.82 C22.05 58.79, 30.64 45.73, 64.97 6.56 M9.25 73.84 C20.58 59.53, 34.67 44.81, 66.59 6.33 M11.41 76.68 C26.15 58.73, 45.17 38.92, 72.2 7.07 M11.81 75.87 C25.92 60.75, 38.54 44.89, 71.69 7.08 M13.88 81.53 C35.3 57.05, 53.49 31.38, 78.25 7.12 M14.63 80.03 C29.28 61.53, 44.33 44.36, 79.07 5.5 M15.89 84.06 C39.31 54.01, 63.56 26.75, 82.7 3.12 M16.17 82.99 C30.97 67.8, 44.77 50.36, 83.64 5.26 M21.12 84.42 C39.7 58.98, 61.13 36.58, 90.82 2.73 M19.27 86.27 C38.58 62.81, 58.14 39.59, 90.28 4.18 M24.92 88.25 C37.52 70, 56.52 50.45, 95.77 1.79 M22.8 87.84 C49.96 55.22, 76.74 26.03, 96.64 2.71 M25.87 90.18 C43.68 65.91, 64.61 47.5, 102.36 1.38 M25.7 89.01 C47.79 65.1, 68.11 42.45, 101.33 2.45 M28.87 91.01 C52.05 66.21, 73.28 39.47, 109.31 0.78 M30.53 91.26 C55.12 63.26, 77.65 35.02, 108.69 0.63 M34.07 92.79 C50.05 73.22, 70.31 51.23, 112.36 3.27 M34.95 92.7 C62.15 59.31, 91.29 26.31, 112.41 1.4 M37.91 93.78 C57.28 69.3, 80.17 47.36, 120.44 2.81 M37.23 94.58 C63.83 65.33, 89.61 35.28, 118.21 2.01 M42.12 95.47 C62.75 71.97, 84.17 48.32, 125.49 3.36 M41.74 97.81 C68.46 66.21, 95.13 36.03, 124.13 1.62 M47.37 96.78 C66.97 71.37, 91.26 44.47, 128.71 3.83 M45.14 98.65 C67 73.14, 86.93 48.51, 129.32 1.78 M47.61 100.16 C80.03 65.8, 108.38 30.3, 134.92 4.12 M49.2 100.29 C78.11 64.91, 108.87 32.56, 134.85 1.93 M51.74 101.23 C73.92 78.86, 94.03 55.77, 138.21 3.31 M52.96 100.04 C74.28 77.7, 95.18 54.41, 139.92 3.14 M59.95 101.09 C86.61 72.22, 112.35 40.71, 142.96 2.75 M57.58 101.1 C79.49 78.5, 100.69 53.44, 143.33 2.65 M63.36 102.31 C96.08 63.76, 132.38 23.8, 148.84 4.96 M62.47 104.08 C79.98 83.67, 95.58 63.57, 148.99 4.32 M68.38 104.7 C92.79 74.89, 114.91 48.6, 156.44 3.95 M66.18 104.21 C90.51 76.5, 116.51 46.96, 154.08 2.38 M69.72 104.27 C91.57 81.09, 111.83 59.33, 157.67 3.22 M71.86 105.86 C96.85 74.34, 123.69 44.36, 159.91 3 M74.68 108.98 C95.03 86.41, 113.06 66.95, 163.39 3.71 M74.1 107.81 C102.3 73.6, 130.58 42.42, 164.07 5.71 M78.84 106.8 C110.09 71.4, 142.65 38.23, 167.01 3.83 M79.07 108.71 C108.11 75.4, 135.99 42.13, 168.54 4.91 M83.07 109.13 C118.21 70.76, 150.46 32.77, 173.61 7.47 M84.11 110.11 C106.46 84.93, 128.14 58.67, 173.3 7.45 M88.53 111.61 C115.82 74.75, 148.7 42.14, 176.21 6.74 M87.13 110.71 C110.48 83.83, 134.63 56.27, 177.08 8.76 M92.96 109.34 C120.03 77.63, 149.43 46.07, 181.44 8.7 M93.45 111.07 C128.29 69.44, 163.23 29.69, 181.55 9.19 M99.1 109.66 C113.41 90.96, 134.33 71.65, 187.87 8.9 M96.75 111.93 C130.07 72.07, 162.6 35.33, 186.16 8.98 M104.92 112.59 C126.76 84.44, 146.46 58.49, 192.37 9.36 M103.76 110.14 C129.59 78.98, 156.11 48.89, 190.99 9.76 M110.06 109.41 C132.83 85.52, 155.73 61.32, 195.07 13.04 M109.18 110.71 C135.52 82.39, 161.12 51.5, 194.2 12.54 M113.4 112.34 C132.02 89.23, 153.22 65.55, 197.74 13.9 M113.79 112.04 C144.58 76.75, 174.59 42.94, 198.92 13.24 M120.09 111.82 C139.45 87.98, 160.89 65.67, 206.71 13.59 M118.01 110.64 C147.69 78.34, 175.34 44.18, 204.66 12.9 M124.62 109.79 C148.41 83.28, 169.78 58.95, 208.02 15.28 M123.35 111.96 C152.02 80.4, 178.25 49.35, 208.99 14.97 M127.7 110.13 C149.86 87.26, 172.75 62.15, 209.6 16.06 M127.94 112.31 C159.61 76.18, 191.41 39.97, 212.17 17.28 M135.35 111.92 C161.74 80.52, 190.35 44.55, 213.62 19.25 M134.01 111.63 C153.85 89.75, 173.03 67.73, 216.05 19.79 M136.55 112.27 C166.81 80.8, 195.5 45.75, 219.59 19.63 M138.09 113.79 C166.53 79.18, 197.04 46.25, 219.64 21.37 M142.83 113.19 C164.61 91.37, 180.38 70.65, 223.96 23.47 M145.08 112.99 C171.6 80.62, 199.92 49.31, 223.22 23.27 M150.74 113.19 C168.91 93.7, 185.08 72.67, 223.79 25.01 M151.24 110.89 C169.24 90.7, 187.28 68.81, 226.5 25.14 M156.11 111.78 C174.98 89.57, 190.46 70.44, 228.4 26.44 M156.93 110.5 C179.46 82.71, 204.04 55, 228.79 26.5 M163 108.38 C177.79 89.75, 196.8 71.76, 232.42 29.42 M162.06 108.72 C178.84 91.75, 193.99 73.49, 232.54 29.77 M168.14 110.68 C186.97 85.32, 206.22 63.71, 234.76 31.84 M169.06 110.11 C187.64 88.06, 205.47 65.62, 236.79 30.54 M175.15 107.55 C190.26 90.54, 201.73 76.82, 240.27 34.07 M175.57 107.36 C192.17 88.21, 210.94 65.47, 237.36 35.26 M180.3 103.83 C199.31 85.73, 216.14 65.17, 240.73 37.91 M182.68 105.53 C198.88 85.3, 216.49 65.21, 240.33 37.76 M188.79 100.11 C208.32 81.12, 225.94 59.45, 242.56 43.17 M189.8 101.36 C205.82 84.23, 219.16 68.29, 242.25 41.29 M196.49 98.94 C211.34 83.54, 223.6 70.72, 244.46 45.85 M198.77 98.96 C214.91 79.51, 231.14 61.16, 246.26 44.21 M205.49 96.83 C222.4 80.21, 236.84 59.45, 246.38 49.17 M206.02 97.34 C217.86 84.94, 227.42 71.48, 247.61 48.56 M215.17 93.49 C225.99 82.37, 232.41 70.78, 250.59 50.6 M214.09 93.12 C221.9 85.21, 229.57 75.33, 249.17 52.49 M220.57 89.9 C230.25 80.18, 240.34 68.2, 246.03 62.08 M220.49 92.12 C229.03 80.78, 238.55 71.16, 248.32 60.07 M238.08 76.85 C241.18 75.22, 244.24 71.67, 246.46 69.17 M238 77.14 C240.63 75.66, 241.83 72.92, 245.98 69.59 M14.54 82.35 C14.54 82.35, 14.54 82.35, 14.54 82.35 M14.54 82.35 C14.54 82.35, 14.54 82.35, 14.54 82.35 M28.35 88.56 C21.66 82.06, 13.44 72.66, 6.28 68.76 M30.28 90.03 C22.33 83.97, 15.08 78.36, 6.14 70.9 M44.29 99.64 C31.36 90.29, 21.48 77.6, 1.56 60.45 M44.61 98.86 C32.98 88.03, 22.07 77.04, 1.01 59.4 M47.42 94.22 C35.46 84.11, 26.38 75.97, 3.35 55.43 M46.61 94.16 C36.49 86.2, 26.3 76.86, 1.85 55.3 M56.31 99.73 C46.48 88.08, 35.79 79.5, 3.09 52.77 M55.78 97.22 C42.68 84.88, 29.2 72.74, 4.02 51.82 M65.14 100.48 C53.37 87.18, 39.2 75.96, 5.28 47.67 M66.09 100.66 C49.85 85.03, 30.62 69.13, 5.26 46.25 M77.17 104.92 C59.65 91.49, 48 78.45, 5.71 44.55 M75.91 103.13 C52.42 84.47, 30.01 64.68, 4.41 42.51 M89.19 108.69 C68.11 91.67, 49.99 77.07, 9.2 40.7 M86.98 107.9 C58.27 82.32, 29.97 57.93, 7.68 38.33 M92.47 107.11 C71.36 89.48, 49.42 68.7, 9.1 35.98 M93.82 108.84 C73.48 91.41, 55.01 75.29, 10.65 36.42 M100.4 109.89 C66.82 80.06, 38.95 54.11, 13.03 32.45 M99.92 108.64 C66.93 78.95, 33.24 51.17, 12.49 33.61 M107.35 108.34 C77.67 81.88, 45.1 57.3, 14.41 32.09 M107.08 109.51 C85.15 89.43, 63.92 71.59, 15.98 30.08 M110.24 110.35 C90.44 86.2, 64.83 69.68, 17.93 27.74 M111.45 109.66 C82.45 82.57, 54.84 58.6, 19.52 27.77 M116.51 109.99 C80.71 74.2, 43.35 41.97, 22.55 24.8 M118.07 108.4 C79.59 77.08, 42.1 43.3, 22.62 25.64 M124.64 110.58 C87.26 78.67, 50.92 47.07, 23.79 20.89 M125.81 108.72 C95.14 83.43, 66.03 56.23, 24.63 22.76 M132.12 110.33 C96.89 78.62, 59.26 47.05, 28.43 18.82 M131.91 110.4 C91.08 76.38, 53.81 41.34, 28.04 18.82 M134.99 108 C104.58 80.04, 73.5 55.31, 29.29 15.66 M135.96 109.22 C101.53 78.01, 64.08 46.03, 29.67 16.71 M143.07 107.87 C113.94 81.71, 83.55 53.6, 36.23 15 M141.69 109.38 C108.81 78.22, 77.18 49.3, 34.24 14.22 M146.72 108.81 C119.83 83.22, 95.59 61.67, 38.37 12 M148.15 108.11 C120.16 83.12, 91.78 57.2, 39.02 14.67 M153.8 107.22 C122.45 81.82, 89.42 54.16, 43.37 10.38 M153.27 108.09 C118.82 77.38, 84.75 47.05, 43.69 11.36 M157.73 106.72 C122.92 75, 82.62 41.46, 49.41 12.07 M158.34 106.61 C124.84 75.27, 87.97 45.68, 48.77 10.7 M165.2 104.5 C140.94 86.72, 117.63 67.21, 51.99 10.2 M164.26 105.5 C126.08 71.69, 87.26 38.55, 52.88 8.74 M171.2 103.6 C129.17 71.35, 89.73 33.18, 58.59 6.16 M169.03 104.82 C129.59 68.28, 87.37 32.89, 56.01 7.69 M173.96 102.66 C142.85 79.88, 111.51 51.86, 62.26 4.51 M173.26 104.19 C152.06 85.34, 126.9 64.29, 61.52 6.39 M178.04 104.16 C133.98 65.65, 91.02 28.97, 65.07 6.71 M179.69 104.46 C145.6 73.99, 111.72 44.41, 66.12 5.47 M184.48 103.51 C155.86 75.32, 125.07 47.88, 71.36 6.81 M183.88 102.35 C152.59 74.53, 119.56 47.09, 71.62 4.57 M188.15 103.29 C153.15 69.2, 118.51 37.11, 76.51 5.7 M188.04 102.17 C161.41 75.38, 131.03 51.15, 76.19 4.13 M194.42 101.02 C152.75 63.6, 109.71 29.56, 81.43 3.51 M192.22 99.06 C167.11 78.27, 141.4 56.21, 83.38 3.19 M198.2 97.38 C171.95 80.56, 152.6 58.76, 89.07 2.59 M197.83 98.8 C156.84 61.5, 115.48 27.41, 89.08 3.99 M201.94 96.63 C164.77 65.35, 127.53 31.24, 91.65 0.5 M202.14 95.64 C170.27 70.66, 139.2 42.37, 93.29 2.38 M205.37 94.27 C173.4 68.64, 141.01 41.45, 97.92 3.02 M204.54 95.48 C182.04 76.11, 160.03 54.46, 99.89 2.32 M210.48 91.98 C182.02 69.5, 153.21 42.76, 104.92 2.48 M210 92.35 C173.11 62.55, 137.56 31, 102.84 1.82 M215.31 93.34 C171.76 55.34, 129.75 22.59, 108.98 2.1 M213.39 91.57 C175 57.5, 133.3 22.35, 109.73 0.63 M219.93 88.18 C188.48 64.56, 159 36.77, 112.67 -2.33 M217.91 89.65 C186.85 62.37, 155.56 35.97, 115.24 -0.5 M223.94 87.5 C195.25 65.02, 164.57 39.6, 120.65 -1.53 M223.12 88.71 C191.69 62.37, 160.02 35.15, 121.45 0.63 M226.96 86.56 C198.03 63.47, 172.34 40.35, 129.06 -0.27 M225.94 85.02 C195.05 58.8, 164.91 32.46, 127.76 -0.43 M227.66 81.13 C198.66 57.68, 166.26 29.76, 131.86 2.23 M228.19 82.79 C209.43 65.15, 189.97 47.95, 133.67 0.32 M233.99 80.55 C212.09 60.3, 190.84 43.1, 140.26 1.93 M231.24 80.75 C204.48 55.14, 176.05 31.82, 140.84 0.53 M235.91 78.07 C212.63 57.97, 193.01 40.52, 147.76 1.03 M235.35 77.91 C201.1 50.74, 168.87 20.57, 146.49 -0.03 M236.92 76.46 C219.4 59.84, 200.17 41.48, 151.16 2.95 M237.64 74.77 C213.37 55.14, 187.49 32.59, 152.98 1.08 M242.08 73.72 C210.17 45.15, 182.12 21.41, 161.79 5.3 M240.58 72.44 C217.55 53.01, 193.95 31.8, 161.52 3.39 M246.44 70.06 C226.23 55.04, 210.45 38.67, 170.97 4.31 M245 71.22 C224.12 53.77, 203.82 34.76, 170.17 5.47 M244.83 67.64 C217.95 43.43, 194.63 21.92, 176.09 5.7 M246.34 65.71 C223.42 46.11, 203.25 27.73, 176.36 7.33 M246.91 62.73 C231.73 50.07, 218.15 38.3, 185.06 7.76 M246.16 62.59 C231.33 46.43, 213.9 33.03, 185.87 8.96 M247.33 58.88 C230.34 42.33, 208.51 22.56, 194.08 9.02 M248.87 57.24 C228.96 39.95, 211.35 24.63, 193.11 9.48 M249.04 51.85 C230.48 36.44, 212.33 21.93, 200.61 11.19 M249.5 54.16 C232.94 39.19, 215.34 24.29, 200.57 11.66 M251.51 47.96 C237.7 39.67, 223.68 25.92, 205.39 11.6 M250.41 48.82 C233.29 35.24, 216.71 21.2, 205.35 9.79 M241.68 37.85 C235.21 30.43, 226.64 22.39, 224.07 21.85 M240.8 36.96 C233.85 29.1, 227.94 23.34, 225.29 21.85" stroke="#40c057" stroke-width="0.5" fill="none"></path><path d="M112.83 0.83 C127.58 -0.65, 145.9 1.33, 161.14 3.23 C176.39 5.12, 192.06 7.77, 204.29 12.18 C216.51 16.58, 227.16 23.26, 234.49 29.63 C241.81 36, 246.9 43.16, 248.21 50.4 C249.53 57.64, 247.05 66.3, 242.37 73.05 C237.68 79.79, 230.13 85.56, 220.1 90.88 C210.07 96.19, 196.2 101.59, 182.19 104.94 C168.19 108.29, 152.03 110.1, 136.04 110.98 C120.06 111.87, 101.42 112.39, 86.26 110.25 C71.1 108.11, 57 102.74, 45.11 98.14 C33.21 93.54, 22.33 88.9, 14.89 82.65 C7.45 76.4, 1.94 67.77, 0.47 60.65 C-1.01 53.53, 1.39 46.83, 6.03 39.94 C10.67 33.06, 18.29 24.89, 28.31 19.33 C38.34 13.78, 51.49 9.75, 66.19 6.6 C80.89 3.44, 107.36 1.2, 116.51 0.39 C125.65 -0.42, 120.93 1.02, 121.06 1.74 M172.75 5.56 C186.96 7.17, 201.75 11.08, 213 16.17 C224.25 21.27, 234.55 29.41, 240.23 36.13 C245.91 42.86, 247.51 49.24, 247.07 56.5 C246.63 63.77, 243.73 73.24, 237.61 79.71 C231.5 86.17, 222.01 90.29, 210.37 95.28 C198.72 100.27, 182.44 106.73, 167.76 109.62 C153.07 112.52, 137.68 113.04, 122.24 112.66 C106.79 112.28, 89.78 110.45, 75.09 107.35 C60.4 104.24, 45.41 99.33, 34.08 94.04 C22.75 88.76, 12.94 82.39, 7.09 75.62 C1.25 68.85, -1.78 60.68, -1.01 53.44 C-0.24 46.19, 5.07 38.48, 11.73 32.15 C18.39 25.83, 27.75 20.02, 38.95 15.5 C50.15 10.97, 64.26 7.77, 78.94 5 C93.62 2.22, 111.14 -1.3, 127.03 -1.16 C142.93 -1.02, 166.85 4.62, 174.33 5.83 C181.8 7.03, 172.91 5.54, 171.87 6.06" stroke="#000000" stroke-width="1" fill="none"></path></g><g transform="translate(15 247.98412698412722) rotate(0 119 23)"><text x="119" y="33" font-family="Virgil, Segoe UI Emoji" font-size="36px" fill="#000000" text-anchor="middle" style="white-space: pre;" direction="ltr">Source Code</text></g><g stroke-linecap="round" transform="translate(638.6666666666669 212.53968253968196) rotate(0 94 58.5)"><path d="M0 0 C0 0, 0 0, 0 0 M0 0 C0 0, 0 0, 0 0 M-0.54 6.6 C1.59 3.79, 2.91 1.6, 4.78 0.43 M-0.29 6.05 C1.43 3.9, 3.74 1.76, 4.65 0.24 M0.82 12.55 C5.6 8.7, 8.54 2.62, 10.25 -0.69 M-0.23 11.65 C3.24 9.41, 4.82 7.3, 11.16 0.57 M-0.43 18.11 C4.04 12.81, 8.21 5.65, 14.88 -1.07 M0.75 19.23 C2.64 14.42, 6.83 10.17, 15.23 -0.52 M0.88 23.96 C3.03 20.49, 7.83 14.8, 19.7 1.16 M0.92 23.92 C4.1 18.43, 10.85 12.86, 21.77 0.15 M0.6 29.26 C8.19 23.97, 12.97 15.64, 26.29 -1.58 M0.76 31.12 C9.52 18.85, 18.58 9.33, 25.75 0.22 M-0.36 35.08 C8.26 26.92, 19.79 15.27, 33.16 1.55 M0.44 36.64 C6.85 29.63, 15.46 20.18, 32.77 0.24 M1.08 43.75 C14.25 26.39, 25.93 14.62, 37.42 -1.31 M0.28 42.43 C7.47 34.66, 13.91 25.74, 36.43 -0.6 M-0.71 50.18 C10.69 37.98, 21.53 27.08, 43 -1.76 M-0.73 48.29 C12.48 34.18, 25.82 19.73, 42.12 -1.03 M-0.53 53.51 C12.02 40.78, 24.66 24.97, 46.46 -0.1 M0.15 54.14 C17.17 36.53, 32.83 18.04, 48.23 -0.14 M-0.6 60.19 C16.02 45.48, 27.8 27.8, 53.18 1.63 M0.69 61.5 C17.32 42.01, 32.78 23.7, 53.91 0.06 M1.07 67.69 C19.98 43.03, 44 15.94, 59.14 -1.3 M-1.23 67.75 C17.41 46.97, 34.54 26.88, 58.35 0.21 M-0.32 71.77 C12.86 56.27, 26.07 42.41, 63.16 -1.36 M0.92 73.86 C18.79 52.93, 37.36 32.23, 64.47 -0.99 M0.67 77.71 C16.7 61.41, 31.69 42.26, 68.67 0.27 M0.81 80.21 C15.1 61.64, 29.99 45.5, 68.24 0.8 M-0.67 84.08 C30.66 51.88, 58.18 17.16, 75.91 0.68 M0.4 84.74 C17.59 63.2, 35.52 42.34, 74.38 -0.97 M-1.45 89.73 C17.08 71.08, 35.76 50.36, 79.74 -1.73 M-0.82 90.52 C31.36 56.43, 64.12 20.58, 79.62 -0.25 M0.41 97.54 C26.05 69.45, 51.65 39.44, 85.87 -0.33 M-0.79 97.98 C30.62 61.58, 62.93 25.72, 84.47 -0.88 M-0.81 101.66 C20.2 78.95, 41.15 59.01, 88.59 -1.14 M-0.28 102.66 C27.9 72, 54.63 42.71, 90.45 0.91 M-1.56 110.8 C26.21 78.04, 53.79 46.78, 95.02 0.03 M-0.41 108.95 C21.17 83.85, 43.13 59.48, 95.83 -0.01 M-1.46 115.93 C19.51 89.42, 42.25 67.11, 98.9 0.7 M0.5 116.35 C35.28 71.28, 73.79 29.66, 100.92 -0.13 M1.1 118.28 C32.88 82.91, 64.69 50.49, 104.81 -1.35 M2.74 117.97 C37.51 77.56, 75.36 35.02, 105.78 0.14 M7.29 119.13 C36.17 83, 67.7 46.77, 109.91 -1.03 M7.09 118.78 C32.09 89.35, 57.55 62.85, 111.5 0.01 M14.86 119.08 C45.07 84.21, 77.54 45.03, 115.55 1.73 M13.35 119.37 C38.6 88.96, 64.49 60.13, 117.26 0.54 M16.45 119.23 C58.04 73.39, 96.66 29.84, 120.32 1.31 M18.11 119.7 C50.08 81.98, 80.73 46.72, 122.89 0.42 M24.54 119.94 C55.93 78.05, 90.22 41.24, 125.02 1.65 M23.25 118.31 C64.81 72.19, 106.64 25.35, 127.4 -0.32 M29.21 119.89 C64.49 77.14, 98.28 40.28, 132.33 -0.09 M29.14 119.87 C62.86 77.82, 97.98 38.24, 132.06 -0.04 M34.37 119.01 C58.92 95.56, 80.08 68.97, 136.51 1.59 M34.41 118.65 C61.76 84.53, 91 52.76, 137.64 0.02 M39.53 117.54 C78.19 75.16, 111.54 32.37, 143.66 -0.58 M39.24 120.02 C69.84 84.4, 98.73 51.74, 142.2 -0.77 M44.04 118.97 C83.98 71.91, 125.51 27.86, 149.49 0.46 M45.04 117.98 C76.89 83.83, 107.24 47.22, 148.3 1.06 M48.86 121.09 C90.7 69.5, 134.23 22.4, 155.53 1 M49.75 118.63 C78.16 86.23, 106.22 53.68, 154.77 0.59 M56.13 119.72 C91.89 74.52, 131.53 33.02, 158.92 1.67 M54.92 120.42 C87.16 84.11, 118.39 47.6, 157.97 0.02 M62.18 119.96 C88.82 87.45, 113.23 56.77, 164.64 -1.67 M60.25 119.93 C80.34 94.65, 101.78 70.19, 163.49 0.15 M66.64 119.43 C91.26 91.63, 114.6 63.3, 171.26 1.15 M66.09 119.57 C90.08 89.5, 117.41 60.87, 169.47 -0.11 M71.94 120.05 C106.35 75.79, 143.2 34.86, 175.2 1.56 M70.57 119.89 C105.35 78.52, 140.07 38.2, 174.31 -0.24 M77.13 119.02 C113.5 78.31, 146.18 36.46, 180.47 -0.7 M76.84 119.04 C109.43 82.47, 140.31 44.75, 179.9 -0.61 M82.1 119.79 C116.55 82.25, 149.9 41.38, 186.92 1.36 M82.8 118.26 C115.32 80.95, 150.11 41.4, 185.43 -0.98 M85.33 119.14 C112.79 91.92, 135.58 65.67, 190.7 2.55 M86.38 119.43 C109.9 94.23, 133.43 66.93, 189.27 2.51 M92.13 118.08 C118.86 89.78, 143.69 63.55, 188.46 8.44 M93.27 118.51 C112.29 95.97, 132.34 73.28, 190.76 6.84 M96.42 120.96 C124.89 88.54, 152.92 55.05, 191.03 13.36 M98.17 119.09 C123.53 89.88, 149.86 59.04, 189.29 14.55 M104.98 118.35 C123.33 95.55, 142.82 72.67, 189.15 19.44 M102.55 119.87 C136.03 81.99, 167.04 45.83, 189.61 19.31 M107.14 118.15 C138.38 87.82, 166.11 55.64, 191.12 27.09 M107.91 120.14 C125.78 100.7, 140.71 80.85, 188.98 24.91 M115.11 120.5 C141.76 84.21, 173.02 50.16, 190.48 30.76 M113.49 119.32 C140.99 86.17, 169.82 55.13, 190.24 31.51 M117.68 120.86 C133.93 103.55, 149.86 84.89, 190.93 38.15 M119.56 118.43 C134.6 102.54, 150.67 83.96, 190.41 37.33 M124.49 116.95 C138.75 98.92, 157.57 81.71, 191.47 45.55 M125.16 119.59 C150.48 90.9, 174.2 63.11, 189.16 44.52 M127.76 119.77 C150.23 97.09, 169.59 72.35, 189.91 49.46 M129.34 119.56 C152.1 94.58, 174.08 67.51, 189.93 49.29 M134.57 120.61 C154.37 95.03, 177.7 67.5, 188.68 57.72 M134.9 119.17 C151.53 98.62, 170.13 79.95, 189.17 55.48 M140.59 118.04 C149.54 107.22, 162.31 91.25, 190.37 61.18 M139.68 118.89 C154.36 103.42, 168.37 88.34, 189.45 62.77 M146.33 116.9 C154.99 106.15, 165.43 96.83, 190.82 68.95 M146.28 118.28 C157.36 104.73, 168.94 91.97, 189.98 68.47 M150.89 119.33 C167.07 103, 180.39 85.32, 188.09 75.72 M151.31 119.52 C163.72 105.71, 176.63 90.85, 189.13 75.24 M156.21 119.73 C167.29 105.66, 179.5 90.39, 190.1 81.4 M157.15 118.9 C167.58 107.32, 177.34 93.84, 189.54 79.35 M160.85 119.8 C170.18 109.74, 178.73 95.57, 188.36 86.24 M161.18 118.32 C169.37 109.95, 176.13 101.17, 189.38 86.19 M167.53 120.27 C171.68 112.54, 179.32 107.53, 189.58 94.48 M166.92 119.52 C173.25 112.01, 181.33 103.25, 189.41 92.49 M172.2 120.13 C176.06 115.21, 180.95 109.96, 188.66 97.66 M172.5 119.88 C175.42 113.43, 180 108.7, 189.54 98.1 M177.05 119.9 C182.67 115.95, 186.48 108.41, 189.76 105.82 M177.23 120.08 C180.08 116.1, 184.04 111.77, 189.36 105.7 M182.39 118.19 C185.51 116.62, 187.74 113.73, 189.92 111.12 M182.71 118.79 C185.72 116.51, 187.71 113.08, 189.52 111.01 M0.18 117.16 C0.18 117.16, 0.18 117.16, 0.18 117.16 M0.18 117.16 C0.18 117.16, 0.18 117.16, 0.18 117.16 M5.05 116.14 C4.73 114.71, 2.77 113.9, -0.77 110.94 M5.91 116.54 C3.63 115.44, 2 113.63, -0.17 111.78 M13.65 118.31 C10.26 113.65, 5.98 113.9, -0.73 106.28 M12.07 117.62 C9.26 114.4, 5.53 111.98, 0.78 106.33 M18.8 116.63 C11.85 115.03, 10.1 109.05, -1.66 100.02 M19.6 117.74 C11.58 111.67, 5.52 105.84, 0.12 100.68 M25.35 116.28 C19.54 111.56, 10.95 105.02, 1.53 96.04 M23.94 116.82 C15.4 109.4, 4.5 101.36, 0.21 95.05 M32.2 116.89 C22.58 109.21, 15.05 101.51, -0.85 91.51 M31.18 117.32 C22.32 109.76, 12.96 102.33, 0.07 89.56 M35.1 118.45 C28.9 108.53, 17.91 103.48, -0.08 86.56 M35.56 116.02 C23.23 105.07, 12.19 94.3, -0.77 85.6 M44.04 115.83 C25.25 103.3, 9.61 88.57, -0.21 79.98 M41.99 116.94 C25.3 102.54, 8.85 88.53, 0.34 80.05 M48.96 119.22 C33.06 103.15, 14.44 84.33, -1.08 75.45 M49.25 118.25 C29.1 101.27, 10.39 82.57, -0.3 74.02 M53.02 117.1 C35.63 100.55, 14.48 82.37, -1.29 69.33 M54.75 117.71 C42.75 106.26, 32.75 96.88, -0.24 69.13 M61.87 115.19 C46.41 102.97, 30.33 89.65, -1.25 64.87 M61.31 116.18 C46.43 104.77, 32.52 92.04, -0.41 64.19 M65.36 116.86 C47.42 102.8, 30.04 85.28, -1.37 60.63 M66.39 116.48 C48.05 99.89, 28.1 83.26, 0.17 58.19 M74.57 117.42 C46.81 93.99, 16.34 71.01, -0.88 53.48 M72.59 116.19 C51.56 97.3, 29.25 79.27, -0.9 53.7 M79.53 116.45 C55.38 93.78, 28.49 73.51, -0.49 49.5 M78.9 116.52 C63.48 101.66, 46.49 87.07, -0.61 48.4 M86.5 116.84 C52.12 90, 23.87 62.61, -0.76 44.45 M85.42 117.78 C67.27 100.86, 50.63 85.66, 0.68 41.91 M91.22 115.71 C68.22 98, 39.81 76.27, -0.95 37.99 M92.21 116.87 C68.46 96.31, 45.68 77.38, -0.24 38.64 M96.64 116.85 C63.37 89.45, 30.1 57.19, 1.83 33.44 M96.39 116.16 C60.78 84.51, 23.94 53.96, -0.96 31.93 M101.91 116.95 C68.11 89.08, 33.19 58.04, 1.72 28.02 M102.78 116.28 C72.02 91.19, 41.06 64.24, 1.1 26.89 M108.18 118.03 C83.09 96.49, 60.02 73.67, 1.08 20.61 M109.07 116.98 C70.28 81.71, 32.22 48.8, -0.86 20.6 M115.8 118.35 C74.64 82.57, 36.64 50.32, -0.52 18 M116.58 116.63 C90.08 93.4, 63.56 70.97, -0.49 16.89 M121.6 115.47 C80.49 78.54, 37.93 45.05, -1.29 10.64 M123.04 117.66 C86.26 85.27, 48.38 52.12, 0.19 10.54 M128.6 118.57 C84.13 76.63, 38.27 37.29, -0.21 6.86 M127.81 117.5 C94.23 88.06, 60.71 59.19, -0.68 6.11 M135.09 118.76 C93.51 85.18, 55.49 49.79, -0.06 0.68 M134.4 117.32 C86.45 74.52, 39.82 34.2, -0.36 0.11 M140.29 117.43 C105.31 89.41, 72.61 58.24, 3.88 -4.03 M139.68 116.92 C110.73 90.22, 80.94 64.41, 3.36 -2.25 M145.63 117.29 C112.57 86.36, 76.58 59.38, 10.53 -3.73 M146.71 116.21 C92.75 70, 40.94 23.36, 8.26 -2.73 M152.05 117.28 C104.45 75.52, 60.02 36.46, 13.75 -4.2 M153.4 116.67 C116.46 84.25, 78.06 52.11, 14.02 -2.64 M157.67 116.99 C126.37 88.14, 93.65 61.87, 20.66 -1.68 M157.81 116.29 C117.5 80.68, 77.42 47.08, 19.97 -3.37 M162.86 118.94 C112.77 72.24, 66.12 28.81, 25.56 -1.75 M164.66 116.27 C136.94 93.39, 109.27 68.5, 26.57 -2.86 M171.93 116.93 C128.64 82.96, 86.32 46.03, 31.01 -1.11 M170.54 117.96 C129.49 80.32, 88.06 45, 31.95 -2.81 M178.43 115.07 C138.94 84.25, 102.81 51.94, 37.51 -3.13 M176.68 116.33 C130.85 77.54, 86.54 38.01, 39.1 -1.78 M182.36 118.71 C138.69 77.85, 93.34 41.47, 44.8 -2.88 M183.73 117.39 C148.58 88.47, 114.9 58.84, 44.66 -3.71 M187.96 114.85 C155.71 86.51, 118.37 57.16, 53.07 -4.22 M188.92 117.19 C138.86 73.65, 87.4 30.59, 51.67 -2.48 M189.89 112.49 C139.66 66.08, 88.34 22.83, 56.73 -3.32 M187.91 110.56 C145.89 73.73, 103.05 37.78, 56.81 -2.97 M188.11 105.42 C152.13 73.49, 113.89 40.16, 61.44 -2.45 M189.01 106.47 C161.55 83.19, 138.13 62.23, 62.89 -2.33 M186.48 99.5 C163.05 78.97, 135.02 54.61, 69.78 -1.6 M187.42 99.76 C152.69 68.29, 117.92 37.37, 70.11 -3.06 M187.14 95.47 C158.5 69.25, 127.38 43.76, 74.59 -3.42 M188.98 94.52 C156.61 65.6, 122.33 37.85, 74.82 -3.58 M187.38 88.75 C148.17 55.56, 113.08 22.69, 80.15 -2.37 M188.64 90.31 C151.68 57.98, 116.58 25.81, 82.26 -2.7 M188.77 83.65 C169.43 64.12, 145.62 49.16, 87.97 -4.21 M189.03 84.94 C158.85 59.98, 130.41 35.33, 87.8 -2.77 M190.05 81.14 C151.52 47.22, 116.38 14.5, 93.8 -3.82 M188.89 78.7 C155.29 49.99, 122.27 21.12, 93.47 -2.88 M188.21 73.12 C152.5 44.05, 119.38 14.43, 101.31 -0.74 M187.63 75.09 C156.37 45.67, 123.49 17.22, 101.16 -2 M187.45 70.1 C164.2 50.31, 141.36 25.78, 107.43 -4.27 M187.76 69.14 C167.8 51.11, 148.22 33.29, 105.44 -3.49 M188.18 63.55 C163.27 38.43, 135.87 16, 111.56 -2.43 M189.48 64.08 C161.99 40.2, 135.48 16.81, 112.24 -3.61 M188.04 57.55 C167.45 38.15, 146.65 23.3, 117.28 -1.57 M189.08 57.64 C168.45 40.97, 149.33 23.97, 118.14 -2.67 M186.89 51.1 C163.04 32.11, 139.74 11.52, 125.42 -4.18 M187.54 52.77 C164.49 30.63, 140.43 9.53, 124.86 -2.21 M187.78 45.88 C172.9 36.58, 157.86 22.73, 131.79 -4.4 M188.93 47.91 C169.92 31.54, 152.09 16.28, 130.52 -2.16 M190.03 40.44 C174.8 26.98, 159.23 15.52, 136.37 -1.1 M189.01 41.74 C167.87 24.27, 146.89 7.8, 136.36 -3.32 M186.14 38.02 C177.19 26.22, 167.24 18.55, 144.67 -2.9 M187.64 37.43 C171.65 21.93, 155.65 8.53, 143.54 -1.92 M186.84 32.74 C181.23 23.04, 169.61 15.74, 149.36 -3.77 M189.35 31.37 C176.81 20.65, 163.96 10.44, 148.32 -2.71 M186.82 26.04 C177.35 19.57, 170.48 11.74, 155.39 -4.76 M188.55 26.1 C182.05 20.37, 173.23 14.04, 154.65 -2.19 M190.01 21.64 C179.22 11.44, 168.77 2.4, 161.61 -1.61 M188.28 21.76 C177.9 11.23, 166.18 1.59, 161.33 -1.74 M186.79 16.53 C178.32 6.65, 171.81 0.33, 166.15 -1.8 M188.98 15.58 C183.13 11.11, 176.02 5.33, 166.81 -2.12 M187.76 9.33 C183.52 8, 181.82 4.92, 171.57 -1.54 M187.73 10.76 C184.22 5.04, 179.31 0.72, 173.95 -2 M188.74 6.18 C187.1 2.78, 183.48 1.09, 178.75 -1.97 M188.75 5.32 C185.62 2.46, 183.06 0.81, 179.12 -3.08" stroke="#40c057" stroke-width="0.5" fill="none"></path><path d="M0.19 0.21 C37.48 1.4, 73.83 2.04, 186.19 -0.36 M0.49 -0.74 C58.65 -1.61, 117.49 -0.7, 187.69 0.76 M189.6 -1.22 C187.25 35.89, 187.53 67.75, 189.57 115.49 M187.7 0.24 C188.44 41.52, 187.88 84.13, 187.05 116.08 M186.61 116.21 C130.22 117.63, 69.92 117, 1.11 118.05 M188.54 116.95 C129.58 118.93, 69.93 117.77, 0.46 117.63 M-0.09 115.34 C1.19 74.08, -0.94 27.95, 1.49 -0.31 M-0.45 117.2 C-1.18 87.12, -1.17 58.79, -0.29 0.21" stroke="#000000" stroke-width="1" fill="none"></path></g><g transform="translate(643.6666666666669 248.03968253968196) rotate(0 89 23)"><text x="89" y="33" font-family="Virgil, Segoe UI Emoji" font-size="36px" fill="#000000" text-anchor="middle" style="white-space: pre;" direction="ltr">Parser</text></g><g stroke-linecap="round"><g transform="translate(555.803914739229 278.1638092801577) rotate(0 31.83301110931066 0.4207742845717348)"><path d="M0.97 -1.09 C11.48 -0.88, 53.03 -0.1, 63.65 0.21 M0.01 0.96 C10.3 1.47, 51.86 2.19, 62.59 1.84" stroke="#000000" stroke-width="2" fill="none"></path></g><g transform="translate(555.803914739229 278.1638092801577) rotate(0 31.83301110931066 0.4207742845717348)"><path d="M32.63 11.85 C44.63 9.76, 55.43 5.72, 61.1 1.1 M34.13 12.96 C41.66 8.94, 48.16 7.54, 61.98 1.73" stroke="#000000" stroke-width="2" fill="none"></path></g><g transform="translate(555.803914739229 278.1638092801577) rotate(0 31.83301110931066 0.4207742845717348)"><path d="M32.55 -8.67 C44.4 -3.6, 55.23 -0.48, 61.1 1.1 M34.05 -7.56 C41.49 -6.31, 48.02 -2.44, 61.98 1.73" stroke="#000000" stroke-width="2" fill="none"></path></g></g><g stroke-linecap="round" transform="translate(302.31746031746013 10) rotate(0 275.71428571428584 209.99999999999977)"><path d="M0.5 0.39 C155.03 -1.84, 310.9 -1.98, 551.81 -0.25 M550.58 0.85 C550.63 157.79, 552.11 315.84, 550.94 420.84 M550.77 419.76 C427.75 420.79, 303.52 420.35, 0.52 419.24 M0.13 419.26 C-0.79 333.39, -0.14 245.44, -0.12 0.59" stroke="#000000" stroke-width="1.5" fill="none" stroke-dasharray="8 9"></path></g><g transform="translate(378.64285714285705 43.817460317460245) rotate(0 200.5 69)"><text x="200.5" y="33" font-family="Virgil, Segoe UI Emoji" font-size="36px" fill="#000000" text-anchor="middle" style="white-space: pre;" direction="ltr">Part 1</text><text x="200.5" y="79" font-family="Virgil, Segoe UI Emoji" font-size="36px" fill="#000000" text-anchor="middle" style="white-space: pre;" direction="ltr">From Source Code to</text><text x="200.5" y="125" font-family="Virgil, Segoe UI Emoji" font-size="36px" fill="#000000" text-anchor="middle" style="white-space: pre;" direction="ltr">Abstract Syntax Tree</text></g><g stroke-linecap="round"><g transform="translate(831.4338860544215 273.7392317544709) rotate(0 33.94988048898206 -0.05766849364499649)"><path d="M-0.34 -1.1 C10.82 -1.1, 54.74 -0.88, 66.07 -0.73 M1.68 0.94 C13.28 1.16, 57.32 0.53, 68.24 0.56" stroke="#000000" stroke-width="2" fill="none"></path></g><g transform="translate(831.4338860544215 273.7392317544709) rotate(0 33.94988048898206 -0.05766849364499649)"><path d="M38.29 9.29 C45.71 9.68, 52.85 5.46, 69.73 1.63 M40.38 10.71 C49.55 8.11, 57.44 3.9, 69.24 0.21" stroke="#000000" stroke-width="2" fill="none"></path></g><g transform="translate(831.4338860544215 273.7392317544709) rotate(0 33.94988048898206 -0.05766849364499649)"><path d="M38.16 -11.23 C45.48 -6.24, 52.65 -5.86, 69.73 1.63 M40.24 -9.81 C49.38 -6.19, 57.31 -4.17, 69.24 0.21" stroke="#000000" stroke-width="2" fill="none"></path></g></g><g stroke-linecap="round"><g transform="translate(272.21153672356854 273.7489876945474) rotate(0 23.577085767717165 0.2789171933416128)"><path d="M0.43 -0.76 C8.48 -1.03, 40.17 -0.81, 47.96 -0.78 M-0.81 1.45 C7.11 1.29, 38.59 0.75, 47.01 0.61" stroke="#000000" stroke-width="2" fill="none"></path></g><g transform="translate(272.21153672356854 273.7489876945474) rotate(0 23.577085767717165 0.2789171933416128)"><path d="M23.34 9.18 C30.17 5.51, 36.5 5.65, 48.22 2.03 M23.72 9.46 C31.06 7.03, 38.19 4.01, 46.51 0.38" stroke="#000000" stroke-width="2" fill="none"></path></g><g transform="translate(272.21153672356854 273.7489876945474) rotate(0 23.577085767717165 0.2789171933416128)"><path d="M23.06 -7.22 C30.08 -6.44, 36.48 -1.85, 48.22 2.03 M23.44 -6.95 C30.72 -4.26, 37.94 -2.16, 46.51 0.38" stroke="#000000" stroke-width="2" fill="none"></path></g></g><g stroke-linecap="round" transform="translate(905.7142857142858 233.4841269841263) rotate(0 95 37.5)"><path d="M2.84 27.64 C2.84 27.64, 2.84 27.64, 2.84 27.64 M2.84 27.64 C2.84 27.64, 2.84 27.64, 2.84 27.64 M4.23 33.81 C5.83 31.26, 8.36 26.23, 14.81 18.18 M2.48 33.35 C5.33 30.72, 7.97 25.89, 15.71 19.73 M3.52 39.72 C8.72 32.76, 12.39 28.23, 24.91 12.17 M2.95 39.7 C10.03 30.93, 19.24 21.8, 26.13 14.66 M2.68 45.07 C12.67 33.43, 19.94 24.03, 31.52 13.26 M3.95 44.39 C13.87 33.19, 23.64 21.09, 32.08 11.97 M5.23 48.9 C16.87 35.75, 28.36 24.72, 38.64 10.91 M7.14 47.48 C14.19 39.59, 21.83 31.45, 40.15 10.7 M11.16 49.53 C18.66 40.07, 27.68 28.59, 45.87 6.97 M9.2 50.68 C21.43 37.32, 32.76 24.66, 46.4 7.05 M12.69 52.32 C23.14 41.22, 33.87 29.47, 52.08 3.83 M12.89 53.58 C22.01 41.31, 32.58 30.49, 53.57 5.09 M14.58 57.65 C28.49 43.39, 39.32 28.07, 61.64 5.64 M15 56.1 C28.92 40.45, 42.23 24.86, 60.84 4.46 M19.76 58.91 C32.72 43.87, 46.93 27.24, 66.17 4.85 M17.4 59.02 C30.2 46.84, 40.47 31.82, 65.05 3.45 M21.76 58.56 C36.23 44.74, 51.3 29.9, 72.78 1.68 M22.95 60.48 C37.69 43.21, 52.91 25.13, 72.48 2.92 M25.67 63.32 C39.55 43.78, 56.1 28.49, 79.23 1.63 M26.03 61.75 C41.23 43.45, 57.66 26.7, 77.43 2.37 M29.1 62.44 C41.36 48.5, 54.52 35.31, 81.41 3.24 M30.94 63.93 C44.37 46.52, 58.02 32.21, 83.32 2.15 M35.25 63.46 C47.25 46.2, 66.02 28.88, 89.82 2.09 M34.5 64.26 C47.16 50.02, 58.75 36.78, 88.52 1.96 M37.16 67.21 C57.28 47.92, 74 24.36, 93.8 2.25 M37.77 65.57 C52.06 51.24, 66.21 34.44, 94.23 0.88 M43.46 66.77 C64.52 42.08, 84.79 19.02, 101.97 0.37 M41.37 67.79 C56.63 52.84, 68.38 36.76, 100.32 -0.17 M46.65 70.53 C67.47 45.87, 87.72 23.05, 104.45 -1.14 M47.15 69.49 C67.93 43.19, 91.15 18.4, 105.1 1.35 M48.78 69.15 C70.84 49.4, 88.03 27.34, 111.25 -0.33 M49.49 71.32 C66.47 52.29, 83.15 33.5, 111.18 1.84 M53.12 71.32 C73.45 51.38, 96.14 25.21, 113.3 3.51 M54.38 72.31 C70.31 51.3, 88.6 30.6, 116 1.29 M57.15 75.01 C72.33 56.94, 83.7 43.48, 120.7 3.13 M57.94 73.58 C76.01 51.63, 95 30.05, 119.6 3.08 M62.92 73.23 C85.15 49.85, 109.7 23.24, 125.81 0.83 M62.29 74.62 C77.88 57.35, 92.21 39.77, 125.22 1.93 M68.01 75.02 C83.11 55.65, 101.81 36.89, 128.84 2.42 M68.02 74.78 C83.45 58.15, 98.39 38.22, 130.37 2.41 M73.93 76.93 C92.61 51.43, 112.45 30.38, 135.6 3.75 M72.02 75.28 C87.29 57.81, 100.93 41.97, 134.05 3.99 M76.36 76.83 C92.32 57.3, 108.45 40.28, 139.72 3.94 M77.33 75.42 C90.09 60.04, 104.45 45.38, 140.53 4.69 M84.21 74.84 C101.82 56.24, 118.81 37.22, 141.81 7.43 M83.63 76.15 C97.85 57.05, 114.87 38.86, 143.97 5.7 M86.64 74.38 C100.29 60.59, 114.05 46.08, 147.59 8.14 M87.73 75.49 C102.29 58.13, 118.99 40.33, 148.07 6.03 M92.64 74.37 C106.67 61.64, 115.46 49.01, 153.08 9.79 M92.73 75.33 C108.51 59.49, 123.37 40.9, 152.75 9.31 M100.14 76.55 C120.28 49.97, 143.48 28.98, 153.46 12.15 M98.58 75.19 C112.95 60.1, 124.91 44.13, 154.51 10.53 M104.92 76.18 C117.04 59.37, 131.13 45.19, 160.17 10.25 M104.52 75.43 C125.21 49.01, 147.63 23.53, 159.02 11.79 M111 75.79 C120.04 61.43, 132.17 49.74, 161.87 13.65 M110.93 75.52 C128.98 51.19, 149.67 29.51, 163.62 14.04 M117.6 74.19 C134.13 52.57, 154.47 29.73, 168.06 14.2 M115.82 73.55 C133.92 52.25, 152.94 30.47, 168.39 15.36 M122.18 75.49 C133.55 62.17, 143.08 46.42, 170.86 17.04 M121.34 73.72 C135.15 58.98, 147.66 43.69, 171.45 16.42 M127.4 74.07 C137.32 59.22, 149.82 46.72, 175.89 21.08 M126.31 73.81 C139.78 60.75, 151.3 47.61, 175.36 19.51 M132.81 70.83 C149.32 57.02, 163.71 37.8, 176.68 20.76 M133.32 72 C145.67 59.15, 157.52 45.06, 176.98 22.78 M140.5 71.71 C149.83 62.5, 155.93 52.41, 180.28 24.54 M139.94 69.79 C152.95 56.44, 164.18 41.76, 180.67 25.23 M146.8 67.95 C157.99 56.58, 166.37 46.52, 183 27.2 M147.9 66.83 C160.73 52.57, 174.57 37.99, 183.4 27.47 M155.95 66.54 C166.71 52.25, 180.49 36.14, 185.35 30.75 M154.24 65.86 C167.96 51, 178.63 37.4, 187.31 29.24 M162.35 63.53 C168.29 56.31, 174.51 47.93, 191.05 33.53 M161.14 64.47 C170.33 55.23, 177.68 46.89, 190.17 32.85 M169.67 65.49 C172.41 57.83, 180.07 49.7, 190.12 39.65 M168.41 63.14 C173.22 56.19, 179.46 48.66, 187.93 39.29 M180.01 55.05 C180 55.5, 182.24 51.88, 189.74 45.75 M178.75 56.56 C181.5 53.33, 183.27 51.34, 187.95 45.48 M17.68 58.92 C17.68 58.92, 17.68 58.92, 17.68 58.92 M17.68 58.92 C17.68 58.92, 17.68 58.92, 17.68 58.92 M30.16 64.72 C25.29 56.83, 18.59 52.6, 4.68 39.68 M28.89 63.32 C23.46 58.09, 17.68 53.55, 3.83 40.49 M38.13 67.77 C28.16 59.89, 18.96 48.57, 3.09 37.54 M39.19 66.37 C29.29 57.9, 18.12 49.8, 3.68 37.08 M51.28 71.48 C36.99 58.05, 27.3 48.08, 2.83 30.44 M49.76 71.05 C32.75 56.41, 15.44 41.03, 3.54 32.32 M52.58 68.4 C38.25 56.12, 22.21 39.73, 5.4 25.99 M53.78 68.26 C38.65 55.82, 25.5 43.71, 3.9 26.16 M60.13 66.76 C44.18 55.32, 31.78 44.82, 8.8 24.71 M60.45 68.42 C49.2 59.43, 37.37 49.26, 8.18 23.73 M65.62 67.25 C50.27 55.79, 38.9 46.92, 9.73 21.81 M65.01 68.72 C48.51 54.17, 32.64 40.24, 12.4 21.74 M74.76 71.11 C52.47 52.95, 35.89 35.81, 15.58 20.12 M72.63 69.77 C58.51 55.91, 44.01 43.06, 14.73 19.79 M80.21 71.92 C64.3 56.78, 49.21 43.33, 20.25 15.71 M78.86 69.8 C66.53 59.44, 52.14 47.6, 18.72 16.58 M85.87 69.15 C64.49 49.94, 43.41 30.16, 20.09 16.26 M87.38 70.8 C66.23 52.73, 43.97 34.37, 20.85 14.76 M91.82 71.94 C72.03 54.24, 46.86 32.08, 25.67 10.75 M92.52 70.72 C73.83 53.74, 53.18 37.24, 25.7 13.07 M97.9 72 C80.46 55.02, 61.53 40.33, 30.3 11.74 M98.25 70.94 C72.94 51.3, 49.91 29.31, 30.02 11.21 M105.9 71.99 C75.83 48.26, 49.71 24.88, 35.72 7.81 M103.94 71.11 C77.84 47.8, 51.24 23.76, 33.93 8.66 M109.07 69.21 C91.93 54.86, 75.09 37.37, 38.67 7.08 M109.35 69.32 C92.14 54.85, 72.35 38.64, 38.95 8.84 M115.91 69.22 C94.99 51.07, 74.14 31.56, 43.85 9 M115.85 70.29 C96.92 52.74, 76.99 36.18, 44.49 7.27 M121.1 70.86 C95.97 47.9, 73.72 29.85, 49.16 7.29 M120.99 68.83 C94.76 47.28, 70.07 24.18, 48.58 5.11 M128.57 67.27 C100.12 44.55, 73.63 25.28, 51.01 4.92 M126.94 69.36 C102.21 47.05, 75.09 23.37, 52.69 4.57 M135.95 68.18 C113.92 49.34, 92.61 30.67, 57.98 2.52 M134.53 70.75 C110.88 50.05, 87.53 30.01, 56.87 3.86 M138.08 66.33 C113.54 48.94, 91.09 25.84, 59.16 -0.02 M138.18 69.2 C107.42 43.07, 77.54 15.03, 61.62 1.28 M144.31 66.98 C112.02 42.46, 86.44 15.23, 64.84 -0.55 M142.77 66.23 C117.47 43.69, 90.41 20.8, 66.03 0.71 M148.66 65.74 C123.63 46.14, 101.85 28.95, 72.78 1.73 M147.27 67.08 C123.3 43.25, 99.45 22.28, 71.62 0.51 M153.4 65.47 C132.15 47.34, 111.09 27.93, 79.21 -0.79 M151.8 64.04 C127.73 45.1, 104.29 23.36, 76.78 -1.02 M158.27 63.32 C131.47 44.53, 108.73 22.14, 83.32 -1.75 M156.41 64.01 C137.24 45.8, 118.08 29.7, 82.79 -0.82 M162.2 63.06 C138.36 41.4, 116.32 24.43, 88.78 -1.17 M160.22 61.39 C144.29 48.53, 129.94 33.52, 88.81 -2.86 M165.12 62.04 C139.27 38.74, 113.82 13.62, 93.74 -1.84 M166.81 61.43 C145.11 42.62, 123.52 23.6, 93.42 -2.04 M169.15 59.65 C146.45 37, 122.37 18.1, 98.79 -2.9 M170.85 59.27 C155.61 46.87, 141.21 34.37, 100.09 -1.31 M173.65 56.79 C155.66 37.86, 133.61 23.92, 108.52 -0.19 M172.68 55.89 C156.65 42.73, 139.45 26.55, 108.14 -1.49 M177.96 53.7 C156.44 34.39, 135.02 15.87, 114.2 2.04 M176.52 54.44 C160.37 40.32, 146.84 26.79, 115.07 -0.44 M178.6 52.86 C158.67 35.05, 139.34 15.53, 123.35 2.83 M179.22 51.64 C166.85 41.87, 155.21 30.54, 121.51 1.04 M185.11 48.74 C166.79 36.05, 153.59 22.62, 130.7 1.49 M183.56 50 C170.85 37.51, 156.66 25.69, 129.71 2.8 M187.93 46.08 C173.85 37.25, 164.42 26.33, 136.44 1.97 M187.66 48.68 C169.17 30.06, 150.07 14.16, 135.34 2.12 M187.02 42.25 C169.34 28.15, 153.37 10.76, 142.74 3.15 M189.04 42.26 C173.51 28.87, 157.76 15.98, 141.45 2.55 M188.81 37.53 C182.19 32.38, 172.05 25.89, 154.02 4.43 M189.15 37.56 C176.7 29.35, 166.42 18.63, 152.26 6 M188.92 32.81 C182.48 26.83, 178.7 21.17, 163.36 12.33 M189.55 31.85 C181.55 24.64, 173.26 17.71, 163.07 11.81" stroke="#40c057" stroke-width="0.5" fill="none"></path><path d="M58.78 3.43 C70.25 0.81, 86.61 -0.93, 100.1 -0.85 C113.58 -0.78, 127.84 1, 139.7 3.87 C151.55 6.75, 163.1 11.77, 171.23 16.4 C179.36 21.02, 185.83 26.26, 188.47 31.6 C191.11 36.93, 190.87 43.35, 187.08 48.39 C183.29 53.42, 174.83 58.01, 165.75 61.82 C156.67 65.62, 145.08 69.14, 132.62 71.21 C120.15 73.29, 104.67 74.32, 90.97 74.27 C77.28 74.23, 62.63 73.48, 50.43 70.94 C38.23 68.39, 25.87 63.58, 17.77 59 C9.68 54.42, 4.35 48.7, 1.88 43.45 C-0.6 38.21, -0.81 32.5, 2.94 27.52 C6.69 22.55, 14.98 17.9, 24.37 13.6 C33.77 9.3, 52.87 3.47, 59.32 1.73 C65.77 0, 62.5 2.32, 63.08 3.19 M109.99 1.35 C122.98 1.19, 138.63 2.71, 149.7 5.51 C160.77 8.31, 169.55 13.42, 176.4 18.14 C183.25 22.87, 189.79 28.16, 190.78 33.85 C191.77 39.55, 187.62 47.18, 182.35 52.32 C177.09 57.45, 169.1 61.23, 159.2 64.65 C149.29 68.06, 136.29 70.94, 122.92 72.81 C109.55 74.68, 92.73 76.66, 78.99 75.89 C65.25 75.12, 51.85 71.67, 40.48 68.19 C29.11 64.7, 17.65 59.5, 10.74 54.97 C3.84 50.44, -0.28 46.04, -0.94 41.02 C-1.6 36, 1.28 29.88, 6.8 24.87 C12.33 19.86, 22.2 14.98, 32.22 10.94 C42.24 6.9, 53.77 2.2, 66.92 0.63 C80.08 -0.93, 103.81 1.43, 111.13 1.55 C118.45 1.68, 111.35 0.76, 110.84 1.4" stroke="#000000" stroke-width="1" fill="none"></path></g><g transform="translate(910.7142857142858 247.9841269841263) rotate(0 90 23)"><text x="90" y="33" font-family="Virgil, Segoe UI Emoji" font-size="36px" fill="#000000" text-anchor="middle" style="white-space: pre;" direction="ltr">AST</text></g></svg>