<svg version="1.1" xmlns="http://www.w3.org/2000/svg" viewBox="0 0 1105.7142857142858 439.99999999999955" width="2211.4285714285716" height="879.9999999999991">
  <!-- svg-source:excalidraw -->
  
  <defs>
    <style>
      @font-face {
        font-family: "Virgil";
        src: url("https://excalidraw.com/Virgil.woff2");
      }
      @font-face {
        font-family: "Cascadia";
        src: url("https://excalidraw.com/Cascadia.woff2");
      }
    </style>
  </defs>
  <g stroke-linecap="round" transform="translate(341.8412698412697 212.53968253968196) rotate(0 100.5 58.5)"><path d="M0 0 C0 0, 0 0, 0 0 M0 0 C0 0, 0 0, 0 0 M-0.97 6.2 C1.18 5.01, 3.33 2.1, 4.7 0.56 M-0.46 6.29 C1.34 5.02, 2.8 2.58, 4.95 0.02 M0.18 10.7 C1.92 10.81, 3.69 7.34, 11.32 0.47 M0.04 11.85 C3.77 6.74, 7.65 2.02, 10.26 -0.43 M1.35 19.76 C7.44 11.65, 12.76 3.35, 15.32 0 M-1 18.07 C3.44 12.79, 8.56 9.67, 16.49 1.12 M-0.44 23.3 C3.66 16.63, 12.08 11.68, 21.87 -0.19 M0.97 23.3 C5.17 18.38, 9.17 13.31, 21.91 -0.23 M-0.43 31.49 C5.83 23.52, 10.41 17.81, 26.85 -0.93 M0.73 30.5 C8.08 20.53, 18.94 9.66, 27 0.93 M0.29 35.88 C10.99 24.2, 21.78 10.5, 31.78 -1.9 M0.18 37.51 C7.75 27.58, 13.74 19.2, 32.59 -0.34 M-0.14 44.27 C10.02 32.15, 18.01 18.7, 37.82 1.49 M0.88 42.79 C12.62 26.71, 26.91 12.82, 37.02 0.16 M0.66 48.03 C11.09 32.79, 26.27 17.45, 41.94 1.12 M0.54 49.16 C13.18 32.24, 27.78 16.54, 41.91 -0.76 M0.92 53.76 C11.05 39.24, 25.6 25.63, 46.71 -0.83 M0.15 54.04 C11.81 41.42, 23.29 27.68, 47.38 -0.2 M0.47 62.4 C18.46 37.46, 36.97 17.51, 52.55 -0.94 M-0.79 60.98 C21.89 36.66, 41.27 12.68, 53.83 0.37 M0.31 68.88 C21.07 44.99, 40.91 18.29, 59.46 0.52 M-1.15 67.86 C11.56 52.65, 25.67 37.57, 57.16 0.58 M-0.32 73.42 C22.95 45.39, 45.88 20.77, 63.32 -1.44 M0.3 72.69 C17.24 53.37, 34.02 33.36, 64.55 0.66 M1.06 80.78 C17.52 55.23, 40.16 33.91, 69.55 -1.54 M-0.51 79.35 C25.93 48.4, 52.55 18.42, 69.69 0.97 M1.76 83.99 C27.62 57.65, 52.45 27.45, 73.46 -1.21 M0.12 85.79 C28.09 52.72, 55.57 22.41, 74.54 -0.54 M-0.3 91.38 C17.44 69.4, 39.32 47.52, 77.93 -1.59 M0.89 91.61 C18.48 70.2, 38.4 45.71, 78.56 -0.8 M1 98.29 C18.43 74.62, 39.3 50.56, 85.69 -0.58 M0.6 98.25 C25.18 68.74, 51.54 36.98, 84.5 -0.13 M0.97 102.34 C18.91 79.66, 39.19 60.36, 89.07 -1.73 M0.73 102.76 C28.35 70.33, 56.19 38.72, 89.6 -0.74 M1.18 110.71 C34.7 71.42, 66.1 32.81, 94.22 0.62 M-0.1 109.55 C23.59 83.09, 47 57.13, 95.38 -1.24 M1.06 115.84 C28.12 83.73, 55.51 55.95, 98.92 0.46 M0.99 114.64 C24.41 89.45, 48.22 62.89, 100.88 0.88 M2.24 119.42 C25.73 92.3, 49.69 65.15, 104.76 -0.97 M3.05 118.15 C37.28 79.22, 72.52 39.45, 106.4 -1.27 M6.91 118.22 C32.35 90.48, 57.44 63.6, 110.94 -0.11 M7.08 118.57 C32.29 90.14, 57.29 62.62, 110.74 -0.46 M14.87 119.29 C37.62 92.19, 59.91 65.59, 117.86 0.59 M12.63 118.5 C42.68 83.75, 70.87 50.53, 116.35 0.88 M17.79 121.19 C40.73 95.93, 60.38 71.68, 120.11 -0.02 M17.53 118.42 C56.14 76.42, 92.04 35, 121.77 0.46 M24.17 120.78 C63.38 76.07, 101.47 31.05, 127.54 1.45 M24.37 117.89 C48.26 94.59, 70.43 66.53, 126.25 -0.18 M29.13 120.19 C58.8 83.74, 91.2 48.72, 132.87 0.65 M29.76 119.08 C65.74 78.15, 102.16 37.2, 132.79 0.63 M34.6 117.81 C61.97 86.13, 87.37 55.58, 137.37 0.52 M34.09 118.28 C75.48 70.8, 115.93 25.03, 137.41 0.16 M39.14 119.36 C64.17 92.07, 89.11 63.43, 143.18 -1.7 M38.73 119.4 C80.55 73.36, 121.13 26.73, 142.9 0.78 M46.12 116.8 C81.28 78.9, 120.65 33.66, 147.04 0.48 M45.86 119.42 C73.23 87.16, 100.78 54.83, 148.04 -0.51 M49.53 119.39 C90.28 76.62, 125.93 31.56, 152.52 1.85 M49.65 119.98 C73.94 92.75, 96.28 66.45, 153.4 -0.62 M53.53 121.41 C90.35 83.5, 121.89 43.94, 159.78 0.48 M55.38 119.54 C82.8 89.28, 107.37 59.87, 158.58 1.18 M61.52 117.43 C90.79 81.76, 121.36 45.91, 165.84 0.71 M59.97 119.19 C95.57 78.85, 131.57 40.64, 163.91 0.68 M65.12 117.55 C91.05 89.43, 115.61 63.84, 170.29 0.19 M66.52 120.36 C101.53 77.49, 137.98 35.61, 169.75 0.33 M71.81 119.15 C95.95 91.62, 120.48 64.57, 175.6 0.81 M71.4 119.12 C96.8 92.14, 120.4 63.74, 174.23 0.65 M74.67 117.89 C103.25 90.92, 127.67 59.69, 180.79 -0.23 M75.48 119.62 C111.04 80.64, 146.24 40.41, 180.5 -0.2 M80.62 118.71 C120.85 73.71, 163.82 25.95, 185.76 0.55 M81.9 119.63 C120.01 74.96, 158.27 29.81, 186.46 -0.98 M88.16 118.84 C115.33 82.67, 146.07 47.42, 188.98 -0.11 M87.32 120.04 C124.72 76.25, 160.25 34.75, 190.04 0.18 M91.65 118.78 C117.61 89.93, 140.57 63.34, 195.78 -1.16 M93.67 118.33 C132.77 72.08, 172.35 27.69, 196.93 -0.74 M99.04 121.32 C131.61 78.87, 169.35 39.45, 200.08 1.72 M97.38 120.11 C131.35 78.81, 166.21 38.93, 201.83 -0.15 M104.12 118.52 C128.56 90.17, 150.93 61.43, 202.73 5.9 M103.17 118.57 C130.68 89.35, 157.08 58.47, 200.31 7.42 M108.28 118.73 C143.65 79.41, 177.9 39.52, 200.3 10.98 M109.25 120.05 C142.42 78.41, 175.26 40.41, 201.07 12.97 M112.74 117.59 C141.97 86.65, 173.66 51.59, 202.36 20.12 M113.11 119.46 C134.78 94.9, 157.01 69.74, 200.75 18.94 M120.33 121 C137.72 94.9, 159.43 74.58, 199.69 26.52 M118.76 119.85 C145.71 86.36, 171.82 55.2, 201.57 24.09 M123.72 120.16 C142.83 95.15, 165.08 73.55, 201.25 28.65 M124.45 119.86 C144.3 97.97, 161.24 75.41, 201.92 31.29 M131.16 118.54 C155.98 90.72, 179.45 60.88, 199.27 37.51 M129.98 119.24 C148.15 98.17, 168.36 74.34, 200.85 37.29 M134.77 118.89 C155.63 95.45, 180.57 67.77, 200.84 44.38 M134.39 118.36 C149.08 103.51, 161.74 87.09, 201.16 42.94 M140.23 118.26 C152.72 102.11, 168.69 87.42, 201.61 47.85 M139.25 119.7 C152.19 104.1, 166.6 88.52, 200.7 48.7 M147.1 118.95 C166.6 93.57, 185.89 71.36, 201.44 53.5 M146.39 119.33 C160.09 103.09, 173.89 86.87, 201.39 54.88 M150.5 119.57 C167.25 103.19, 181.1 84.65, 201.4 61.22 M151.16 118.46 C168.85 99.02, 186.93 77.75, 201.83 61.41 M157.42 117.99 C173.49 100.89, 190.34 79.85, 200.82 68.41 M156.16 118.87 C168.02 106.27, 178.45 93.34, 201.76 67.58 M160.43 118.39 C173 104.18, 188.91 86.71, 200.87 73.77 M160.53 118.49 C171.46 106.98, 182.72 95.54, 201.2 72.28 M165.29 118.95 C178.03 104.2, 191.21 92.08, 202.3 80.27 M166.99 119.59 C176.9 108.14, 186.13 96.41, 201.69 79.52 M171.98 119.14 C178.77 108.46, 189.97 100.03, 201.06 86.92 M172.44 118.54 C179.85 108.67, 188.46 99.33, 201.36 86.67 M175.73 118.97 C180.96 114.89, 186.75 106.54, 201.33 92 M176.41 119.59 C186.12 108.79, 195.47 99.06, 201.51 92.19 M182.61 118.73 C188.99 112.78, 192.8 108.2, 200.51 96.33 M182.23 119.08 C189.75 111.74, 196.38 103, 201.08 97.42 M187.29 117.98 C193.76 114.59, 197.16 106.37, 200.86 103.01 M188.22 118.97 C191.52 115.31, 197.38 109.94, 201.81 102.81 M193.3 118.75 C195.75 115.64, 199.61 111.72, 200.03 109.05 M193.42 118.61 C195.94 115.57, 199.76 111.59, 201.33 109.63 M198.39 119.44 C199.12 118.41, 199.22 118.3, 201.3 116.69 M198.48 119.28 C199.19 118.29, 200.02 117.24, 200.9 116.52 M0.18 117.16 C0.18 117.16, 0.18 117.16, 0.18 117.16 M0.18 117.16 C0.18 117.16, 0.18 117.16, 0.18 117.16 M5.5 117.06 C4.33 115.14, 3.37 114.92, 0.22 111.27 M5.48 117.05 C3.67 115.17, 1.85 113, -0.34 111.49 M13.44 117.18 C6.27 112.38, 2.27 107.47, 1.38 106.32 M11.71 116.8 C9.22 113.92, 4.91 111.05, 0.56 106.66 M20.39 117.99 C10.3 109.97, 4.46 103.75, -1.45 102.58 M19.34 117.21 C12.88 111.91, 6.67 105.21, -0.99 100.14 M22.72 115.19 C18.95 113.62, 11.5 107.35, 1.45 94.71 M24.62 116.94 C17.96 112.26, 11.48 105.28, -0.6 95.82 M31.97 118.46 C24.45 112.09, 16.7 103.56, -0.43 92.19 M29.68 116.59 C19.05 107.96, 6.3 96.85, -0.13 91.22 M34.59 116.08 C26.55 110.68, 19.74 102.62, -1.64 85.48 M35.94 116.29 C24.79 105.46, 13.24 96.31, 0.08 86.09 M41.24 117.24 C33.99 108.18, 25.51 102.61, 0.42 77.66 M42.45 116.39 C27.42 102.79, 10.32 89.71, -0.15 78.65 M48.55 116.45 C38.74 107.3, 26.22 99.71, -1.38 74.75 M49.14 116.41 C38.25 107.32, 25.69 97.38, -0.35 74.37 M56.39 116.49 C32.56 100.86, 15.32 80.65, 1.04 69.4 M55.59 116.46 C34.45 98.84, 15.15 81.62, -0.94 68.17 M61.08 115.39 C39.57 97.94, 15.08 75.86, -0.04 63.18 M61.78 116.73 C40.77 97.75, 19.11 79.54, -0.67 63.25 M65.14 114.86 C44.49 98.41, 21.07 75.82, 1.65 58.97 M67.32 116.41 C53.78 104.54, 38.74 93.1, 0.57 59.92 M74.37 118.49 C52.58 100.73, 36.48 85.98, -0.42 51.94 M73.96 116.39 C44.47 91.22, 15.65 66.87, 0.56 53.1 M79.47 116.19 C64.84 102.61, 46.26 87.93, -0.29 48.49 M78.85 118.24 C56.24 97.74, 31.93 76.92, -0.54 47.81 M85.39 115.15 C62.34 96.67, 40.16 76.94, -1.81 42.69 M85.26 117.61 C63.72 97.56, 42.42 79.71, -0.94 42.02 M92.56 118.82 C63.4 91.92, 38.07 69.45, -1.58 38.51 M91.38 117.75 C69.99 99.69, 49.41 80.22, -0.69 37.47 M98.6 115.29 C72.99 98.1, 52.32 78.91, 0 33.59 M97.5 116.37 C77.59 97.5, 55.61 79.82, 0.78 31.87 M103.38 115.57 C70.78 88.34, 36.06 58.26, -0.24 25.46 M104.61 116.45 C67.06 85.41, 28.93 53.19, 1.21 27.65 M110.72 117.98 C65.28 81.35, 21.61 40.97, 0.73 23.32 M109.53 117.07 C74.97 85.32, 38.45 54.22, -0.06 22.24 M117.65 115.12 C85.2 89.89, 54.55 65.08, 1.18 18.25 M115.76 116.95 C88.84 94.35, 61.68 70.21, 0.49 16.82 M123.7 116.82 C95.21 92.87, 67.24 70.69, -0.42 11.02 M122.17 117.87 C95.74 94.37, 71.28 72.62, -1.02 10.51 M128.58 118.61 C93.08 84.67, 57.39 55.53, -0.36 6.29 M128.28 117.6 C84.31 78.93, 40.44 40.05, 0.72 5.2 M133.25 115.88 C106.41 94.73, 79.44 69.4, -0.73 0.37 M134.75 116.65 C100.39 88.7, 66.72 60.37, 0.62 -0.23 M141.63 116.37 C87.96 70.13, 35.7 26.63, 1.88 -2.54 M140.63 117.16 C88.54 71.62, 35.25 24.74, 2.01 -3.24 M145.84 115.08 C108.27 84.32, 73.11 48.39, 7.06 -0.59 M146.11 116.4 C114.71 89.22, 81.21 62.46, 8.87 -3.26 M151.5 117.26 C121.48 89.18, 87.95 62.61, 15.38 -3.26 M153.27 116.18 C121.26 88.85, 90.15 61.01, 13.99 -2.22 M159.42 114.82 C107.22 72.61, 57.91 30.6, 22.63 -4.46 M157.33 115.84 C116.61 80.94, 74.92 44.12, 20.89 -3.2 M162.66 116.59 C132.44 87.79, 95.96 58.6, 25.81 -1.48 M165.15 116.93 C125.31 80.9, 85.59 46.3, 27.18 -2.79 M172.22 116.69 C131.65 83.84, 98.17 53.69, 32.17 -4.69 M170.49 118.12 C116.75 69.7, 63.37 22.12, 33.13 -2.34 M178.32 117.53 C130.11 76.88, 82.63 34.54, 40.89 -1.14 M176.73 116.74 C122.88 70.97, 69.58 23.48, 38.9 -3.07 M183.67 116.77 C134.83 74.49, 86.39 29.94, 44.38 -3.61 M183.67 116.16 C128.92 70.72, 76.35 24.99, 45.29 -2.57 M189.19 115.74 C162.05 91.49, 132.47 66.71, 49.55 -3.63 M188.72 116.73 C143.84 77.15, 98.34 38.43, 50.49 -3.37 M195.01 117.65 C159 86.62, 126.15 57.43, 55.49 -3.07 M195.45 116.58 C145.01 73.88, 94.8 30.26, 57.33 -4.02 M201.48 115.38 C147.71 71.77, 97.13 26.5, 62.53 -3.89 M200.07 115.76 C169.95 90.51, 137.19 61.85, 63.79 -2.32 M200.15 112.48 C171.68 84.91, 141.83 59.44, 69.95 -3.74 M201.89 111.87 C153.02 68.28, 105.96 26.06, 70.22 -2.44 M201.59 107.29 C173.21 82.31, 142.69 56.14, 77.27 -0.99 M200.67 106.59 C167.87 78.54, 134.53 48.31, 76.12 -3.44 M202.55 100.18 C162.45 70.67, 123.92 36.79, 81.48 -3.77 M201.3 101.51 C174.86 78.22, 146.35 53.79, 80.89 -1.79 M201.28 97.8 C165.65 63.8, 129.27 33.29, 86.75 -1.53 M200.55 96.76 C162.51 63.96, 125.58 32.65, 87.06 -2.49 M199.22 89.42 C174.55 68.64, 148.97 44.28, 93.52 -2.84 M200.31 89.98 C165.66 59.07, 128.59 26.07, 94.81 -2.31 M202.03 85.24 C170.86 60.7, 144.85 35.68, 100.17 -2.94 M202.16 85.03 C171.98 58.32, 140.65 32.18, 101.21 -2.85 M200.6 80.1 C172.37 56.33, 141.81 30.23, 104.3 -4.79 M201.76 80.26 C174.01 58.36, 148.34 34.25, 104.95 -3.13 M200.04 75.77 C174.04 48.83, 145.46 22.93, 111.99 -4.11 M201.46 75.26 C176.54 53.9, 154.42 34.01, 113.13 -2.08 M200.67 68.65 C179.14 48.73, 157.42 27.36, 119.52 -4.95 M200.72 69.09 C170.81 42.82, 138.65 15.07, 118.49 -3.65 M203.03 64.06 C175.93 40.41, 151.61 18.6, 122.42 -1.47 M200.67 65.05 C184.37 48.79, 167.08 33.96, 123.92 -2.06 M200.89 59.97 C181.65 38.58, 160.07 21.48, 129.15 -1.51 M200.53 58.93 C173.8 34.55, 146.79 9.98, 131.67 -2.87 M202.21 53.27 C178.83 33, 155.66 12.77, 134.42 -3.62 M202.22 53.76 C185.91 40.94, 172.21 30.38, 136.15 -3.55 M202.2 47.48 C179.25 29.84, 156.57 9.21, 144.4 -2.1 M200.77 48.03 C179.22 30.03, 156.25 9.29, 142.67 -1.98 M200.29 43.06 C185.49 29.18, 167.69 12.05, 146.46 -2.62 M200.85 42.49 C190.98 33.01, 178.58 23.94, 148.65 -3.57 M201.09 37.1 C185.74 21.57, 168.59 9.61, 154.23 -3.92 M201.27 36.36 C189.94 27.9, 177.17 17.4, 154.2 -2.48 M199.47 33.6 C187.68 18.91, 169.47 6.86, 161.26 -1.43 M201.49 32.1 C186.95 18.89, 170.99 5.98, 161.27 -2.74 M201.5 27.23 C192.38 17.63, 182.75 12.17, 166.34 -4.29 M200.11 25.65 C192.64 20.1, 186.35 13.35, 166.48 -2.77 M201.48 21.55 C192.71 15.27, 186.57 8.85, 174.75 -4.42 M201.36 21.19 C194.47 16.02, 186.22 8.86, 173.83 -1.89 M198.9 16.79 C194.21 8.15, 186.77 2.29, 179.95 -4.06 M201.62 15.39 C194.17 8.87, 185.66 3.16, 177.96 -3.48 M199.52 12.08 C196.31 5.79, 188.1 2, 184.66 -1.54 M201.92 10.13 C196.04 7.01, 189.51 1.61, 184.66 -2.14 M200.46 5.25 C198.14 3.48, 195.16 -0.8, 191 -2.76 M200.54 5 C197.46 1.84, 193.16 -0.86, 191.94 -2.73 M201.41 -0.04 C200.27 -0.93, 199 -1.97, 196.87 -2.93 M201.06 0.5 C199.71 -0.95, 198.68 -1.54, 197.41 -3.09" stroke="#40c057" stroke-width="0.5" fill="none"></path><path d="M1.23 -1.42 C73 -2.1, 143.58 -0.73, 201.17 0.19 M0.72 -0.81 C57.4 1.64, 115.75 2.08, 201.44 -0.67 M201.96 -0.63 C202.01 30.65, 199.57 59.97, 202.6 115.78 M200.54 0.78 C201.16 34.46, 202.26 66.96, 200.7 117.24 M202.17 115.29 C138.45 116.34, 77.68 116.26, -1.25 116.29 M200.9 117.5 C124.32 117.88, 46.12 118.56, 0.49 116.95 M-1.87 117.91 C0.99 76.4, 0.66 32.74, -0.09 -1.66 M-0.38 117.74 C-0.87 71.29, 0.12 26.87, -0.45 0.2" stroke="#000000" stroke-width="1" fill="none"></path></g><g transform="translate(346.8412698412697 248.03968253968196) rotate(0 95.5 23)"><text x="95.5" y="33" font-family="Virgil, Segoe UI Emoji" font-size="36px" fill="#000000" text-anchor="middle" style="white-space: pre;" direction="ltr">Tokenizer</text></g><g stroke-linecap="round" transform="translate(10 214.9841269841263) rotate(0 124 56)"><path d="M6.15 39.8 C6.15 39.8, 6.15 39.8, 6.15 39.8 M6.15 39.8 C6.15 39.8, 6.15 39.8, 6.15 39.8 M5.01 49.76 C12.01 39.01, 17.46 31.81, 28.57 18.99 M4.5 49.13 C10.52 40.97, 17.86 33.78, 28.83 18.89 M0.98 59.33 C15.64 43.98, 26.92 28.94, 38.23 19.11 M1.42 57.75 C12.77 43.85, 24.46 30.76, 36.24 16.23 M1.44 62.14 C15.53 49.53, 25.39 37, 45.14 14.71 M1.75 61.79 C15.26 45.56, 28.95 30.96, 43.24 14.23 M6.14 64.33 C16.76 52.07, 31.07 39.39, 52.54 12.39 M4.98 66.73 C20.9 47.5, 36.56 30.1, 50.2 12.61 M6.38 68.2 C26.45 46.73, 45.41 25.93, 56.88 9.67 M7.44 70.17 C26.19 46.11, 47.23 24.36, 58.62 9.47 M7.41 74.82 C22.05 58.79, 30.64 45.73, 64.97 6.56 M9.25 73.84 C20.58 59.53, 34.67 44.81, 66.59 6.33 M11.41 76.68 C26.15 58.73, 45.17 38.92, 72.2 7.07 M11.81 75.87 C25.92 60.75, 38.54 44.89, 71.69 7.08 M13.88 81.53 C35.3 57.05, 53.49 31.38, 78.25 7.12 M14.63 80.03 C29.28 61.53, 44.33 44.36, 79.07 5.5 M15.89 84.06 C39.31 54.01, 63.56 26.75, 82.7 3.12 M16.17 82.99 C30.97 67.8, 44.77 50.36, 83.64 5.26 M21.12 84.42 C39.7 58.98, 61.13 36.58, 90.82 2.73 M19.27 86.27 C38.58 62.81, 58.14 39.59, 90.28 4.18 M24.92 88.25 C37.52 70, 56.52 50.45, 95.77 1.79 M22.8 87.84 C49.96 55.22, 76.74 26.03, 96.64 2.71 M25.87 90.18 C43.68 65.91, 64.61 47.5, 102.36 1.38 M25.7 89.01 C47.79 65.1, 68.11 42.45, 101.33 2.45 M28.87 91.01 C52.05 66.21, 73.28 39.47, 109.31 0.78 M30.53 91.26 C55.12 63.26, 77.65 35.02, 108.69 0.63 M34.07 92.79 C50.05 73.22, 70.31 51.23, 112.36 3.27 M34.95 92.7 C62.15 59.31, 91.29 26.31, 112.41 1.4 M37.91 93.78 C57.28 69.3, 80.17 47.36, 120.44 2.81 M37.23 94.58 C63.83 65.33, 89.61 35.28, 118.21 2.01 M42.12 95.47 C62.75 71.97, 84.17 48.32, 125.49 3.36 M41.74 97.81 C68.46 66.21, 95.13 36.03, 124.13 1.62 M47.37 96.78 C66.97 71.37, 91.26 44.47, 128.71 3.83 M45.14 98.65 C67 73.14, 86.93 48.51, 129.32 1.78 M47.61 100.16 C80.03 65.8, 108.38 30.3, 134.92 4.12 M49.2 100.29 C78.11 64.91, 108.87 32.56, 134.85 1.93 M51.74 101.23 C73.92 78.86, 94.03 55.77, 138.21 3.31 M52.96 100.04 C74.28 77.7, 95.18 54.41, 139.92 3.14 M59.95 101.09 C86.61 72.22, 112.35 40.71, 142.96 2.75 M57.58 101.1 C79.49 78.5, 100.69 53.44, 143.33 2.65 M63.36 102.31 C96.08 63.76, 132.38 23.8, 148.84 4.96 M62.47 104.08 C79.98 83.67, 95.58 63.57, 148.99 4.32 M68.38 104.7 C92.79 74.89, 114.91 48.6, 156.44 3.95 M66.18 104.21 C90.51 76.5, 116.51 46.96, 154.08 2.38 M69.72 104.27 C91.57 81.09, 111.83 59.33, 157.67 3.22 M71.86 105.86 C96.85 74.34, 123.69 44.36, 159.91 3 M74.68 108.98 C95.03 86.41, 113.06 66.95, 163.39 3.71 M74.1 107.81 C102.3 73.6, 130.58 42.42, 164.07 5.71 M78.84 106.8 C110.09 71.4, 142.65 38.23, 167.01 3.83 M79.07 108.71 C108.11 75.4, 135.99 42.13, 168.54 4.91 M83.07 109.13 C118.21 70.76, 150.46 32.77, 173.61 7.47 M84.11 110.11 C106.46 84.93, 128.14 58.67, 173.3 7.45 M88.53 111.61 C115.82 74.75, 148.7 42.14, 176.21 6.74 M87.13 110.71 C110.48 83.83, 134.63 56.27, 177.08 8.76 M92.96 109.34 C120.03 77.63, 149.43 46.07, 181.44 8.7 M93.45 111.07 C128.29 69.44, 163.23 29.69, 181.55 9.19 M99.1 109.66 C113.41 90.96, 134.33 71.65, 187.87 8.9 M96.75 111.93 C130.07 72.07, 162.6 35.33, 186.16 8.98 M104.92 112.59 C126.76 84.44, 146.46 58.49, 192.37 9.36 M103.76 110.14 C129.59 78.98, 156.11 48.89, 190.99 9.76 M110.06 109.41 C132.83 85.52, 155.73 61.32, 195.07 13.04 M109.18 110.71 C135.52 82.39, 161.12 51.5, 194.2 12.54 M113.4 112.34 C132.02 89.23, 153.22 65.55, 197.74 13.9 M113.79 112.04 C144.58 76.75, 174.59 42.94, 198.92 13.24 M120.09 111.82 C139.45 87.98, 160.89 65.67, 206.71 13.59 M118.01 110.64 C147.69 78.34, 175.34 44.18, 204.66 12.9 M124.62 109.79 C148.41 83.28, 169.78 58.95, 208.02 15.28 M123.35 111.96 C152.02 80.4, 178.25 49.35, 208.99 14.97 M127.7 110.13 C149.86 87.26, 172.75 62.15, 209.6 16.06 M127.94 112.31 C159.61 76.18, 191.41 39.97, 212.17 17.28 M135.35 111.92 C161.74 80.52, 190.35 44.55, 213.62 19.25 M134.01 111.63 C153.85 89.75, 173.03 67.73, 216.05 19.79 M136.55 112.27 C166.81 80.8, 195.5 45.75, 219.59 19.63 M138.09 113.79 C166.53 79.18, 197.04 46.25, 219.64 21.37 M142.83 113.19 C164.61 91.37, 180.38 70.65, 223.96 23.47 M145.08 112.99 C171.6 80.62, 199.92 49.31, 223.22 23.27 M150.74 113.19 C168.91 93.7, 185.08 72.67, 223.79 25.01 M151.24 110.89 C169.24 90.7, 187.28 68.81, 226.5 25.14 M156.11 111.78 C174.98 89.57, 190.46 70.44, 228.4 26.44 M156.93 110.5 C179.46 82.71, 204.04 55, 228.79 26.5 M163 108.38 C177.79 89.75, 196.8 71.76, 232.42 29.42 M162.06 108.72 C178.84 91.75, 193.99 73.49, 232.54 29.77 M168.14 110.68 C186.97 85.32, 206.22 63.71, 234.76 31.84 M169.06 110.11 C187.64 88.06, 205.47 65.62, 236.79 30.54 M175.15 107.55 C190.26 90.54, 201.73 76.82, 240.27 34.07 M175.57 107.36 C192.17 88.21, 210.94 65.47, 237.36 35.26 M180.3 103.83 C199.31 85.73, 216.14 65.17, 240.73 37.91 M182.68 105.53 C198.88 85.3, 216.49 65.21, 240.33 37.76 M188.79 100.11 C208.32 81.12, 225.94 59.45, 242.56 43.17 M189.8 101.36 C205.82 84.23, 219.16 68.29, 242.25 41.29 M196.49 98.94 C211.34 83.54, 223.6 70.72, 244.46 45.85 M198.77 98.96 C214.91 79.51, 231.14 61.16, 246.26 44.21 M205.49 96.83 C222.4 80.21, 236.84 59.45, 246.38 49.17 M206.02 97.34 C217.86 84.94, 227.42 71.48, 247.61 48.56 M215.17 93.49 C225.99 82.37, 232.41 70.78, 250.59 50.6 M214.09 93.12 C221.9 85.21, 229.57 75.33, 249.17 52.49 M220.57 89.9 C230.25 80.18, 240.34 68.2, 246.03 62.08 M220.49 92.12 C229.03 80.78, 238.55 71.16, 248.32 60.07 M238.08 76.85 C241.18 75.22, 244.24 71.67, 246.46 69.17 M238 77.14 C240.63 75.66, 241.83 72.92, 245.98 69.59 M14.54 82.35 C14.54 82.35, 14.54 82.35, 14.54 82.35 M14.54 82.35 C14.54 82.35, 14.54 82.35, 14.54 82.35 M28.35 88.56 C21.66 82.06, 13.44 72.66, 6.28 68.76 M30.28 90.03 C22.33 83.97, 15.08 78.36, 6.14 70.9 M44.29 99.64 C31.36 90.29, 21.48 77.6, 1.56 60.45 M44.61 98.86 C32.98 88.03, 22.07 77.04, 1.01 59.4 M47.42 94.22 C35.46 84.11, 26.38 75.97, 3.35 55.43 M46.61 94.16 C36.49 86.2, 26.3 76.86, 1.85 55.3 M56.31 99.73 C46.48 88.08, 35.79 79.5, 3.09 52.77 M55.78 97.22 C42.68 84.88, 29.2 72.74, 4.02 51.82 M65.14 100.48 C53.37 87.18, 39.2 75.96, 5.28 47.67 M66.09 100.66 C49.85 85.03, 30.62 69.13, 5.26 46.25 M77.17 104.92 C59.65 91.49, 48 78.45, 5.71 44.55 M75.91 103.13 C52.42 84.47, 30.01 64.68, 4.41 42.51 M89.19 108.69 C68.11 91.67, 49.99 77.07, 9.2 40.7 M86.98 107.9 C58.27 82.32, 29.97 57.93, 7.68 38.33 M92.47 107.11 C71.36 89.48, 49.42 68.7, 9.1 35.98 M93.82 108.84 C73.48 91.41, 55.01 75.29, 10.65 36.42 M100.4 109.89 C66.82 80.06, 38.95 54.11, 13.03 32.45 M99.92 108.64 C66.93 78.95, 33.24 51.17, 12.49 33.61 M107.35 108.34 C77.67 81.88, 45.1 57.3, 14.41 32.09 M107.08 109.51 C85.15 89.43, 63.92 71.59, 15.98 30.08 M110.24 110.35 C90.44 86.2, 64.83 69.68, 17.93 27.74 M111.45 109.66 C82.45 82.57, 54.84 58.6, 19.52 27.77 M116.51 109.99 C80.71 74.2, 43.35 41.97, 22.55 24.8 M118.07 108.4 C79.59 77.08, 42.1 43.3, 22.62 25.64 M124.64 110.58 C87.26 78.67, 50.92 47.07, 23.79 20.89 M125.81 108.72 C95.14 83.43, 66.03 56.23, 24.63 22.76 M132.12 110.33 C96.89 78.62, 59.26 47.05, 28.43 18.82 M131.91 110.4 C91.08 76.38, 53.81 41.34, 28.04 18.82 M134.99 108 C104.58 80.04, 73.5 55.31, 29.29 15.66 M135.96 109.22 C101.53 78.01, 64.08 46.03, 29.67 16.71 M143.07 107.87 C113.94 81.71, 83.55 53.6, 36.23 15 M141.69 109.38 C108.81 78.22, 77.18 49.3, 34.24 14.22 M146.72 108.81 C119.83 83.22, 95.59 61.67, 38.37 12 M148.15 108.11 C120.16 83.12, 91.78 57.2, 39.02 14.67 M153.8 107.22 C122.45 81.82, 89.42 54.16, 43.37 10.38 M153.27 108.09 C118.82 77.38, 84.75 47.05, 43.69 11.36 M157.73 106.72 C122.92 75, 82.62 41.46, 49.41 12.07 M158.34 106.61 C124.84 75.27, 87.97 45.68, 48.77 10.7 M165.2 104.5 C140.94 86.72, 117.63 67.21, 51.99 10.2 M164.26 105.5 C126.08 71.69, 87.26 38.55, 52.88 8.74 M171.2 103.6 C129.17 71.35, 89.73 33.18, 58.59 6.16 M169.03 104.82 C129.59 68.28, 87.37 32.89, 56.01 7.69 M173.96 102.66 C142.85 79.88, 111.51 51.86, 62.26 4.51 M173.26 104.19 C152.06 85.34, 126.9 64.29, 61.52 6.39 M178.04 104.16 C133.98 65.65, 91.02 28.97, 65.07 6.71 M179.69 104.46 C145.6 73.99, 111.72 44.41, 66.12 5.47 M184.48 103.51 C155.86 75.32, 125.07 47.88, 71.36 6.81 M183.88 102.35 C152.59 74.53, 119.56 47.09, 71.62 4.57 M188.15 103.29 C153.15 69.2, 118.51 37.11, 76.51 5.7 M188.04 102.17 C161.41 75.38, 131.03 51.15, 76.19 4.13 M194.42 101.02 C152.75 63.6, 109.71 29.56, 81.43 3.51 M192.22 99.06 C167.11 78.27, 141.4 56.21, 83.38 3.19 M198.2 97.38 C171.95 80.56, 152.6 58.76, 89.07 2.59 M197.83 98.8 C156.84 61.5, 115.48 27.41, 89.08 3.99 M201.94 96.63 C164.77 65.35, 127.53 31.24, 91.65 0.5 M202.14 95.64 C170.27 70.66, 139.2 42.37, 93.29 2.38 M205.37 94.27 C173.4 68.64, 141.01 41.45, 97.92 3.02 M204.54 95.48 C182.04 76.11, 160.03 54.46, 99.89 2.32 M210.48 91.98 C182.02 69.5, 153.21 42.76, 104.92 2.48 M210 92.35 C173.11 62.55, 137.56 31, 102.84 1.82 M215.31 93.34 C171.76 55.34, 129.75 22.59, 108.98 2.1 M213.39 91.57 C175 57.5, 133.3 22.35, 109.73 0.63 M219.93 88.18 C188.48 64.56, 159 36.77, 112.67 -2.33 M217.91 89.65 C186.85 62.37, 155.56 35.97, 115.24 -0.5 M223.94 87.5 C195.25 65.02, 164.57 39.6, 120.65 -1.53 M223.12 88.71 C191.69 62.37, 160.02 35.15, 121.45 0.63 M226.96 86.56 C198.03 63.47, 172.34 40.35, 129.06 -0.27 M225.94 85.02 C195.05 58.8, 164.91 32.46, 127.76 -0.43 M227.66 81.13 C198.66 57.68, 166.26 29.76, 131.86 2.23 M228.19 82.79 C209.43 65.15, 189.97 47.95, 133.67 0.32 M233.99 80.55 C212.09 60.3, 190.84 43.1, 140.26 1.93 M231.24 80.75 C204.48 55.14, 176.05 31.82, 140.84 0.53 M235.91 78.07 C212.63 57.97, 193.01 40.52, 147.76 1.03 M235.35 77.91 C201.1 50.74, 168.87 20.57, 146.49 -0.03 M236.92 76.46 C219.4 59.84, 200.17 41.48, 151.16 2.95 M237.64 74.77 C213.37 55.14, 187.49 32.59, 152.98 1.08 M242.08 73.72 C210.17 45.15, 182.12 21.41, 161.79 5.3 M240.58 72.44 C217.55 53.01, 193.95 31.8, 161.52 3.39 M246.44 70.06 C226.23 55.04, 210.45 38.67, 170.97 4.31 M245 71.22 C224.12 53.77, 203.82 34.76, 170.17 5.47 M244.83 67.64 C217.95 43.43, 194.63 21.92, 176.09 5.7 M246.34 65.71 C223.42 46.11, 203.25 27.73, 176.36 7.33 M246.91 62.73 C231.73 50.07, 218.15 38.3, 185.06 7.76 M246.16 62.59 C231.33 46.43, 213.9 33.03, 185.87 8.96 M247.33 58.88 C230.34 42.33, 208.51 22.56, 194.08 9.02 M248.87 57.24 C228.96 39.95, 211.35 24.63, 193.11 9.48 M249.04 51.85 C230.48 36.44, 212.33 21.93, 200.61 11.19 M249.5 54.16 C232.94 39.19, 215.34 24.29, 200.57 11.66 M251.51 47.96 C237.7 39.67, 223.68 25.92, 205.39 11.6 M250.41 48.82 C233.29 35.24, 216.71 21.2, 205.35 9.79 M241.68 37.85 C235.21 30.43, 226.64 22.39, 224.07 21.85 M240.8 36.96 C233.85 29.1, 227.94 23.34, 225.29 21.85" stroke="#40c057" stroke-width="0.5" fill="none"></path><path d="M112.83 0.83 C127.58 -0.65, 145.9 1.33, 161.14 3.23 C176.39 5.12, 192.06 7.77, 204.29 12.18 C216.51 16.58, 227.16 23.26, 234.49 29.63 C241.81 36, 246.9 43.16, 248.21 50.4 C249.53 57.64, 247.05 66.3, 242.37 73.05 C237.68 79.79, 230.13 85.56, 220.1 90.88 C210.07 96.19, 196.2 101.59, 182.19 104.94 C168.19 108.29, 152.03 110.1, 136.04 110.98 C120.06 111.87, 101.42 112.39, 86.26 110.25 C71.1 108.11, 57 102.74, 45.11 98.14 C33.21 93.54, 22.33 88.9, 14.89 82.65 C7.45 76.4, 1.94 67.77, 0.47 60.65 C-1.01 53.53, 1.39 46.83, 6.03 39.94 C10.67 33.06, 18.29 24.89, 28.31 19.33 C38.34 13.78, 51.49 9.75, 66.19 6.6 C80.89 3.44, 107.36 1.2, 116.51 0.39 C125.65 -0.42, 120.93 1.02, 121.06 1.74 M172.75 5.56 C186.96 7.17, 201.75 11.08, 213 16.17 C224.25 21.27, 234.55 29.41, 240.23 36.13 C245.91 42.86, 247.51 49.24, 247.07 56.5 C246.63 63.77, 243.73 73.24, 237.61 79.71 C231.5 86.17, 222.01 90.29, 210.37 95.28 C198.72 100.27, 182.44 106.73, 167.76 109.62 C153.07 112.52, 137.68 113.04, 122.24 112.66 C106.79 112.28, 89.78 110.45, 75.09 107.35 C60.4 104.24, 45.41 99.33, 34.08 94.04 C22.75 88.76, 12.94 82.39, 7.09 75.62 C1.25 68.85, -1.78 60.68, -1.01 53.44 C-0.24 46.19, 5.07 38.48, 11.73 32.15 C18.39 25.83, 27.75 20.02, 38.95 15.5 C50.15 10.97, 64.26 7.77, 78.94 5 C93.62 2.22, 111.14 -1.3, 127.03 -1.16 C142.93 -1.02, 166.85 4.62, 174.33 5.83 C181.8 7.03, 172.91 5.54, 171.87 6.06" stroke="#000000" stroke-width="1" fill="none"></path></g><g transform="translate(15 247.98412698412722) rotate(0 119 23)"><text x="119" y="33" font-family="Virgil, Segoe UI Emoji" font-size="36px" fill="#000000" text-anchor="middle" style="white-space: pre;" direction="ltr">Source Code</text></g><g stroke-linecap="round" transform="translate(638.6666666666669 212.53968253968196) rotate(0 94 58.5)"><path d="M0.19 0.21 C37.48 1.4, 73.83 2.04, 186.19 -0.36 M0.49 -0.74 C58.65 -1.61, 117.49 -0.7, 187.69 0.76 M189.6 -1.22 C187.25 35.89, 187.53 67.75, 189.57 115.49 M187.7 0.24 C188.44 41.52, 187.88 84.13, 187.05 116.08 M186.61 116.21 C130.22 117.63, 69.92 117, 1.11 118.05 M188.54 116.95 C129.58 118.93, 69.93 117.77, 0.46 117.63 M-0.09 115.34 C1.19 74.08, -0.94 27.95, 1.49 -0.31 M-0.45 117.2 C-1.18 87.12, -1.17 58.79, -0.29 0.21" stroke="#000000" stroke-width="1" fill="none"></path></g><g transform="translate(643.6666666666669 248.03968253968196) rotate(0 89 23)"><text x="89" y="33" font-family="Virgil, Segoe UI Emoji" font-size="36px" fill="#000000" text-anchor="middle" style="white-space: pre;" direction="ltr">Parser</text></g><g stroke-linecap="round"><g transform="translate(555.803914739229 278.1638092801577) rotate(0 31.83301110931066 0.4207742845717348)"><path d="M0.97 -1.09 C11.48 -0.88, 53.03 -0.1, 63.65 0.21 M0.01 0.96 C10.3 1.47, 51.86 2.19, 62.59 1.84" stroke="#000000" stroke-width="2" fill="none"></path></g><g transform="translate(555.803914739229 278.1638092801577) rotate(0 31.83301110931066 0.4207742845717348)"><path d="M32.63 11.85 C44.63 9.76, 55.43 5.72, 61.1 1.1 M34.13 12.96 C41.66 8.94, 48.16 7.54, 61.98 1.73" stroke="#000000" stroke-width="2" fill="none"></path></g><g transform="translate(555.803914739229 278.1638092801577) rotate(0 31.83301110931066 0.4207742845717348)"><path d="M32.55 -8.67 C44.4 -3.6, 55.23 -0.48, 61.1 1.1 M34.05 -7.56 C41.49 -6.31, 48.02 -2.44, 61.98 1.73" stroke="#000000" stroke-width="2" fill="none"></path></g></g><g stroke-linecap="round" transform="translate(302.31746031746013 10) rotate(0 275.71428571428584 209.99999999999977)"><path d="M0.5 0.39 C155.03 -1.84, 310.9 -1.98, 551.81 -0.25 M550.58 0.85 C550.63 157.79, 552.11 315.84, 550.94 420.84 M550.77 419.76 C427.75 420.79, 303.52 420.35, 0.52 419.24 M0.13 419.26 C-0.79 333.39, -0.14 245.44, -0.12 0.59" stroke="#000000" stroke-width="1.5" fill="none" stroke-dasharray="8 9"></path></g><g transform="translate(378.64285714285705 43.817460317460245) rotate(0 200.5 69)"><text x="200.5" y="33" font-family="Virgil, Segoe UI Emoji" font-size="36px" fill="#000000" text-anchor="middle" style="white-space: pre;" direction="ltr">Part 1</text><text x="200.5" y="79" font-family="Virgil, Segoe UI Emoji" font-size="36px" fill="#000000" text-anchor="middle" style="white-space: pre;" direction="ltr">From Source Code to</text><text x="200.5" y="125" font-family="Virgil, Segoe UI Emoji" font-size="36px" fill="#000000" text-anchor="middle" style="white-space: pre;" direction="ltr">Abstract Syntax Tree</text></g><g stroke-linecap="round"><g transform="translate(831.4338860544215 273.7392317544709) rotate(0 33.94988048898206 -0.05766849364499649)"><path d="M-0.34 -1.1 C10.82 -1.1, 54.74 -0.88, 66.07 -0.73 M1.68 0.94 C13.28 1.16, 57.32 0.53, 68.24 0.56" stroke="#000000" stroke-width="2" fill="none"></path></g><g transform="translate(831.4338860544215 273.7392317544709) rotate(0 33.94988048898206 -0.05766849364499649)"><path d="M38.29 9.29 C45.71 9.68, 52.85 5.46, 69.73 1.63 M40.38 10.71 C49.55 8.11, 57.44 3.9, 69.24 0.21" stroke="#000000" stroke-width="2" fill="none"></path></g><g transform="translate(831.4338860544215 273.7392317544709) rotate(0 33.94988048898206 -0.05766849364499649)"><path d="M38.16 -11.23 C45.48 -6.24, 52.65 -5.86, 69.73 1.63 M40.24 -9.81 C49.38 -6.19, 57.31 -4.17, 69.24 0.21" stroke="#000000" stroke-width="2" fill="none"></path></g></g><g stroke-linecap="round"><g transform="translate(272.21153672356854 273.7489876945474) rotate(0 23.577085767717165 0.2789171933416128)"><path d="M0.43 -0.76 C8.48 -1.03, 40.17 -0.81, 47.96 -0.78 M-0.81 1.45 C7.11 1.29, 38.59 0.75, 47.01 0.61" stroke="#000000" stroke-width="2" fill="none"></path></g><g transform="translate(272.21153672356854 273.7489876945474) rotate(0 23.577085767717165 0.2789171933416128)"><path d="M23.34 9.18 C30.17 5.51, 36.5 5.65, 48.22 2.03 M23.72 9.46 C31.06 7.03, 38.19 4.01, 46.51 0.38" stroke="#000000" stroke-width="2" fill="none"></path></g><g transform="translate(272.21153672356854 273.7489876945474) rotate(0 23.577085767717165 0.2789171933416128)"><path d="M23.06 -7.22 C30.08 -6.44, 36.48 -1.85, 48.22 2.03 M23.44 -6.95 C30.72 -4.26, 37.94 -2.16, 46.51 0.38" stroke="#000000" stroke-width="2" fill="none"></path></g></g><g stroke-linecap="round" transform="translate(905.7142857142858 233.4841269841263) rotate(0 95 37.5)"><path d="M58.78 3.43 C70.25 0.81, 86.61 -0.93, 100.1 -0.85 C113.58 -0.78, 127.84 1, 139.7 3.87 C151.55 6.75, 163.1 11.77, 171.23 16.4 C179.36 21.02, 185.83 26.26, 188.47 31.6 C191.11 36.93, 190.87 43.35, 187.08 48.39 C183.29 53.42, 174.83 58.01, 165.75 61.82 C156.67 65.62, 145.08 69.14, 132.62 71.21 C120.15 73.29, 104.67 74.32, 90.97 74.27 C77.28 74.23, 62.63 73.48, 50.43 70.94 C38.23 68.39, 25.87 63.58, 17.77 59 C9.68 54.42, 4.35 48.7, 1.88 43.45 C-0.6 38.21, -0.81 32.5, 2.94 27.52 C6.69 22.55, 14.98 17.9, 24.37 13.6 C33.77 9.3, 52.87 3.47, 59.32 1.73 C65.77 0, 62.5 2.32, 63.08 3.19 M109.99 1.35 C122.98 1.19, 138.63 2.71, 149.7 5.51 C160.77 8.31, 169.55 13.42, 176.4 18.14 C183.25 22.87, 189.79 28.16, 190.78 33.85 C191.77 39.55, 187.62 47.18, 182.35 52.32 C177.09 57.45, 169.1 61.23, 159.2 64.65 C149.29 68.06, 136.29 70.94, 122.92 72.81 C109.55 74.68, 92.73 76.66, 78.99 75.89 C65.25 75.12, 51.85 71.67, 40.48 68.19 C29.11 64.7, 17.65 59.5, 10.74 54.97 C3.84 50.44, -0.28 46.04, -0.94 41.02 C-1.6 36, 1.28 29.88, 6.8 24.87 C12.33 19.86, 22.2 14.98, 32.22 10.94 C42.24 6.9, 53.77 2.2, 66.92 0.63 C80.08 -0.93, 103.81 1.43, 111.13 1.55 C118.45 1.68, 111.35 0.76, 110.84 1.4" stroke="#000000" stroke-width="1" fill="none"></path></g><g transform="translate(910.7142857142858 247.9841269841263) rotate(0 90 23)"><text x="90" y="33" font-family="Virgil, Segoe UI Emoji" font-size="36px" fill="#000000" text-anchor="middle" style="white-space: pre;" direction="ltr">AST</text></g></svg>