<svg version="1.1" xmlns="http://www.w3.org/2000/svg" viewBox="0 0 1354.892857142857 439.99999999999955" width="2709.785714285714" height="879.9999999999991">
  <!-- svg-source:excalidraw -->
  
  <defs>
    <style>
      @font-face {
        font-family: "Virgil";
        src: url("https://excalidraw.com/Virgil.woff2");
      }
      @font-face {
        font-family: "Cascadia";
        src: url("https://excalidraw.com/Cascadia.woff2");
      }
    </style>
  </defs>
  <g stroke-linecap="round" transform="translate(332.31746031746025 213.65079365079328) rotate(0 90.5 58.5)"><path d="M-1.72 -0.22 C41.39 -3.15, 87.91 -2.06, 179.08 -1.22 M0.81 0.93 C59.01 -1.25, 120.37 -2.08, 181.81 -0.58 M182.24 0.14 C178.4 30.29, 180.85 58.47, 180.45 117.07 M181.54 -0.27 C181.48 32.6, 179.9 65.47, 180.4 116.77 M180.09 117.94 C118.5 116.77, 57.44 113.9, -0.53 115.85 M180.63 116.64 C124.28 116.26, 67.15 116.49, 0.64 116.39 M-1.67 116.35 C1 82.66, 1.6 53.99, 1.17 0.29 M0.81 117.92 C0.12 90.37, 0.1 64.98, -0.24 -0.19" stroke="#000000" stroke-width="1" fill="none"></path></g><g transform="translate(337.31746031746025 249.15079365079328) rotate(0 85.5 23)"><text x="85.5" y="33" font-family="Virgil, Segoe UI Emoji" font-size="36px" fill="#000000" text-anchor="middle" style="white-space: pre;" direction="ltr">Compiler</text></g><g stroke-linecap="round" transform="translate(863.726190476191 213.65079365079328) rotate(0 106 58.5)"><path d="M-0.67 -0.27 C53.52 -0.27, 112.01 -0.97, 211.84 -0.55 M-0.17 -0.11 C70.62 1.36, 141.77 1.11, 211.61 0.25 M210.89 -0.75 C213.59 39.54, 211.3 76.23, 213.13 118.66 M212.16 -0.87 C212.12 35.22, 211.34 70.81, 211.12 117.13 M212.48 115.93 C157.98 116.76, 101.93 115.76, -0.3 118.43 M211.93 116.52 C160.02 117.88, 106.68 116.93, 0.8 116.89 M1.31 118.22 C-0.81 75.53, 0.61 32.28, 1.49 0.72 M-0.86 116.89 C-1.93 87.38, -0.18 56.94, -0.22 0.04" stroke="#000000" stroke-width="1" fill="none"></path></g><g transform="translate(868.726190476191 226.15079365079328) rotate(0 101 46)"><text x="101" y="33" font-family="Virgil, Segoe UI Emoji" font-size="36px" fill="#000000" text-anchor="middle" style="white-space: pre;" direction="ltr">Evaluation</text><text x="101" y="79" font-family="Virgil, Segoe UI Emoji" font-size="36px" fill="#000000" text-anchor="middle" style="white-space: pre;" direction="ltr">Loop</text></g><g stroke-linecap="round"><g transform="translate(1095.6710133333338 282.91601178468363) rotate(0 19.877688726299766 0.443915746704306)"><path d="M1.08 0.64 C7.8 0.7, 33.23 1.23, 39.56 1.21 M0.19 -0.06 C6.87 -0.39, 32.53 -0.06, 38.89 -0.32" stroke="#000000" stroke-width="2" fill="none"></path></g><g transform="translate(1095.6710133333338 282.91601178468363) rotate(0 19.877688726299766 0.443915746704306)"><path d="M21.66 7.4 C26.73 4.86, 29.9 2.61, 38.01 1.35 M21.51 5.66 C25.39 4.14, 32.06 2.86, 39.67 -1.2" stroke="#000000" stroke-width="2" fill="none"></path></g><g transform="translate(1095.6710133333338 282.91601178468363) rotate(0 19.877688726299766 0.443915746704306)"><path d="M21.52 -5.96 C26.72 -5.35, 29.92 -4.45, 38.01 1.35 M21.37 -7.7 C25.26 -5.07, 31.96 -2.21, 39.67 -1.2" stroke="#000000" stroke-width="2" fill="none"></path></g></g><g stroke-linecap="round" transform="translate(291.9603174603169 10) rotate(0 404.8809523809525 209.99999999999977)"><path d="M-0.29 -0.15 C193.49 -2.22, 385.66 -2.51, 810.05 0.51 M809.01 0.52 C811.04 139.29, 811 277.78, 810.72 419.95 M810.16 420.15 C580.18 420.47, 349.55 419.33, -0.48 420.23 M0.72 419.39 C2.64 304.2, 2.61 187.12, 0.28 -1.02" stroke="#000000" stroke-width="1.5" fill="none" stroke-dasharray="8 9"></path></g><g transform="translate(448.3412698412694 44.92857142857156) rotate(0 248.5000000000001 69)"><text x="248.5" y="33" font-family="Virgil, Segoe UI Emoji" font-size="36px" fill="#000000" text-anchor="middle" style="white-space: pre;" direction="ltr">Part 2</text><text x="248.5" y="79" font-family="Virgil, Segoe UI Emoji" font-size="36px" fill="#000000" text-anchor="middle" style="white-space: pre;" direction="ltr">From Abstract Syntax Tree</text><text x="248.5" y="125" font-family="Virgil, Segoe UI Emoji" font-size="36px" fill="#000000" text-anchor="middle" style="white-space: pre;" direction="ltr">To Magic (Execution)</text></g><g stroke-linecap="round" transform="translate(1143.892857142857 225.23412698412676) rotate(0 100.5 56.5)"><path d="M102.21 0.87 C115.14 0.16, 131.21 1.81, 143.44 5.09 C155.68 8.36, 166.89 14.83, 175.62 20.52 C184.34 26.22, 191.79 32.07, 195.8 39.27 C199.82 46.46, 201.22 55.81, 199.72 63.7 C198.23 71.58, 193.96 79.98, 186.83 86.59 C179.69 93.2, 168.01 99.09, 156.9 103.35 C145.79 107.6, 133.5 110.7, 120.17 112.11 C106.84 113.52, 90.48 113.51, 76.93 111.81 C63.38 110.12, 49.63 106.57, 38.88 101.93 C28.13 97.3, 18.9 90.86, 12.42 84 C5.93 77.13, 1.09 68.56, -0.04 60.75 C-1.16 52.94, 1.07 44.41, 5.67 37.15 C10.26 29.88, 18.13 22.59, 27.55 17.17 C36.96 11.76, 46.96 7.32, 62.15 4.66 C77.33 1.99, 106.41 1.05, 118.64 1.17 C130.88 1.28, 135.78 4.4, 135.53 5.35 M74.19 2.97 C86.28 0.07, 101.99 0.38, 115.31 1.23 C128.63 2.07, 142.82 3.83, 154.11 8.06 C165.39 12.29, 175.55 20.1, 183.02 26.6 C190.48 33.1, 196.54 39.99, 198.91 47.07 C201.28 54.14, 200.27 61.75, 197.25 69.05 C194.23 76.36, 189.2 84.88, 180.8 90.89 C172.39 96.91, 159.15 101.63, 146.8 105.13 C134.45 108.63, 120.1 111.4, 106.72 111.9 C93.33 112.4, 79.17 110.53, 66.47 108.12 C53.77 105.71, 40.63 102.31, 30.53 97.43 C20.43 92.55, 10.93 86.23, 5.89 78.84 C0.85 71.46, -0.69 60.94, 0.29 53.12 C1.27 45.3, 5.7 38.47, 11.77 31.94 C17.83 25.41, 26.59 18.8, 36.68 13.94 C46.77 9.09, 66.3 4.46, 72.29 2.82 C78.28 1.18, 71.93 3.17, 72.62 4.09" stroke="#000000" stroke-width="1" fill="none"></path></g><g transform="translate(1148.892857142857 258.73412698412676) rotate(0 95.5 23)"><text x="95.5" y="33" font-family="Virgil, Segoe UI Emoji" font-size="36px" fill="#000000" text-anchor="middle" style="white-space: pre;" direction="ltr">Magic</text></g><g stroke-linecap="round" transform="translate(10 214.84523809523807) rotate(0 124 56)"><path d="M11.29 32.34 C11.29 32.34, 11.29 32.34, 11.29 32.34 M11.29 32.34 C11.29 32.34, 11.29 32.34, 11.29 32.34 M1.84 46.91 C9.87 42.3, 14.71 34.41, 24.29 25.92 M3.91 47.05 C8.87 39.96, 14.85 33, 23.07 24.62 M0.21 54.34 C12.08 44.04, 22.21 34.34, 35.62 16.73 M1.2 55.25 C9.67 46.23, 18.89 34.79, 34.16 17.69 M4.29 58.73 C16.04 44.77, 30.44 29.72, 42.27 17.59 M3.7 59 C12.04 49.58, 18.38 41.36, 41.81 15.56 M5.78 65.28 C20.49 45.59, 37.56 27.55, 47.97 12.6 M3.42 63.75 C15.15 53.72, 26.47 40.71, 48.51 13.36 M6.55 68.6 C16.11 57.36, 28.42 42.94, 55.16 12.62 M6.88 69.31 C17.39 55.07, 29.1 41.59, 54.29 11.44 M7.82 72.81 C23.96 56.15, 41.04 37.99, 61.22 9.96 M8.74 73.39 C27.96 49.33, 50.36 24.79, 61.46 9.51 M9.69 75.49 C27.28 55.63, 46.58 33.56, 70.81 10.18 M9.93 77.08 C28.93 53.37, 47.87 31.45, 69.43 7.93 M12.9 77.91 C26.04 62.79, 45.09 42.93, 76.87 7.03 M11.79 80.62 C34.41 55.89, 55.23 32.23, 76.22 6.22 M16.48 79.84 C37.6 60.39, 57.55 36.52, 81.63 5.5 M16.32 81.63 C33.1 63.75, 47.99 43.7, 83.95 5.51 M20.09 85.03 C48.3 51.72, 72.07 22.28, 88.28 2.28 M18.96 84.15 C42.85 54.32, 69.67 25.65, 89.06 4.59 M23.65 85.15 C49.4 52.86, 76.33 22.31, 93.91 4.29 M22.73 86.07 C46.17 59.03, 70.97 30.25, 93.71 3.88 M26.34 89.14 C56.91 56.54, 84.48 20.07, 98.6 4.17 M25.76 87.94 C53.75 58.39, 81.13 24.73, 99.36 4.45 M29.67 92.37 C57.67 55.63, 87.28 22.15, 104.36 1 M28.83 91.71 C49.67 67.42, 68.43 45.19, 106.22 2.24 M31.06 94.45 C62.67 59.08, 93.54 24.87, 113.48 2.39 M33.43 93.96 C53.34 67.58, 76.48 41.15, 112.18 1.61 M35.56 96.2 C52.86 73.03, 71.66 50.16, 117.56 2.85 M36.05 96.41 C52.54 75.75, 72.07 54.16, 118.16 1.3 M38.16 96.67 C70.1 61.76, 102.61 23.64, 123.77 1.91 M38.93 98.41 C58.77 75.49, 77.87 54.01, 123.06 1.93 M44.8 100.61 C73.69 65.49, 99.38 35.27, 129.25 1.54 M43.58 97.97 C66.91 70.7, 90.3 42.71, 128.55 -0.99 M46.03 100.76 C70.92 74.69, 91.73 52.34, 134.78 0.95 M46.97 99.48 C80.7 59.78, 115.75 20.87, 135.27 1.22 M50.72 100.06 C83.77 65.24, 114.13 29.1, 139.71 0.8 M51.7 101.49 C78.98 67.79, 108.19 34.97, 140.27 0.09 M56.96 104.43 C90.9 65.3, 125.2 26.5, 145.71 0.23 M55.41 102.9 C89.31 65.55, 120.59 27.7, 143.2 2.58 M61.16 102.26 C82.13 82, 100.33 57.32, 149.68 3.33 M60.42 104.05 C84.44 78.34, 107.79 51.12, 147.84 3 M65.02 105.15 C96.1 68.09, 132.41 26.59, 152.19 3.43 M63.14 106.88 C97.76 68.39, 131.44 29.32, 152.92 2.83 M66.47 108.68 C85.96 86.78, 106.57 63.88, 159.72 4.08 M67.55 107.23 C87.33 82.88, 107.96 61.07, 158.91 3.18 M72.77 107.88 C92.18 88.05, 109.65 67.62, 165.05 3.28 M72.78 107.85 C96.13 82.66, 119.16 55.4, 162.94 4.55 M76.77 108.51 C109.58 70.51, 142.04 32.2, 166.25 6.27 M77.89 109.12 C110.8 69.67, 144.3 32.53, 168.22 5.09 M83.29 109.06 C116.8 71.96, 149.06 30.68, 173.63 6.24 M82.73 108.54 C108.14 78.75, 133.88 50.29, 171.55 4.82 M87.43 110.24 C114.58 78.56, 141.49 47.55, 178.18 4.61 M86.75 109.79 C111.6 81.81, 137.06 52.68, 176.23 7.44 M93.53 111.68 C112.22 88.79, 130.2 68.7, 181.1 8.77 M92.5 110.9 C122.17 73.89, 155.78 36.8, 180.11 7.49 M96.25 111.55 C115.85 87, 140.06 63.13, 184.26 10.06 M97.14 111.32 C129.86 73.75, 161.21 37.69, 184.52 7.94 M100.2 110.44 C134.34 71.14, 168.58 33.53, 187.13 10.83 M102.63 111.39 C137.25 70.17, 170.87 31.17, 189.73 10.63 M107.59 111.93 C134.59 80.5, 161.33 46.86, 194.42 12.34 M105.85 112.32 C127.29 86.84, 150.89 59.33, 193.08 11.79 M109.91 110.55 C144.91 74.58, 177.61 32.13, 197.18 14.37 M110.79 111.72 C141.64 79.58, 170.44 46.89, 198.57 13.06 M116.94 111.32 C140.88 81.52, 167.63 52.31, 199.72 15.9 M116.05 112.59 C133.32 91.82, 152.92 69.5, 202.29 15.71 M119.74 114.47 C141.88 89.98, 161.02 69.16, 206.61 15.87 M120.36 113.59 C151.41 78.52, 181.35 43.46, 205.92 16.88 M126.94 114.69 C155.06 78.63, 185.04 48.73, 211.74 16.7 M127.34 113.73 C153.92 81.62, 180.71 50.69, 210.28 16.64 M133.21 113.9 C160.91 80.26, 187.64 49.18, 213.25 17.03 M132.46 112.69 C152.57 88.62, 174.33 64.49, 212.8 18.17 M136.77 110.49 C161.95 85.34, 184.06 61.24, 215.91 21.21 M137.08 111.55 C161.19 84.37, 183.76 57.42, 218.33 20.8 M144.47 110.82 C165.26 87.83, 189.23 63.27, 221.44 25.32 M144.02 111.76 C162.31 88.84, 182.45 66.13, 220.01 23.51 M149.44 111.45 C169.43 92.89, 186.17 70.5, 224.81 24.38 M149.71 110.91 C167.57 89.64, 187.14 66.82, 224.06 25.65 M156.09 110.18 C172.84 93.8, 188.35 73.79, 226.66 28.69 M155.69 111.25 C182.89 78.24, 210.84 46.27, 226.7 28.73 M161.76 108.27 C177.93 92.74, 193.79 73.45, 230.85 29.44 M160.76 109.38 C186.21 80.52, 211.58 52.76, 230.2 29.64 M167.12 108.44 C188.32 86.64, 209.33 60.19, 235.57 32.1 M167.86 109.85 C191.29 82.86, 212.63 56.43, 234.48 31.4 M174.4 107.9 C192.81 84.96, 212.01 62.32, 236.27 33.58 M174.83 107.54 C187.53 92.85, 199.62 77.23, 236.56 35.97 M181.81 104.81 C194.03 88.02, 208.74 73, 238.68 36.77 M181.32 105.76 C191.6 90.98, 205.08 78.51, 240.06 38.13 M189.17 104.06 C202.05 88.49, 214.41 72.4, 241.81 39.77 M186.92 103.46 C208.81 79.65, 230.13 53.82, 242.7 40.35 M193.59 101.75 C212.17 84.68, 225.9 67.09, 243 43.42 M195.32 101.21 C208.88 84.28, 223.05 69.43, 243.88 43.74 M202.44 100.22 C210.36 87.43, 223.04 76.88, 245.45 50.24 M201.83 99.74 C217.35 82.1, 231.26 64.2, 246.66 48.52 M210.38 98.99 C223.34 79.14, 238.43 65.4, 248.04 52.25 M208.85 98.41 C222.98 82.97, 236.16 66.21, 248.14 53.32 M220.95 92.55 C225.16 81.95, 232.82 76.92, 248.24 59.19 M220 90.43 C229.43 79.44, 239.03 69.67, 246.81 58.91 M230.78 84.35 C234.13 81.73, 234.93 79.19, 237.48 76.78 M231.8 83.39 C234.44 81.11, 236.64 78.42, 237.97 76.39 M7.35 75.37 C7.35 75.37, 7.35 75.37, 7.35 75.37 M7.35 75.37 C7.35 75.37, 7.35 75.37, 7.35 75.37 M34.78 93.7 C28.07 87.33, 23.41 83.09, 5.13 69.36 M34.8 93.14 C25.23 85.32, 14.91 78.09, 3.86 68.49 M46.17 97.26 C37.16 88.28, 27.97 82.95, 2.71 58.38 M43.63 97.79 C29.19 83.03, 13.78 71.13, 2.62 60.97 M52.76 99.31 C35.05 80.99, 13.25 66.6, 1.64 54.81 M53.98 99.55 C42.54 88.54, 30.27 78.58, 1.42 54.75 M65.71 105.24 C51.32 93.95, 38.76 80.75, 1.62 52 M63.55 103.56 C48.52 92.06, 34.08 78.88, 2.41 50.25 M71.66 106.38 C49 87.31, 28.89 65.47, 6.05 47.58 M73.36 106.36 C49.15 86.36, 26.2 66.14, 3.86 47.1 M79.8 108.25 C57.85 86.9, 32.81 66.34, 6.66 41.05 M79.3 105.57 C61.97 92.19, 44.8 76.86, 7.13 43.2 M86.11 108.87 C69.75 93.88, 54.44 78.35, 9.46 38.09 M86.89 107.77 C60.88 85.81, 34.05 61.85, 9.23 38.57 M95.34 107.2 C75.14 92.49, 61.42 77.08, 11.73 33.62 M93.74 108.37 C67.87 85.21, 40.27 60.18, 10.25 35.89 M98.79 106.75 C71.76 85.54, 44.37 60.13, 11.04 30.79 M99.82 108.76 C75.1 86.52, 48.41 62.01, 12.9 30.99 M106.28 109.22 C86.67 89.98, 65.23 71.73, 15.75 29.25 M107.98 109.45 C78.78 83.27, 47.04 55.75, 15.51 28.61 M114.64 109.56 C82.55 82.59, 49.5 53.65, 17.48 28.26 M114.91 110.6 C80.8 80.43, 44.37 48.8, 18.99 27.06 M123.01 108.93 C79.08 76.63, 40.34 43.72, 20.63 25.62 M120.89 110.54 C95.15 87.87, 67.05 65.46, 22.88 24.56 M125.79 109.72 C89.39 78.2, 55.97 49.99, 25.91 23.35 M125.35 110.21 C99.2 85.76, 72.01 62.88, 25.33 22.49 M132.7 109.15 C107.68 88.24, 82.56 65.85, 28.03 19.32 M131.3 108.35 C110.14 91.26, 89.48 72.91, 29.34 20.53 M135.68 109.06 C97.84 74.94, 59.98 41.4, 33.76 19.66 M136.89 108.68 C97.49 73.66, 55.8 40.32, 33.28 18.52 M141.77 110.14 C115.21 81.92, 84.13 58.17, 35.36 17.72 M142.59 107.74 C118.73 88.96, 95.65 68.06, 36.87 14.93 M149.22 106.3 C124.62 86.8, 100.84 68.36, 40.68 14.36 M148.01 108.71 C115.24 78.9, 82.68 50.68, 39.69 12.68 M152.63 107.69 C131.76 89.97, 109.62 69.84, 44.3 11.01 M153.36 107.9 C127.45 84.27, 102.54 62.12, 44.96 11.67 M159.07 107 C127.58 80.25, 99.21 51.85, 48.11 12.68 M158.2 106.61 C132.08 80.21, 103.72 55.63, 50.45 11.31 M165.71 106.43 C130.26 79.4, 96.54 46.9, 54 10.25 M165.47 107.56 C124.86 73.33, 84.16 37.43, 53.83 10.32 M169.41 106.83 C135.96 75.33, 98.86 45.85, 58.44 8.79 M171.69 105.55 C138.26 80.12, 108.6 52.84, 59.62 8.49 M174.14 107.18 C149.51 85.84, 126.27 60.82, 64.88 6.64 M176.76 104.42 C135.22 67.72, 93.3 31.21, 64.21 7.32 M182.12 103.06 C153.46 80.1, 123.18 55.47, 67.08 4.33 M179.68 103.04 C152.2 80.88, 124.08 55.59, 67.58 6.43 M184.11 102.23 C143.38 65.87, 99.22 27.55, 72.34 5.59 M185.34 102.39 C158.49 79.83, 131.78 56.25, 73.08 4.07 M191.9 99.7 C166.2 79.96, 143.79 59.79, 77.97 4.4 M189.44 102.09 C161.34 77.16, 132.7 51.9, 78.42 3.63 M193.54 98.69 C152.75 64.1, 108.52 24.48, 83.31 2.61 M194.32 98.94 C151.08 61.5, 106.98 24.15, 82.18 2.84 M200.64 99.63 C171.04 72.54, 138.87 45.51, 86 0.31 M198.68 99.33 C174.58 77.78, 149.06 55.87, 86.51 1.53 M204.83 99.18 C159.69 61.38, 115.25 20.57, 91.7 -0.57 M204.56 97.82 C178.19 74.98, 149.97 51.46, 93.48 0.84 M209.77 95.88 C177.4 68.92, 144.31 38.65, 96.85 0.83 M207.89 96.28 C176.5 67.98, 142.12 40, 98.21 1.75 M213.89 95.18 C173.59 62.54, 134.12 27.61, 103.93 1.24 M211.66 94.39 C184.19 70.97, 157.16 48.28, 104.71 1.52 M215.93 92.38 C184.47 64.57, 150.84 33.1, 109.68 -0.39 M216.03 92.11 C190.34 68.14, 163.73 46.61, 110.61 -0.43 M219.38 87.67 C195.26 69.68, 171.88 51.19, 114.15 0.11 M219.22 90.23 C187.68 62.04, 155.09 34.16, 114.61 -0.06 M223.05 86.47 C187.95 55.05, 155.02 24.06, 121.64 -0.88 M222.59 88.17 C194.43 63.14, 168.7 38.69, 122.06 -0.18 M226.74 87.07 C198.77 64.54, 173.5 42.63, 125.77 0.24 M226.86 85.15 C193.42 55.85, 160.24 28.03, 126.4 -1.95 M229.3 85.01 C190.57 49.57, 155.03 18.58, 128.9 -4 M230.57 84.06 C192.7 49.8, 155.69 16.82, 131.18 -3.72 M234.11 80.02 C201.07 51.18, 169.43 24.04, 138.72 -2.64 M232.17 79.91 C212.89 62.64, 190.97 42.94, 137.07 -1.94 M235.09 80.4 C203.42 49.48, 171.08 20.81, 143.66 0.96 M236.43 77.68 C215.67 61.03, 194.5 41.15, 145.84 -0.48 M237.67 74 C210.34 48.89, 182.21 25.53, 152.43 1.28 M240.01 74.85 C207.15 46.55, 174.19 19.91, 152.36 -0.95 M241.32 72.54 C220.38 53.07, 202.95 37.02, 160.04 -0.98 M240.4 71.17 C215.38 50.57, 191.72 28.73, 159.12 1.19 M244.56 66.64 C224.81 51.39, 204.17 34.04, 164.78 0.1 M243.48 67.23 C216.05 43.2, 188.77 21.33, 165.73 1.11 M244.42 63.46 C222.28 42.84, 200.87 24.92, 175.49 4.62 M245.46 63.56 C225.73 49.22, 207.81 32.01, 176.65 5.09 M246.22 62.38 C228.53 44.05, 211.48 31.48, 186.49 8.62 M247.19 59.85 C224.14 40.25, 202.26 20.88, 186.7 7.78 M249.3 58.67 C235.32 46.38, 218.91 31.2, 195.16 11.02 M248.36 58.1 C235.99 45.61, 220.35 34.04, 197.04 12.61 M248.52 51.9 C236.52 43.06, 229.16 32.53, 206.92 16.62 M247.48 50.52 C236.37 40.32, 226.6 31.84, 206.71 16.33 M245.32 40.7 C239.88 35.98, 233.59 31.64, 213.95 17.11 M243.51 41.83 C236.4 36.49, 230.42 30.61, 215.86 17.5" stroke="#40c057" stroke-width="0.5" fill="none"></path><path d="M128.95 -0.89 C143.84 -1.52, 161.78 2.17, 176.07 5.41 C190.36 8.65, 203.92 13.21, 214.7 18.55 C225.49 23.89, 235.27 30.7, 240.78 37.44 C246.29 44.18, 248.43 52.06, 247.74 58.98 C247.05 65.9, 243.29 72.61, 236.63 78.97 C229.96 85.33, 219.53 92.28, 207.74 97.14 C195.94 102, 180.63 105.59, 165.87 108.13 C151.1 110.67, 134.86 112.59, 119.13 112.4 C103.41 112.21, 85.83 110.03, 71.52 106.98 C57.22 103.92, 43.99 99.33, 33.29 94.06 C22.6 88.79, 12.92 81.99, 7.35 75.37 C1.79 68.76, -0.76 61.55, -0.11 54.38 C0.55 47.21, 4.7 39.01, 11.29 32.34 C17.88 25.66, 27.74 19.17, 39.44 14.31 C51.15 9.45, 64.56 5.53, 81.53 3.17 C98.49 0.81, 129.76 0.34, 141.24 0.14 C152.72 -0.05, 150.73 1.06, 150.42 1.98 M102.47 1.08 C116.52 -1.05, 133.74 0.38, 149.12 1.99 C164.5 3.6, 181.57 6.72, 194.75 10.74 C207.93 14.75, 219.46 20.03, 228.21 26.09 C236.96 32.16, 244.45 40.34, 247.27 47.11 C250.1 53.87, 248.59 59.65, 245.17 66.7 C241.75 73.74, 235.74 83.16, 226.74 89.4 C217.75 95.63, 204.42 100.53, 191.2 104.1 C177.97 107.66, 162.79 109.61, 147.37 110.77 C131.96 111.93, 114.61 112.56, 98.71 111.05 C82.8 109.55, 65.1 105.92, 51.94 101.72 C38.78 97.52, 27.99 91.82, 19.74 85.87 C11.49 79.92, 5.23 73.17, 2.42 66.03 C-0.38 58.88, -0.19 50.06, 2.93 42.99 C6.05 35.92, 12.02 29.53, 21.16 23.63 C30.29 17.74, 44.06 11.36, 57.74 7.64 C71.41 3.91, 95.56 2.21, 103.23 1.27 C110.89 0.34, 103.8 1.33, 103.74 2.03" stroke="#000000" stroke-width="1" fill="none"></path></g><g transform="translate(15 247.84523809523807) rotate(0 119 23)"><text x="119" y="33" font-family="Virgil, Segoe UI Emoji" font-size="36px" fill="#000000" text-anchor="middle" style="white-space: pre;" direction="ltr">AST</text></g><g stroke-linecap="round"><g transform="translate(272.21153672356854 273.61009880565825) rotate(0 23.372000001955826 -0.21091791581420694)"><path d="M-0.96 0.18 C6.91 -0.04, 39.65 -0.92, 47.7 -0.88 M0.74 -0.78 C8.38 -0.86, 39.03 0.56, 46.61 0.46" stroke="#000000" stroke-width="2" fill="none"></path></g><g transform="translate(272.21153672356854 273.61009880565825) rotate(0 23.372000001955826 -0.21091791581420694)"><path d="M24.21 7.77 C31.04 4.68, 41.01 4, 46.92 1 M24.24 7.98 C33.63 4.78, 41.61 1.24, 46.29 0.16" stroke="#000000" stroke-width="2" fill="none"></path></g><g transform="translate(272.21153672356854 273.61009880565825) rotate(0 23.372000001955826 -0.21091791581420694)"><path d="M24.54 -8.64 C31.31 -6.11, 41.17 -1.18, 46.92 1 M24.57 -8.43 C33.88 -5.26, 41.74 -2.44, 46.29 0.16" stroke="#000000" stroke-width="2" fill="none"></path></g></g><g stroke-linecap="round"><g transform="translate(528.8815546031753 281.41413683716155) rotate(0 22.43317088037304 -0.31806107846023224)"><path d="M-0.72 -1.07 C7.06 -1.34, 37.97 -1.58, 45.58 -1.61 M1.11 0.98 C8.85 0.86, 37.68 -0.24, 44.85 -0.43" stroke="#000000" stroke-width="2" fill="none"></path></g><g transform="translate(528.8815546031753 281.41413683716155) rotate(0 22.43317088037304 -0.31806107846023224)"><path d="M22.09 8.67 C27.22 6.03, 32.21 3.93, 45.94 -0.43 M23.21 8.3 C30.95 5.14, 35.23 2.62, 44.07 -0.84" stroke="#000000" stroke-width="2" fill="none"></path></g><g transform="translate(528.8815546031753 281.41413683716155) rotate(0 22.43317088037304 -0.31806107846023224)"><path d="M21.59 -6.78 C26.82 -6.15, 31.92 -4.97, 45.94 -0.43 M22.71 -7.15 C30.55 -5.79, 34.99 -3.79, 44.07 -0.84" stroke="#000000" stroke-width="2" fill="none"></path></g></g><g stroke-linecap="round" transform="translate(582.6428571428573 222.73412698412676) rotate(0 105 54)"><path d="M102.51 -0.65 C116.13 -1.67, 132.92 0.28, 146.11 3.18 C159.3 6.08, 171.96 11.15, 181.65 16.75 C191.34 22.35, 199.58 29.78, 204.25 36.78 C208.93 43.77, 210.97 51.54, 209.7 58.71 C208.43 65.89, 203.55 73.56, 196.64 79.84 C189.72 86.13, 179.44 91.93, 168.21 96.43 C156.97 100.94, 143.13 105.16, 129.23 106.87 C115.32 108.59, 98.89 107.96, 84.79 106.71 C70.69 105.47, 56.22 103.39, 44.63 99.42 C33.04 95.46, 22.65 89.19, 15.27 82.92 C7.89 76.65, 2.03 69.06, 0.36 61.8 C-1.3 54.54, 0.98 46.42, 5.27 39.38 C9.56 32.33, 17.1 25.34, 26.12 19.53 C35.15 13.72, 46.29 7.62, 59.44 4.52 C72.59 1.42, 97.06 1.56, 105.01 0.93 C112.96 0.3, 107.27 0.02, 107.15 0.74 M108.65 -0.01 C121.99 -0.28, 139 3.66, 151.73 6.75 C164.46 9.83, 176.12 13.12, 185.05 18.51 C193.98 23.9, 201.54 31.7, 205.3 39.08 C209.06 46.47, 209.68 55.42, 207.64 62.83 C205.59 70.23, 200.45 77.27, 193.03 83.5 C185.6 89.73, 174.7 96.08, 163.08 100.19 C151.47 104.31, 137.17 106.94, 123.35 108.19 C109.53 109.44, 94.03 109.51, 80.16 107.71 C66.29 105.91, 51.39 102.09, 40.14 97.4 C28.9 92.71, 19.29 86.45, 12.69 79.56 C6.09 72.68, 1.71 63.31, 0.54 56.09 C-0.64 48.86, 0.8 42.7, 5.66 36.2 C10.52 29.7, 19.66 22.55, 29.7 17.08 C39.75 11.61, 52.6 6.24, 65.91 3.41 C79.22 0.57, 102.47 0.55, 109.56 0.07 C116.65 -0.41, 108.57 -0.52, 108.45 0.54" stroke="#000000" stroke-width="1" fill="none"></path></g><g transform="translate(587.6428571428573 253.73412698412676) rotate(0 100 23)"><text x="100" y="33" font-family="Virgil, Segoe UI Emoji" font-size="36px" fill="#000000" text-anchor="middle" style="white-space: pre;" direction="ltr">Bytecode</text></g><g stroke-linecap="round"><g transform="translate(802.4674631312766 280.3270879323659) rotate(0 25.107300155075677 0.6206332037208995)"><path d="M0.34 -0.81 C9.01 -0.55, 42.9 1.58, 51.15 2.05 M-0.93 1.38 C7.74 1.29, 42.41 0.71, 50.72 0.52" stroke="#000000" stroke-width="2" fill="none"></path></g><g transform="translate(802.4674631312766 280.3270879323659) rotate(0 25.107300155075677 0.6206332037208995)"><path d="M25.97 11.2 C34.47 6.89, 39.69 4.87, 49.07 2.51 M27 9.61 C35.69 6.78, 44.09 3.13, 51.37 0.22" stroke="#000000" stroke-width="2" fill="none"></path></g><g transform="translate(802.4674631312766 280.3270879323659) rotate(0 25.107300155075677 0.6206332037208995)"><path d="M25.64 -5.96 C34.28 -6.36, 39.58 -4.49, 49.07 2.51 M26.67 -7.55 C35.57 -4.06, 44.09 -1.41, 51.37 0.22" stroke="#000000" stroke-width="2" fill="none"></path></g></g></svg>