<svg version="1.1" xmlns="http://www.w3.org/2000/svg" viewBox="0 0 1654.892857142857 441.1111111111104" width="3309.785714285714" height="882.2222222222208">
  <!-- svg-source:excalidraw -->
  
  <defs>
    <style>
      @font-face {
        font-family: "Virgil";
        src: url("https://excalidraw.com/Virgil.woff2");
      }
      @font-face {
        font-family: "Cascadia";
        src: url("https://excalidraw.com/Cascadia.woff2");
      }
    </style>
  </defs>
  <g stroke-linecap="round" transform="translate(341.84126984126965 213.65079365079328) rotate(0 100.5 58.5)"><path d="M0 0 C0 0, 0 0, 0 0 M0 0 C0 0, 0 0, 0 0 M0.04 6.19 C0.46 4.65, 3.33 3.21, 5.62 -0.4 M0.08 6.14 C1.51 4.34, 2.92 2.21, 4.6 0.31 M-1.04 11.18 C1.71 7.84, 5.59 5.67, 10.7 1.37 M0.47 12.31 C3.31 7.75, 6.61 4.77, 10.49 -0.44 M-1.23 19.37 C4.12 13.42, 5.7 11.06, 15.98 0.93 M0.27 19.15 C5.6 11.46, 11.49 5.34, 14.72 0.71 M-1.45 23.86 C9.11 16.13, 14.99 6.06, 22.65 -1.18 M-0.68 23.79 C5.49 16.38, 12.18 11.48, 21.88 -0.01 M-1.59 31.42 C9.19 20.73, 15.99 12.37, 26.67 -0.65 M0.76 30.71 C8.54 22.17, 15.34 12.79, 25.98 0.46 M-0.97 36.99 C6.68 29.19, 13.64 22.87, 33.89 0.66 M-0.77 36.2 C8.86 27.75, 15.13 17.85, 32.81 -1.09 M0.33 40.74 C9.02 31.27, 15.84 23.34, 35.81 0.17 M0.51 43.16 C14.28 26.22, 27.88 9.39, 36.14 0.29 M0.59 49.31 C14.48 31.27, 26.05 18.38, 43.84 -0.54 M-1.02 47.92 C13.46 33.1, 28.75 15.41, 42.48 0.17 M1.94 53.55 C15.41 35.94, 31.56 22.6, 49.06 1.36 M-0.24 55.43 C10.96 42.5, 22.28 31.02, 47.31 -0.71 M-1.77 61.53 C21 37.61, 42.66 11.22, 52.43 -1.08 M0.99 61.8 C15.17 43.53, 29.33 26.38, 53.86 -0.01 M0.5 68.3 C20.51 42.65, 38.11 20.43, 56.59 0.39 M-0.15 67.5 C16.35 47.65, 31.26 30.62, 57.34 0.79 M0.12 73.11 C15.56 55.58, 31.94 39.34, 64.08 -1.75 M0.13 72.16 C14.42 54.89, 29.38 39.7, 63.69 -1.18 M-0.27 80.71 C16.11 61.22, 31.26 39.7, 69.07 -1.79 M-0.2 79.31 C14.3 63.95, 28.84 46.76, 67.84 0.38 M-1.08 87.02 C20.5 60.79, 43.62 35.27, 75.68 0.17 M1.01 85.6 C28.89 53.76, 55.15 21.29, 74.45 -0.62 M1.9 92.23 C25.93 62.78, 50.42 32.68, 77.66 -0.72 M0.44 91.33 C23.58 65.36, 46.12 38.12, 80.17 -0.11 M-0.86 98.47 C29.32 61.1, 59.68 27.91, 84.66 -1.12 M-0.68 97.69 C26.93 67.02, 54.81 34.25, 84.37 0.61 M-1.6 103.08 C25.97 75.8, 51.97 42.84, 90.01 -0.44 M1.01 103.51 C25.03 73.22, 50.83 44.12, 89.42 -0.61 M-0.24 107.91 C18.44 88.92, 41.39 64.15, 96.93 0.11 M0.48 110.01 C28.6 73.97, 58.59 39.36, 95.42 -0.28 M1.17 116.97 C36.12 69.87, 76.68 27.57, 102.3 -1.47 M0.48 116.05 C31.5 79.08, 61.65 42.78, 100.46 -0.77 M0.91 118.53 C43.41 74.64, 81.58 29.48, 106.91 1.05 M2.32 119.63 C43.9 71.16, 85.65 25.03, 105.35 0.18 M5.83 120.81 C32.18 90.03, 57.16 64.78, 111.19 -0.87 M6.8 119.12 C42.67 78.76, 78.35 38.53, 111.89 -0.02 M14.49 117.27 C34.19 93.29, 52.44 71, 116.85 -0.83 M13.69 118.08 C38.37 89.15, 65.76 58.77, 116.96 0.44 M17.36 117.84 C45.71 88.77, 74.48 55.05, 121.85 -0.18 M18.52 119.95 C56.59 75.02, 96.04 29.01, 122.06 0.48 M23.81 117.64 C63.53 74.83, 103.57 30.68, 127.48 1.19 M24.06 118.27 C65.34 72, 106.27 26.28, 126.82 0.94 M29.89 118.04 C56.6 84.98, 86.28 50.64, 131.93 -1.42 M28.58 119.27 C53.36 90.53, 77.85 60.47, 133.09 -0.2 M36.53 119.6 C74.03 73.69, 113.79 30.92, 138.06 -0.45 M34.56 118.27 C71.27 76, 107.91 32.85, 137.23 0.66 M41.34 119.12 C62.68 94.21, 85.05 69.09, 143.61 0.85 M38.97 118.28 C78.92 75.05, 116.59 30.89, 142.82 -0.72 M44.81 118.6 C71.07 91.97, 96.2 61.39, 148.99 1.48 M46.03 118.41 C76.04 83.18, 105.49 47.14, 148.94 0.05 M50.11 118.29 C70.59 96.72, 90.25 71.72, 155.54 -0.39 M49.42 118.45 C74.7 90.3, 99.41 60.48, 152.87 0.5 M56.66 118.38 C76.15 92.99, 98.14 68.07, 157.21 1.67 M54.42 120.04 C76.64 94.89, 97.02 69.71, 158.41 -0.18 M59.13 120.27 C99.76 75.49, 135.49 33.59, 162.89 -0.7 M61.4 119.47 C96.29 78.04, 131.94 37.28, 164.58 -0.7 M66.55 119.87 C91.86 85.03, 120.52 56.99, 168.11 -1.64 M65.39 118.46 C92.54 86, 121.82 54.39, 169.89 0.91 M71.81 117.27 C111.34 72.1, 148.1 27.02, 173.32 -0.1 M72.15 119.32 C92.79 94.09, 114.19 69.63, 175.07 -0.25 M75.49 117.79 C114.36 74.72, 155.6 27.05, 179.62 1.24 M76.41 119.53 C111.71 77.6, 147.41 37.3, 179.35 0.55 M80.06 120.99 C113.6 83, 145.35 42.49, 187.01 0.86 M82.65 118.19 C122.3 74.1, 161.48 27.47, 185.19 0.19 M85.65 117.61 C121.16 82.56, 153.55 42.06, 190.14 -0.48 M87.33 118.56 C116.48 87.43, 144.03 54.47, 190.52 0.19 M92.3 118.64 C113.15 93.47, 136.3 70.31, 196.6 1.15 M93.63 118.54 C114.46 91.95, 138.83 65.13, 195.54 -0.8 M95.69 120.29 C138.46 72.53, 176.79 28.72, 202.6 1.92 M97.74 119.15 C132.88 78.39, 167.68 36.4, 200.89 -0.47 M101.44 116.95 C127.93 91.3, 153.98 64.11, 201.37 6.01 M103.56 119.08 C136.68 81.56, 168.05 45.09, 200.57 6.4 M108.78 118.28 C136 88.13, 163.48 59.28, 201.91 12.73 M109.01 119.13 C134.08 89.41, 159.07 59.51, 201.18 12.6 M112.89 118.12 C135.55 92.64, 156.84 70.47, 200.28 19.9 M114.69 118.76 C142.99 84.54, 172.94 51.09, 201.71 19.37 M120.58 119.55 C144.62 89.82, 170.1 63.91, 201.82 24.33 M118.23 118.58 C151.54 83.09, 183.08 45.69, 200.23 24.3 M124.57 119.85 C153.65 87.33, 180.14 55.41, 200.1 31 M124.99 118.8 C146.77 95.93, 167.47 72.35, 201.4 30.15 M131.25 119.55 C148.82 96.87, 166.01 75.12, 200.06 38.42 M130.28 119.82 C147.43 100.52, 163.44 80.08, 202.06 37.57 M134.89 119.37 C157.06 95.53, 176.5 72.43, 199.49 44.27 M136.18 118.65 C148.2 101.97, 163.17 86.76, 201.25 42.33 M141.45 117.26 C151.32 104.24, 167.29 90.1, 200.88 50.47 M139.75 119.45 C154.41 103.41, 166.7 87.77, 200.51 49.87 M146.77 117.38 C159.33 105.27, 169.11 90.3, 200.96 56.92 M145.76 118.01 C159.48 102.27, 173.82 85.58, 199.95 54.5 M152.36 119.12 C169.31 100.48, 184.57 78.37, 201.71 62.7 M150.99 118.29 C168.12 100.06, 185.6 80.53, 201.8 60.16 M155.63 118.09 C173.96 101.69, 188.75 78.67, 201.47 67.4 M156.95 118.85 C170.6 101.76, 185.55 84.62, 201.92 67.22 M161.64 119.11 C167.63 111.48, 178.79 101.11, 200.46 72.81 M162.12 119.42 C169.71 108.72, 178.98 99.71, 201.92 73.65 M164.71 117.97 C174.07 112.02, 181.25 100.01, 200.55 79.94 M166.07 120.12 C178.58 106.14, 191.51 91.79, 201.37 79.59 M171.44 118.68 C183.37 107.39, 193.64 94.31, 202.88 86.77 M172.98 118.19 C181.76 108.2, 190.71 97.78, 199.94 86.55 M175.74 118.72 C183.97 114, 189.02 107, 202.85 93.49 M177.17 118.78 C184.72 110.92, 193.45 100.19, 200.9 92.18 M184.43 118.79 C188.16 110.87, 197.54 102.51, 201.2 99.77 M183.19 118.16 C189.07 111.85, 195.47 104.1, 200.65 97.05 M188.99 119.81 C194.23 115.89, 197.48 109.69, 201.54 102.51 M188.08 120.28 C190.55 115.91, 193.58 112.63, 200.85 103.83 M192.4 119.56 C194.88 117.11, 196.63 114.84, 201.79 109.27 M193.79 119.12 C196.69 116.13, 198.96 112.53, 200.86 109.91 M198.23 119.4 C198.9 119.07, 199.84 118.27, 201.08 116.64 M198.46 119.43 C199.07 118.3, 199.93 117.64, 200.89 116.37 M0.18 117.16 C0.18 117.16, 0.18 117.16, 0.18 117.16 M0.18 117.16 C0.18 117.16, 0.18 117.16, 0.18 117.16 M5.56 116.75 C4.06 114.24, 0.41 112.3, 0.4 110.97 M5.43 116.98 C3.5 114.84, 1.6 112.99, -0.01 111.2 M10.73 118.25 C7.25 112.43, 3.62 111.07, -0.81 105.87 M11.9 116.99 C8.83 114.59, 6.99 112.64, 0.63 106.11 M17.7 118.66 C10.31 110.69, 5.13 103.68, 0.98 100.7 M17.71 116.63 C13.15 112.17, 7.57 107.77, -0.97 100.38 M26.18 116.35 C17.07 109.81, 11.23 105.23, 1.21 96.37 M23.87 116.51 C18.77 112.41, 13.66 108.09, -0.75 95.35 M32.35 118.1 C22.9 107.33, 9.54 100.5, -1.3 91.54 M31.04 117.48 C23.53 111.03, 17.88 105.22, -0.89 90.91 M38.01 115.99 C22.98 105.59, 9.15 93.43, 0.8 86.89 M35.54 116.92 C24.11 107.35, 12.91 96.31, -0.57 85.33 M41.28 115.93 C32.06 106.56, 18.85 97.02, -1.87 78.67 M42.82 116.46 C33.41 107.75, 24.15 101.48, -0.35 80.41 M48.28 116.09 C34.85 106.83, 22.56 95.87, -0.39 74.98 M49.69 117.93 C32.16 103.44, 17.15 88.47, -0.71 75.17 M56.42 115.86 C36.12 103.37, 21.9 85.74, -0.57 69.53 M54.04 117.78 C40.61 104.17, 26.62 93.58, -0.5 69.2 M61.64 116.81 C41.79 97.08, 20.67 80.58, 0.07 65.86 M60.67 117.58 C39.63 99.85, 19.1 80.61, 0.55 64.32 M66.16 117.11 C47.09 99.98, 29.58 85.24, 0.03 59.75 M67.43 115.9 C48.03 100.63, 29.76 84.04, 0.04 58.54 M73.5 115.76 C50.43 97.05, 26.25 77.22, 1.08 52.23 M72.83 116.09 C55.64 102.61, 41.16 87.62, 0.69 52.49 M80.18 119.03 C49.18 90.2, 18.38 65.99, -0.43 46.48 M80.22 118.16 C54.06 96.46, 30.13 75.19, 0.09 47.93 M87.03 117.4 C57.28 94.91, 33.68 70.91, -1.93 42.3 M85.54 117.29 C61.23 94.52, 35.23 74.8, 0.94 43.63 M90.39 118.53 C53.99 87.02, 18.11 55.64, 0.47 36.32 M91.13 116.24 C59.41 87.83, 25.76 59.43, 0.53 37.12 M97.9 117.69 C64.14 84.87, 28.27 54.84, -1.07 31.78 M97.9 117.28 C71.31 92.86, 46.21 71.63, 0.28 31.95 M103.46 117.98 C72.66 91.72, 45.47 66.69, 0.91 26.75 M102.9 117.97 C73.94 90.37, 44.14 64.81, 1.21 27.44 M111.01 116.75 C74.46 80.98, 33.83 48.16, 0.1 19.89 M109.52 117.04 C73.59 86.23, 37.92 55.45, -0.56 21.91 M113.79 118.59 C69.93 77.15, 25.66 39.39, -0.47 14.71 M115.25 116.83 C75.99 82.16, 35.79 47.79, -0.27 16.47 M121.54 116.23 C89.5 87.75, 54.92 57.06, -1.52 9.33 M121.49 117.83 C93.62 91.51, 64.77 65.56, -1.09 10.21 M128.3 117.06 C100.29 94.43, 70.59 69.65, -0.48 4.69 M127.68 116.52 C98.95 89.43, 68.53 63.39, -0.55 6.03 M135.39 115.25 C87.82 74.32, 39.88 34.27, -0.51 -1.68 M134.92 117.15 C104.46 91.36, 77.41 66.03, -1.09 -0.18 M139.16 118.26 C104.65 87.09, 66.51 56.35, 2.79 -1.41 M140.15 117.65 C100.08 82.22, 59.97 47.72, 1.74 -1.8 M146.23 115.76 C97.11 75.39, 50.29 34.79, 10.1 -3.56 M145.93 116.08 C106.91 81.34, 66.69 45.77, 8.48 -2.19 M152.78 116.6 C101.73 68.79, 48.38 25.6, 13.06 -1.55 M152.16 117.12 C120.49 89.89, 88.7 61.82, 15 -2.16 M156.23 115.23 C129.51 91.09, 99.21 65.36, 22.67 -4.34 M158.36 115.95 C113.92 78.23, 68.03 38.49, 21.31 -3.62 M166.32 115.94 C110 70.55, 53.74 23.33, 25.18 -1.3 M165.17 116.04 C129.75 86.89, 94.8 56.83, 26.03 -2.97 M172.8 115.27 C135.23 88.42, 97.92 54.55, 33.12 -1.95 M170.57 117 C144.94 95.2, 116.75 69.94, 33.87 -3.37 M176.7 114.99 C133.81 77.53, 88.5 38.91, 41.07 -1.55 M175.67 117.11 C130.36 75.13, 86.26 36.76, 39.93 -2.76 M181.6 119.03 C153.92 95.67, 126.78 68.32, 44.85 -4.16 M182.42 117.75 C151.11 88.7, 120.57 63.42, 45.38 -3.49 M189.33 115.96 C136.85 72.39, 89 29.58, 52.88 -1.65 M187.89 117.3 C147.11 80.93, 104.71 44.38, 51.3 -1.76 M195.04 115.14 C155.15 80.89, 112.21 43.07, 57.78 -3.28 M195.76 116.93 C150.52 77.14, 105.19 38.52, 56.83 -3.77 M202.13 116.56 C166.26 83.29, 130.31 53.58, 63.53 -3.48 M199.82 115.81 C174.07 91.85, 144.76 67.33, 62.75 -1.96 M199.26 109.79 C174.5 87.3, 146.56 62.74, 69.08 -3.42 M201.42 111.63 C166.37 79.43, 129.65 50.15, 69.7 -3.1 M202.19 108.17 C155.67 69.01, 110.78 26.4, 75.69 -2.07 M201.85 106.26 C162.53 72.42, 122.69 38.26, 75.9 -3.81 M202.91 101.96 C160.56 66.02, 121.04 30.91, 82.15 -3.2 M201.98 100.44 C172.32 76.29, 145.9 51.51, 80.96 -2.09 M202.98 96.67 C161.37 61.1, 117.52 24.21, 88.51 -4.98 M202.04 95.54 C165.62 64.51, 128.84 31.99, 88.08 -3.45 M201.21 91.36 C168.08 58.41, 135.02 29.52, 95.15 -3.75 M201.86 89.43 C175.65 66.98, 150.09 45.69, 93.6 -3.12 M200.69 86.94 C163.9 53.18, 129.89 19.49, 98.43 -3.58 M202.38 86.26 C167.13 55.43, 133.79 25.41, 101.17 -2.16 M199.8 79.93 C174.99 58.42, 146.54 34.12, 106.01 -3.35 M201.15 79.68 C173.66 55.91, 144.09 30.7, 105.59 -2.99 M203.22 74.69 C183.17 57.26, 162.19 43.63, 112.09 -3.72 M201.84 74.62 C171.73 49.65, 141.9 22.78, 112.51 -2.91 M200.87 69.15 C185.44 54.36, 166.92 42.09, 117.14 -4.79 M201.7 68.53 C177.47 49.83, 153.77 28.95, 118.67 -2.23 M202.98 63.12 C172.99 41.38, 144.47 16.46, 122.91 -1.79 M201.15 65.1 C181.37 47.33, 162.96 28.69, 123.46 -2.47 M199.06 59.98 C174.45 33.71, 145.52 8.94, 132.2 -2.71 M201.14 57.56 C180.73 42.68, 162.89 26.34, 131.08 -2.49 M200.9 54.95 C186.35 40.88, 173.23 28.92, 136.06 -3.32 M200.79 54.39 C179.48 34.65, 160.03 17.65, 136.37 -2 M201.55 48.87 C179.8 30.86, 157.68 12.09, 141.11 -2.21 M200.8 48.6 C180.29 28.45, 158.43 10.6, 142.53 -3.11 M202.38 44.39 C184.77 27.37, 166.98 13.6, 149.2 -2.36 M201 43.45 C183.91 27.91, 165.83 13.73, 149.35 -2.42 M200 35.79 C181.75 24.23, 165.77 9.19, 156.52 -2.91 M201.8 37.73 C185.74 24.43, 171.24 10.85, 154.76 -3.25 M201.33 33.15 C189.73 20.75, 174.46 8.42, 161.25 -0.78 M201.75 31.49 C188.8 20.68, 175.77 8.96, 161.01 -1.75 M202.57 28.19 C190.72 19.16, 181.7 8.75, 166.86 -1.62 M200.99 27.29 C190.01 18.3, 181.96 10.66, 166.49 -2.43 M200.18 22.45 C192.53 15.36, 187.79 8.33, 173.36 -2.94 M200.78 21.96 C194.58 16.49, 189.97 10.89, 173.45 -1.71 M201.93 17.05 C193.46 9.64, 186.21 6.39, 177.04 -3.62 M200.98 15.85 C196.18 11.27, 190.86 7.11, 178.22 -3.96 M201.84 8.98 C196.67 5.87, 191.07 3.41, 185.46 -3.72 M201.57 10.57 C197.61 8.46, 194.22 4.05, 184.78 -3.81 M199.85 5.01 C199.19 4.22, 197.43 1.81, 192.61 -2.25 M200.38 5.88 C197.74 2.26, 194.07 -1.12, 191.24 -2.35 M201.27 0.49 C199.88 -1.12, 198.06 -1.51, 197.31 -3.01 M201.17 0.57 C199.53 -0.9, 198.34 -2.17, 197.53 -2.71" stroke="#40c057" stroke-width="0.5" fill="none"></path><path d="M-1.18 1.01 C49 2.18, 95.54 1.93, 202.25 1.08 M0.1 -0.79 C46.4 1.16, 92.7 0.89, 201.38 0.31 M200.38 -1.06 C202.75 26.67, 201.48 52.05, 202.76 117.62 M201.93 -0.43 C201.48 33.65, 201.05 68.93, 200.83 117.52 M201.58 116.38 C147.45 117.46, 96.59 116.67, 0.23 115.54 M200.94 117.23 C131.9 118.53, 61.32 117.17, 0.52 117.88 M-0.45 118.39 C-0.33 79, -1.16 44.67, -0.55 0.6 M-0.65 116.71 C0.45 80.48, 0.76 45.9, 0.89 0.02" stroke="#000000" stroke-width="1" fill="none"></path></g><g transform="translate(346.84126984126965 249.15079365079328) rotate(0 95.5 23)"><text x="95.5" y="33" font-family="Virgil, Segoe UI Emoji" font-size="36px" fill="#000000" text-anchor="middle" style="white-space: pre;" direction="ltr">Tokenizer</text></g><g stroke-linecap="round" transform="translate(10 216.09523809523807) rotate(0 124 56)"><path d="M11.29 32.34 C11.29 32.34, 11.29 32.34, 11.29 32.34 M11.29 32.34 C11.29 32.34, 11.29 32.34, 11.29 32.34 M1.84 46.91 C9.87 42.3, 14.71 34.41, 24.29 25.92 M3.91 47.05 C8.87 39.96, 14.85 33, 23.07 24.62 M0.21 54.34 C12.08 44.04, 22.21 34.34, 35.62 16.73 M1.2 55.25 C9.67 46.23, 18.89 34.79, 34.16 17.69 M4.29 58.73 C16.04 44.77, 30.44 29.72, 42.27 17.59 M3.7 59 C12.04 49.58, 18.38 41.36, 41.81 15.56 M5.78 65.28 C20.49 45.59, 37.56 27.55, 47.97 12.6 M3.42 63.75 C15.15 53.72, 26.47 40.71, 48.51 13.36 M6.55 68.6 C16.11 57.36, 28.42 42.94, 55.16 12.62 M6.88 69.31 C17.39 55.07, 29.1 41.59, 54.29 11.44 M7.82 72.81 C23.96 56.15, 41.04 37.99, 61.22 9.96 M8.74 73.39 C27.96 49.33, 50.36 24.79, 61.46 9.51 M9.69 75.49 C27.28 55.63, 46.58 33.56, 70.81 10.18 M9.93 77.08 C28.93 53.37, 47.87 31.45, 69.43 7.93 M12.9 77.91 C26.04 62.79, 45.09 42.93, 76.87 7.03 M11.79 80.62 C34.41 55.89, 55.23 32.23, 76.22 6.22 M16.48 79.84 C37.6 60.39, 57.55 36.52, 81.63 5.5 M16.32 81.63 C33.1 63.75, 47.99 43.7, 83.95 5.51 M20.09 85.03 C48.3 51.72, 72.07 22.28, 88.28 2.28 M18.96 84.15 C42.85 54.32, 69.67 25.65, 89.06 4.59 M23.65 85.15 C49.4 52.86, 76.33 22.31, 93.91 4.29 M22.73 86.07 C46.17 59.03, 70.97 30.25, 93.71 3.88 M26.34 89.14 C56.91 56.54, 84.48 20.07, 98.6 4.17 M25.76 87.94 C53.75 58.39, 81.13 24.73, 99.36 4.45 M29.67 92.37 C57.67 55.63, 87.28 22.15, 104.36 1 M28.83 91.71 C49.67 67.42, 68.43 45.19, 106.22 2.24 M31.06 94.45 C62.67 59.08, 93.54 24.87, 113.48 2.39 M33.43 93.96 C53.34 67.58, 76.48 41.15, 112.18 1.61 M35.56 96.2 C52.86 73.03, 71.66 50.16, 117.56 2.85 M36.05 96.41 C52.54 75.75, 72.07 54.16, 118.16 1.3 M38.16 96.67 C70.1 61.76, 102.61 23.64, 123.77 1.91 M38.93 98.41 C58.77 75.49, 77.87 54.01, 123.06 1.93 M44.8 100.61 C73.69 65.49, 99.38 35.27, 129.25 1.54 M43.58 97.97 C66.91 70.7, 90.3 42.71, 128.55 -0.99 M46.03 100.76 C70.92 74.69, 91.73 52.34, 134.78 0.95 M46.97 99.48 C80.7 59.78, 115.75 20.87, 135.27 1.22 M50.72 100.06 C83.77 65.24, 114.13 29.1, 139.71 0.8 M51.7 101.49 C78.98 67.79, 108.19 34.97, 140.27 0.09 M56.96 104.43 C90.9 65.3, 125.2 26.5, 145.71 0.23 M55.41 102.9 C89.31 65.55, 120.59 27.7, 143.2 2.58 M61.16 102.26 C82.13 82, 100.33 57.32, 149.68 3.33 M60.42 104.05 C84.44 78.34, 107.79 51.12, 147.84 3 M65.02 105.15 C96.1 68.09, 132.41 26.59, 152.19 3.43 M63.14 106.88 C97.76 68.39, 131.44 29.32, 152.92 2.83 M66.47 108.68 C85.96 86.78, 106.57 63.88, 159.72 4.08 M67.55 107.23 C87.33 82.88, 107.96 61.07, 158.91 3.18 M72.77 107.88 C92.18 88.05, 109.65 67.62, 165.05 3.28 M72.78 107.85 C96.13 82.66, 119.16 55.4, 162.94 4.55 M76.77 108.51 C109.58 70.51, 142.04 32.2, 166.25 6.27 M77.89 109.12 C110.8 69.67, 144.3 32.53, 168.22 5.09 M83.29 109.06 C116.8 71.96, 149.06 30.68, 173.63 6.24 M82.73 108.54 C108.14 78.75, 133.88 50.29, 171.55 4.82 M87.43 110.24 C114.58 78.56, 141.49 47.55, 178.18 4.61 M86.75 109.79 C111.6 81.81, 137.06 52.68, 176.23 7.44 M93.53 111.68 C112.22 88.79, 130.2 68.7, 181.1 8.77 M92.5 110.9 C122.17 73.89, 155.78 36.8, 180.11 7.49 M96.25 111.55 C115.85 87, 140.06 63.13, 184.26 10.06 M97.14 111.32 C129.86 73.75, 161.21 37.69, 184.52 7.94 M100.2 110.44 C134.34 71.14, 168.58 33.53, 187.13 10.83 M102.63 111.39 C137.25 70.17, 170.87 31.17, 189.73 10.63 M107.59 111.93 C134.59 80.5, 161.33 46.86, 194.42 12.34 M105.85 112.32 C127.29 86.84, 150.89 59.33, 193.08 11.79 M109.91 110.55 C144.91 74.58, 177.61 32.13, 197.18 14.37 M110.79 111.72 C141.64 79.58, 170.44 46.89, 198.57 13.06 M116.94 111.32 C140.88 81.52, 167.63 52.31, 199.72 15.9 M116.05 112.59 C133.32 91.82, 152.92 69.5, 202.29 15.71 M119.74 114.47 C141.88 89.98, 161.02 69.16, 206.61 15.87 M120.36 113.59 C151.41 78.52, 181.35 43.46, 205.92 16.88 M126.94 114.69 C155.06 78.63, 185.04 48.73, 211.74 16.7 M127.34 113.73 C153.92 81.62, 180.71 50.69, 210.28 16.64 M133.21 113.9 C160.91 80.26, 187.64 49.18, 213.25 17.03 M132.46 112.69 C152.57 88.62, 174.33 64.49, 212.8 18.17 M136.77 110.49 C161.95 85.34, 184.06 61.24, 215.91 21.21 M137.08 111.55 C161.19 84.37, 183.76 57.42, 218.33 20.8 M144.47 110.82 C165.26 87.83, 189.23 63.27, 221.44 25.32 M144.02 111.76 C162.31 88.84, 182.45 66.13, 220.01 23.51 M149.44 111.45 C169.43 92.89, 186.17 70.5, 224.81 24.38 M149.71 110.91 C167.57 89.64, 187.14 66.82, 224.06 25.65 M156.09 110.18 C172.84 93.8, 188.35 73.79, 226.66 28.69 M155.69 111.25 C182.89 78.24, 210.84 46.27, 226.7 28.73 M161.76 108.27 C177.93 92.74, 193.79 73.45, 230.85 29.44 M160.76 109.38 C186.21 80.52, 211.58 52.76, 230.2 29.64 M167.12 108.44 C188.32 86.64, 209.33 60.19, 235.57 32.1 M167.86 109.85 C191.29 82.86, 212.63 56.43, 234.48 31.4 M174.4 107.9 C192.81 84.96, 212.01 62.32, 236.27 33.58 M174.83 107.54 C187.53 92.85, 199.62 77.23, 236.56 35.97 M181.81 104.81 C194.03 88.02, 208.74 73, 238.68 36.77 M181.32 105.76 C191.6 90.98, 205.08 78.51, 240.06 38.13 M189.17 104.06 C202.05 88.49, 214.41 72.4, 241.81 39.77 M186.92 103.46 C208.81 79.65, 230.13 53.82, 242.7 40.35 M193.59 101.75 C212.17 84.68, 225.9 67.09, 243 43.42 M195.32 101.21 C208.88 84.28, 223.05 69.43, 243.88 43.74 M202.44 100.22 C210.36 87.43, 223.04 76.88, 245.45 50.24 M201.83 99.74 C217.35 82.1, 231.26 64.2, 246.66 48.52 M210.38 98.99 C223.34 79.14, 238.43 65.4, 248.04 52.25 M208.85 98.41 C222.98 82.97, 236.16 66.21, 248.14 53.32 M220.95 92.55 C225.16 81.95, 232.82 76.92, 248.24 59.19 M220 90.43 C229.43 79.44, 239.03 69.67, 246.81 58.91 M230.78 84.35 C234.13 81.73, 234.93 79.19, 237.48 76.78 M231.8 83.39 C234.44 81.11, 236.64 78.42, 237.97 76.39 M7.35 75.37 C7.35 75.37, 7.35 75.37, 7.35 75.37 M7.35 75.37 C7.35 75.37, 7.35 75.37, 7.35 75.37 M34.78 93.7 C28.07 87.33, 23.41 83.09, 5.13 69.36 M34.8 93.14 C25.23 85.32, 14.91 78.09, 3.86 68.49 M46.17 97.26 C37.16 88.28, 27.97 82.95, 2.71 58.38 M43.63 97.79 C29.19 83.03, 13.78 71.13, 2.62 60.97 M52.76 99.31 C35.05 80.99, 13.25 66.6, 1.64 54.81 M53.98 99.55 C42.54 88.54, 30.27 78.58, 1.42 54.75 M65.71 105.24 C51.32 93.95, 38.76 80.75, 1.62 52 M63.55 103.56 C48.52 92.06, 34.08 78.88, 2.41 50.25 M71.66 106.38 C49 87.31, 28.89 65.47, 6.05 47.58 M73.36 106.36 C49.15 86.36, 26.2 66.14, 3.86 47.1 M79.8 108.25 C57.85 86.9, 32.81 66.34, 6.66 41.05 M79.3 105.57 C61.97 92.19, 44.8 76.86, 7.13 43.2 M86.11 108.87 C69.75 93.88, 54.44 78.35, 9.46 38.09 M86.89 107.77 C60.88 85.81, 34.05 61.85, 9.23 38.57 M95.34 107.2 C75.14 92.49, 61.42 77.08, 11.73 33.62 M93.74 108.37 C67.87 85.21, 40.27 60.18, 10.25 35.89 M98.79 106.75 C71.76 85.54, 44.37 60.13, 11.04 30.79 M99.82 108.76 C75.1 86.52, 48.41 62.01, 12.9 30.99 M106.28 109.22 C86.67 89.98, 65.23 71.73, 15.75 29.25 M107.98 109.45 C78.78 83.27, 47.04 55.75, 15.51 28.61 M114.64 109.56 C82.55 82.59, 49.5 53.65, 17.48 28.26 M114.91 110.6 C80.8 80.43, 44.37 48.8, 18.99 27.06 M123.01 108.93 C79.08 76.63, 40.34 43.72, 20.63 25.62 M120.89 110.54 C95.15 87.87, 67.05 65.46, 22.88 24.56 M125.79 109.72 C89.39 78.2, 55.97 49.99, 25.91 23.35 M125.35 110.21 C99.2 85.76, 72.01 62.88, 25.33 22.49 M132.7 109.15 C107.68 88.24, 82.56 65.85, 28.03 19.32 M131.3 108.35 C110.14 91.26, 89.48 72.91, 29.34 20.53 M135.68 109.06 C97.84 74.94, 59.98 41.4, 33.76 19.66 M136.89 108.68 C97.49 73.66, 55.8 40.32, 33.28 18.52 M141.77 110.14 C115.21 81.92, 84.13 58.17, 35.36 17.72 M142.59 107.74 C118.73 88.96, 95.65 68.06, 36.87 14.93 M149.22 106.3 C124.62 86.8, 100.84 68.36, 40.68 14.36 M148.01 108.71 C115.24 78.9, 82.68 50.68, 39.69 12.68 M152.63 107.69 C131.76 89.97, 109.62 69.84, 44.3 11.01 M153.36 107.9 C127.45 84.27, 102.54 62.12, 44.96 11.67 M159.07 107 C127.58 80.25, 99.21 51.85, 48.11 12.68 M158.2 106.61 C132.08 80.21, 103.72 55.63, 50.45 11.31 M165.71 106.43 C130.26 79.4, 96.54 46.9, 54 10.25 M165.47 107.56 C124.86 73.33, 84.16 37.43, 53.83 10.32 M169.41 106.83 C135.96 75.33, 98.86 45.85, 58.44 8.79 M171.69 105.55 C138.26 80.12, 108.6 52.84, 59.62 8.49 M174.14 107.18 C149.51 85.84, 126.27 60.82, 64.88 6.64 M176.76 104.42 C135.22 67.72, 93.3 31.21, 64.21 7.32 M182.12 103.06 C153.46 80.1, 123.18 55.47, 67.08 4.33 M179.68 103.04 C152.2 80.88, 124.08 55.59, 67.58 6.43 M184.11 102.23 C143.38 65.87, 99.22 27.55, 72.34 5.59 M185.34 102.39 C158.49 79.83, 131.78 56.25, 73.08 4.07 M191.9 99.7 C166.2 79.96, 143.79 59.79, 77.97 4.4 M189.44 102.09 C161.34 77.16, 132.7 51.9, 78.42 3.63 M193.54 98.69 C152.75 64.1, 108.52 24.48, 83.31 2.61 M194.32 98.94 C151.08 61.5, 106.98 24.15, 82.18 2.84 M200.64 99.63 C171.04 72.54, 138.87 45.51, 86 0.31 M198.68 99.33 C174.58 77.78, 149.06 55.87, 86.51 1.53 M204.83 99.18 C159.69 61.38, 115.25 20.57, 91.7 -0.57 M204.56 97.82 C178.19 74.98, 149.97 51.46, 93.48 0.84 M209.77 95.88 C177.4 68.92, 144.31 38.65, 96.85 0.83 M207.89 96.28 C176.5 67.98, 142.12 40, 98.21 1.75 M213.89 95.18 C173.59 62.54, 134.12 27.61, 103.93 1.24 M211.66 94.39 C184.19 70.97, 157.16 48.28, 104.71 1.52 M215.93 92.38 C184.47 64.57, 150.84 33.1, 109.68 -0.39 M216.03 92.11 C190.34 68.14, 163.73 46.61, 110.61 -0.43 M219.38 87.67 C195.26 69.68, 171.88 51.19, 114.15 0.11 M219.22 90.23 C187.68 62.04, 155.09 34.16, 114.61 -0.06 M223.05 86.47 C187.95 55.05, 155.02 24.06, 121.64 -0.88 M222.59 88.17 C194.43 63.14, 168.7 38.69, 122.06 -0.18 M226.74 87.07 C198.77 64.54, 173.5 42.63, 125.77 0.24 M226.86 85.15 C193.42 55.85, 160.24 28.03, 126.4 -1.95 M229.3 85.01 C190.57 49.57, 155.03 18.58, 128.9 -4 M230.57 84.06 C192.7 49.8, 155.69 16.82, 131.18 -3.72 M234.11 80.02 C201.07 51.18, 169.43 24.04, 138.72 -2.64 M232.17 79.91 C212.89 62.64, 190.97 42.94, 137.07 -1.94 M235.09 80.4 C203.42 49.48, 171.08 20.81, 143.66 0.96 M236.43 77.68 C215.67 61.03, 194.5 41.15, 145.84 -0.48 M237.67 74 C210.34 48.89, 182.21 25.53, 152.43 1.28 M240.01 74.85 C207.15 46.55, 174.19 19.91, 152.36 -0.95 M241.32 72.54 C220.38 53.07, 202.95 37.02, 160.04 -0.98 M240.4 71.17 C215.38 50.57, 191.72 28.73, 159.12 1.19 M244.56 66.64 C224.81 51.39, 204.17 34.04, 164.78 0.1 M243.48 67.23 C216.05 43.2, 188.77 21.33, 165.73 1.11 M244.42 63.46 C222.28 42.84, 200.87 24.92, 175.49 4.62 M245.46 63.56 C225.73 49.22, 207.81 32.01, 176.65 5.09 M246.22 62.38 C228.53 44.05, 211.48 31.48, 186.49 8.62 M247.19 59.85 C224.14 40.25, 202.26 20.88, 186.7 7.78 M249.3 58.67 C235.32 46.38, 218.91 31.2, 195.16 11.02 M248.36 58.1 C235.99 45.61, 220.35 34.04, 197.04 12.61 M248.52 51.9 C236.52 43.06, 229.16 32.53, 206.92 16.62 M247.48 50.52 C236.37 40.32, 226.6 31.84, 206.71 16.33 M245.32 40.7 C239.88 35.98, 233.59 31.64, 213.95 17.11 M243.51 41.83 C236.4 36.49, 230.42 30.61, 215.86 17.5" stroke="#40c057" stroke-width="0.5" fill="none"></path><path d="M128.95 -0.89 C143.84 -1.52, 161.78 2.17, 176.07 5.41 C190.36 8.65, 203.92 13.21, 214.7 18.55 C225.49 23.89, 235.27 30.7, 240.78 37.44 C246.29 44.18, 248.43 52.06, 247.74 58.98 C247.05 65.9, 243.29 72.61, 236.63 78.97 C229.96 85.33, 219.53 92.28, 207.74 97.14 C195.94 102, 180.63 105.59, 165.87 108.13 C151.1 110.67, 134.86 112.59, 119.13 112.4 C103.41 112.21, 85.83 110.03, 71.52 106.98 C57.22 103.92, 43.99 99.33, 33.29 94.06 C22.6 88.79, 12.92 81.99, 7.35 75.37 C1.79 68.76, -0.76 61.55, -0.11 54.38 C0.55 47.21, 4.7 39.01, 11.29 32.34 C17.88 25.66, 27.74 19.17, 39.44 14.31 C51.15 9.45, 64.56 5.53, 81.53 3.17 C98.49 0.81, 129.76 0.34, 141.24 0.14 C152.72 -0.05, 150.73 1.06, 150.42 1.98 M102.47 1.08 C116.52 -1.05, 133.74 0.38, 149.12 1.99 C164.5 3.6, 181.57 6.72, 194.75 10.74 C207.93 14.75, 219.46 20.03, 228.21 26.09 C236.96 32.16, 244.45 40.34, 247.27 47.11 C250.1 53.87, 248.59 59.65, 245.17 66.7 C241.75 73.74, 235.74 83.16, 226.74 89.4 C217.75 95.63, 204.42 100.53, 191.2 104.1 C177.97 107.66, 162.79 109.61, 147.37 110.77 C131.96 111.93, 114.61 112.56, 98.71 111.05 C82.8 109.55, 65.1 105.92, 51.94 101.72 C38.78 97.52, 27.99 91.82, 19.74 85.87 C11.49 79.92, 5.23 73.17, 2.42 66.03 C-0.38 58.88, -0.19 50.06, 2.93 42.99 C6.05 35.92, 12.02 29.53, 21.16 23.63 C30.29 17.74, 44.06 11.36, 57.74 7.64 C71.41 3.91, 95.56 2.21, 103.23 1.27 C110.89 0.34, 103.8 1.33, 103.74 2.03" stroke="#000000" stroke-width="1" fill="none"></path></g><g transform="translate(15 249.09523809523807) rotate(0 119 23)"><text x="119" y="33" font-family="Virgil, Segoe UI Emoji" font-size="36px" fill="#000000" text-anchor="middle" style="white-space: pre;" direction="ltr">Source Code</text></g><g stroke-linecap="round" transform="translate(638.6666666666667 213.65079365079328) rotate(0 94 58.5)"><path d="M0 0 C0 0, 0 0, 0 0 M0 0 C0 0, 0 0, 0 0 M0.06 7.01 C1.5 5.13, 2.64 2.54, 4.99 -0.32 M-0.43 6.49 C1.28 4.42, 2.53 2.74, 4.72 0.38 M0.59 11.65 C2.6 9.12, 6.78 4.32, 9.91 -0.94 M-0.57 12.43 C4.53 7.07, 8.49 3.33, 10.19 -0.34 M0.8 19.97 C3.11 13.42, 11.3 7.66, 13.94 2.01 M0.34 17.93 C4.25 13.33, 7.21 10.71, 15.89 0.34 M-0.06 22.52 C4 16.41, 9.76 10.58, 19.31 -0.43 M0.48 23.28 C7.63 13.69, 17.25 5.16, 21.13 -0.64 M-0.09 30.84 C8.09 21.39, 19.04 10.84, 27.15 0.07 M-0.95 29.66 C7.78 21.06, 15.83 12.42, 26.16 0.52 M-1.25 36.49 C12.32 22.69, 20.7 12.63, 32.68 -1.69 M-1 36.04 C8.47 27.1, 16.23 16.93, 31.07 -0.72 M1.78 44.26 C11.95 30.64, 23.6 18.21, 36.79 0.31 M0.41 42.01 C8.33 33.2, 17.44 23.4, 35.96 -0.72 M0.63 49.41 C15.76 29.27, 28.73 11.77, 44.26 0.28 M-0.02 48.6 C11.6 36.19, 22.74 22.08, 41.63 0.78 M-1.17 55.42 C16.82 32.29, 38.07 12.66, 47.54 1.68 M1.15 55.43 C19.66 32.86, 37.62 12.95, 47.9 1.21 M-0.43 59 C12.4 50.63, 23.69 35.72, 52.96 -1.83 M0.36 61.31 C15.05 44.46, 29.24 28.02, 52.29 -0.41 M-0.7 67.8 C14.42 52.22, 27.1 37.84, 56.54 -1.35 M-0.9 67.39 C23.54 41.31, 44.99 15.87, 58.34 1.13 M-1.25 73.71 C25 46.44, 45.36 19.22, 62.19 0.21 M-0.5 73.99 C25.54 45.26, 50.04 17.44, 64.28 -0.35 M-2.06 78.1 C13.3 63.42, 28.23 47, 69.48 1.18 M-0.2 79.33 C16.69 60.9, 32.31 43.16, 69.38 0.13 M1.82 85.52 C23.91 58.1, 49.97 30.11, 75.87 -1.9 M0.51 84.74 C24.97 57.09, 51.37 26.96, 74.58 -0.83 M-0.01 92.78 C22.12 66.28, 46.39 40.03, 80.5 -1.27 M0.58 91.22 C28.54 58.58, 56.54 25.61, 78.87 -0.47 M0.29 98.63 C27.51 64.04, 57.52 30.97, 86.41 -0.95 M-0.42 98.64 C26.21 66.76, 51.41 38.79, 85.93 0.61 M-0.13 105.05 C18.15 84.27, 36.99 61.39, 88.29 0.26 M-0.83 102.52 C23.57 77.18, 46.48 49.45, 90.43 0.93 M0.15 110.5 C21.83 87.05, 40.87 60.15, 94.73 -2.23 M0.64 110.76 C23.98 83.45, 47.56 55.73, 94.79 0.67 M0.49 115.63 C26.6 85.87, 53.96 54.88, 99.99 -1.77 M1.04 114.92 C23.69 89.79, 44.98 65.5, 101.4 0.15 M4.52 117.32 C41.04 74.59, 78.39 31.28, 106.23 0.47 M2.01 119.67 C42.47 72.06, 83.49 28.01, 105.4 0.32 M8.49 120.42 C44.28 75.05, 82.18 34.05, 111.27 0.6 M6.65 120.09 C45.83 76.11, 82.26 32.25, 110.9 -0.72 M12.32 119.02 C49.91 79.54, 82.24 36.38, 118.18 1.63 M13.04 118.41 C47.07 77.51, 82.78 36.22, 117.1 -0.49 M19.84 119.66 C52.67 78.48, 91.62 35.2, 122.31 -1.17 M19.04 118.76 C41.97 90.05, 67.24 61.58, 121.78 0.64 M25.83 118.11 C55.29 81.27, 87.55 43.88, 126.31 0.94 M23.72 119.37 C65.22 72.05, 104.55 24.49, 126.91 0.2 M27.68 120.34 C57.58 88.22, 83.4 58.42, 133.76 -0.11 M29.65 119.16 C50.86 95.16, 72.42 69.35, 132.64 0.83 M35.72 119.56 C75.09 71.94, 115.4 24.92, 136.87 -0.14 M33.64 118.14 C56.7 94.32, 78.36 68.67, 137.66 0.84 M40.92 117.17 C71.21 80.31, 102.29 43.87, 142.78 -1.76 M38.97 120 C67.71 86.65, 97.21 54.66, 143.85 0.66 M45.16 119.82 C75.87 85.33, 104.02 50.3, 149.27 -1.38 M44.17 118.54 C74.99 82.84, 106.64 46.43, 148.59 -0.61 M48.98 120.36 C80.29 83.41, 107.54 51.05, 155.04 -0.17 M49.24 118.24 C78.87 88.58, 104.01 56.34, 153.49 -0.77 M53.15 119.62 C85.53 85.57, 112.34 56.84, 159.44 0.91 M55.75 119.42 C77.39 94.25, 99.38 70.93, 158.67 0.06 M61.76 119.62 C97.01 79.05, 134.73 35.57, 164.71 -1.88 M60.42 119.07 C102.81 72.57, 143.35 24.08, 163.44 -0.13 M65.17 120.9 C105.73 75.44, 141.45 31.2, 167.77 1.95 M66.56 119.59 C94.34 85.56, 122.3 52.4, 168.63 -0.69 M69.68 120.16 C94.55 93.22, 120.39 64.24, 174.45 -1.91 M72.25 119.97 C109.19 74.48, 147.41 30.37, 175.3 0.15 M77.23 119.38 C101.61 91.59, 124.34 64, 179.2 0.45 M76.54 120.39 C108.91 82, 140.85 47.04, 180.97 -0.17 M83.67 118.7 C106.67 91.14, 129.2 62.49, 187.42 0.18 M82.21 118.64 C111.02 85.7, 137.74 54.59, 186.41 -0.09 M86.49 117.52 C110.95 92.22, 134.51 63.6, 189.82 0.14 M86.05 118.66 C116.13 85.72, 145.14 51.84, 188.58 2.11 M91.12 119.43 C118.3 90.52, 143.26 56.91, 188.72 7.91 M93.54 119.02 C114.47 94.26, 136.21 71.36, 189.34 6.78 M98.62 121.28 C130.28 79.33, 164.99 40.44, 189.66 11.77 M97.18 119.47 C121.19 91.68, 144.5 65.39, 189.59 14.4 M103.96 118.08 C134.25 82.92, 167.32 46.34, 189.15 17.72 M103.21 119.34 C134.07 83.62, 165.26 48.26, 189.54 20.07 M107.77 120.12 C140.73 85.07, 169.32 49.59, 190.34 26 M107.81 120.16 C130.94 91.94, 154.16 66.21, 188.9 25.59 M114.59 117.86 C144.63 86.56, 172.01 50.61, 188.65 32.8 M113.94 118.05 C133.45 96.31, 153.27 72.76, 188.92 32.6 M120.62 119 C146.36 87.11, 171.07 59.3, 190.76 39.53 M119.53 118.31 C136.73 100.03, 154.22 80.58, 190 37.39 M123.94 117.47 C144.06 95.52, 166.71 72.44, 189.69 46.09 M124.24 119.85 C145.27 95.53, 167.2 70.69, 189.15 43.67 M128.32 118.39 C144.56 101.11, 164.35 81.42, 190.34 48.57 M129.7 119.75 C143.04 101.89, 158.39 85.88, 190.12 49.76 M133.42 119.12 C157.6 97.3, 175.52 70.45, 189.29 56.32 M134.31 119.7 C155.81 96.28, 174.95 71.7, 189.65 57.14 M138.55 118.24 C156.65 98.86, 173.99 81.7, 188.34 61.6 M139.43 118.57 C150.74 106.88, 161.37 94.38, 189.58 61.66 M144.94 120.54 C159.1 104.03, 169.11 90.04, 189.6 68.94 M146.15 118.82 C157.9 107.63, 167.78 95.35, 190.31 68.32 M151.46 118.02 C160.02 109.67, 165.55 100.1, 190.48 76.31 M151.56 119.09 C162.49 104.48, 175.68 90.64, 190.42 74.03 M156.91 118.92 C163.71 111.99, 170.06 102.76, 189.29 80.91 M155.48 118.65 C163.04 110.76, 170.36 101.46, 190.71 80.81 M159.73 120.69 C172.02 109.87, 180.72 97.94, 189.02 88.17 M160.71 119.9 C171.4 106.61, 180.54 95.98, 190.47 86.35 M167.6 119.74 C170.54 112.49, 178.61 106.43, 190.88 93.46 M167.13 119.65 C174.14 109.28, 183.35 100.03, 189.57 93.19 M172.5 120.7 C176.92 115.17, 179.92 109.01, 189.37 99.39 M171.23 119.83 C176.83 112.09, 182.74 107.45, 189.96 99.56 M177.69 117.78 C181.37 115.68, 182.39 110.3, 191.23 105.04 M177.61 120.24 C180.98 116.64, 183.19 111.79, 189.3 105.99 M183.12 119.59 C183.48 117.57, 185.13 115.35, 189.66 111.27 M182.99 119.56 C183.76 117.7, 185.95 116.06, 190.44 110.82 M0.18 117.16 C0.18 117.16, 0.18 117.16, 0.18 117.16 M0.18 117.16 C0.18 117.16, 0.18 117.16, 0.18 117.16 M6.39 117.2 C3.94 115.49, 1.65 113.67, 0.44 111.29 M5.52 117 C3.9 114.88, 1.75 113.19, 0.14 111.89 M12.36 115.6 C6.8 114.47, 3.85 108.95, -1.28 106.24 M12.73 117.32 C7.32 113.87, 3.49 109.46, 0.74 106.33 M19.72 116.22 C12.6 113.23, 6.07 105.86, 0.53 101.84 M19.49 116.7 C10.84 110.79, 4.86 105.78, -0.8 99.92 M25.76 115.04 C18.47 109.38, 12.78 105.42, 0.25 97.17 M24.28 117.31 C16.21 108.74, 8.73 101.83, -0.79 95.1 M29.6 116.14 C20.84 107.55, 10.78 98.53, 0.12 91.94 M31.46 116.34 C17.53 105.79, 6.47 94.87, -0.41 90.61 M36.57 116.56 C27.7 107.09, 16.84 101.96, 0.01 86.78 M36.33 115.93 C23.54 105.87, 9.43 93.22, -0.34 85.97 M41.32 118.2 C28.86 103.36, 11.91 91.59, 0.09 80.94 M42.83 117 C27.97 103.67, 11.39 89.82, -1.18 78.73 M47.49 118.19 C34.34 105.88, 21.28 92.22, -0.2 76.48 M49.74 117.12 C35.26 105.78, 19.8 92.14, 0.1 74.21 M55.03 117.88 C39.07 102.86, 25.12 90.16, 0.86 68.08 M54.45 117.02 C40.85 104.42, 27.38 93.87, -0.38 68.74 M59.42 115.82 C39.77 99.79, 20.63 81.58, -1.72 63.23 M60.73 117.03 C38.21 96.65, 13.24 75.69, 0.13 63.41 M67.41 118.14 C47.64 99.82, 26.28 79.63, 0.09 60.7 M66.93 117 C53.55 106.31, 39.94 93.26, 1.23 60 M72.04 118.81 C52.85 99.39, 37.27 83.71, -1.38 51.47 M73.54 116.02 C47.93 96.09, 24.04 74.85, -0.89 53.41 M80.37 118.08 C57.42 97.69, 35.83 78.15, 1.7 47.71 M79.38 116.4 C58.64 100.17, 40.18 82.65, 0.36 48.16 M84.74 115.39 C51.99 90.68, 19.65 59.87, 0.48 41.18 M85.4 116.05 C62.9 97.2, 40.14 77.6, 0.15 42.28 M90.06 118.36 C59.28 88.92, 27.21 60.82, 0.35 39.49 M92.4 117 C71.29 99.41, 52.3 81.61, -0.24 37.07 M97.46 117.25 C65.95 88.53, 33.64 57.12, 0.02 31.82 M97.29 117.32 C67 90.65, 36.62 62.32, 0.09 32.35 M103.41 117.11 C79.31 95.84, 55.68 74.72, -1.54 25.23 M104.59 116.8 C63.91 84.19, 27.25 50.74, 1.16 26.2 M111.36 116.26 C69.43 79.02, 24.23 44.98, -2.09 22.34 M110.69 116.94 C80.56 91.88, 52.79 67.55, -0.44 22.22 M115.07 115.26 C80.02 87.41, 46.98 54.64, -1.07 17.65 M115.57 117.37 C71.7 77.92, 26.85 38.89, 0.03 17.26 M121.84 117.84 C82.07 81.84, 46.52 50.4, -0.68 11.21 M122.58 116.32 C83.55 86.19, 47.66 54.88, -1.11 10.7 M128.22 117.3 C97.27 89.04, 68.26 63.54, 1.19 4.96 M128.68 116.54 C81.2 74.72, 33.35 33.81, -0.4 6.19 M135.08 116.83 C92.38 76.7, 46.55 39.88, -2.09 0.39 M133.94 117.06 C100.87 87.56, 67.28 59.56, 0.2 0.88 M139.27 115.84 C99.36 79.84, 61.88 45.36, 3.41 -3.16 M139.79 117.05 C105.06 84.02, 66.73 51.6, 3.12 -2.82 M144.98 114.96 C93.69 70.99, 42.75 27.62, 8.89 -0.79 M146.75 116.37 C97.92 75.1, 48.13 32.37, 8.4 -2.02 M150.88 117.01 C105.98 76.8, 59.7 32.96, 13.55 -0.94 M152.24 117.93 C122.11 87.89, 89.75 61.47, 14.87 -2.76 M157.96 117.43 C102.33 69.34, 49.29 21.61, 20.9 -4.61 M158.74 117.71 C118.94 83.16, 78.05 48.39, 21.05 -1.69 M164.46 116.45 C108.92 69, 54.63 23.78, 26.72 -2.2 M165.39 116.41 C130.75 88.46, 97.8 59.51, 25.52 -3.45 M169.68 117.61 C130.1 80.84, 87.78 45.84, 34.08 -1.24 M170.15 117.44 C122.14 74.99, 72.23 34.06, 32.5 -2.91 M177.18 116.62 C141.13 86.62, 106.45 57.67, 41.08 -4.06 M177.6 117.32 C133.39 79.65, 91.02 42.21, 40.05 -3.27 M182.07 118.4 C132.03 73.92, 77.19 28.23, 44.1 -2.73 M182.7 116.21 C148.9 87.28, 111.65 55.3, 45.84 -3.6 M186.71 115.46 C151.79 83.04, 111.23 52.15, 53.04 -2.14 M188.98 115.75 C151.91 84.61, 114.45 53.71, 50.93 -2.34 M188.98 110.26 C148.63 77.36, 113.26 45, 55.11 -1.59 M187.32 110.97 C142.02 69.91, 96.17 29.77, 57.94 -3.42 M187.12 107.96 C157.49 78.04, 130.08 53.1, 61.77 -2.56 M189.3 106.52 C142.81 65.97, 96.33 25.15, 62.65 -2.53 M188.34 101.72 C158.99 73.33, 128.53 50.55, 68.54 -2.23 M188.27 99.49 C163.11 80.14, 138.21 58.94, 70.16 -3.15 M189.17 93.55 C160.26 72.39, 132.21 45.53, 74.18 -4.61 M188.24 95.73 C154.55 66.02, 121.25 36.82, 74.69 -2.14 M186.36 88.07 C157.44 59.95, 122.92 35.31, 80.04 -3.49 M187.3 89.08 C165.59 69.44, 141.07 49.84, 81.33 -3.25 M188.01 84.72 C167.87 67.31, 148.19 50.38, 85.69 -4.08 M189.17 85.19 C151.14 52.08, 114.54 18.96, 88.27 -3.22 M188.44 79.54 C170.05 63.49, 148.48 46.94, 92.03 -2.75 M188.65 78.7 C167.86 62.07, 148.67 43.95, 94.32 -2 M187.31 73.41 C154.48 46.96, 120.98 14.5, 100.96 -0.61 M189.18 75 C160.73 51.36, 134.01 27.4, 101.14 -2.89 M188.5 69.82 C159.35 45.07, 131.78 21.68, 106.67 -2.56 M188.29 69.53 C168.39 52.38, 151.51 37.03, 104.99 -2.05 M187.23 63.09 C170.04 50.43, 153.02 33.49, 110.9 -4.3 M189.13 63.48 C165.74 43.83, 145.4 24.45, 112.52 -2.03 M188.95 56.14 C172.56 46.06, 159.45 29.46, 118.64 -1.94 M187.96 57.06 C164.43 37.47, 141.33 17.96, 118.94 -3.84 M188.44 52.72 C166.67 33.55, 143.36 15.35, 125.18 -3.77 M187.63 53.22 C171.43 38.38, 153.04 22.51, 123.63 -3.25 M188.71 47.2 C166.54 29.26, 144.89 9.14, 131.84 -3.8 M187.13 46.97 C175.97 35.82, 162.02 25.1, 130.29 -2.86 M188.1 40.76 C170.87 26.49, 148.71 6.85, 137.21 -4.82 M189.03 43.05 C173.85 30.58, 157.69 16.57, 136.72 -3.61 M187.19 35.21 C174.38 25.42, 164.72 13.21, 144.43 -1.47 M189.04 37.23 C177.56 26.71, 168.02 19.31, 142.62 -2.35 M187.88 33.17 C179.65 23.17, 165.86 12.6, 148.91 -1.75 M187.44 32.05 C174.41 19.26, 160.84 6.39, 147.76 -3.9 M189.06 28.54 C180.72 19.6, 176.77 12.71, 153.33 -2.84 M189.42 26.71 C178.6 18.61, 169.18 9.53, 155.54 -3.33 M189.93 19.41 C181 12.68, 171.1 6.38, 159.44 -0.67 M188.72 21.55 C179.05 13.7, 171.25 5.98, 161.23 -2.01 M189.23 17.09 C179.51 8.49, 173.43 1.83, 167.21 -4.94 M189.49 16.54 C180.92 8.45, 170.98 0.68, 167.67 -3.2 M188.93 8.45 C182.17 7.37, 177.93 -0.23, 174.21 -2.19 M188.46 11.14 C182.82 6.42, 179.62 2.94, 173.11 -3.54 M189.13 4.65 C186.15 4.46, 183.7 2.82, 179.12 -1.94 M188.57 5.87 C185.54 3.55, 183.42 0.29, 179.2 -3.12" stroke="#40c057" stroke-width="0.5" fill="none"></path><path d="M-1.41 -1.89 C57 -0.9, 114.46 -0.53, 188.35 0.98 M-0.8 0.15 C53.74 -0.97, 107.39 0.13, 188.46 0.15 M187.92 0.65 C188.56 40.14, 188.17 76.75, 186.07 116.35 M187.63 -0.68 C187.29 31.96, 187.46 62.91, 188.78 117.78 M188.95 117.06 C126.24 115.34, 63.01 117.13, 1.41 117 M188.09 117.66 C147.52 118.61, 105.95 119.06, -0.9 116.81 M0.1 117.13 C-1.16 80.24, -0.26 47.14, -1.68 1.68 M-0.88 116.4 C-0.67 79.62, -0.74 39.96, -0.06 0.24" stroke="#000000" stroke-width="1" fill="none"></path></g><g transform="translate(643.6666666666667 249.15079365079328) rotate(0 89 23)"><text x="89" y="33" font-family="Virgil, Segoe UI Emoji" font-size="36px" fill="#000000" text-anchor="middle" style="white-space: pre;" direction="ltr">Parser</text></g><g stroke-linecap="round"><g transform="translate(555.803914739229 279.2749203912681) rotate(0 31.486314363110296 -0.38126250934988093)"><path d="M0.14 -1.06 C11.03 -0.91, 53.5 0.1, 64.22 0.25 M-1.25 1 C9.61 0.82, 52.59 -1.78, 63.46 -1.76" stroke="#000000" stroke-width="2" fill="none"></path></g><g transform="translate(555.803914739229 279.2749203912681) rotate(0 31.486314363110296 -0.38126250934988093)"><path d="M33.86 10.02 C41.75 8.08, 46.86 5.65, 64.16 -3.36 M35.1 10.21 C44.87 6.15, 53.45 3.35, 63.77 -1.8" stroke="#000000" stroke-width="2" fill="none"></path></g><g transform="translate(555.803914739229 279.2749203912681) rotate(0 31.486314363110296 -0.38126250934988093)"><path d="M33.18 -10.49 C41.1 -8.22, 46.35 -6.44, 64.16 -3.36 M34.42 -10.3 C44.36 -7.91, 53.15 -4.24, 63.77 -1.8" stroke="#000000" stroke-width="2" fill="none"></path></g></g><g stroke-linecap="round" transform="translate(302.31746031746 11.111111111110858) rotate(0 275.7142857142858 209.99999999999977)"><path d="M0.14 0.39 C171.57 -0.32, 343.64 -1.3, 551.55 -0.18 M551.92 0.16 C550.53 113.83, 550.57 225.74, 551.77 419.75 M550.66 419.74 C334.36 420.1, 118.19 419.94, -0.54 419.59 M0.83 420.83 C1.13 280.48, -0.09 141.2, 0.03 0.53" stroke="#000000" stroke-width="1.5" fill="none" stroke-dasharray="8 9"></path></g><g transform="translate(378.6428571428571 44.92857142857156) rotate(0 200.5 69)"><text x="200.5" y="33" font-family="Virgil, Segoe UI Emoji" font-size="36px" fill="#000000" text-anchor="middle" style="white-space: pre;" direction="ltr">Part 1</text><text x="200.5" y="79" font-family="Virgil, Segoe UI Emoji" font-size="36px" fill="#000000" text-anchor="middle" style="white-space: pre;" direction="ltr">From Source Code to</text><text x="200.5" y="125" font-family="Virgil, Segoe UI Emoji" font-size="36px" fill="#000000" text-anchor="middle" style="white-space: pre;" direction="ltr">Abstract Syntax Tree</text></g><g stroke-linecap="round" transform="translate(902.3174603174602 213.65079365079328) rotate(0 90.5 58.5)"><path d="M-1.72 -0.22 C41.39 -3.15, 87.91 -2.06, 179.08 -1.22 M0.81 0.93 C59.01 -1.25, 120.37 -2.08, 181.81 -0.58 M182.24 0.14 C178.4 30.29, 180.85 58.47, 180.45 117.07 M181.54 -0.27 C181.48 32.6, 179.9 65.47, 180.4 116.77 M180.09 117.94 C118.5 116.77, 57.44 113.9, -0.53 115.85 M180.63 116.64 C124.28 116.26, 67.15 116.49, 0.64 116.39 M-1.67 116.35 C1 82.66, 1.6 53.99, 1.17 0.29 M0.81 117.92 C0.12 90.37, 0.1 64.98, -0.24 -0.19" stroke="#000000" stroke-width="1" fill="none"></path></g><g transform="translate(907.3174603174602 249.15079365079328) rotate(0 85.5 23)"><text x="85.5" y="33" font-family="Virgil, Segoe UI Emoji" font-size="36px" fill="#000000" text-anchor="middle" style="white-space: pre;" direction="ltr">Compiler</text></g><g stroke-linecap="round" transform="translate(1172.476190476191 213.65079365079328) rotate(0 106 58.5)"><path d="M-0.67 -0.27 C53.52 -0.27, 112.01 -0.97, 211.84 -0.55 M-0.17 -0.11 C70.62 1.36, 141.77 1.11, 211.61 0.25 M210.89 -0.75 C213.59 39.54, 211.3 76.23, 213.13 118.66 M212.16 -0.87 C212.12 35.22, 211.34 70.81, 211.12 117.13 M212.48 115.93 C157.98 116.76, 101.93 115.76, -0.3 118.43 M211.93 116.52 C160.02 117.88, 106.68 116.93, 0.8 116.89 M1.31 118.22 C-0.81 75.53, 0.61 32.28, 1.49 0.72 M-0.86 116.89 C-1.93 87.38, -0.18 56.94, -0.22 0.04" stroke="#000000" stroke-width="1" fill="none"></path></g><g transform="translate(1177.476190476191 226.15079365079328) rotate(0 101 46)"><text x="101" y="33" font-family="Virgil, Segoe UI Emoji" font-size="36px" fill="#000000" text-anchor="middle" style="white-space: pre;" direction="ltr">Evaluation</text><text x="101" y="79" font-family="Virgil, Segoe UI Emoji" font-size="36px" fill="#000000" text-anchor="middle" style="white-space: pre;" direction="ltr">Loop</text></g><g stroke-linecap="round"><g transform="translate(1096.2801052154193 279.2696557704562) rotate(0 28.386326013682833 -0.2808916194585436)"><path d="M0.3 -0.3 C9.93 -0.33, 48.29 0.8, 57.77 0.93 M-1 -1.5 C8.52 -1.35, 47.56 -0.7, 57.12 -0.72" stroke="#000000" stroke-width="2" fill="none"></path></g><g transform="translate(1096.2801052154193 279.2696557704562) rotate(0 28.386326013682833 -0.2808916194585436)"><path d="M29.67 9.78 C39.66 5.85, 47.02 1.93, 57.04 0.24 M31.12 9.59 C38.26 5.8, 48.08 2.71, 56.68 -1.29" stroke="#000000" stroke-width="2" fill="none"></path></g><g transform="translate(1096.2801052154193 279.2696557704562) rotate(0 28.386326013682833 -0.2808916194585436)"><path d="M29.84 -9.78 C39.97 -7.83, 47.28 -5.88, 57.04 0.24 M31.3 -9.97 C38.18 -7.62, 47.95 -4.57, 56.68 -1.29" stroke="#000000" stroke-width="2" fill="none"></path></g></g><g stroke-linecap="round"><g transform="translate(1398.5964190476195 282.7100383763559) rotate(0 31.931351474763915 0.28443961206357926)"><path d="M0.34 -0.81 C11.29 -0.7, 54.27 0.82, 64.8 1.13 M-0.93 1.38 C10.02 1.13, 53.79 -0.05, 64.37 -0.4" stroke="#000000" stroke-width="2" fill="none"></path></g><g transform="translate(1398.5964190476195 282.7100383763559) rotate(0 31.931351474763915 0.28443961206357926)"><path d="M35.14 12.33 C44.65 7.54, 50.89 5.05, 62.72 1.59 M36.17 10.74 C46.5 7.18, 56.55 2.77, 65.02 -0.7" stroke="#000000" stroke-width="2" fill="none"></path></g><g transform="translate(1398.5964190476195 282.7100383763559) rotate(0 31.931351474763915 0.28443961206357926)"><path d="M34.54 -8.18 C44.27 -8.3, 50.64 -6.13, 62.72 1.59 M35.57 -9.77 C46.22 -5.79, 56.49 -2.66, 65.02 -0.7" stroke="#000000" stroke-width="2" fill="none"></path></g></g><g stroke-linecap="round" transform="translate(869.4603174603169 10) rotate(0 272.3809523809525 209.99999999999977)"><path d="M-0.29 -0.15 C130.31 -1.57, 259.3 -1.87, 545.05 0.51 M544.01 0.52 C546.04 139.29, 546 277.78, 545.72 419.95 M545.16 420.15 C390.52 420.46, 235.24 419.32, -0.48 420.23 M0.72 419.39 C2.64 304.2, 2.61 187.12, 0.28 -1.02" stroke="#000000" stroke-width="1.5" fill="none" stroke-dasharray="8 9"></path></g><g transform="translate(893.3412698412696 44.92857142857156) rotate(0 248.5 69)"><text x="248.5" y="33" font-family="Virgil, Segoe UI Emoji" font-size="36px" fill="#000000" text-anchor="middle" style="white-space: pre;" direction="ltr">Part 2</text><text x="248.5" y="79" font-family="Virgil, Segoe UI Emoji" font-size="36px" fill="#000000" text-anchor="middle" style="white-space: pre;" direction="ltr">From Abstract Syntax Tree</text><text x="248.5" y="125" font-family="Virgil, Segoe UI Emoji" font-size="36px" fill="#000000" text-anchor="middle" style="white-space: pre;" direction="ltr">To Magic (Execution)</text></g><g stroke-linecap="round" transform="translate(1468.892857142857 241.73412698412676) rotate(0 88 40)"><path d="M85.93 -0.65 C98.13 -1.42, 113.35 0.11, 125 2.58 C136.64 5.05, 147.72 9.45, 155.81 14.16 C163.89 18.87, 170.43 25.17, 173.51 30.87 C176.59 36.56, 176.95 42.79, 174.29 48.34 C171.63 53.89, 165.36 59.7, 157.57 64.17 C149.78 68.64, 138.8 72.45, 127.54 75.14 C116.28 77.84, 102.82 80.18, 90.04 80.34 C77.26 80.5, 62.57 78.37, 50.86 76.09 C39.16 73.81, 27.84 70.91, 19.8 66.67 C11.75 62.43, 5.68 56.26, 2.59 50.63 C-0.51 45, -1.47 38.56, 1.23 32.89 C3.92 27.22, 10.84 21.27, 18.76 16.63 C26.68 11.99, 37.23 7.94, 48.73 5.05 C60.24 2.17, 80.84 -0.16, 87.81 -0.71 C94.78 -1.26, 90.61 1.02, 90.57 1.75 M52.97 3.13 C63.33 0.28, 76.64 -0.44, 89.14 -0.05 C101.63 0.34, 116.59 3, 127.91 5.46 C139.24 7.91, 149.53 10.32, 157.1 14.67 C164.68 19.01, 170.86 25.54, 173.36 31.54 C175.86 37.54, 175.17 44.9, 172.11 50.67 C169.05 56.44, 162.92 61.67, 154.98 66.16 C147.03 70.65, 135.78 75.15, 124.45 77.61 C113.11 80.07, 99.46 81.02, 86.95 80.93 C74.45 80.84, 60.83 79.66, 49.41 77.06 C37.98 74.46, 26.22 70.09, 18.42 65.34 C10.61 60.6, 5.14 54.67, 2.57 48.61 C0 42.55, 0.18 34.5, 3 28.97 C5.81 23.44, 11.44 19.51, 19.48 15.43 C27.53 11.35, 45.88 6.39, 51.26 4.47 C56.65 2.56, 51.14 3.48, 51.81 3.94" stroke="#000000" stroke-width="1" fill="none"></path></g><g transform="translate(1473.892857142857 258.73412698412676) rotate(0 83 23)"><text x="83" y="33" font-family="Virgil, Segoe UI Emoji" font-size="36px" fill="#000000" text-anchor="middle" style="white-space: pre;" direction="ltr">Magic</text></g><g stroke-linecap="round"><g transform="translate(833.7857142857135 275.21825396825125) rotate(0 30.839144064155903 0.7008986484165689)"><path d="M0.51 0.42 C10.44 0.48, 50.1 0.31, 60.15 0.18 M-0.68 -0.41 C9.56 -0.12, 52.26 1.62, 62.36 1.81" stroke="#000000" stroke-width="2" fill="none"></path></g><g transform="translate(833.7857142857135 275.21825396825125) rotate(0 30.839144064155903 0.7008986484165689)"><path d="M34.56 9.58 C44.11 7.34, 53.14 3.46, 63.94 2.72 M34.17 11.13 C43.15 7.74, 52.74 4.59, 62.47 0.84" stroke="#000000" stroke-width="2" fill="none"></path></g><g transform="translate(833.7857142857135 275.21825396825125) rotate(0 30.839144064155903 0.7008986484165689)"><path d="M35.21 -10.93 C44.51 -6.01, 53.31 -2.74, 63.94 2.72 M34.82 -9.38 C43.64 -6.3, 53.03 -2.98, 62.47 0.84" stroke="#000000" stroke-width="2" fill="none"></path></g></g><g stroke-linecap="round"><g transform="translate(272.21153672356854 274.86009880565825) rotate(0 23.372000001955826 -0.21091791581420694)"><path d="M-0.96 0.18 C6.91 -0.04, 39.65 -0.92, 47.7 -0.88 M0.74 -0.78 C8.38 -0.86, 39.03 0.56, 46.61 0.46" stroke="#000000" stroke-width="2" fill="none"></path></g><g transform="translate(272.21153672356854 274.86009880565825) rotate(0 23.372000001955826 -0.21091791581420694)"><path d="M24.21 7.77 C31.04 4.68, 41.01 4, 46.92 1 M24.24 7.98 C33.63 4.78, 41.61 1.24, 46.29 0.16" stroke="#000000" stroke-width="2" fill="none"></path></g><g transform="translate(272.21153672356854 274.86009880565825) rotate(0 23.372000001955826 -0.21091791581420694)"><path d="M24.54 -8.64 C31.31 -6.11, 41.17 -1.18, 46.92 1 M24.57 -8.43 C33.88 -5.26, 41.74 -2.44, 46.29 0.16" stroke="#000000" stroke-width="2" fill="none"></path></g></g></svg>