<svg version="1.1" xmlns="http://www.w3.org/2000/svg" viewBox="0 0 1654.8928571428569 441.1111111111104" width="3309.7857142857138" height="882.2222222222208">
  <!-- svg-source:excalidraw -->
  
  <defs>
    <style>
      @font-face {
        font-family: "Virgil";
        src: url("https://excalidraw.com/Virgil.woff2");
      }
      @font-face {
        font-family: "Cascadia";
        src: url("https://excalidraw.com/Cascadia.woff2");
      }
    </style>
  </defs>
  <g stroke-linecap="round" transform="translate(341.8412698412694 213.65079365079328) rotate(0 100.5 58.5)"><path d="M0 0 C0 0, 0 0, 0 0 M0 0 C0 0, 0 0, 0 0 M0.04 6.19 C0.46 4.65, 3.33 3.21, 5.62 -0.4 M0.08 6.14 C1.51 4.34, 2.92 2.21, 4.6 0.31 M-1.04 11.18 C1.71 7.84, 5.59 5.67, 10.7 1.37 M0.47 12.31 C3.31 7.75, 6.61 4.77, 10.49 -0.44 M-1.23 19.37 C4.12 13.42, 5.7 11.06, 15.98 0.93 M0.27 19.15 C5.6 11.46, 11.49 5.34, 14.72 0.71 M-1.45 23.86 C9.11 16.13, 14.99 6.06, 22.65 -1.18 M-0.68 23.79 C5.49 16.38, 12.18 11.48, 21.88 -0.01 M-1.59 31.42 C9.19 20.73, 15.99 12.37, 26.67 -0.65 M0.76 30.71 C8.54 22.17, 15.34 12.79, 25.98 0.46 M-0.97 36.99 C6.68 29.19, 13.64 22.87, 33.89 0.66 M-0.77 36.2 C8.86 27.75, 15.13 17.85, 32.81 -1.09 M0.33 40.74 C9.02 31.27, 15.84 23.34, 35.81 0.17 M0.51 43.16 C14.28 26.22, 27.88 9.39, 36.14 0.29 M0.59 49.31 C14.48 31.27, 26.05 18.38, 43.84 -0.54 M-1.02 47.92 C13.46 33.1, 28.75 15.41, 42.48 0.17 M1.94 53.55 C15.41 35.94, 31.56 22.6, 49.06 1.36 M-0.24 55.43 C10.96 42.5, 22.28 31.02, 47.31 -0.71 M-1.77 61.53 C21 37.61, 42.66 11.22, 52.43 -1.08 M0.99 61.8 C15.17 43.53, 29.33 26.38, 53.86 -0.01 M0.5 68.3 C20.51 42.65, 38.11 20.43, 56.59 0.39 M-0.15 67.5 C16.35 47.65, 31.26 30.62, 57.34 0.79 M0.12 73.11 C15.56 55.58, 31.94 39.34, 64.08 -1.75 M0.13 72.16 C14.42 54.89, 29.38 39.7, 63.69 -1.18 M-0.27 80.71 C16.11 61.22, 31.26 39.7, 69.07 -1.79 M-0.2 79.31 C14.3 63.95, 28.84 46.76, 67.84 0.38 M-1.08 87.02 C20.5 60.79, 43.62 35.27, 75.68 0.17 M1.01 85.6 C28.89 53.76, 55.15 21.29, 74.45 -0.62 M1.9 92.23 C25.93 62.78, 50.42 32.68, 77.66 -0.72 M0.44 91.33 C23.58 65.36, 46.12 38.12, 80.17 -0.11 M-0.86 98.47 C29.32 61.1, 59.68 27.91, 84.66 -1.12 M-0.68 97.69 C26.93 67.02, 54.81 34.25, 84.37 0.61 M-1.6 103.08 C25.97 75.8, 51.97 42.84, 90.01 -0.44 M1.01 103.51 C25.03 73.22, 50.83 44.12, 89.42 -0.61 M-0.24 107.91 C18.44 88.92, 41.39 64.15, 96.93 0.11 M0.48 110.01 C28.6 73.97, 58.59 39.36, 95.42 -0.28 M1.17 116.97 C36.12 69.87, 76.68 27.57, 102.3 -1.47 M0.48 116.05 C31.5 79.08, 61.65 42.78, 100.46 -0.77 M0.91 118.53 C43.41 74.64, 81.58 29.48, 106.91 1.05 M2.32 119.63 C43.9 71.16, 85.65 25.03, 105.35 0.18 M5.83 120.81 C32.18 90.03, 57.16 64.78, 111.19 -0.87 M6.8 119.12 C42.67 78.76, 78.35 38.53, 111.89 -0.02 M14.49 117.27 C34.19 93.29, 52.44 71, 116.85 -0.83 M13.69 118.08 C38.37 89.15, 65.76 58.77, 116.96 0.44 M17.36 117.84 C45.71 88.77, 74.48 55.05, 121.85 -0.18 M18.52 119.95 C56.59 75.02, 96.04 29.01, 122.06 0.48 M23.81 117.64 C63.53 74.83, 103.57 30.68, 127.48 1.19 M24.06 118.27 C65.34 72, 106.27 26.28, 126.82 0.94 M29.89 118.04 C56.6 84.98, 86.28 50.64, 131.93 -1.42 M28.58 119.27 C53.36 90.53, 77.85 60.47, 133.09 -0.2 M36.53 119.6 C74.03 73.69, 113.79 30.92, 138.06 -0.45 M34.56 118.27 C71.27 76, 107.91 32.85, 137.23 0.66 M41.34 119.12 C62.68 94.21, 85.05 69.09, 143.61 0.85 M38.97 118.28 C78.92 75.05, 116.59 30.89, 142.82 -0.72 M44.81 118.6 C71.07 91.97, 96.2 61.39, 148.99 1.48 M46.03 118.41 C76.04 83.18, 105.49 47.14, 148.94 0.05 M50.11 118.29 C70.59 96.72, 90.25 71.72, 155.54 -0.39 M49.42 118.45 C74.7 90.3, 99.41 60.48, 152.87 0.5 M56.66 118.38 C76.15 92.99, 98.14 68.07, 157.21 1.67 M54.42 120.04 C76.64 94.89, 97.02 69.71, 158.41 -0.18 M59.13 120.27 C99.76 75.49, 135.49 33.59, 162.89 -0.7 M61.4 119.47 C96.29 78.04, 131.94 37.28, 164.58 -0.7 M66.55 119.87 C91.86 85.03, 120.52 56.99, 168.11 -1.64 M65.39 118.46 C92.54 86, 121.82 54.39, 169.89 0.91 M71.81 117.27 C111.34 72.1, 148.1 27.02, 173.32 -0.1 M72.15 119.32 C92.79 94.09, 114.19 69.63, 175.07 -0.25 M75.49 117.79 C114.36 74.72, 155.6 27.05, 179.62 1.24 M76.41 119.53 C111.71 77.6, 147.41 37.3, 179.35 0.55 M80.06 120.99 C113.6 83, 145.35 42.49, 187.01 0.86 M82.65 118.19 C122.3 74.1, 161.48 27.47, 185.19 0.19 M85.65 117.61 C121.16 82.56, 153.55 42.06, 190.14 -0.48 M87.33 118.56 C116.48 87.43, 144.03 54.47, 190.52 0.19 M92.3 118.64 C113.15 93.47, 136.3 70.31, 196.6 1.15 M93.63 118.54 C114.46 91.95, 138.83 65.13, 195.54 -0.8 M95.69 120.29 C138.46 72.53, 176.79 28.72, 202.6 1.92 M97.74 119.15 C132.88 78.39, 167.68 36.4, 200.89 -0.47 M101.44 116.95 C127.93 91.3, 153.98 64.11, 201.37 6.01 M103.56 119.08 C136.68 81.56, 168.05 45.09, 200.57 6.4 M108.78 118.28 C136 88.13, 163.48 59.28, 201.91 12.73 M109.01 119.13 C134.08 89.41, 159.07 59.51, 201.18 12.6 M112.89 118.12 C135.55 92.64, 156.84 70.47, 200.28 19.9 M114.69 118.76 C142.99 84.54, 172.94 51.09, 201.71 19.37 M120.58 119.55 C144.62 89.82, 170.1 63.91, 201.82 24.33 M118.23 118.58 C151.54 83.09, 183.08 45.69, 200.23 24.3 M124.57 119.85 C153.65 87.33, 180.14 55.41, 200.1 31 M124.99 118.8 C146.77 95.93, 167.47 72.35, 201.4 30.15 M131.25 119.55 C148.82 96.87, 166.01 75.12, 200.06 38.42 M130.28 119.82 C147.43 100.52, 163.44 80.08, 202.06 37.57 M134.89 119.37 C157.06 95.53, 176.5 72.43, 199.49 44.27 M136.18 118.65 C148.2 101.97, 163.17 86.76, 201.25 42.33 M141.45 117.26 C151.32 104.24, 167.29 90.1, 200.88 50.47 M139.75 119.45 C154.41 103.41, 166.7 87.77, 200.51 49.87 M146.77 117.38 C159.33 105.27, 169.11 90.3, 200.96 56.92 M145.76 118.01 C159.48 102.27, 173.82 85.58, 199.95 54.5 M152.36 119.12 C169.31 100.48, 184.57 78.37, 201.71 62.7 M150.99 118.29 C168.12 100.06, 185.6 80.53, 201.8 60.16 M155.63 118.09 C173.96 101.69, 188.75 78.67, 201.47 67.4 M156.95 118.85 C170.6 101.76, 185.55 84.62, 201.92 67.22 M161.64 119.11 C167.63 111.48, 178.79 101.11, 200.46 72.81 M162.12 119.42 C169.71 108.72, 178.98 99.71, 201.92 73.65 M164.71 117.97 C174.07 112.02, 181.25 100.01, 200.55 79.94 M166.07 120.12 C178.58 106.14, 191.51 91.79, 201.37 79.59 M171.44 118.68 C183.37 107.39, 193.64 94.31, 202.88 86.77 M172.98 118.19 C181.76 108.2, 190.71 97.78, 199.94 86.55 M175.74 118.72 C183.97 114, 189.02 107, 202.85 93.49 M177.17 118.78 C184.72 110.92, 193.45 100.19, 200.9 92.18 M184.43 118.79 C188.16 110.87, 197.54 102.51, 201.2 99.77 M183.19 118.16 C189.07 111.85, 195.47 104.1, 200.65 97.05 M188.99 119.81 C194.23 115.89, 197.48 109.69, 201.54 102.51 M188.08 120.28 C190.55 115.91, 193.58 112.63, 200.85 103.83 M192.4 119.56 C194.88 117.11, 196.63 114.84, 201.79 109.27 M193.79 119.12 C196.69 116.13, 198.96 112.53, 200.86 109.91 M198.23 119.4 C198.9 119.07, 199.84 118.27, 201.08 116.64 M198.46 119.43 C199.07 118.3, 199.93 117.64, 200.89 116.37 M0.18 117.16 C0.18 117.16, 0.18 117.16, 0.18 117.16 M0.18 117.16 C0.18 117.16, 0.18 117.16, 0.18 117.16 M5.56 116.75 C4.06 114.24, 0.41 112.3, 0.4 110.97 M5.43 116.98 C3.5 114.84, 1.6 112.99, -0.01 111.2 M10.73 118.25 C7.25 112.43, 3.62 111.07, -0.81 105.87 M11.9 116.99 C8.83 114.59, 6.99 112.64, 0.63 106.11 M17.7 118.66 C10.31 110.69, 5.13 103.68, 0.98 100.7 M17.71 116.63 C13.15 112.17, 7.57 107.77, -0.97 100.38 M26.18 116.35 C17.07 109.81, 11.23 105.23, 1.21 96.37 M23.87 116.51 C18.77 112.41, 13.66 108.09, -0.75 95.35 M32.35 118.1 C22.9 107.33, 9.54 100.5, -1.3 91.54 M31.04 117.48 C23.53 111.03, 17.88 105.22, -0.89 90.91 M38.01 115.99 C22.98 105.59, 9.15 93.43, 0.8 86.89 M35.54 116.92 C24.11 107.35, 12.91 96.31, -0.57 85.33 M41.28 115.93 C32.06 106.56, 18.85 97.02, -1.87 78.67 M42.82 116.46 C33.41 107.75, 24.15 101.48, -0.35 80.41 M48.28 116.09 C34.85 106.83, 22.56 95.87, -0.39 74.98 M49.69 117.93 C32.16 103.44, 17.15 88.47, -0.71 75.17 M56.42 115.86 C36.12 103.37, 21.9 85.74, -0.57 69.53 M54.04 117.78 C40.61 104.17, 26.62 93.58, -0.5 69.2 M61.64 116.81 C41.79 97.08, 20.67 80.58, 0.07 65.86 M60.67 117.58 C39.63 99.85, 19.1 80.61, 0.55 64.32 M66.16 117.11 C47.09 99.98, 29.58 85.24, 0.03 59.75 M67.43 115.9 C48.03 100.63, 29.76 84.04, 0.04 58.54 M73.5 115.76 C50.43 97.05, 26.25 77.22, 1.08 52.23 M72.83 116.09 C55.64 102.61, 41.16 87.62, 0.69 52.49 M80.18 119.03 C49.18 90.2, 18.38 65.99, -0.43 46.48 M80.22 118.16 C54.06 96.46, 30.13 75.19, 0.09 47.93 M87.03 117.4 C57.28 94.91, 33.68 70.91, -1.93 42.3 M85.54 117.29 C61.23 94.52, 35.23 74.8, 0.94 43.63 M90.39 118.53 C53.99 87.02, 18.11 55.64, 0.47 36.32 M91.13 116.24 C59.41 87.83, 25.76 59.43, 0.53 37.12 M97.9 117.69 C64.14 84.87, 28.27 54.84, -1.07 31.78 M97.9 117.28 C71.31 92.86, 46.21 71.63, 0.28 31.95 M103.46 117.98 C72.66 91.72, 45.47 66.69, 0.91 26.75 M102.9 117.97 C73.94 90.37, 44.14 64.81, 1.21 27.44 M111.01 116.75 C74.46 80.98, 33.83 48.16, 0.1 19.89 M109.52 117.04 C73.59 86.23, 37.92 55.45, -0.56 21.91 M113.79 118.59 C69.93 77.15, 25.66 39.39, -0.47 14.71 M115.25 116.83 C75.99 82.16, 35.79 47.79, -0.27 16.47 M121.54 116.23 C89.5 87.75, 54.92 57.06, -1.52 9.33 M121.49 117.83 C93.62 91.51, 64.77 65.56, -1.09 10.21 M128.3 117.06 C100.29 94.43, 70.59 69.65, -0.48 4.69 M127.68 116.52 C98.95 89.43, 68.53 63.39, -0.55 6.03 M135.39 115.25 C87.82 74.32, 39.88 34.27, -0.51 -1.68 M134.92 117.15 C104.46 91.36, 77.41 66.03, -1.09 -0.18 M139.16 118.26 C104.65 87.09, 66.51 56.35, 2.79 -1.41 M140.15 117.65 C100.08 82.22, 59.97 47.72, 1.74 -1.8 M146.23 115.76 C97.11 75.39, 50.29 34.79, 10.1 -3.56 M145.93 116.08 C106.91 81.34, 66.69 45.77, 8.48 -2.19 M152.78 116.6 C101.73 68.79, 48.38 25.6, 13.06 -1.55 M152.16 117.12 C120.49 89.89, 88.7 61.82, 15 -2.16 M156.23 115.23 C129.51 91.09, 99.21 65.36, 22.67 -4.34 M158.36 115.95 C113.92 78.23, 68.03 38.49, 21.31 -3.62 M166.32 115.94 C110 70.55, 53.74 23.33, 25.18 -1.3 M165.17 116.04 C129.75 86.89, 94.8 56.83, 26.03 -2.97 M172.8 115.27 C135.23 88.42, 97.92 54.55, 33.12 -1.95 M170.57 117 C144.94 95.2, 116.75 69.94, 33.87 -3.37 M176.7 114.99 C133.81 77.53, 88.5 38.91, 41.07 -1.55 M175.67 117.11 C130.36 75.13, 86.26 36.76, 39.93 -2.76 M181.6 119.03 C153.92 95.67, 126.78 68.32, 44.85 -4.16 M182.42 117.75 C151.11 88.7, 120.57 63.42, 45.38 -3.49 M189.33 115.96 C136.85 72.39, 89 29.58, 52.88 -1.65 M187.89 117.3 C147.11 80.93, 104.71 44.38, 51.3 -1.76 M195.04 115.14 C155.15 80.89, 112.21 43.07, 57.78 -3.28 M195.76 116.93 C150.52 77.14, 105.19 38.52, 56.83 -3.77 M202.13 116.56 C166.26 83.29, 130.31 53.58, 63.53 -3.48 M199.82 115.81 C174.07 91.85, 144.76 67.33, 62.75 -1.96 M199.26 109.79 C174.5 87.3, 146.56 62.74, 69.08 -3.42 M201.42 111.63 C166.37 79.43, 129.65 50.15, 69.7 -3.1 M202.19 108.17 C155.67 69.01, 110.78 26.4, 75.69 -2.07 M201.85 106.26 C162.53 72.42, 122.69 38.26, 75.9 -3.81 M202.91 101.96 C160.56 66.02, 121.04 30.91, 82.15 -3.2 M201.98 100.44 C172.32 76.29, 145.9 51.51, 80.96 -2.09 M202.98 96.67 C161.37 61.1, 117.52 24.21, 88.51 -4.98 M202.04 95.54 C165.62 64.51, 128.84 31.99, 88.08 -3.45 M201.21 91.36 C168.08 58.41, 135.02 29.52, 95.15 -3.75 M201.86 89.43 C175.65 66.98, 150.09 45.69, 93.6 -3.12 M200.69 86.94 C163.9 53.18, 129.89 19.49, 98.43 -3.58 M202.38 86.26 C167.13 55.43, 133.79 25.41, 101.17 -2.16 M199.8 79.93 C174.99 58.42, 146.54 34.12, 106.01 -3.35 M201.15 79.68 C173.66 55.91, 144.09 30.7, 105.59 -2.99 M203.22 74.69 C183.17 57.26, 162.19 43.63, 112.09 -3.72 M201.84 74.62 C171.73 49.65, 141.9 22.78, 112.51 -2.91 M200.87 69.15 C185.44 54.36, 166.92 42.09, 117.14 -4.79 M201.7 68.53 C177.47 49.83, 153.77 28.95, 118.67 -2.23 M202.98 63.12 C172.99 41.38, 144.47 16.46, 122.91 -1.79 M201.15 65.1 C181.37 47.33, 162.96 28.69, 123.46 -2.47 M199.06 59.98 C174.45 33.71, 145.52 8.94, 132.2 -2.71 M201.14 57.56 C180.73 42.68, 162.89 26.34, 131.08 -2.49 M200.9 54.95 C186.35 40.88, 173.23 28.92, 136.06 -3.32 M200.79 54.39 C179.48 34.65, 160.03 17.65, 136.37 -2 M201.55 48.87 C179.8 30.86, 157.68 12.09, 141.11 -2.21 M200.8 48.6 C180.29 28.45, 158.43 10.6, 142.53 -3.11 M202.38 44.39 C184.77 27.37, 166.98 13.6, 149.2 -2.36 M201 43.45 C183.91 27.91, 165.83 13.73, 149.35 -2.42 M200 35.79 C181.75 24.23, 165.77 9.19, 156.52 -2.91 M201.8 37.73 C185.74 24.43, 171.24 10.85, 154.76 -3.25 M201.33 33.15 C189.73 20.75, 174.46 8.42, 161.25 -0.78 M201.75 31.49 C188.8 20.68, 175.77 8.96, 161.01 -1.75 M202.57 28.19 C190.72 19.16, 181.7 8.75, 166.86 -1.62 M200.99 27.29 C190.01 18.3, 181.96 10.66, 166.49 -2.43 M200.18 22.45 C192.53 15.36, 187.79 8.33, 173.36 -2.94 M200.78 21.96 C194.58 16.49, 189.97 10.89, 173.45 -1.71 M201.93 17.05 C193.46 9.64, 186.21 6.39, 177.04 -3.62 M200.98 15.85 C196.18 11.27, 190.86 7.11, 178.22 -3.96 M201.84 8.98 C196.67 5.87, 191.07 3.41, 185.46 -3.72 M201.57 10.57 C197.61 8.46, 194.22 4.05, 184.78 -3.81 M199.85 5.01 C199.19 4.22, 197.43 1.81, 192.61 -2.25 M200.38 5.88 C197.74 2.26, 194.07 -1.12, 191.24 -2.35 M201.27 0.49 C199.88 -1.12, 198.06 -1.51, 197.31 -3.01 M201.17 0.57 C199.53 -0.9, 198.34 -2.17, 197.53 -2.71" stroke="#40c057" stroke-width="0.5" fill="none"></path><path d="M-1.18 1.01 C49 2.18, 95.54 1.93, 202.25 1.08 M0.1 -0.79 C46.4 1.16, 92.7 0.89, 201.38 0.31 M200.38 -1.06 C202.75 26.67, 201.48 52.05, 202.76 117.62 M201.93 -0.43 C201.48 33.65, 201.05 68.93, 200.83 117.52 M201.58 116.38 C147.45 117.46, 96.59 116.67, 0.23 115.54 M200.94 117.23 C131.9 118.53, 61.32 117.17, 0.52 117.88 M-0.45 118.39 C-0.33 79, -1.16 44.67, -0.55 0.6 M-0.65 116.71 C0.45 80.48, 0.76 45.9, 0.89 0.02" stroke="#000000" stroke-width="1" fill="none"></path></g><g transform="translate(346.8412698412694 249.15079365079328) rotate(0 95.5 23)"><text x="95.5" y="33" font-family="Virgil, Segoe UI Emoji" font-size="36px" fill="#000000" text-anchor="middle" style="white-space: pre;" direction="ltr">Tokenizer</text></g><g stroke-linecap="round" transform="translate(10 216.09523809523807) rotate(0 124 56)"><path d="M2.31 44.41 C2.31 44.41, 2.31 44.41, 2.31 44.41 M2.31 44.41 C2.31 44.41, 2.31 44.41, 2.31 44.41 M3.86 50.37 C6.76 44.72, 12.26 36.89, 22.88 27.9 M2.38 51.28 C6.09 46.26, 11.26 41.65, 22.89 25.44 M2.79 54.46 C12.57 47.65, 20.65 33.86, 32.39 22.2 M3.26 57.13 C9.84 48.45, 18.14 38.37, 31.85 23.29 M3.51 64.68 C14.18 48.77, 21.88 38.94, 39.66 18.38 M1.56 63.48 C12.96 50.84, 24.33 37.43, 41.14 18.67 M3.01 66.76 C15.7 51.39, 32.21 33.12, 49.38 14.49 M2.84 68.04 C14.68 54.03, 26.37 41.24, 48.83 15.56 M5.23 71.23 C18.91 54.28, 35.11 41.04, 56.75 9.06 M6.52 71.17 C24.6 48.13, 42.74 26.38, 57.91 10.8 M10.01 72.69 C23.5 56.51, 38.07 39.53, 64.63 9.5 M8.36 73.59 C29.23 50.04, 48.42 25.88, 64.94 8.84 M11.37 74.47 C24.16 61.26, 34.28 48.39, 73.62 7.64 M12.22 75.6 C30.27 53.89, 50.96 30.29, 71.67 5.96 M13.91 81.21 C29.45 63.09, 43.33 44.56, 79.29 4.66 M13.95 80.16 C38.6 51.07, 62.87 22.92, 77.71 5.6 M17.08 81.81 C40.52 59.21, 58.79 31.36, 86.41 3.75 M17.18 82.27 C35.85 63.07, 52.21 42.15, 84.31 5.5 M20.92 84.48 C45.4 52.6, 76.3 23.57, 89.29 2.13 M18.55 86.6 C37.32 62.42, 57.08 41.49, 90.18 4.31 M22.32 87.67 C42.1 65.85, 65.55 40.24, 95.48 3.31 M21.48 88.9 C37.73 69.83, 53.38 53.19, 96.69 2.25 M26.06 89.65 C46.59 65.19, 66.1 43.53, 104.09 2.82 M26.7 90.02 C52.02 58.55, 80.18 26.08, 103.68 1.45 M29.16 91.94 C54.62 62.99, 78.73 35.81, 106.75 2.98 M30.08 91.95 C59.71 54.95, 90.68 19.18, 107.96 1.09 M34.54 93.89 C54.3 67.44, 78.2 42.78, 112 0.9 M33.84 92.78 C62.89 60.58, 90.99 26.31, 113.15 2.01 M37.3 93.82 C65.28 60.5, 96.5 29.9, 119.57 1.68 M38.29 94.43 C53.88 73.56, 71.97 54.36, 119.48 2.37 M41.11 97.12 C56.92 78.1, 76.6 58.51, 122.78 0.76 M41.72 97.23 C72.17 61.99, 102.41 27.87, 123.72 2.46 M46.51 99.69 C73.84 68.63, 100.91 39.53, 128.81 2.82 M46.24 97.81 C65.01 74.03, 86.15 50.22, 128.87 2.17 M51.29 100 C74.84 72.68, 101.87 43.22, 136.41 0.83 M49.61 99.72 C69.31 76.87, 90.91 53.73, 135.47 2.53 M54.09 102.75 C80.65 70.31, 109.69 36.43, 140.18 3.05 M54.36 101.58 C73.32 79.04, 94.9 54.99, 141.33 1.12 M56.79 101.19 C92.48 64.02, 128.37 21.5, 144.33 0.02 M57.7 101.87 C74.93 81.29, 92.2 61.89, 144.75 1.69 M62.15 103.13 C94.47 64.53, 126.46 29.07, 150.9 -0.45 M62.64 103.46 C88.65 73.62, 115.89 42.31, 150.31 1.57 M68.82 103.87 C82.97 82.36, 102.17 62.88, 156.86 2.5 M66.46 103.03 C91.12 77.06, 115.13 49.17, 155.46 1.95 M71.67 106.26 C95.17 80.92, 113.77 59.2, 160.36 3.48 M72.66 105.67 C102.49 69.57, 132.67 33.29, 160.22 3.12 M76.78 105.19 C95.06 83.68, 114.1 62.56, 164.46 4.18 M75.29 105.81 C96.86 82.23, 117.61 59.52, 164.46 4.26 M82.44 106.81 C113.79 70.41, 141.58 37.17, 169.43 4.27 M81.59 106.97 C101.96 82.97, 122.82 57.2, 169.67 4.89 M84.19 107.82 C119.02 71.21, 149.63 33.46, 173.09 5.47 M84.45 107.55 C107.98 80.95, 128.59 55.82, 172.81 5.38 M89.76 107.94 C122.89 70.37, 153 34.41, 179.13 7.05 M88.87 107.82 C109.59 84.58, 130.69 59.63, 178.17 6.96 M95.45 109.93 C111.95 85.56, 132.85 66.95, 181.51 5.79 M93.84 110.38 C116.9 83.29, 138.87 56.6, 183.17 8.26 M97.77 111.82 C128.28 76.99, 156.69 43.44, 187.37 8.51 M97.49 110.96 C130.42 74.97, 162.25 37.96, 186.87 8.21 M105.09 111.18 C136.65 74.75, 166.73 39.24, 190.04 7.3 M104.23 111.14 C134.96 74.52, 166.43 39.02, 192.46 9.89 M106.72 112.35 C140.9 77.14, 169.06 40.39, 197.5 11.55 M109.32 112.11 C142.16 70.71, 176.34 32.38, 195.13 10.98 M114.47 112.46 C148.46 72.18, 180.43 35.23, 201.83 13.42 M113.97 111.18 C135.25 85.9, 157.41 61.6, 199.19 11.76 M118.42 110.19 C146.17 76.11, 177.75 41.4, 203.08 13.1 M118.56 111.01 C146.85 80, 174.27 48.13, 203.26 14.88 M126.49 109.47 C152.14 81.68, 175.93 48.91, 205.49 17.81 M123.72 111.86 C155.66 75.26, 187.55 38.21, 208.11 16.85 M130.18 110.52 C150.21 85.2, 174.09 57.19, 209.83 17.81 M129.62 111.13 C153.91 84.12, 178.08 55.9, 210.46 18.53 M136.21 113.61 C156.39 89.13, 176.95 66.3, 213.13 18.63 M135.03 111.55 C167.48 74.56, 198.68 36.91, 214.21 19.89 M139.47 110.25 C163.95 82.68, 188.53 56.32, 219.61 22.1 M139.85 110.96 C157.75 89.57, 177.41 67.86, 218.85 21.51 M144.8 109.78 C166.81 88.74, 184.37 69.42, 223.72 23.3 M146.32 111.33 C168.58 84.8, 193.25 57.97, 222.06 24.09 M152.54 109.29 C168.44 89.01, 187.02 72.84, 225.79 22.87 M152.13 109.22 C170.04 90.47, 186.82 70.11, 226.78 25.18 M158.31 110.41 C172.94 91.27, 190 75.81, 228.38 26.98 M157.64 109.07 C180.1 85.03, 200.91 61.59, 229.16 25.7 M164.56 107.06 C181.36 89.25, 196.97 67.62, 233.95 29.31 M164.98 107.4 C190.16 79.81, 214.96 51.81, 231.6 30.42 M170.97 107.66 C190.08 85.57, 206.64 63.56, 233.13 34.6 M169.95 107.62 C190.65 85.53, 208.86 62.23, 234.64 33.97 M176.13 105.21 C191.53 87.45, 205.12 72.45, 237.13 34.58 M177.14 106.47 C193.61 85.75, 210.45 67.63, 236.81 35.32 M183.83 102.95 C197.44 88.65, 207.74 73.72, 239.37 38.55 M183.8 104.34 C201.77 84.52, 218.88 66.34, 239.79 38.84 M190.07 103.42 C201.75 88.52, 216.39 73.4, 242.52 41.83 M190.29 102.68 C200.52 91.22, 211.65 77.75, 242.88 43.24 M192.12 103.7 C205.04 90.3, 216.74 80.83, 246.75 45.76 M192.67 103.85 C212.38 82.24, 231.67 59.39, 244.87 46.07 M201.33 101.1 C219.61 78.81, 239.7 58.9, 246.15 49.23 M201.01 101.25 C217.04 83.3, 233.35 65.19, 247.83 47.77 M208.44 98.52 C217.62 88.25, 228.77 76.65, 246.41 55.66 M210.16 97.2 C217.94 87.37, 228.15 77.31, 248.39 55.14 M220.32 93.64 C229 83.6, 239.12 68.59, 248.33 59.72 M218.07 94.63 C225.12 85.56, 233.53 79, 248.7 60.55 M20.27 86.43 C20.27 86.43, 20.27 86.43, 20.27 86.43 M20.27 86.43 C20.27 86.43, 20.27 86.43, 20.27 86.43 M30.75 90.23 C21.39 84.56, 12.34 73.4, 2.41 65.04 M32.31 92.34 C25.21 85.66, 15.72 78.43, 2.35 65.28 M44.88 96.45 C31.63 86.05, 20.53 74.98, 1.6 62.6 M44.44 97.5 C33.07 87.41, 23.56 78.02, 3.04 60.43 M56 98.5 C39.79 86.65, 27.34 74.27, 0.65 53.48 M54.98 99.57 C36.76 84.54, 18.88 69.72, 3.29 55.41 M64.35 100.79 C37.82 83.71, 15.57 63, 3 50.58 M62.33 102.83 C47.54 88.22, 30.39 74.9, 2.52 49.96 M71.39 103.65 C46.54 82.2, 19.96 59.77, 2.32 42.47 M70.02 104.33 C45.79 80.37, 19.95 59.82, 1.77 44.82 M77.53 103.69 C62.36 89.46, 44.66 74.33, 5.76 41.59 M77.98 104.74 C54.04 82.85, 28.82 61.06, 4.5 40.45 M87.4 104.84 C67.27 90.39, 48.77 76.44, 9.66 39.42 M85.28 105.86 C67.78 90.94, 50.69 76.38, 7.79 38.63 M92.87 107.28 C66 84.21, 34.27 57.78, 9.35 37.37 M94.62 108.07 C73.27 90.21, 52.99 73.77, 11.59 35.95 M96.98 105.86 C72.34 84.7, 43.97 59.44, 15.61 33.1 M99.84 107.25 C70.13 80.77, 42.59 55.84, 12.77 32.54 M103.57 108.28 C79.66 84.66, 49.51 61.42, 15.46 31.55 M104.93 107.47 C77.8 84.22, 51.32 61.36, 17.33 29.66 M109.86 107.6 C81.18 82.73, 55.39 58.99, 20.87 27.98 M110.28 107.97 C79.42 79.49, 48.21 51.34, 20.67 27.21 M116.11 108.45 C90.27 84.76, 66.65 60.11, 24.29 24.89 M117.65 107.9 C94.37 89.28, 72.61 70.62, 22.57 25.15 M122.51 106.77 C96.28 83.25, 66.59 57.52, 26.64 22.41 M124.7 106.54 C101.12 88.23, 77.86 67.92, 24.69 22.43 M130.47 108.79 C102.25 85.43, 75.17 61.36, 30.58 21.27 M129.73 106.8 C99.15 81, 66.85 53.52, 29.38 20.38 M135.87 105.99 C98.92 72.75, 61.38 42.92, 34.93 19.85 M136.43 106.65 C95.2 71.12, 55.7 35.71, 33.57 18.34 M146.61 110.76 C113.41 82.28, 81.12 51.19, 38.27 15.11 M144.9 109.32 C123.6 92.54, 101.39 72.14, 37.86 17.06 M150.94 108.28 C116.6 80.72, 80.44 52.27, 40.4 14.31 M149.56 109.64 C112.5 75.56, 72.96 40.17, 41.49 14.92 M154.43 108.49 C127.6 83.31, 98.93 59.4, 45.33 12 M155.56 108.53 C116.98 74.72, 79.37 42.1, 44.83 13.38 M158.36 108.67 C128.02 78.81, 100.69 54.86, 48.29 10.98 M160.64 108.09 C132.11 83.03, 103.13 59.58, 49.9 10.53 M163.96 107.04 C142.34 87.37, 116.8 66.39, 54.72 11.36 M164.95 107.69 C126.76 73.16, 87.61 40.4, 54.86 10.56 M172.4 105.15 C139.7 80.07, 108.54 53.33, 60.04 8.17 M170.52 104.82 C127.19 70.1, 83.98 32.93, 59.27 7.93 M176.37 104.77 C145.85 79.85, 112.73 50.36, 62.4 6.42 M176.28 104.59 C131.11 65.75, 86.49 28.91, 64.31 6.9 M180.75 102.98 C148.88 74.32, 112.51 46.56, 68.63 8.7 M180.29 105.16 C156.69 83.19, 132.8 62.49, 68.32 7.63 M187.4 103.16 C147.46 67.74, 104.17 30.99, 73.57 4.94 M186.01 103.39 C158.23 80.33, 129.56 54.66, 73.5 6.46 M190.63 103.93 C163.52 80.51, 138.62 58.82, 79.51 5.27 M191.27 102.19 C168.22 81.64, 144.1 62.38, 78.97 5.27 M196.49 100.89 C166.96 73.2, 139.35 48.86, 84.21 2.51 M195.08 100.75 C167.3 75.5, 140.09 52.45, 84.24 4.42 M200.74 98.24 C164.62 69.86, 131.34 38.22, 88.64 1.7 M199.05 98.71 C157.7 63.84, 119.18 29.88, 88.46 2.86 M201.6 95.8 C166.9 66.86, 131.43 32.27, 92.01 1.21 M203.7 97.66 C170.02 67.62, 137.25 40.07, 92.89 1.66 M207.54 94.66 C180.46 71.18, 153.53 49.29, 98.73 1.65 M207.7 95.29 C173.6 67.82, 142.04 38, 99.47 1.5 M212.21 94.2 C169.07 57.57, 128.41 23.02, 104.68 -1.71 M212.34 92.9 C179.93 68.26, 148.14 40.29, 102.51 -0.49 M217.5 93.08 C175.45 57.53, 140.12 25.64, 108.74 -2.06 M216.07 92.9 C175.81 58.34, 135.21 22.74, 109.73 -1.29 M220.52 90.25 C190.79 68.37, 164.02 43.58, 114.72 0.11 M218.96 90.31 C192.28 63.99, 163.92 39.56, 115.71 -0.37 M224.59 89.92 C184.25 55.16, 143.02 20.62, 121.15 -0.11 M223.23 88.26 C188.63 58.59, 151.85 25.81, 121.19 -0.26 M225.49 85.96 C203.68 66.56, 181.71 46.41, 129.05 -2.36 M227 86.84 C198.6 59.64, 168.81 35.26, 128.3 -0.43 M227.99 84.14 C199.61 54.93, 170.61 29.91, 131.65 -0.64 M230.26 83.9 C195.76 54.31, 162.03 24.25, 133.81 -0.35 M233.58 79.84 C202.04 54.12, 170.73 26.77, 139.39 -1.04 M234.17 81.21 C198.91 53.03, 166.2 23.82, 139.62 -0.78 M234.94 79.11 C208.29 50.82, 174.66 24.64, 145.7 -1.34 M235 78.01 C214.59 57.64, 191.38 38.54, 146.04 -0.81 M240.24 76.21 C211.83 49.21, 182.61 26.2, 152.21 -0.03 M237.93 75.15 C217.56 56.13, 195.18 36.68, 152.5 -0.45 M241.89 72.74 C222.6 55.21, 201.32 38.34, 159.53 -0.04 M241.28 72.57 C212.4 45.63, 184.16 21.16, 159.85 0.21 M245.21 68.56 C219.49 45.85, 196.54 26.58, 169.23 4.37 M244.75 68.85 C218.06 46.26, 193.11 24.38, 167.79 2.58 M248.05 66.8 C222.37 44.02, 199.98 24.61, 174.35 3.23 M246.43 66.66 C226.97 49.26, 206.7 30.81, 174.94 3.65 M246.42 62.25 C230.98 45.76, 210.45 30.77, 184.15 5.8 M248.06 61.63 C224.24 41.92, 202.54 22.34, 183.05 5.51 M248.35 56.25 C234.76 44.25, 220.33 31.13, 191.11 5.67 M246.26 55.81 C232.05 42.75, 215.98 28.54, 191.51 6.87 M249.08 50.45 C230.42 31.67, 210.14 18.17, 195.66 7.71 M247.31 49.84 C227.77 33.33, 207.54 15.61, 197.6 6.59 M246.28 44.47 C238.09 34.79, 229.4 29.73, 211.53 13.57 M245.86 45.2 C234.94 32.95, 222.96 23.83, 209.3 13.62" stroke="#40c057" stroke-width="0.5" fill="none"></path><path d="M101.91 0.73 C116.11 -1.43, 134.75 -0.76, 150.19 0.7 C165.62 2.16, 181.34 5.3, 194.52 9.48 C207.69 13.66, 220.79 19.66, 229.24 25.77 C237.68 31.89, 242.56 38.97, 245.19 46.15 C247.82 53.32, 248.2 61.9, 245 68.84 C241.81 75.77, 235.06 82.15, 226 87.75 C216.95 93.36, 204.22 98.74, 190.67 102.49 C177.13 106.24, 160.37 109.05, 144.71 110.26 C129.05 111.48, 111.89 111.34, 96.71 109.79 C81.52 108.24, 66.38 104.87, 53.61 100.95 C40.84 97.03, 28.68 92.05, 20.09 86.27 C11.49 80.49, 5.01 73.22, 2.04 66.25 C-0.93 59.28, -1.16 51.41, 2.27 44.46 C5.7 37.52, 13.25 30.43, 22.63 24.6 C32 18.76, 42.93 13.68, 58.51 9.45 C74.08 5.22, 104.1 0.42, 116.08 -0.79 C128.06 -1.99, 130.18 1.25, 130.39 2.21 M83.32 3.45 C96.81 0.39, 116.25 -1.09, 132.03 -0.47 C147.81 0.16, 163.6 3.84, 178 7.21 C192.4 10.58, 207.9 14.74, 218.42 19.78 C228.95 24.81, 236.08 30.84, 241.13 37.41 C246.17 43.99, 249.83 51.89, 248.68 59.23 C247.53 66.57, 241.53 74.88, 234.23 81.47 C226.92 88.06, 216.79 94.28, 204.84 98.75 C192.89 103.22, 177.54 106.23, 162.52 108.29 C147.51 110.35, 130.21 111.33, 114.74 111.11 C99.28 110.89, 83.59 110.11, 69.73 106.96 C55.87 103.81, 41.96 97.96, 31.59 92.2 C21.23 86.44, 12.77 79.3, 7.51 72.39 C2.26 65.47, -0.67 57.56, 0.07 50.71 C0.82 43.87, 4.97 37.52, 11.99 31.33 C19.01 25.14, 29.95 18.09, 42.18 13.59 C54.4 9.08, 78.25 5.9, 85.33 4.29 C92.4 2.68, 83.98 3.27, 84.63 3.93" stroke="#000000" stroke-width="1" fill="none"></path></g><g transform="translate(15 249.09523809523807) rotate(0 119 23)"><text x="119" y="33" font-family="Virgil, Segoe UI Emoji" font-size="36px" fill="#000000" text-anchor="middle" style="white-space: pre;" direction="ltr">Source Code</text></g><g stroke-linecap="round" transform="translate(638.666666666667 213.65079365079328) rotate(0 94 58.5)"><path d="M0 0 C0 0, 0 0, 0 0 M0 0 C0 0, 0 0, 0 0 M0.06 7.01 C1.5 5.13, 2.64 2.54, 4.99 -0.32 M-0.43 6.49 C1.28 4.42, 2.53 2.74, 4.72 0.38 M0.59 11.65 C2.6 9.12, 6.78 4.32, 9.91 -0.94 M-0.57 12.43 C4.53 7.07, 8.49 3.33, 10.19 -0.34 M0.8 19.97 C3.11 13.42, 11.3 7.66, 13.94 2.01 M0.34 17.93 C4.25 13.33, 7.21 10.71, 15.89 0.34 M-0.06 22.52 C4 16.41, 9.76 10.58, 19.31 -0.43 M0.48 23.28 C7.63 13.69, 17.25 5.16, 21.13 -0.64 M-0.09 30.84 C8.09 21.39, 19.04 10.84, 27.15 0.07 M-0.95 29.66 C7.78 21.06, 15.83 12.42, 26.16 0.52 M-1.25 36.49 C12.32 22.69, 20.7 12.63, 32.68 -1.69 M-1 36.04 C8.47 27.1, 16.23 16.93, 31.07 -0.72 M1.78 44.26 C11.95 30.64, 23.6 18.21, 36.79 0.31 M0.41 42.01 C8.33 33.2, 17.44 23.4, 35.96 -0.72 M0.63 49.41 C15.76 29.27, 28.73 11.77, 44.26 0.28 M-0.02 48.6 C11.6 36.19, 22.74 22.08, 41.63 0.78 M-1.17 55.42 C16.82 32.29, 38.07 12.66, 47.54 1.68 M1.15 55.43 C19.66 32.86, 37.62 12.95, 47.9 1.21 M-0.43 59 C12.4 50.63, 23.69 35.72, 52.96 -1.83 M0.36 61.31 C15.05 44.46, 29.24 28.02, 52.29 -0.41 M-0.7 67.8 C14.42 52.22, 27.1 37.84, 56.54 -1.35 M-0.9 67.39 C23.54 41.31, 44.99 15.87, 58.34 1.13 M-1.25 73.71 C25 46.44, 45.36 19.22, 62.19 0.21 M-0.5 73.99 C25.54 45.26, 50.04 17.44, 64.28 -0.35 M-2.06 78.1 C13.3 63.42, 28.23 47, 69.48 1.18 M-0.2 79.33 C16.69 60.9, 32.31 43.16, 69.38 0.13 M1.82 85.52 C23.91 58.1, 49.97 30.11, 75.87 -1.9 M0.51 84.74 C24.97 57.09, 51.37 26.96, 74.58 -0.83 M-0.01 92.78 C22.12 66.28, 46.39 40.03, 80.5 -1.27 M0.58 91.22 C28.54 58.58, 56.54 25.61, 78.87 -0.47 M0.29 98.63 C27.51 64.04, 57.52 30.97, 86.41 -0.95 M-0.42 98.64 C26.21 66.76, 51.41 38.79, 85.93 0.61 M-0.13 105.05 C18.15 84.27, 36.99 61.39, 88.29 0.26 M-0.83 102.52 C23.57 77.18, 46.48 49.45, 90.43 0.93 M0.15 110.5 C21.83 87.05, 40.87 60.15, 94.73 -2.23 M0.64 110.76 C23.98 83.45, 47.56 55.73, 94.79 0.67 M0.49 115.63 C26.6 85.87, 53.96 54.88, 99.99 -1.77 M1.04 114.92 C23.69 89.79, 44.98 65.5, 101.4 0.15 M4.52 117.32 C41.04 74.59, 78.39 31.28, 106.23 0.47 M2.01 119.67 C42.47 72.06, 83.49 28.01, 105.4 0.32 M8.49 120.42 C44.28 75.05, 82.18 34.05, 111.27 0.6 M6.65 120.09 C45.83 76.11, 82.26 32.25, 110.9 -0.72 M12.32 119.02 C49.91 79.54, 82.24 36.38, 118.18 1.63 M13.04 118.41 C47.07 77.51, 82.78 36.22, 117.1 -0.49 M19.84 119.66 C52.67 78.48, 91.62 35.2, 122.31 -1.17 M19.04 118.76 C41.97 90.05, 67.24 61.58, 121.78 0.64 M25.83 118.11 C55.29 81.27, 87.55 43.88, 126.31 0.94 M23.72 119.37 C65.22 72.05, 104.55 24.49, 126.91 0.2 M27.68 120.34 C57.58 88.22, 83.4 58.42, 133.76 -0.11 M29.65 119.16 C50.86 95.16, 72.42 69.35, 132.64 0.83 M35.72 119.56 C75.09 71.94, 115.4 24.92, 136.87 -0.14 M33.64 118.14 C56.7 94.32, 78.36 68.67, 137.66 0.84 M40.92 117.17 C71.21 80.31, 102.29 43.87, 142.78 -1.76 M38.97 120 C67.71 86.65, 97.21 54.66, 143.85 0.66 M45.16 119.82 C75.87 85.33, 104.02 50.3, 149.27 -1.38 M44.17 118.54 C74.99 82.84, 106.64 46.43, 148.59 -0.61 M48.98 120.36 C80.29 83.41, 107.54 51.05, 155.04 -0.17 M49.24 118.24 C78.87 88.58, 104.01 56.34, 153.49 -0.77 M53.15 119.62 C85.53 85.57, 112.34 56.84, 159.44 0.91 M55.75 119.42 C77.39 94.25, 99.38 70.93, 158.67 0.06 M61.76 119.62 C97.01 79.05, 134.73 35.57, 164.71 -1.88 M60.42 119.07 C102.81 72.57, 143.35 24.08, 163.44 -0.13 M65.17 120.9 C105.73 75.44, 141.45 31.2, 167.77 1.95 M66.56 119.59 C94.34 85.56, 122.3 52.4, 168.63 -0.69 M69.68 120.16 C94.55 93.22, 120.39 64.24, 174.45 -1.91 M72.25 119.97 C109.19 74.48, 147.41 30.37, 175.3 0.15 M77.23 119.38 C101.61 91.59, 124.34 64, 179.2 0.45 M76.54 120.39 C108.91 82, 140.85 47.04, 180.97 -0.17 M83.67 118.7 C106.67 91.14, 129.2 62.49, 187.42 0.18 M82.21 118.64 C111.02 85.7, 137.74 54.59, 186.41 -0.09 M86.49 117.52 C110.95 92.22, 134.51 63.6, 189.82 0.14 M86.05 118.66 C116.13 85.72, 145.14 51.84, 188.58 2.11 M91.12 119.43 C118.3 90.52, 143.26 56.91, 188.72 7.91 M93.54 119.02 C114.47 94.26, 136.21 71.36, 189.34 6.78 M98.62 121.28 C130.28 79.33, 164.99 40.44, 189.66 11.77 M97.18 119.47 C121.19 91.68, 144.5 65.39, 189.59 14.4 M103.96 118.08 C134.25 82.92, 167.32 46.34, 189.15 17.72 M103.21 119.34 C134.07 83.62, 165.26 48.26, 189.54 20.07 M107.77 120.12 C140.73 85.07, 169.32 49.59, 190.34 26 M107.81 120.16 C130.94 91.94, 154.16 66.21, 188.9 25.59 M114.59 117.86 C144.63 86.56, 172.01 50.61, 188.65 32.8 M113.94 118.05 C133.45 96.31, 153.27 72.76, 188.92 32.6 M120.62 119 C146.36 87.11, 171.07 59.3, 190.76 39.53 M119.53 118.31 C136.73 100.03, 154.22 80.58, 190 37.39 M123.94 117.47 C144.06 95.52, 166.71 72.44, 189.69 46.09 M124.24 119.85 C145.27 95.53, 167.2 70.69, 189.15 43.67 M128.32 118.39 C144.56 101.11, 164.35 81.42, 190.34 48.57 M129.7 119.75 C143.04 101.89, 158.39 85.88, 190.12 49.76 M133.42 119.12 C157.6 97.3, 175.52 70.45, 189.29 56.32 M134.31 119.7 C155.81 96.28, 174.95 71.7, 189.65 57.14 M138.55 118.24 C156.65 98.86, 173.99 81.7, 188.34 61.6 M139.43 118.57 C150.74 106.88, 161.37 94.38, 189.58 61.66 M144.94 120.54 C159.1 104.03, 169.11 90.04, 189.6 68.94 M146.15 118.82 C157.9 107.63, 167.78 95.35, 190.31 68.32 M151.46 118.02 C160.02 109.67, 165.55 100.1, 190.48 76.31 M151.56 119.09 C162.49 104.48, 175.68 90.64, 190.42 74.03 M156.91 118.92 C163.71 111.99, 170.06 102.76, 189.29 80.91 M155.48 118.65 C163.04 110.76, 170.36 101.46, 190.71 80.81 M159.73 120.69 C172.02 109.87, 180.72 97.94, 189.02 88.17 M160.71 119.9 C171.4 106.61, 180.54 95.98, 190.47 86.35 M167.6 119.74 C170.54 112.49, 178.61 106.43, 190.88 93.46 M167.13 119.65 C174.14 109.28, 183.35 100.03, 189.57 93.19 M172.5 120.7 C176.92 115.17, 179.92 109.01, 189.37 99.39 M171.23 119.83 C176.83 112.09, 182.74 107.45, 189.96 99.56 M177.69 117.78 C181.37 115.68, 182.39 110.3, 191.23 105.04 M177.61 120.24 C180.98 116.64, 183.19 111.79, 189.3 105.99 M183.12 119.59 C183.48 117.57, 185.13 115.35, 189.66 111.27 M182.99 119.56 C183.76 117.7, 185.95 116.06, 190.44 110.82 M0.18 117.16 C0.18 117.16, 0.18 117.16, 0.18 117.16 M0.18 117.16 C0.18 117.16, 0.18 117.16, 0.18 117.16 M6.39 117.2 C3.94 115.49, 1.65 113.67, 0.44 111.29 M5.52 117 C3.9 114.88, 1.75 113.19, 0.14 111.89 M12.36 115.6 C6.8 114.47, 3.85 108.95, -1.28 106.24 M12.73 117.32 C7.32 113.87, 3.49 109.46, 0.74 106.33 M19.72 116.22 C12.6 113.23, 6.07 105.86, 0.53 101.84 M19.49 116.7 C10.84 110.79, 4.86 105.78, -0.8 99.92 M25.76 115.04 C18.47 109.38, 12.78 105.42, 0.25 97.17 M24.28 117.31 C16.21 108.74, 8.73 101.83, -0.79 95.1 M29.6 116.14 C20.84 107.55, 10.78 98.53, 0.12 91.94 M31.46 116.34 C17.53 105.79, 6.47 94.87, -0.41 90.61 M36.57 116.56 C27.7 107.09, 16.84 101.96, 0.01 86.78 M36.33 115.93 C23.54 105.87, 9.43 93.22, -0.34 85.97 M41.32 118.2 C28.86 103.36, 11.91 91.59, 0.09 80.94 M42.83 117 C27.97 103.67, 11.39 89.82, -1.18 78.73 M47.49 118.19 C34.34 105.88, 21.28 92.22, -0.2 76.48 M49.74 117.12 C35.26 105.78, 19.8 92.14, 0.1 74.21 M55.03 117.88 C39.07 102.86, 25.12 90.16, 0.86 68.08 M54.45 117.02 C40.85 104.42, 27.38 93.87, -0.38 68.74 M59.42 115.82 C39.77 99.79, 20.63 81.58, -1.72 63.23 M60.73 117.03 C38.21 96.65, 13.24 75.69, 0.13 63.41 M67.41 118.14 C47.64 99.82, 26.28 79.63, 0.09 60.7 M66.93 117 C53.55 106.31, 39.94 93.26, 1.23 60 M72.04 118.81 C52.85 99.39, 37.27 83.71, -1.38 51.47 M73.54 116.02 C47.93 96.09, 24.04 74.85, -0.89 53.41 M80.37 118.08 C57.42 97.69, 35.83 78.15, 1.7 47.71 M79.38 116.4 C58.64 100.17, 40.18 82.65, 0.36 48.16 M84.74 115.39 C51.99 90.68, 19.65 59.87, 0.48 41.18 M85.4 116.05 C62.9 97.2, 40.14 77.6, 0.15 42.28 M90.06 118.36 C59.28 88.92, 27.21 60.82, 0.35 39.49 M92.4 117 C71.29 99.41, 52.3 81.61, -0.24 37.07 M97.46 117.25 C65.95 88.53, 33.64 57.12, 0.02 31.82 M97.29 117.32 C67 90.65, 36.62 62.32, 0.09 32.35 M103.41 117.11 C79.31 95.84, 55.68 74.72, -1.54 25.23 M104.59 116.8 C63.91 84.19, 27.25 50.74, 1.16 26.2 M111.36 116.26 C69.43 79.02, 24.23 44.98, -2.09 22.34 M110.69 116.94 C80.56 91.88, 52.79 67.55, -0.44 22.22 M115.07 115.26 C80.02 87.41, 46.98 54.64, -1.07 17.65 M115.57 117.37 C71.7 77.92, 26.85 38.89, 0.03 17.26 M121.84 117.84 C82.07 81.84, 46.52 50.4, -0.68 11.21 M122.58 116.32 C83.55 86.19, 47.66 54.88, -1.11 10.7 M128.22 117.3 C97.27 89.04, 68.26 63.54, 1.19 4.96 M128.68 116.54 C81.2 74.72, 33.35 33.81, -0.4 6.19 M135.08 116.83 C92.38 76.7, 46.55 39.88, -2.09 0.39 M133.94 117.06 C100.87 87.56, 67.28 59.56, 0.2 0.88 M139.27 115.84 C99.36 79.84, 61.88 45.36, 3.41 -3.16 M139.79 117.05 C105.06 84.02, 66.73 51.6, 3.12 -2.82 M144.98 114.96 C93.69 70.99, 42.75 27.62, 8.89 -0.79 M146.75 116.37 C97.92 75.1, 48.13 32.37, 8.4 -2.02 M150.88 117.01 C105.98 76.8, 59.7 32.96, 13.55 -0.94 M152.24 117.93 C122.11 87.89, 89.75 61.47, 14.87 -2.76 M157.96 117.43 C102.33 69.34, 49.29 21.61, 20.9 -4.61 M158.74 117.71 C118.94 83.16, 78.05 48.39, 21.05 -1.69 M164.46 116.45 C108.92 69, 54.63 23.78, 26.72 -2.2 M165.39 116.41 C130.75 88.46, 97.8 59.51, 25.52 -3.45 M169.68 117.61 C130.1 80.84, 87.78 45.84, 34.08 -1.24 M170.15 117.44 C122.14 74.99, 72.23 34.06, 32.5 -2.91 M177.18 116.62 C141.13 86.62, 106.45 57.67, 41.08 -4.06 M177.6 117.32 C133.39 79.65, 91.02 42.21, 40.05 -3.27 M182.07 118.4 C132.03 73.92, 77.19 28.23, 44.1 -2.73 M182.7 116.21 C148.9 87.28, 111.65 55.3, 45.84 -3.6 M186.71 115.46 C151.79 83.04, 111.23 52.15, 53.04 -2.14 M188.98 115.75 C151.91 84.61, 114.45 53.71, 50.93 -2.34 M188.98 110.26 C148.63 77.36, 113.26 45, 55.11 -1.59 M187.32 110.97 C142.02 69.91, 96.17 29.77, 57.94 -3.42 M187.12 107.96 C157.49 78.04, 130.08 53.1, 61.77 -2.56 M189.3 106.52 C142.81 65.97, 96.33 25.15, 62.65 -2.53 M188.34 101.72 C158.99 73.33, 128.53 50.55, 68.54 -2.23 M188.27 99.49 C163.11 80.14, 138.21 58.94, 70.16 -3.15 M189.17 93.55 C160.26 72.39, 132.21 45.53, 74.18 -4.61 M188.24 95.73 C154.55 66.02, 121.25 36.82, 74.69 -2.14 M186.36 88.07 C157.44 59.95, 122.92 35.31, 80.04 -3.49 M187.3 89.08 C165.59 69.44, 141.07 49.84, 81.33 -3.25 M188.01 84.72 C167.87 67.31, 148.19 50.38, 85.69 -4.08 M189.17 85.19 C151.14 52.08, 114.54 18.96, 88.27 -3.22 M188.44 79.54 C170.05 63.49, 148.48 46.94, 92.03 -2.75 M188.65 78.7 C167.86 62.07, 148.67 43.95, 94.32 -2 M187.31 73.41 C154.48 46.96, 120.98 14.5, 100.96 -0.61 M189.18 75 C160.73 51.36, 134.01 27.4, 101.14 -2.89 M188.5 69.82 C159.35 45.07, 131.78 21.68, 106.67 -2.56 M188.29 69.53 C168.39 52.38, 151.51 37.03, 104.99 -2.05 M187.23 63.09 C170.04 50.43, 153.02 33.49, 110.9 -4.3 M189.13 63.48 C165.74 43.83, 145.4 24.45, 112.52 -2.03 M188.95 56.14 C172.56 46.06, 159.45 29.46, 118.64 -1.94 M187.96 57.06 C164.43 37.47, 141.33 17.96, 118.94 -3.84 M188.44 52.72 C166.67 33.55, 143.36 15.35, 125.18 -3.77 M187.63 53.22 C171.43 38.38, 153.04 22.51, 123.63 -3.25 M188.71 47.2 C166.54 29.26, 144.89 9.14, 131.84 -3.8 M187.13 46.97 C175.97 35.82, 162.02 25.1, 130.29 -2.86 M188.1 40.76 C170.87 26.49, 148.71 6.85, 137.21 -4.82 M189.03 43.05 C173.85 30.58, 157.69 16.57, 136.72 -3.61 M187.19 35.21 C174.38 25.42, 164.72 13.21, 144.43 -1.47 M189.04 37.23 C177.56 26.71, 168.02 19.31, 142.62 -2.35 M187.88 33.17 C179.65 23.17, 165.86 12.6, 148.91 -1.75 M187.44 32.05 C174.41 19.26, 160.84 6.39, 147.76 -3.9 M189.06 28.54 C180.72 19.6, 176.77 12.71, 153.33 -2.84 M189.42 26.71 C178.6 18.61, 169.18 9.53, 155.54 -3.33 M189.93 19.41 C181 12.68, 171.1 6.38, 159.44 -0.67 M188.72 21.55 C179.05 13.7, 171.25 5.98, 161.23 -2.01 M189.23 17.09 C179.51 8.49, 173.43 1.83, 167.21 -4.94 M189.49 16.54 C180.92 8.45, 170.98 0.68, 167.67 -3.2 M188.93 8.45 C182.17 7.37, 177.93 -0.23, 174.21 -2.19 M188.46 11.14 C182.82 6.42, 179.62 2.94, 173.11 -3.54 M189.13 4.65 C186.15 4.46, 183.7 2.82, 179.12 -1.94 M188.57 5.87 C185.54 3.55, 183.42 0.29, 179.2 -3.12" stroke="#40c057" stroke-width="0.5" fill="none"></path><path d="M-1.41 -1.89 C57 -0.9, 114.46 -0.53, 188.35 0.98 M-0.8 0.15 C53.74 -0.97, 107.39 0.13, 188.46 0.15 M187.92 0.65 C188.56 40.14, 188.17 76.75, 186.07 116.35 M187.63 -0.68 C187.29 31.96, 187.46 62.91, 188.78 117.78 M188.95 117.06 C126.24 115.34, 63.01 117.13, 1.41 117 M188.09 117.66 C147.52 118.61, 105.95 119.06, -0.9 116.81 M0.1 117.13 C-1.16 80.24, -0.26 47.14, -1.68 1.68 M-0.88 116.4 C-0.67 79.62, -0.74 39.96, -0.06 0.24" stroke="#000000" stroke-width="1" fill="none"></path></g><g transform="translate(643.666666666667 249.15079365079328) rotate(0 89 23)"><text x="89" y="33" font-family="Virgil, Segoe UI Emoji" font-size="36px" fill="#000000" text-anchor="middle" style="white-space: pre;" direction="ltr">Parser</text></g><g stroke-linecap="round"><g transform="translate(555.8039147392292 279.2749203912681) rotate(0 31.486314363110523 -0.3812625093501083)"><path d="M0.14 -1.06 C11.03 -0.91, 53.5 0.1, 64.22 0.25 M-1.25 1 C9.61 0.82, 52.59 -1.78, 63.46 -1.76" stroke="#000000" stroke-width="2" fill="none"></path></g><g transform="translate(555.8039147392292 279.2749203912681) rotate(0 31.486314363110523 -0.3812625093501083)"><path d="M33.86 10.02 C41.75 8.08, 46.86 5.65, 64.16 -3.36 M35.1 10.21 C44.87 6.15, 53.45 3.35, 63.77 -1.8" stroke="#000000" stroke-width="2" fill="none"></path></g><g transform="translate(555.8039147392292 279.2749203912681) rotate(0 31.486314363110523 -0.3812625093501083)"><path d="M33.18 -10.49 C41.1 -8.22, 46.35 -6.44, 64.16 -3.36 M34.42 -10.3 C44.36 -7.91, 53.15 -4.24, 63.77 -1.8" stroke="#000000" stroke-width="2" fill="none"></path></g></g><g stroke-linecap="round" transform="translate(302.31746031746025 11.111111111110858) rotate(0 275.7142857142858 209.99999999999977)"><path d="M0.14 0.39 C171.57 -0.32, 343.64 -1.3, 551.55 -0.18 M551.92 0.16 C550.53 113.83, 550.57 225.74, 551.77 419.75 M550.66 419.74 C334.36 420.1, 118.19 419.94, -0.54 419.59 M0.83 420.83 C1.13 280.48, -0.09 141.2, 0.03 0.53" stroke="#000000" stroke-width="1.5" fill="none" stroke-dasharray="8 9"></path></g><g transform="translate(378.6428571428569 44.92857142857156) rotate(0 200.5 69)"><text x="200.5" y="33" font-family="Virgil, Segoe UI Emoji" font-size="36px" fill="#000000" text-anchor="middle" style="white-space: pre;" direction="ltr">Part 1</text><text x="200.5" y="79" font-family="Virgil, Segoe UI Emoji" font-size="36px" fill="#000000" text-anchor="middle" style="white-space: pre;" direction="ltr">From Source Code to</text><text x="200.5" y="125" font-family="Virgil, Segoe UI Emoji" font-size="36px" fill="#000000" text-anchor="middle" style="white-space: pre;" direction="ltr">Abstract Syntax Tree</text></g><g stroke-linecap="round" transform="translate(902.3174603174602 213.65079365079328) rotate(0 90.5 58.5)"><path d="M0 0 C0 0, 0 0, 0 0 M0 0 C0 0, 0 0, 0 0 M-0.45 7.19 C1.3 4.57, 2.97 2.84, 4.53 0.66 M0.06 6.04 C1.92 3.93, 3.66 2.01, 4.73 0.65 M1.42 12.61 C3.87 7.44, 9.3 4.62, 12.23 -1.4 M-0.14 11.31 C3.87 8.46, 6.89 4.58, 9.94 -0.8 M0.41 19 C7.37 10.76, 10.65 6.21, 16.56 -1.34 M0.84 18.3 C4.74 12.71, 8.97 9.36, 15.93 1.25 M1.54 23.87 C10.11 12.86, 17.23 5.22, 21.48 -0.02 M-0.24 24.03 C5.2 17.14, 12.82 9.87, 21.87 -0.41 M-0.91 29.31 C5.36 22.44, 10.91 17.04, 25.85 0.17 M-0.42 30.48 C10.47 17.68, 20.43 6.18, 27.14 -0.54 M0.24 36.24 C8.85 24.98, 16.6 13.77, 31.07 -1.66 M0.45 36.21 C6.87 28.7, 14.58 19.07, 32.49 0.42 M0.47 41.79 C14.34 28.65, 28.04 9.85, 37.15 -0.15 M1.09 42.88 C12.87 27.58, 26.87 11.43, 36.19 0.66 M-1.44 48.56 C14.08 32.16, 27.63 20.15, 41.05 1.28 M0.4 48.1 C12.13 34.69, 24.77 21.55, 42.73 -0.45 M2.21 54.38 C18 35.76, 33 13.43, 48.36 -0.58 M-0.51 54.58 C19.5 33.79, 36.24 11.19, 47.08 0.06 M-0.23 61.29 C17.7 38.93, 38.27 17.25, 51.59 0.27 M-0.05 60.68 C12.14 46.62, 23.73 33.07, 53.44 -0.68 M-2.17 69.31 C22.87 44.94, 43.14 17.55, 57.9 0.07 M-0.03 67.66 C20.1 44.35, 41.09 19.6, 57.52 1.11 M0.28 73.65 C10.65 58.33, 23.76 43.35, 63.36 -1.73 M-0.18 72.4 C25.49 45.11, 50.11 15.28, 63.23 0.32 M-0.7 78.03 C18.06 57.81, 36.45 35.85, 68.69 -1.46 M-0.56 80.19 C22.4 54.54, 42.64 30.01, 68.99 -0.48 M1 84.34 C25.32 55.47, 48.58 31.68, 73.52 1.75 M0.49 85.96 C15.13 68.39, 30.24 50.63, 74.45 -0.62 M1.12 89.75 C18.41 71.99, 32.02 52.82, 80.13 -0.98 M0.62 90.77 C29.95 56.29, 62.19 19.23, 78.73 -0.75 M-1.31 96.34 C21.93 72.14, 44.59 44.47, 83.73 0.66 M-0.46 97.08 C20.92 70.29, 43.79 44.94, 85.21 -0.42 M-1.03 104.43 C19.81 79.6, 43.66 57.61, 88.15 1.22 M0.6 103.47 C29.34 69.25, 58.64 35.63, 89.73 0.5 M0.57 109.84 C20.03 85.1, 39.7 64.67, 96.15 0.46 M0.26 109.45 C21.7 83.96, 44.21 58.66, 95.36 0.25 M1 113.55 C40.04 71.3, 79.61 25.27, 101.15 0.36 M0.24 114.63 C27.39 85.36, 54.63 53.69, 100.7 -0.27 M3.04 119.78 C30.87 88.74, 61.63 52.14, 105.46 -1.88 M2.35 118.26 C41.27 75.44, 78.73 30.65, 106.52 -1.03 M7.1 119.74 C43 79.72, 74.76 43.39, 112.06 -0.84 M7.37 118.52 C47.77 70.65, 90.12 22.44, 112.12 -0.34 M14.25 120.85 C53.21 74.11, 90.38 26.11, 118.16 -1.15 M12.54 119.2 C52.07 74.62, 90.07 29.42, 115.37 0.34 M18.5 118.01 C39.06 93.62, 62.09 67.18, 122.27 -0.19 M18.39 118.51 C51.77 79.06, 86.32 39.77, 122.24 -0.78 M25.74 118.32 C47.37 93.2, 70.64 66.78, 127.22 1.1 M24.18 119.26 C61.85 76.3, 99.44 32.08, 126.34 0.92 M29.57 118.09 C53.29 91.71, 76.64 62.45, 133.72 0.03 M28.14 119.45 C59.77 84.3, 89.26 47.95, 133.03 -0.36 M33.44 119.88 C60.18 89.42, 83.27 60.41, 136.15 1.09 M34.26 118.66 C64.35 83.92, 95.36 50.13, 137.63 -0.21 M38.48 117.44 C75.95 78.64, 110.02 37.31, 144.81 1.03 M40.48 118.67 C77.59 76.1, 113.43 35.14, 142.22 0.37 M45.74 120.75 C73.64 85.68, 104.07 50.69, 149.63 1.78 M45.5 117.86 C78.37 79.97, 110.85 41.23, 147.84 -0.45 M51.9 121.02 C77.39 91.86, 102.66 59.49, 154.46 -0.48 M51 119.77 C89.8 73.22, 129.91 27.41, 153.29 -0.88 M54.91 120.41 C90.05 76.45, 127.41 35.77, 156.8 1.63 M55.73 120.31 C81.66 87.97, 107.41 56.28, 159.33 1.03 M60.99 117.29 C87.81 87.89, 114.37 59.2, 166.07 -0.28 M61.06 118.56 C90.37 85.33, 121.78 48.74, 163.47 -0.16 M67.68 119.54 C93.79 91.27, 117.79 60.51, 171.34 -1.4 M66.5 119.47 C99.3 83.47, 131.16 46.4, 170.2 -0.71 M69.41 118.21 C96.69 91.73, 120.22 61.85, 175.57 1.33 M71.77 119.13 C94.66 91.2, 118.84 63.4, 175.74 0.74 M77.3 120.62 C110.16 80.34, 140.83 41.13, 179.41 2.16 M77.12 119.29 C111.83 79.97, 147.5 40.62, 180.3 -0.31 M81.33 119.25 C106.56 91.87, 133.99 60.01, 185.41 1.83 M81.99 119.81 C115.23 79.64, 150.02 41.46, 182.86 2.54 M86.18 120.85 C115.7 86.31, 146.21 51.58, 184.45 9.55 M87.33 119.23 C124.83 77.1, 161.14 32.76, 184.04 8.1 M93.42 119.36 C119.66 85.68, 148.66 52.33, 181.92 15.47 M92.31 119.19 C128.24 78.45, 164.68 37.33, 184.76 13.5 M97.25 120.95 C123.8 88.88, 150.6 58.43, 185.58 20.73 M98.61 119 C130.99 82.09, 162.29 43.92, 182.69 19.83 M102.83 117 C120.89 98.5, 140.01 79.61, 182.41 27.42 M103.1 118.09 C122.33 98.61, 139.76 79.54, 183.54 27.52 M109.92 121.13 C126.32 97.72, 140.23 78.2, 185.72 31.87 M108.19 118.56 C126.38 99.06, 142.82 78.8, 184.65 33.17 M115.23 118.14 C136.62 92.86, 160.44 65.68, 182.1 37.87 M114.46 119.6 C130.96 99.61, 147.42 79.19, 182.49 38.29 M120.1 121.1 C138.73 95.75, 161.12 72.31, 185.05 46.43 M119.04 120.11 C137.59 99.43, 155.02 79.09, 184.77 44.48 M124.78 120.24 C138.56 104.77, 150.66 86.62, 182.74 52.79 M124.25 119.06 C142.94 96.23, 162.19 75.54, 182.68 50.02 M128.2 120.07 C140.59 107.99, 150.2 92.2, 183.57 56.14 M129.91 120.11 C144.76 101.19, 160.68 83.94, 182.99 57.08 M134.15 120.26 C144.58 106.35, 154.33 97.28, 183.25 64.89 M136.07 118.03 C151.21 99.26, 168.18 79.35, 183.59 62.43 M139.13 120.74 C153.89 103.18, 168.6 87.85, 183.77 69.94 M139.27 119.26 C152.05 105.2, 163.72 92.31, 183 70.29 M146.51 118.65 C160.95 103.45, 173.4 87.72, 183.04 74.38 M145.27 118.36 C155.21 109.71, 161.85 98.86, 184.46 75.47 M150.32 117.34 C156.4 108.22, 164.2 103.09, 182.64 82.55 M151.34 118.54 C159.09 109.38, 165.98 101.68, 184.23 81.95 M157.51 119.39 C165.74 105.9, 177.51 94.46, 181.37 89.73 M156.97 118.13 C163.35 110.48, 172 102.48, 183.61 88.1 M159.68 119.58 C168.33 110.02, 174.27 101.69, 182.35 95.42 M162.12 119.13 C167.01 112.07, 172.63 106.13, 184.54 93.4 M166.67 118.68 C171.96 112.07, 176.42 106.23, 183.98 100.63 M167.36 120.42 C170.04 113.95, 176.38 108.69, 183.09 99.27 M173.46 120.5 C174.53 115.49, 178.1 113.11, 185.4 105.53 M171.41 118.56 C176.89 115.14, 179.36 109.23, 183.58 106.15 M176.51 118.72 C179.84 116.7, 181.54 114.32, 183.36 111.24 M176.7 119.88 C179.94 116.53, 181.63 113.98, 183.16 112.18 M0.18 117.16 C0.18 117.16, 0.18 117.16, 0.18 117.16 M0.18 117.16 C0.18 117.16, 0.18 117.16, 0.18 117.16 M5.1 117.19 C3.31 114.44, 1.82 112.31, -0.04 112.22 M5.81 116.74 C4.29 115.9, 2.77 114.69, 0.17 111.76 M10.67 115.94 C6.88 112.03, 3.35 109.35, -0.22 107.47 M11.73 116.73 C9.23 114.18, 5.1 111, 0.65 106.47 M18.42 118.09 C11.62 111.21, 7.38 108.15, 0.96 100.71 M17.68 116.6 C14.19 114.15, 9.93 109.46, -1.08 101.75 M22.85 115.45 C14.84 109.81, 7.3 103.13, -1.76 95.6 M23.41 117.5 C16.12 110.03, 6.37 101.34, 0.81 96.69 M32.52 116.33 C24.72 112.33, 15.64 106.07, -0.02 88.3 M31.08 117.43 C22.99 110.97, 13.34 103.51, -0.81 90.99 M34.66 117.91 C21.29 105.9, 6.55 93.82, -0.05 83.57 M36.06 117.46 C26.55 108.28, 16.44 98.52, -0.55 85.12 M41.76 118.19 C29.44 105.2, 14.01 92.11, 0.18 80.76 M42.35 117.44 C33.72 109.2, 24.51 102.5, -0.97 79.57 M47.37 118.43 C39.49 108.64, 30.59 99.35, 2 74.07 M48.8 117.89 C38.02 106.2, 25.55 95.88, -0.95 74.58 M53.3 116.11 C34.16 100.98, 15.97 83.68, 0.98 70.3 M54.86 116.46 C34.7 99.99, 14.8 81.17, -0.33 69.43 M60.89 117.9 C48.66 105.69, 33.62 94.93, -1.97 65.07 M60.35 116.43 C45.71 103.84, 31.46 91.05, -0.28 64.15 M66.79 118.05 C49.1 100.56, 30.44 82.87, -0.96 57.28 M67.7 116.57 C49.21 102.94, 31.92 87.2, 0.85 59.44 M73.9 118.69 C45.2 94.29, 18.66 71.42, -1.78 54.03 M73.45 116.95 C47.55 94.5, 21.26 71.99, -0.68 53.15 M79.16 116.15 C63.03 103.97, 46.49 88.84, 1.28 47.61 M80.49 116.77 C57.39 99.44, 36.8 80.1, -0.22 48.74 M84.79 118.01 C65.83 101.36, 51.46 86.84, 1.22 41.9 M85.82 116.9 C66.14 99.74, 46.7 82.92, -0.55 43.18 M93.56 116.03 C58.97 88.45, 26.43 59.16, 1.35 36.64 M92.32 116.31 C58.66 87.26, 25.82 59.58, -0.31 38.7 M96.49 116.57 C74.29 95.08, 52.31 77.38, -1.79 33.15 M96.94 116 C61.47 86.7, 24.51 53.71, -0.54 32.06 M103.91 116.82 C70.12 88.05, 39.75 62.26, 0.67 26.6 M104.3 116.7 C68.07 85.05, 31.08 53.91, 0.83 26.28 M109.17 119.24 C72.88 85.52, 35.53 50.96, 0.84 19.74 M110.81 116.85 C77.31 88.85, 43.74 60.28, 0.47 21.88 M115.88 116.49 C83.94 92.68, 55.4 65.81, 1.16 15.19 M116.54 117 C84.67 89.01, 54.14 62.61, 1.17 16.67 M121.23 116.42 C72.27 78.47, 25.13 35.28, 1.29 9.14 M122.89 116.35 C79.94 80.07, 37.44 44.45, -0.67 10.97 M127.63 116.49 C85.36 79.26, 38.66 39.98, 1.23 7.62 M126.89 116.56 C79.24 73.05, 30.02 30.52, 0.45 5.35 M133.83 115.98 C105.94 90.47, 77.47 69.12, 0.21 0.29 M134.67 117.61 C91.02 79.6, 49.71 45.27, 0.64 -0.09 M138.58 118.43 C101 84.47, 65.11 52.43, 2.05 -1.42 M139.71 117.61 C89.64 72.52, 39.16 29.37, 2.4 -2.02 M147.9 116.62 C118.14 89.51, 85.55 66.25, 7.82 -4.46 M146.62 117.34 C96.22 75.51, 45.02 31.22, 9.81 -2.6 M154.38 117.48 C100.21 69.9, 46.64 26.51, 14.6 -1.17 M152.86 116.67 C108.94 77.65, 64.26 38.94, 13.8 -2.92 M156.85 116.55 C106.08 67.37, 51.37 22.02, 19.76 -4.4 M158.98 116.5 C113.06 76.74, 67.65 35.86, 20.92 -2.72 M163.45 118.23 C123.95 82.15, 80.49 46.19, 24.97 -4.44 M164.18 116.48 C110.22 69.95, 54.58 20.61, 25.82 -3.67 M171.34 118.15 C128.8 79.71, 88.22 45.03, 31.17 -4.7 M170.49 116.95 C133.44 86.08, 94.72 52.91, 32.79 -3.74 M177.96 116.17 C136.27 80.36, 91.42 42.28, 38.33 -3.37 M176.54 117.37 C128.76 74.95, 83.67 34.53, 39.96 -3.16 M182.77 116.01 C143.46 83.06, 102.8 49.79, 44.7 -4.4 M181.85 115.52 C147.27 86.6, 113.84 59.06, 45.04 -2.08 M183.77 112.33 C153.9 88.75, 128.24 66.23, 50.08 -4.56 M181.75 110.02 C137.46 71.93, 93.54 32.92, 51.17 -1.99 M181.76 103.6 C151.69 82.57, 121.45 54.81, 55.53 -3.02 M182.24 104.7 C137.46 66.16, 94.69 28.97, 57.03 -3.91 M183.57 98.51 C157.78 80.14, 131.34 56.42, 62.4 -1.13 M181.67 100.57 C134.67 59.46, 86.96 17.54, 62.44 -2.55 M182.28 94.34 C154.06 67.45, 126.03 46.86, 68.07 -3.97 M181.47 93.64 C149.29 65.7, 116.62 36.05, 70.6 -2.49 M180.29 89.24 C151.1 61.68, 123.49 37.41, 77.2 -3.39 M181.69 88.7 C145.3 56.04, 105.69 24.11, 75.77 -3.64 M180.25 83.93 C144.44 49.39, 105.09 15.34, 80.99 -1.08 M180.5 84.54 C157.39 63.19, 132.38 41.8, 81.11 -2.8 M180.1 77.98 C148.64 46.49, 113.69 18.1, 88.89 -2.12 M181.67 79.74 C155.5 56.4, 131.22 34.65, 86.86 -3.78 M180.83 72.23 C158.65 53.6, 133.54 30.29, 95.69 -2.74 M182.83 74.52 C149.04 47.07, 118.79 18.93, 93.91 -3.61 M181.68 69.71 C167.19 52.98, 149.13 38.69, 101.15 -3.95 M181.21 69.27 C165.31 52.49, 147.87 37.26, 99.97 -2.64 M183.44 64.66 C154.17 41.32, 128.27 16.02, 105.34 -2.5 M181.43 62.97 C162.83 46.1, 144.29 31.94, 105.37 -2.08 M180.17 56.88 C162.36 39.68, 143.63 24.24, 111.87 -1.98 M181.67 57.12 C161.14 38.24, 138.17 19.55, 112.81 -3.54 M182.23 52.06 C158.63 32.71, 135.26 10.98, 119.6 -2.38 M181.28 53.5 C161.4 35.63, 142.37 18.44, 117.58 -3.12 M183.24 47.46 C165.35 35.53, 150.87 21.05, 125.72 -3.84 M182.16 47.38 C165.39 33.41, 149.89 18.73, 125.12 -3.64 M183.13 40.17 C166.7 30.03, 148.61 15.24, 129.4 -4.27 M182.36 41.32 C161.75 23.04, 141.66 6.23, 131.17 -2.76 M183.07 36.89 C173.28 28.4, 161.42 17.63, 135.12 -2.34 M181.52 36.38 C168.48 25.91, 156.52 14.02, 135.62 -2.48 M180.54 30.18 C169.45 20.56, 157.17 9.57, 143.89 -4.53 M182.4 31.88 C166.14 17.96, 150.66 5.22, 142.22 -2.72 M180.3 24.15 C168.5 16.34, 159.56 5.63, 148.99 -2.74 M182.37 26.69 C172.21 17.09, 162.37 7.79, 148.8 -3.35 M181.39 18.8 C176.7 12.96, 166.06 7.83, 154.99 -2.03 M182.89 20.91 C171.32 12.26, 160.76 3.43, 154.84 -2.51 M180.11 15.7 C175.1 11.62, 171.54 3.93, 161.49 -2.2 M181.05 15.16 C175.15 9.34, 167.46 2.5, 161.64 -2.64 M181.08 10.26 C177.39 5.09, 176.33 2.8, 166.36 -4.82 M181.05 10.34 C178.09 5.71, 174.43 2.93, 166.14 -2.05 M180.79 5.06 C177.86 2.84, 176.28 0.37, 173.13 -3.57 M181.63 4.71 C179.01 2.38, 177.43 0.68, 172.91 -2.56" stroke="#40c057" stroke-width="0.5" fill="none"></path><path d="M1.32 0.8 C67.71 -2.65, 138.76 -0.7, 179.58 1.69 M0.39 -0.24 C53.88 1.19, 107.89 1.48, 181.97 -0.53 M180.97 -0.4 C183.07 33.75, 182.01 66.52, 182.33 115.12 M180.02 -0.36 C181.39 39.22, 180.65 78.78, 181.09 116.81 M182.8 117.67 C143.07 115.93, 108.25 117.19, -0.41 115.33 M180.97 117.32 C124.56 117.46, 70.16 117.52, 0.04 116.4 M-0.61 117.16 C-0.39 92.77, -2.28 64.85, 0.47 0.41 M0.43 116.13 C-1.52 81.02, -0.05 43.6, -0.48 -0.17" stroke="#000000" stroke-width="1" fill="none"></path></g><g transform="translate(907.3174603174602 249.15079365079328) rotate(0 85.5 23)"><text x="85.5" y="33" font-family="Virgil, Segoe UI Emoji" font-size="36px" fill="#000000" text-anchor="middle" style="white-space: pre;" direction="ltr">Compiler</text></g><g stroke-linecap="round" transform="translate(1172.4761904761908 213.65079365079328) rotate(0 106 58.5)"><path d="M0 0 C0 0, 0 0, 0 0 M0 0 C0 0, 0 0, 0 0 M-0.71 6.7 C2.13 4.53, 3.27 2.84, 4.26 0.89 M-0.52 6.68 C1.26 4.84, 2.02 3.82, 5.13 0.32 M1.73 10.68 C3.67 8.09, 5.43 4.48, 9.16 0.25 M-0.56 11.27 C4.38 7.63, 7.23 3.46, 10.86 0.76 M0.82 16.77 C2.91 12.86, 5.95 12.09, 15.33 1.27 M0.18 19.37 C4.09 15.23, 5.56 11.37, 15.51 1.14 M0.49 24.14 C4.28 19.68, 8.93 12.81, 21.15 -1.82 M0.88 23.75 C5.19 18.33, 12.7 10.15, 20.68 -0.15 M-0.39 30.36 C8.42 22.15, 13.37 14.98, 26.26 -0.05 M0.9 29.65 C6.21 23.47, 12.8 16.61, 25.93 0.27 M-1.08 35.32 C6.08 28.16, 17.1 21.11, 30.55 -0.32 M0.35 37.4 C11.18 24.69, 20.62 12.27, 31.52 0.24 M0.41 42.11 C14.83 28.52, 27.01 13.4, 37.6 -0.31 M-0.54 42.93 C12.32 28.71, 24.76 13.91, 36.7 0.73 M-1.6 50.33 C9.35 38.68, 18.14 26.59, 40.89 0.52 M0.09 48.6 C11.54 36.48, 23.16 23.52, 42.43 0.34 M1.12 53.76 C20.16 35.02, 35.92 12.52, 47.54 1.95 M-0.16 54.4 C17.79 35.21, 34.51 16.58, 47.67 -0.16 M-1.55 61.4 C11.37 45.29, 25.93 30.44, 52.6 -0.07 M0.3 60.45 C12.4 47.08, 23.54 33.55, 54.13 0.61 M-0.49 67.24 C23.12 40.83, 45.71 15.99, 58.74 -0.31 M-0.87 68.28 C19.61 44.4, 41.45 19.35, 58.46 -0.8 M-0.28 71.48 C22.84 50.62, 40.03 26.11, 62.58 0.62 M-0.41 73.53 C24.43 45.71, 49.58 16.53, 63.09 -0.24 M-0.2 77.78 C22.68 52.68, 43.77 27.08, 70.36 1.37 M0.11 78.76 C18.32 58.66, 36.81 39.14, 68.42 0.62 M-0.62 87.03 C14.41 67.57, 32.27 47.36, 76.25 0.79 M0.31 84.66 C26.12 53.58, 53.97 22.85, 73.57 0.74 M0.75 90.34 C23.42 69.22, 41.99 44.44, 78.06 -1.05 M-0.65 90.57 C27.94 59.6, 57.33 25.49, 78.65 0.21 M-1.56 98.77 C27.95 66.78, 58.06 31.25, 83.52 -1.85 M-0.08 97.69 C17 77.46, 34.1 57.82, 85.52 -1.24 M-1.73 104.62 C24.86 74.45, 48.27 46.83, 90.01 -0.1 M-0.15 103.89 C18.75 81.78, 39.62 59.79, 90.01 0.28 M0.37 110.65 C19.59 84.45, 43.57 61.48, 94.81 -2.08 M-0.42 110.44 C34.76 70.32, 67.04 33.22, 94.68 -0.72 M0.77 115.83 C39.08 68.75, 79.16 25.34, 98.87 -0.83 M0.32 115.2 C39.73 69, 78.78 24.3, 101.1 -0.58 M1.8 117.36 C43.93 73.88, 81.39 26.27, 105.03 0.8 M2.86 118.22 C32.69 85, 61.03 51.79, 106.54 0 M8.4 118.4 C32.25 95.11, 54.09 67.91, 109.8 -0.78 M8.47 118.9 C38.27 85.41, 67.9 50.31, 112.28 0.46 M15.16 117.34 C51.04 78.14, 85.06 36.88, 116.94 -0.23 M12.37 118.83 C46.75 80.89, 81.93 42.94, 115.67 -0.36 M18.62 119.05 C53.94 79.16, 90.05 39.64, 120.48 -1.98 M18.58 118.47 C52.86 79.16, 88.78 40.24, 121.66 0.49 M24.22 119.59 C60.65 77.07, 95.56 35.35, 127.77 1.02 M23.34 119.4 C64.11 72.19, 105.7 24.64, 126.36 0.89 M30.06 119.27 C61.77 82.33, 95.12 42.13, 133.06 1.03 M29.37 118.89 C66.14 77.82, 103.98 33.94, 133.09 0.83 M33.15 119.58 C62.02 88.67, 89.01 55.21, 137.27 0.53 M34.63 118.28 C61.25 86.53, 88.35 54.78, 136.68 0.97 M41.15 120.27 C71.14 82.93, 101.51 50.78, 142.22 1.21 M38.56 119.62 C64.11 89.4, 88.75 62.24, 144.17 -0.93 M46.63 120.27 C78.06 83.76, 110.02 46.12, 146.36 0.99 M44.84 118.04 C77.26 81.3, 109.08 46.69, 149.11 0.58 M50.8 118.76 C91.08 74.02, 128.48 30.73, 155.1 -0.99 M49.63 118.36 C78.91 87.54, 106.48 54.86, 154.27 -0.96 M53.14 120.88 C84.34 85.91, 116.31 52.6, 160.46 0.63 M55.67 120.27 C90.52 80.42, 125.34 40.15, 157.9 0.67 M62.42 118.96 C86.76 89.03, 111.33 58.15, 163.38 -1.6 M59.81 119.08 C99.45 74.35, 138.48 30.75, 164.48 0.82 M67.68 117.85 C102.35 76.45, 137.61 37.1, 169.46 1.15 M66.54 118.54 C104.67 73.61, 144.42 26.8, 169.01 0.47 M71.92 120.57 C110.29 72.86, 152.65 28.27, 175.22 -1.15 M72.08 119.99 C102.54 84.94, 133.86 48.72, 175.67 0.74 M75.75 121.4 C105.17 86.49, 131.84 57.8, 179.8 -0.24 M76.65 118.94 C105.97 83.2, 136.71 47.01, 180.17 -0.58 M83.72 118.81 C123.66 72.43, 163.43 24.72, 187.28 -0.69 M81.18 119.52 C103.12 93.66, 125.84 68.14, 186.43 -0.61 M88.01 120.5 C125.36 77.78, 159.81 35.17, 190.39 1.17 M87.6 119.04 C127.6 74.08, 167.36 29.28, 190.87 -0.77 M90.73 120.38 C127.12 81.67, 155.75 45.43, 196.74 -1.77 M93.57 118.41 C125.13 81.96, 157.3 44.51, 197.13 -0.4 M99.63 119.6 C131.69 82.52, 161.71 46.68, 200.63 1.6 M96.75 118.69 C131.66 79.78, 166.86 41.31, 200.34 -0.15 M102.37 119.5 C132.09 81.43, 163 46.37, 205.24 1.6 M103.5 119.59 C123.8 93.82, 146.78 68.4, 207.87 0.45 M110.27 118.66 C129.58 93.89, 153.31 70.03, 210.44 0.76 M109.2 119.97 C137.5 87.22, 164.98 55.52, 211.56 -0.5 M112.56 117.87 C146.38 79.52, 181.68 43.59, 213.06 5.65 M112.95 118.29 C151.25 77.36, 187.02 36.67, 212.6 6.06 M120.1 121.15 C145.4 87.38, 174.31 55.96, 213.74 13.93 M119.82 119.19 C152.82 78.83, 188.46 37.41, 212.76 12.71 M123.69 120.72 C156.16 85.73, 186.17 47.64, 212.17 17.83 M123.63 117.95 C145.5 93.67, 168.32 68.01, 212.23 18.5 M129.78 118.03 C162.85 82.28, 193.84 44.97, 213.95 23.75 M129.2 118.96 C147.07 98.69, 167.38 75.87, 212.92 24.11 M134.7 120.74 C156.43 96.39, 177.39 73.66, 210.32 29.34 M135.05 118.28 C162.04 88.16, 188.58 58.23, 212.72 30.34 M140.47 119.75 C161.32 93.49, 182.89 66.64, 211.81 37.19 M139.7 120.1 C156.72 100.62, 172.28 83.02, 211.61 37.4 M144.99 118.15 C167.33 91.08, 192.63 64.73, 211.19 44.12 M146.41 119.24 C170.6 90.95, 196.81 62.01, 211.17 41.64 M149.83 120.28 C162.44 105.95, 174.9 91.49, 210.55 50.44 M151.43 119.69 C164.28 104.46, 175.57 91, 212.13 48.3 M154.48 120.67 C170.65 101.64, 183.96 86.06, 210.92 53.64 M156.72 119.04 C172.15 100.56, 187.5 80.51, 212.44 54.74 M160.04 121.08 C171.91 106.32, 186.08 94.55, 211.94 61.47 M162.24 119.06 C172.75 106.32, 184.24 93.46, 211.54 61 M166.92 120.25 C177.48 106.47, 189.07 95.1, 213.54 65.61 M166.03 118.89 C177.58 106.23, 189.54 93.22, 212.47 66.98 M173.76 119.12 C185.42 106.09, 195.63 88.87, 210.89 74.99 M171.73 119.8 C188.17 101.49, 202.94 84.72, 211.34 73.22 M176.54 118.1 C190.24 106.1, 199.22 91.79, 213.51 80.99 M176.14 119.99 C186.86 107.02, 197.66 96.76, 210.94 79.68 M182.15 118.84 C191.92 107.44, 202.5 95.33, 210.81 83.21 M183.27 119.74 C193.64 107.71, 202.87 94.33, 212.75 84.91 M188.11 121.19 C192.4 110.93, 200.86 104.74, 211.85 90.49 M188.64 120.04 C197.43 108.4, 206.83 97.21, 211.28 90.67 M192.87 120.22 C196.55 115.3, 201.54 109.33, 210.95 98.61 M193.96 118.96 C198.7 112.68, 203.82 106.62, 212.1 97.04 M199.52 119.22 C200.31 115.25, 203.47 110.15, 210.72 103.57 M197.48 120.26 C204.26 113.77, 208.29 106.39, 211.37 103.29 M202.83 118.82 C207.27 115.69, 209.31 111.81, 212.56 110.5 M204.38 119.48 C206.45 115.94, 209.88 113.04, 211.59 110.31 M209.01 118.87 C210 118.16, 211.74 116.81, 212.36 115.99 M208.82 119.54 C210.44 118, 211.43 116.22, 212.37 115.47 M0.18 117.16 C0.18 117.16, 0.18 117.16, 0.18 117.16 M0.18 117.16 C0.18 117.16, 0.18 117.16, 0.18 117.16 M6.02 117.22 C2.84 115, 2.01 112.66, 0.12 111.59 M5.57 116.74 C3.84 115.65, 2.82 113.67, 0.02 111.66 M13.78 116.57 C7.58 112.85, 4.24 110.34, 1.12 107 M11.43 116.98 C9.84 114.19, 6.48 111.51, -0.16 105.77 M19.95 118.59 C13.68 111.52, 5.97 106.56, -1.1 100.63 M18.65 117.72 C11.12 111.55, 5.51 105.45, 0.13 101.21 M22.28 117.96 C16.37 112.28, 10.7 103.26, -1.33 95.85 M23.98 117.03 C17.37 110.26, 10.43 105.55, 0.76 96.07 M29.34 115.41 C20.01 108.31, 12.38 101.64, -0.64 89.98 M31.14 117.57 C19.36 107.75, 7.62 96.8, 0.55 89.99 M34.55 117.41 C26.57 108.14, 14 98.57, -0.06 86.06 M35.65 116.53 C23.93 106.01, 13.26 96.59, -0.49 85.04 M43.64 116.23 C26.64 105.03, 12.34 92, -1.33 78.71 M42.14 117.37 C26.94 104.57, 13.9 91.03, 0.25 78.81 M50.38 116.43 C35.18 105.37, 24.9 97.17, 0.08 74.44 M48.61 117.71 C37.2 105.29, 24.34 96.33, -0.51 74.17 M55.79 115.77 C41.46 103.61, 24.91 92.13, -2.01 69.3 M54.14 117.83 C42.11 105.93, 30.35 96.17, -0.44 68.5 M59.44 118.18 C48.17 106.25, 32.76 91.71, -1.5 65.21 M60.7 117.09 C37.71 95.59, 14.48 75.18, -0.08 63.44 M67.19 116.22 C52.41 103.35, 37.33 92.09, -0.26 60.34 M67.35 115.9 C52.34 102.93, 37.45 90.58, 1.35 58.8 M74.15 115.27 C48.72 97.1, 24.6 75.7, -0.88 54.08 M73.78 117.41 C54.53 100.77, 36.11 83.6, -0.22 53.04 M80.5 115.97 C47.02 88.64, 16.76 64.4, 0.59 48 M80.52 117.45 C62.96 103.78, 45.91 87.73, -0.02 47.73 M86.68 115.16 C53.41 88.47, 20.71 60.76, -1.65 44.27 M84.71 116.99 C66.63 101.45, 48.02 85.5, -0.19 43.44 M92.65 118.9 C64.65 90.79, 32.55 64.23, -0.07 37.89 M91.87 116.62 C67.49 95.9, 44.55 75.79, -0.21 37.52 M97.67 116.81 C75.7 100.3, 52.03 80.37, 1.11 30.48 M98.1 116.43 C74.02 96.04, 51.21 75.25, 0.49 31.34 M103.29 118.38 C73.29 91.68, 40.27 62.6, 0.95 26.47 M103.63 117.78 C77.52 94.58, 52.3 72.99, 0.14 28.01 M109.06 115.34 C85.04 96.45, 58.94 72.48, 0.81 22.92 M111.04 117.2 C72.34 83.03, 32.16 49.41, 0.04 21.69 M115.83 118.63 C91 94.1, 63.83 73.16, -0.69 17.7 M115.03 116.88 C79.93 85.46, 42.55 53.82, 0.14 17.28 M121 115.4 C96.32 93.5, 68.55 73.59, -0.64 11.31 M122.15 117.09 C74.57 76.96, 28.29 35.4, 0.45 11.71 M126.2 115.36 C85.03 79.24, 38.02 39.27, -0.84 7.05 M127.06 116.13 C78.29 72.36, 27.91 29.32, 0.64 5.67 M132.4 115.1 C95.19 85.49, 58.9 51.03, -0.83 0.85 M134.03 116.07 C84.14 72.88, 32.78 29.4, -0.55 0.86 M139.56 116.43 C98.53 78.66, 52.7 39.9, 3.43 -4.56 M141.19 116.64 C104.25 87.28, 68.5 56.51, 2.52 -2.28 M145.94 115.41 C94.41 73.52, 44.56 28.76, 8.23 -3.86 M146.28 117.72 C114.14 89.52, 83.53 63.07, 9.58 -3.3 M151.32 115.25 C107.04 77.35, 59.13 37.29, 12.85 -4.11 M152.4 117.81 C110.83 80.71, 70.61 44.4, 13.67 -3.18 M156.77 116.78 C106.61 70.32, 50.22 24.35, 19.9 -3.88 M158.26 115.89 C123.22 87.1, 89.19 57.19, 20.02 -2.04 M163.64 118.67 C112.98 70.41, 56.79 22.32, 27.25 -2.16 M163.68 117.25 C115.98 75.68, 67.45 33.32, 26.4 -2.47 M169.31 115.83 C142.81 92.67, 114.12 70.12, 31.08 -2.1 M171.83 117.31 C119.08 72.22, 67.8 28.46, 32.74 -3.8 M178.44 116.41 C144.38 87.53, 109.68 58.84, 37.57 -0.6 M177 116.17 C144.96 87.23, 110.4 58.35, 39.3 -2.17 M182.22 118.72 C147.08 83.96, 113.79 53.45, 46.18 -3.33 M182.34 117 C137.98 77.19, 90.07 35.97, 44.47 -2.1 M190.13 117.69 C155.86 91.79, 124.5 62.56, 52.94 -3.78 M188.1 116.02 C152.67 84.75, 117.26 53.46, 50.48 -1.99 M196.92 117.06 C144.2 72.74, 92.9 29.12, 58.13 -4.84 M195.15 116.19 C145.24 75.39, 98.44 34.29, 57.69 -2.24 M202.38 115.86 C164.54 84.2, 129.48 54.52, 65.3 -2.57 M201.2 117.17 C162.11 81.65, 121.99 47.94, 64.05 -3.46 M206.57 117.31 C157.59 74.53, 109.78 30.38, 69.07 -3.78 M206.6 117.73 C180.02 94.19, 153.32 69.31, 69.39 -2.61 M212.35 117.17 C183.83 92.46, 153.08 65.82, 74.31 -1.03 M213.29 115.6 C179.68 85.41, 143.19 54.66, 75.11 -2.5 M214.05 111.52 C162.89 70.81, 112.94 24.94, 83.43 -3.74 M212.03 110.77 C167.94 72.76, 125.22 35.42, 82.03 -3.32 M214.12 104.81 C168.16 68.07, 124.39 29.33, 88.13 -3.69 M213.52 105 C175.32 71.52, 138.38 39.68, 86.52 -2.77 M211.02 98.47 C170.33 61.04, 122.29 23.53, 92.38 -2.85 M212.78 99.98 C186.14 78.27, 161.71 57.55, 94.1 -2.25 M211.45 95.82 C176.46 63.65, 138.59 30.46, 100.18 -2.93 M211.95 95.67 C167.39 55.59, 121.81 16.83, 99.64 -3.03 M213.43 87.72 C183.96 61.12, 150.41 36.32, 106.81 -4.41 M211.75 89.53 C180.99 62.48, 147.82 32.96, 105.09 -3.7 M213.24 84.91 C179.42 53.82, 144.97 28.61, 114.11 -1.6 M213.05 84.3 C176.96 55.53, 143.06 24.43, 111.3 -1.76 M212.45 79.72 C195.05 59.64, 174.73 46.21, 118.15 -4.21 M212.3 79.24 C181.33 51.76, 150.54 24.31, 118.22 -3.7 M212.91 74.31 C182.48 44.75, 150.54 17.66, 124.34 -1.09 M213.07 73.86 C180.28 46.01, 150.24 18.97, 124.39 -3.23 M211.74 66.43 C194.55 52.12, 179.31 37.09, 131.07 -1.87 M211.52 69.2 C194.05 53.15, 176.51 36.71, 131.22 -3.39 M212.37 61.71 C184.59 38.54, 156.76 16.22, 137.04 -3.94 M211.97 63.56 C191.07 45.76, 167.9 26.92, 136.74 -2.1 M212.23 59.98 C189.04 39.81, 168.52 18.59, 144.48 -3.5 M213.04 58.4 C189.61 39.1, 166.21 19.4, 143.33 -3.64 M214.03 52.33 C194.54 37.2, 174.61 22.55, 146.87 -1.18 M213.49 52.84 C185.9 31.8, 160.74 8.87, 147.97 -2.79 M213.05 46.01 C199.93 38.81, 189.5 27.52, 156.03 -1.74 M211.94 48.1 C198.83 34.78, 183.8 23.34, 155.77 -3.07 M212.82 42.88 C201.38 32.69, 187.33 22.39, 161.75 -3.7 M213.11 41.42 C192.11 24.12, 173.57 8.02, 162.18 -2.82 M212.15 35.63 C202.06 27.43, 192.29 19.52, 167.15 -2.36 M213.34 37.8 C195.49 22.7, 179.63 7.78, 166.77 -2.73 M212.13 29.57 C201.17 19.82, 190.95 9.43, 171.84 -0.84 M212.06 31.26 C198.48 19.14, 184.01 5.68, 172.97 -3.41 M211.17 26.82 C201.39 13.57, 187.9 5.18, 179.74 -3.67 M213.34 26.58 C201.93 16.16, 190.82 6.92, 178.32 -3.42 M211.9 20.11 C203.09 15.07, 193.52 4.43, 186.05 -4.5 M213.32 20.56 C204.7 13.29, 194.21 5.22, 185.96 -3.57 M212.28 17.02 C205.24 9.61, 196.61 3.02, 192.98 -3.78 M213.79 15.77 C208.8 12.73, 203.96 7.87, 190.9 -3.01 M212.52 9.71 C206.45 4.83, 199.6 1.72, 197.05 -3.71 M211.62 9.78 C206.63 4.67, 202.12 0.2, 197.74 -2.73 M213.61 3.99 C208.98 3.05, 205.78 0.06, 204.06 -3.06 M212.51 5.04 C210.78 3.05, 207.99 0.93, 204.18 -2.95" stroke="#40c057" stroke-width="0.5" fill="none"></path><path d="M-1.25 1.49 C43.43 -1.12, 85.34 0.65, 211.58 -0.07 M0.85 -0.47 C53.67 0.45, 106.97 0.3, 211.82 0.83 M213.33 -1.88 C213.19 33.92, 212.54 66.33, 211.27 118.04 M212.09 -0.19 C210.81 36.02, 210.95 71.22, 212.34 116.72 M211.64 115.53 C144.51 117.65, 77.07 118.47, 0.56 115.38 M212.04 116.47 C144.13 117.85, 78.2 117.15, 0.07 117.08 M0.47 117.41 C1.19 74.2, 1.77 29.88, -1.74 -1.66 M-0.48 116.83 C-0.93 77.9, -1.28 39.97, 0.7 0.4" stroke="#000000" stroke-width="1" fill="none"></path></g><g transform="translate(1177.4761904761908 226.15079365079328) rotate(0 101 46)"><text x="101" y="33" font-family="Virgil, Segoe UI Emoji" font-size="36px" fill="#000000" text-anchor="middle" style="white-space: pre;" direction="ltr">Evaluation</text><text x="101" y="79" font-family="Virgil, Segoe UI Emoji" font-size="36px" fill="#000000" text-anchor="middle" style="white-space: pre;" direction="ltr">Loop</text></g><g stroke-linecap="round"><g transform="translate(1096.280105215419 279.2696557704562) rotate(0 28.20656163099261 -0.3749094083428872)"><path d="M0.47 -0.28 C10.12 -0.19, 47.69 -0.54, 57.15 -0.52 M-0.74 -1.48 C8.81 -1.13, 46.64 0.31, 56.18 0.73" stroke="#000000" stroke-width="2" fill="none"></path></g><g transform="translate(1096.280105215419 279.2696557704562) rotate(0 28.20656163099261 -0.3749094083428872)"><path d="M28.45 9.33 C34.59 7.32, 41.69 7.09, 55.12 0.53 M28.73 10.35 C37.5 7.09, 45.53 4.6, 55.24 1.08" stroke="#000000" stroke-width="2" fill="none"></path></g><g transform="translate(1096.280105215419 279.2696557704562) rotate(0 28.20656163099261 -0.3749094083428872)"><path d="M29.25 -10.21 C35.01 -7.55, 41.92 -3.12, 55.12 0.53 M29.52 -9.19 C37.92 -6.29, 45.7 -2.61, 55.24 1.08" stroke="#000000" stroke-width="2" fill="none"></path></g></g><g stroke-linecap="round"><g transform="translate(1398.5964190476197 282.7100383763559) rotate(0 31.16534835496759 0.6318451257965307)"><path d="M-0.05 -0.56 C10.52 -0.54, 53.03 -0.18, 63.86 -0.19 M-1.53 1.76 C8.84 1.99, 51.89 1.48, 62.94 1.24" stroke="#000000" stroke-width="2" fill="none"></path></g><g transform="translate(1398.5964190476197 282.7100383763559) rotate(0 31.16534835496759 0.6318451257965307)"><path d="M33.98 12.03 C44.12 10.25, 52.9 4.49, 63.25 0 M34.83 12.35 C42.64 9.14, 50.72 5.64, 62.83 1.27" stroke="#000000" stroke-width="2" fill="none"></path></g><g transform="translate(1398.5964190476197 282.7100383763559) rotate(0 31.16534835496759 0.6318451257965307)"><path d="M33.67 -8.49 C43.86 -3.3, 52.75 -2.1, 63.25 0 M34.52 -8.17 C42.38 -5.26, 50.55 -2.64, 62.83 1.27" stroke="#000000" stroke-width="2" fill="none"></path></g></g><g stroke-linecap="round" transform="translate(869.4603174603171 10) rotate(0 272.3809523809525 209.99999999999977)"><path d="M-0.13 0.77 C160.86 -0.18, 322.69 -0.6, 544.75 -0.16 M544.07 0.71 C543.58 166, 544.46 331.29, 543.72 419.61 M545.05 420.07 C352.88 418.78, 162 418.89, 0.72 420.27 M0.88 419.78 C-1.32 305.73, -0.96 191.48, -0.04 0.34" stroke="#000000" stroke-width="1.5" fill="none" stroke-dasharray="8 9"></path></g><g transform="translate(893.3412698412694 44.92857142857156) rotate(0 248.5 69)"><text x="248.5" y="33" font-family="Virgil, Segoe UI Emoji" font-size="36px" fill="#000000" text-anchor="middle" style="white-space: pre;" direction="ltr">Part 2</text><text x="248.5" y="79" font-family="Virgil, Segoe UI Emoji" font-size="36px" fill="#000000" text-anchor="middle" style="white-space: pre;" direction="ltr">From Abstract Syntax Tree</text><text x="248.5" y="125" font-family="Virgil, Segoe UI Emoji" font-size="36px" fill="#000000" text-anchor="middle" style="white-space: pre;" direction="ltr">To Magic (Execution)</text></g><g stroke-linecap="round" transform="translate(1468.8928571428569 241.73412698412676) rotate(0 88 40)"><path d="M6.52 26.87 C6.52 26.87, 6.52 26.87, 6.52 26.87 M6.52 26.87 C6.52 26.87, 6.52 26.87, 6.52 26.87 M2.06 39.38 C7.86 30.39, 15.98 20.71, 24.95 10.83 M1.79 38.6 C10.78 28.22, 18.58 19.67, 25.51 13.13 M0.64 44.26 C5.5 38.4, 14.6 30.06, 31.39 10.76 M0.75 45.21 C7.27 39.31, 12.03 31.58, 29.79 12.96 M2.64 50.27 C10.7 41.33, 16.28 33.05, 37.88 11.21 M2.93 48.96 C16.17 34.09, 28.28 18.65, 36.68 10.7 M5.96 50.68 C17.23 37.03, 28.09 27.69, 41.52 10.67 M6.94 51.24 C15.67 40.02, 25.46 28.64, 42.93 9.24 M9.73 53.48 C20.64 40.44, 31.27 25.63, 49.63 9.32 M9.44 54.57 C17.74 44.13, 26.26 33.26, 48.85 7.12 M13.4 59.11 C20.62 45.99, 32.79 35.47, 54.83 6.84 M10.73 57.87 C26.71 39.71, 43.72 21.46, 55.88 5.77 M13.66 62.99 C28.19 44.14, 42.07 29.47, 62.7 2.36 M14.2 60.43 C30.61 41.98, 47.12 22.56, 64.72 2.99 M16.14 64.01 C35.2 41.08, 55.36 19.6, 70.77 3.75 M18.49 63.92 C30.98 46.96, 45.73 29.83, 68.88 3.76 M21.13 63.26 C34.66 50.32, 49.63 30.68, 73.48 2.08 M21.73 64.7 C36.41 47.2, 51.03 30.88, 74.11 2.16 M25.15 65.82 C43.24 45.82, 59.93 24.87, 79.25 3.12 M25.63 64.98 C39.9 51.37, 53.56 35.2, 79.93 2.43 M30.07 68.24 C46.32 48.22, 63.74 30.26, 84.76 0.91 M29.04 67.87 C52.56 40.58, 74.77 14.83, 86.5 1.94 M31.97 69.03 C44.27 55.05, 60.37 38.64, 92 0.65 M33.39 69.39 C53.24 45.19, 75 20.96, 92.07 1.71 M35.59 70.67 C51.46 57.67, 62.39 39.71, 97.21 1.81 M37.55 71.91 C50.54 55.71, 64.52 38.89, 98.51 0.91 M40.58 73.1 C68.06 44.75, 92.19 16.31, 103.27 1.8 M40.67 73.22 C56.9 55.01, 73.58 34.97, 102.13 2.09 M44.58 74.99 C58.49 54.52, 76.29 38.83, 106.66 0.75 M45.7 73.24 C58 58.17, 72.41 42.9, 107.17 1.42 M50.14 74.48 C69.88 47.88, 91.03 23.02, 111.83 3.53 M48.85 74.3 C68.33 53.87, 85.4 34.88, 112.67 2.26 M53.79 76.16 C76.59 49.45, 97.18 23.8, 115.46 2.95 M55.08 75.6 C76.5 50.97, 97.02 26.44, 117.24 3.8 M60.32 77.12 C79.61 50.53, 102.49 26.61, 122.89 4.06 M59.01 76.73 C79.4 50.83, 103.44 25.16, 121.98 4.92 M64.47 76.65 C82 53.62, 105.38 31.88, 126.4 5.1 M63 76.93 C81.22 57.33, 98.4 39.19, 125.24 4.61 M66.62 77.26 C80.35 62.83, 95.21 45.03, 128.89 6.58 M67.37 77.58 C82.73 62.13, 96.06 44.59, 130.81 6.53 M75.05 77.67 C86.86 58.74, 104.07 42.48, 133.51 8.93 M73.19 78.69 C89.87 59.6, 105.58 39.62, 134.11 8.2 M77.05 78.6 C91.09 63.53, 104.98 46.14, 138.71 5.82 M77.86 80.19 C95.56 58.02, 115.18 37.08, 139.63 7.8 M84.43 79.94 C98.63 57.36, 118.49 37.34, 144.6 10.14 M83.14 80.6 C96.5 64.35, 110.97 48.93, 143.87 9.65 M87.4 80.59 C108.09 57.37, 129.36 33.59, 147.83 10.24 M87.48 80.38 C108.75 55.57, 130.83 30.57, 146.7 11.94 M93.35 78.15 C111.23 60.35, 129.4 37.67, 150.02 14.19 M93.39 79.09 C109.65 62.18, 124.36 43.43, 150.31 12.54 M98.02 78.69 C117.48 57.39, 135.96 36.93, 156.11 15.29 M99.01 78.73 C111.56 64.02, 126.25 47.62, 153.97 15.91 M104.4 81.52 C121.85 58.99, 140.94 35.19, 159.26 15.05 M103.6 79.89 C123.73 57.56, 141.7 36.54, 157.59 17.7 M109.76 79.88 C127.17 56.91, 148.83 31.91, 161.96 18.19 M109 80.09 C122.66 66.26, 134.49 52.39, 161.18 19.16 M115.32 79.76 C130.59 61.12, 142.78 45.51, 164.97 19.66 M115.83 77.95 C127.03 64.19, 137.57 51.51, 166.33 19.71 M124.57 77.34 C141.28 57.1, 157.07 35.65, 167.01 25.15 M122.33 76.26 C139.14 56.68, 156.74 36.91, 168.48 24.9 M127.66 74.82 C140.52 58.88, 155.04 46.18, 169.7 25.52 M129.2 75.21 C142.1 61.31, 154.76 46.4, 170.26 28.42 M135.65 73.81 C144.51 64.36, 154.01 54.17, 174.64 32.38 M136.39 71.35 C143.94 63.76, 152.72 54.17, 173.11 31.1 M144.89 71.17 C155.79 55.9, 167.47 43.43, 173.72 35.56 M143.98 70.9 C156.46 56.84, 167.92 41.42, 174.1 33.9 M149.34 70.74 C160.48 56.49, 171.75 46.15, 178.1 38.1 M148.98 68.94 C157.04 60.55, 164.83 53.27, 177.37 38.44 M161.49 61.25 C167.37 56.49, 167.84 54.25, 174.63 44.53 M162.74 60.94 C167.37 55.72, 171.79 51.12, 175.11 46.76 M13.35 60.86 C13.35 60.86, 13.35 60.86, 13.35 60.86 M13.35 60.86 C13.35 60.86, 13.35 60.86, 13.35 60.86 M24.54 65.65 C16.78 56.74, 7.38 49.98, 1.24 46.52 M25.86 66.17 C20.53 61.03, 13.8 55.87, 1.08 45.71 M36.81 73.12 C25.67 63.39, 16.04 50.82, 2.55 39.22 M37.98 70.99 C28.59 63.64, 21.41 57.4, 3.33 40.58 M40.54 69.78 C28.31 60.9, 15.7 49.67, 4.42 37.11 M42.4 70.99 C29.48 58.99, 13.64 45.18, 3.06 37.71 M50.09 70.88 C36.56 61.32, 25.82 49.65, 4.22 34.87 M49.02 71.74 C32.96 56.5, 17.73 42.7, 6.1 32.35 M58.56 73.73 C46.5 60.7, 33.97 48.65, 6.56 26.74 M57.27 73.25 C46.26 61.73, 33.31 52.26, 6.86 29.3 M66.07 74.48 C44.83 56.66, 22.45 36.69, 10.37 26.83 M64.94 74.35 C49.83 61, 33.17 45.97, 7.91 24.6 M75.8 77.81 C51.01 56.25, 24.15 33.99, 13.33 20.16 M76.72 77.76 C63.75 66.98, 50.89 54.51, 10.87 22.13 M79.89 78.76 C67.61 63.79, 48.32 50.63, 14.43 18.95 M82.57 77.52 C64.87 62.65, 45.5 46.67, 15.51 19.4 M90.11 80.05 C58.65 53.48, 33.38 29.37, 18.16 17 M88.91 77.78 C71.85 62.8, 54.06 48.39, 18.44 17.43 M92.95 76.08 C70.28 57.24, 44.67 36.39, 20.3 13.31 M94.23 78.25 C64.9 53.29, 36.92 27.72, 21.38 13.85 M101.2 77.07 C79.59 61.61, 61.58 40.38, 23.18 13.09 M101.13 77.93 C73.71 54.68, 47.47 32.05, 24.91 11.42 M104.92 78.84 C77.21 55.51, 48.63 29.39, 28.14 10.78 M105.81 78.3 C78.02 52.87, 49.72 29.46, 27.48 8.56 M110.47 79.07 C79.68 49.5, 49.21 24.66, 33.08 9.02 M111.6 77.16 C86.42 55.9, 59.34 32.74, 31.4 7.8 M117.97 77.69 C85.41 49.36, 52.42 22.54, 36.14 9.04 M116.91 76.45 C92.71 56.09, 69.45 35.37, 37.07 7.69 M120.83 77.14 C96.7 50.22, 67.32 30.58, 41.26 5.6 M121.29 76.05 C103.34 58.46, 83.67 42.12, 43.01 7.24 M125.01 72.75 C100.95 56.04, 79.72 31.8, 45.68 4.67 M127.13 73.68 C95.56 48.22, 67.22 21.85, 47.85 5.08 M129.71 71.11 C113.15 58.03, 92.75 38.8, 52.14 1.81 M130.94 72.69 C101.87 47.73, 75.26 22.73, 51.08 3.36 M134.7 70.98 C111.38 49.69, 90.9 32.95, 56.93 3.73 M135.08 70.57 C106.11 46.45, 76.1 22.17, 55.56 2.79 M140.02 69.71 C109.36 41.78, 80.55 14.59, 62.38 3.43 M140.03 68.79 C110.17 44.03, 81.52 19.71, 60.49 1.3 M144.98 67.49 C115.06 44.63, 86.94 17.48, 63.31 0.44 M143.87 68.61 C121.41 47.29, 96.9 27.46, 64.42 -0.23 M147.93 65.78 C125.18 47.44, 105.21 27.8, 70.13 -2.89 M148.55 66.95 C117.42 41.21, 87.88 15.22, 70.82 -2.16 M152.74 63.59 C131.46 47.01, 109.52 25.68, 74.5 -0.23 M152.85 66.23 C123.44 40.74, 95.26 14.35, 76.19 -1.49 M158.34 64.43 C142.19 52.2, 128.07 36.38, 82.59 -3.06 M156.46 62.77 C128.52 38.95, 100.4 14.02, 81.95 -2.08 M160.15 60.74 C146.03 49.84, 129.8 36.48, 86.64 -3.02 M159.88 60.76 C139.68 44.3, 119.09 26.13, 88.34 -1.5 M165.16 58.17 C139.82 37.4, 113.27 15.25, 94.9 -3.45 M163.99 58 C143.97 41.69, 122.68 24.32, 92.97 -1.17 M165.87 55.91 C150.58 41.15, 130.12 24.03, 99.42 -2.56 M166.55 55.78 C146.91 38.5, 128.31 22.05, 101.09 0.09 M170.07 54.37 C146.45 34.16, 125.74 14.67, 106.49 0.39 M170.4 54.02 C149.83 36.12, 128.09 16.64, 108.51 -0.65 M171.57 48.23 C150.71 33.24, 132.1 17.9, 116.23 1.34 M170.73 49.81 C154.81 34.44, 137.07 19.37, 115.68 1.26 M174.72 47.97 C162.42 36.62, 153.9 27.72, 124.01 3.79 M174.13 46.49 C156.75 31.53, 138.88 16.91, 123.65 1.96 M173.64 42.34 C159.7 30.31, 145.89 16.9, 131.5 3.1 M174.26 41.59 C162.18 30.86, 151.42 20.54, 131.58 4.88 M176.02 39.29 C164.7 28.27, 156.72 21.08, 136.87 3.55 M176.17 37.26 C163.69 25.87, 149.97 16.38, 137.49 5.31 M177.78 34.99 C171.29 28.04, 164.13 22.61, 152.42 11.82 M177.52 34.77 C168.36 25.9, 160.31 18.67, 152.32 13.33" stroke="#40c057" stroke-width="0.5" fill="none"></path><path d="M62.02 1.84 C73.2 -0.49, 87.95 -0.93, 100.51 -0.27 C113.07 0.38, 126.79 2.46, 137.38 5.75 C147.97 9.04, 157.65 14.51, 164.04 19.48 C170.43 24.45, 174.72 29.7, 175.7 35.57 C176.68 41.44, 174.44 49.16, 169.92 54.7 C165.41 60.23, 157.72 64.87, 148.61 68.79 C139.5 72.7, 127.43 76.52, 115.28 78.17 C103.13 79.82, 88.24 79.63, 75.71 78.69 C63.19 77.74, 50.56 75.5, 40.14 72.51 C29.72 69.52, 19.89 65.55, 13.21 60.74 C6.53 55.93, 1.13 49.33, 0.05 43.65 C-1.03 37.96, 2.19 32.23, 6.71 26.65 C11.23 21.07, 16.75 14.53, 27.19 10.16 C37.62 5.79, 60.86 1.93, 69.32 0.41 C77.79 -1.11, 77.62 0.46, 77.98 1.04 M95.46 -0.76 C107.37 -0.83, 120.41 3.27, 131.51 6.29 C142.62 9.3, 154.8 12.61, 162.09 17.32 C169.38 22.03, 173.44 28.95, 175.25 34.55 C177.07 40.14, 176.95 45.32, 172.98 50.87 C169.02 56.42, 160.34 63.39, 151.46 67.83 C142.58 72.27, 131.35 75.42, 119.69 77.52 C108.03 79.62, 94.12 81.16, 81.49 80.44 C68.86 79.71, 55.25 76.12, 43.93 73.15 C32.61 70.18, 20.61 67.44, 13.59 62.62 C6.57 57.8, 3.52 50.07, 1.83 44.23 C0.14 38.39, -0.23 33.11, 3.43 27.59 C7.09 22.07, 15.06 15.46, 23.79 11.12 C32.53 6.78, 43.72 3.3, 55.82 1.57 C67.93 -0.16, 89.72 1.06, 96.45 0.73 C103.18 0.41, 96.56 -1.09, 96.2 -0.36" stroke="#000000" stroke-width="1" fill="none"></path></g><g transform="translate(1473.8928571428569 258.73412698412676) rotate(0 83 23)"><text x="83" y="33" font-family="Virgil, Segoe UI Emoji" font-size="36px" fill="#000000" text-anchor="middle" style="white-space: pre;" direction="ltr">Magic</text></g><g stroke-linecap="round"><g transform="translate(833.7857142857138 275.21825396825125) rotate(0 30.83914406415579 1.1960097491713668)"><path d="M0.51 0.42 C10.44 0.64, 50.1 1.13, 60.15 1.17 M-0.68 -0.41 C9.56 0.05, 52.26 2.44, 62.36 2.8" stroke="#000000" stroke-width="2" fill="none"></path></g><g transform="translate(833.7857142857138 275.21825396825125) rotate(0 30.83914406415579 1.1960097491713668)"><path d="M34.42 10.12 C44.02 8.04, 53.1 4.31, 63.94 3.71 M34.03 11.67 C43.05 8.42, 52.68 5.41, 62.47 1.83" stroke="#000000" stroke-width="2" fill="none"></path></g><g transform="translate(833.7857142857138 275.21825396825125) rotate(0 30.83914406415579 1.1960097491713668)"><path d="M35.39 -10.38 C44.62 -5.3, 53.36 -1.88, 63.94 3.71 M35 -8.83 C43.77 -5.61, 53.1 -2.16, 62.47 1.83" stroke="#000000" stroke-width="2" fill="none"></path></g></g><g stroke-linecap="round"><g transform="translate(272.2115367235683 274.86009880565825) rotate(0 23.440141995878093 -0.24005067710095318)"><path d="M0.32 -0.98 C8.36 -1.4, 40.04 -1.51, 47.85 -1.6 M-0.97 1.12 C6.94 0.73, 38.4 -0.33, 46.84 -0.64" stroke="#000000" stroke-width="2" fill="none"></path></g><g transform="translate(272.2115367235683 274.86009880565825) rotate(0 23.440141995878093 -0.24005067710095318)"><path d="M22.97 8.16 C28.62 4.6, 34.7 2.08, 47.87 -1.11 M25.2 8.93 C28.67 6.8, 32.84 4.15, 45.94 -0.83" stroke="#000000" stroke-width="2" fill="none"></path></g><g transform="translate(272.2115367235683 274.86009880565825) rotate(0 23.440141995878093 -0.24005067710095318)"><path d="M22.4 -8.24 C28.32 -7.44, 34.55 -5.61, 47.87 -1.11 M24.63 -7.46 C28.17 -6.27, 32.46 -5.6, 45.94 -0.83" stroke="#000000" stroke-width="2" fill="none"></path></g></g></svg>