<svg version="1.1" xmlns="http://www.w3.org/2000/svg" viewBox="0 0 1354.892857142857 439.99999999999955" width="2709.785714285714" height="879.9999999999991">
  <!-- svg-source:excalidraw -->
  
  <defs>
    <style>
      @font-face {
        font-family: "Virgil";
        src: url("https://excalidraw.com/Virgil.woff2");
      }
      @font-face {
        font-family: "Cascadia";
        src: url("https://excalidraw.com/Cascadia.woff2");
      }
    </style>
  </defs>
  <g stroke-linecap="round" transform="translate(332.31746031746025 213.65079365079328) rotate(0 90.5 58.5)"><path d="M0 0 C0 0, 0 0, 0 0 M0 0 C0 0, 0 0, 0 0 M-0.1 5.97 C0.34 5.17, 1.47 4.32, 5.06 0.32 M-0.48 6.58 C1.34 4.26, 2.86 2.47, 4.62 0.15 M0.65 12.52 C3.04 10.27, 6.36 4.97, 11.39 1.16 M0.1 12.42 C3.33 7.72, 5.91 5.66, 11.24 -0.41 M-1.01 17.3 C4.11 13.86, 8.51 8.96, 15.99 -1.08 M-0.53 18.86 C3.52 12.53, 8.21 7.81, 15.94 1.31 M0.98 23.1 C6.05 19.28, 11.92 9.47, 22.14 -0.59 M-0.05 24.86 C8.74 14.67, 16.45 7.15, 20.29 0.04 M-1.35 29.06 C8.2 19.81, 20.65 7.58, 24.43 -0.09 M0.1 29.65 C8.32 22.51, 16.19 14.13, 26.49 1.08 M-0.89 35.16 C7.41 28.09, 13.75 20.71, 30.2 0.6 M0.58 37.73 C7.06 27.91, 14.18 19.37, 32.86 -1.05 M-0.22 43.59 C9.05 30.09, 22.96 16.21, 35.4 1.91 M-0.32 41.78 C12.37 28.1, 22.53 16.08, 36.18 -0.15 M-0.61 48.03 C13.06 32.95, 28.99 14.71, 42.93 1.48 M0.79 49.34 C9.01 38.63, 16.19 28.51, 42.48 0.06 M-0.45 55.34 C11.07 40.12, 22.63 26.86, 46.31 -0.84 M0.56 54.1 C17.09 33.68, 36.38 12.13, 47.25 0.57 M0.57 62.66 C12.77 46.69, 21.02 36.67, 51.99 -1.99 M-0.87 60.39 C21.1 36.72, 41.41 12.58, 52.25 -0.54 M-1.03 67.03 C12.82 54.41, 24.49 41.86, 59.07 1.34 M0.21 66.43 C17.67 46.73, 35.1 24.86, 57.68 0.46 M-1.42 74.76 C24.1 47.1, 44.97 19.35, 65.55 1.66 M0.6 73.08 C21.96 46.67, 45.07 20.76, 63.02 -0.54 M1.52 78.61 C22.49 54.63, 41.45 32.67, 68.1 1.69 M-0.22 78.61 C25.49 50.5, 49.68 21.97, 69.2 0.97 M1.82 83.55 C29.05 50.21, 54.62 17.89, 76.28 -0.63 M-0.08 85.89 C17.97 64.56, 37.45 42.44, 75.4 0.66 M1.19 91.79 C23.65 67.55, 46.76 38.92, 80.31 0.9 M0.22 90.96 C18.48 70.93, 35.64 50.97, 79.28 -0.18 M-1.44 96.5 C26.35 67.25, 53.07 35.49, 85.33 1.63 M-1.08 98.26 C22.28 70.48, 45.05 44.15, 85.74 -0.12 M1.16 103.04 C20.79 79.93, 44.48 55.08, 91.12 -0.81 M0.9 103.33 C35.36 63.42, 69.88 23.15, 89.16 0.94 M-0.48 110.3 C32.67 75.66, 61.87 38.59, 94.37 -1.62 M-0.85 109.64 C24.3 82.66, 46.63 56.78, 96.16 0.21 M1.09 116.32 C24.43 87.78, 46.34 63.01, 100.43 0.26 M0.91 115.79 C22.24 90.35, 42.09 67.85, 99.82 0.56 M4.58 120.4 C40.56 72.41, 82.09 27.97, 105.56 -0.91 M2.53 118.99 C23.77 92.56, 47.51 67.74, 106.5 -1.01 M8.36 118.78 C42.38 81.55, 75.32 45.29, 112.67 -0.66 M8.33 118.37 C30.36 93.66, 55.26 65.9, 111.99 -0.87 M13.41 117.97 C39.59 91.88, 60.5 65.25, 116.92 1.47 M14.07 119.71 C38.08 87.42, 66.04 56.39, 115.71 0.54 M19.69 117.92 C51.65 81.04, 85.82 42.96, 120.75 -0.87 M17.82 120.19 C44.64 90.5, 67.8 61.83, 122.16 -0.64 M25.05 120.79 C62.42 75.29, 100.2 32.84, 124.92 0.47 M23.37 118.58 C51.96 86.99, 79 55.68, 126.47 1.19 M28.98 119.97 C54.38 90.53, 79.28 60.9, 134.08 1.84 M28.47 119.84 C55.9 89.78, 80.67 60.18, 132.54 0.21 M34.9 117.06 C66.31 83.82, 91.97 50.43, 136.56 0.81 M33.65 119.54 C72.83 75.8, 108.74 33.39, 137.22 -0.23 M37.88 118.89 C65.59 90.16, 91.41 59.88, 142.58 1.18 M40.38 118.42 C68.93 86.22, 98.73 51.09, 143.12 0.87 M46.89 118.5 C69.72 88.36, 95.82 63.28, 148.02 1.96 M45.89 118.81 C73.33 84.77, 102.32 51.94, 148.82 0.63 M48.56 120.14 C78.76 84.87, 109.06 52.28, 152.66 -1.63 M49.4 119.25 C72.8 93.43, 94.99 68.43, 153.64 0.81 M56.78 121.06 C81.98 88.83, 107.7 56.14, 159.94 -1.14 M54.18 119.6 C76.47 94.98, 97.1 69.41, 157.87 0.34 M59.69 120.69 C89.76 86.07, 118.87 51.92, 163.23 -1.89 M61.14 119.91 C93.57 80.5, 125.47 44.92, 163.56 -0.26 M66.78 117.96 C106.75 73.85, 146.81 29.96, 169.51 1.99 M66.3 119.11 C98.46 80.8, 133.89 40.57, 168.73 -0.28 M70.42 120.99 C106.42 78.23, 141.59 36.85, 173.71 0.61 M70.95 118.24 C100.46 84.98, 131.79 52.26, 174.13 -0.39 M77.66 120.15 C115.1 76.68, 152.91 32.63, 178.38 1.3 M75.83 119.03 C104.82 86.61, 131.69 54.2, 179.51 -0.12 M80.43 121 C114.47 83.11, 147.9 45.91, 182.04 3.86 M81.94 118.32 C109.91 88.23, 138.25 53.94, 184.36 2.89 M87.33 121.35 C124.51 78.01, 160.11 34.15, 181.5 6.56 M86.75 118.6 C114.36 88.27, 141.42 58.49, 182.83 8.43 M93.87 120.19 C120.01 90.27, 142.07 62.04, 182.08 14.6 M92.97 118.48 C113.53 93.57, 135.45 69.17, 184.41 13.59 M98.2 118.77 C127.46 83.87, 158.74 47.4, 185.47 22.2 M96.79 119.25 C114.76 97.41, 134.16 77.4, 184.25 20.43 M103.41 117.52 C124.45 95.27, 141.52 75.93, 182.62 26.5 M102.63 119.31 C132.54 87.14, 161.12 54.87, 182.63 27.36 M109.2 121.11 C124.88 99.78, 143.99 80.32, 184.74 32.9 M107.42 118.7 C136.89 85.71, 164.67 52.91, 184.41 31.95 M114.21 119.44 C138.94 86.72, 170.27 53.24, 182.37 40.26 M113.3 119.63 C128.53 100.62, 145.68 80.67, 182.58 39.65 M119.73 120.6 C136.96 101.95, 153.21 80.6, 182.96 42.63 M119.89 118.91 C137.47 96.27, 157.9 73.65, 184.39 45.06 M123.94 119.92 C142.17 95.76, 162.13 74.75, 182.61 50.33 M125.06 118.52 C143.01 98.27, 160.16 78.37, 183.57 50.41 M129.7 120.94 C145.09 101.59, 161.62 83.55, 183.66 55.6 M129.17 120.08 C146.23 99.07, 162.67 78.54, 182.42 56.84 M134.76 120.42 C152.38 97.18, 170.16 76.77, 185.74 61.93 M135.79 119.33 C147.05 105.64, 157.51 93.07, 183.34 63.11 M139.54 117.35 C149.7 109.54, 156.9 97.91, 184.79 69.27 M139.99 118.67 C147.86 108.66, 157.68 100.03, 184.39 70.38 M145.34 117.9 C154.17 108.81, 167.45 94.83, 182.67 75.78 M145.07 119.63 C157.03 106.89, 168.11 92.6, 183.36 75.45 M150.15 120.52 C163.58 104.59, 176.32 91.31, 182.88 82.85 M150.83 119.38 C162.55 106.08, 172.69 93.01, 184.02 81.26 M154.84 116.83 C162.27 110.56, 172.45 99.16, 184.17 88.83 M156.27 119.25 C162.17 112.57, 167.31 105.27, 184.22 88.14 M162.95 120.68 C165.04 114.88, 170.74 106.67, 183.58 94.3 M161.92 119.18 C170.51 110.02, 177.8 98.82, 183.41 92.56 M166.27 117.91 C172.67 110.78, 177.88 106.26, 183.46 99.3 M165.84 119.03 C170.62 112.93, 176.86 108.08, 184.19 99.89 M171.88 119.49 C176.11 115.93, 178.51 112.63, 184.94 105.12 M171.32 119.25 C176.47 113.9, 180.56 109.41, 184.35 105.6 M177.08 119.28 C178.64 118.38, 181.01 116.55, 183.96 111.52 M177.5 119.63 C178.71 117.02, 181.43 114.42, 183.49 111.9 M0.18 117.16 C0.18 117.16, 0.18 117.16, 0.18 117.16 M0.18 117.16 C0.18 117.16, 0.18 117.16, 0.18 117.16 M5.69 117.03 C4.68 115.51, 2.97 114.56, -0.27 111.16 M6.16 116.54 C4.42 115.47, 3.01 114.29, -0.03 111.88 M11.27 115.94 C9.2 114.69, 5.06 111.3, 1.25 105.23 M12.17 116.51 C8.73 113.16, 3.26 109.66, -0.44 106.49 M18.47 117.3 C10.96 112.72, 8.61 109.03, -1.35 102.17 M18.27 117 C12.52 111.75, 5.44 107.27, -1.15 100.66 M26.14 115.78 C15.22 108.52, 10.52 104.83, -0.84 94.78 M24.97 116.98 C18.92 112, 14.35 106.85, -0.28 96.62 M28.94 116.74 C24.42 109.71, 13.91 102.59, -0.55 89.72 M30.05 117.37 C18.78 106.85, 7.76 97.44, -0.67 90.03 M38.01 116.42 C23.81 106.44, 10.76 93.96, -0.77 84.82 M35.43 117.2 C27.01 108.11, 16.49 101.47, 0.56 84.33 M43.82 117.89 C25.04 104.83, 11.24 90.65, 0.46 78.5 M42.64 117.3 C34.02 109.2, 24.94 101.24, -0.58 79.99 M47.81 117.47 C28.37 99.4, 11.55 84.9, -1.6 74.01 M49.04 118.15 C37.38 107.33, 27.39 97.18, 0.54 74.21 M53.76 117.71 C41.04 104.46, 30.48 93.26, 0.59 69.2 M55.63 116.38 C33.97 97.77, 13.3 79.58, 0.62 68.24 M62.95 116.33 C42.8 99.35, 24.06 83.98, 1.84 64.79 M60.76 117.23 C41.09 100.62, 21.64 82.4, 0.02 63.08 M65.94 116.66 C46.8 98.86, 25.44 81.68, 0 58.71 M66.38 116.44 C44.32 97.35, 21.44 76.02, 0.91 59.41 M73.58 115.86 C53.94 99.29, 37.34 86.03, -0.8 55.13 M73.58 116.05 C46.24 93.16, 20.22 70.84, -0.91 54.03 M80.76 115.35 C55.42 94.98, 33.02 74.92, 1.11 49.4 M78.76 118.22 C59.02 100.7, 39.48 82.81, -0.25 48.38 M85.64 117.77 C69.72 104.22, 52 86.98, 0.66 42.49 M85.47 117.81 C67.25 102.81, 49.18 86.8, -0.37 42.39 M92.9 115.94 C72.11 98.45, 49.21 79.88, 1.08 37.16 M92.1 116.74 C67.29 95.42, 43.61 74.79, 0.63 38.27 M97.52 115.28 C68.86 91.39, 40.31 65.85, 0.87 31.83 M98.16 115.97 C67.32 91.48, 35.94 64.18, -0.78 31.74 M103.76 118.04 C70.94 86.92, 37.47 56.91, 0.82 28.7 M103.77 117.23 C66.86 83.24, 29.96 51.15, 0.03 27.79 M108.9 117.74 C85.91 95.91, 62.19 74.13, -1 19.61 M109.9 116.91 C68.65 81.24, 24.7 44.74, -0.76 21.91 M114.5 116.11 C71.59 79.83, 25.47 37.67, 1.76 18.21 M116.13 116.53 C73.97 82.52, 32.46 46.18, 0.18 15.89 M121.68 116.07 C86.55 84.37, 53.22 54.6, -1.28 9.79 M122.4 117.25 C82.44 80.7, 40.95 46.6, 0.78 10.99 M126.81 116.12 C79.57 72.09, 26.08 30.33, 1.8 7.43 M127.27 117.72 C93.4 86.76, 58.11 56.4, 1.07 5.78 M132.54 118.62 C85.2 75.92, 40.32 35.61, 0.18 1.83 M133.4 117.87 C90.97 79.67, 50.05 43.43, 0.69 -0.69 M139.58 116.18 C102.76 80.37, 59.78 45.39, 1.62 -4.49 M139.81 116.79 C88.05 72.8, 35.62 27.52, 2.68 -3.12 M145.88 116.61 C112.96 88.83, 83.78 63.64, 9.11 -1.42 M145.63 117.22 C107.85 82.05, 68.09 47.61, 8.65 -2.68 M153.98 115.93 C95.95 70.2, 43.18 22.02, 15.68 -2.25 M151.85 118 C104.8 75.21, 56.87 34.05, 14.05 -2.53 M158.63 116.75 C110.64 75.13, 61.51 33.9, 20.64 -2.77 M157.57 116.01 C122.1 86.31, 87.09 57.57, 20.97 -3.4 M165.92 116.5 C139.56 93.21, 108.59 69.74, 25.59 -2.19 M165.5 117.85 C125.3 81.03, 82.31 46.91, 26.59 -3.03 M172.94 117.9 C129.2 82.75, 90.91 47.95, 33.41 -2.88 M170.2 117.85 C136.18 88.67, 104.2 59.46, 32.73 -2.38 M175.07 117.85 C119.57 67.93, 68.11 19.82, 40.01 -3.94 M175.85 116.42 C128.58 74.18, 79.47 31.62, 40.04 -1.76 M179.72 115.15 C149.56 91.14, 118.45 64.06, 45.58 -4.27 M182.49 115.32 C142.95 82.8, 103.37 49.54, 45.79 -2.3 M182.8 109.54 C153.45 85.62, 126.56 59.69, 49.85 -1.59 M180.98 110.14 C143.8 79.93, 108.86 47.03, 51.62 -3.56 M181.07 106.51 C146.91 73.41, 113.81 46.45, 55.82 -2 M181.86 104.67 C148.73 77.05, 115.49 48.87, 57.76 -3.57 M183.29 99.83 C145.76 70.37, 110.99 37.43, 64.78 -3.78 M181 100.89 C150.31 74.09, 120.64 47.89, 62.56 -3.09 M182.48 93.85 C142.59 60.92, 100.62 25.79, 68.05 -2.94 M182.36 94.79 C152.15 69.31, 122.23 43.15, 70.74 -1.71 M182.98 87.78 C156.98 69.26, 130.47 44.72, 74.22 -4.29 M181.54 90.11 C151.44 62.41, 119.87 36.54, 75.11 -3.37 M183.37 85.4 C146.73 54.68, 111.81 22.8, 80.42 -4.45 M181.22 83.63 C158.85 64.51, 138.36 46.1, 82.34 -1.93 M183.53 79.35 C145.28 46.3, 109.36 15.53, 88.07 -1.43 M182.72 78.87 C160.54 60.36, 140.4 43.36, 87.22 -3.21 M180.39 73.51 C153.26 46.57, 123.68 23.33, 93.85 -2.41 M182.18 74.05 C158.19 53.04, 135.22 32.74, 94.16 -3.27 M183.12 68 C157.33 45.85, 130.61 23.08, 101.5 -1.31 M182.38 68.51 C155.86 47.09, 132.21 25.23, 99.4 -2.49 M180.45 64.1 C156.86 41.91, 134.63 23.29, 105.01 -1.86 M182.46 63.21 C153.75 39.25, 124.92 13.93, 106.81 -3.13 M180.39 58.69 C159.08 39.07, 135.54 16.48, 111.92 -4.55 M182.14 58.61 C167.23 43.67, 152.91 30.23, 111.61 -2.82 M181.23 52.52 C159.81 35.73, 141.18 14.56, 119.05 -4.33 M181.29 52.46 C159.5 33.61, 137.32 14.79, 118.64 -2.68 M182.53 47.89 C160.83 29.29, 142.82 12.67, 123.5 -2.27 M181.35 47.01 C167.23 32.69, 150.2 19.84, 123.84 -3.58 M180.14 40.99 C164.22 25.49, 146.05 9.42, 130.4 -3.21 M182.9 42.77 C162.51 24.37, 141.85 6.8, 130.51 -2.19 M181.19 35.56 C172.48 25.98, 162.6 19.18, 136.16 -2.77 M181.11 35.78 C172.99 27.51, 163.05 19.81, 137.07 -2.56 M183.09 31.21 C171.19 19.38, 158.4 10.49, 143.72 -2.36 M181.28 31.33 C167.13 19.74, 151.94 6.91, 142.78 -3.63 M180.53 25.15 C174.56 18.88, 165.09 11.61, 150.3 -2.83 M182.29 25.25 C169.18 15.21, 156.35 4.3, 148.02 -3.31 M180.49 20.4 C174.9 16.49, 172.04 10.85, 154.41 -4.15 M182.15 21.61 C172.84 12.19, 163.4 5.19, 155.79 -2.76 M181.22 15.62 C174.93 6.98, 164.85 1.65, 159.59 -3.08 M181.47 16.01 C175.52 10.03, 167.96 2.18, 161.94 -2.47 M183.26 9.28 C176.9 7.54, 171.13 3.4, 165.65 -4.13 M181 9.31 C179.26 7.03, 175.91 5.63, 166.91 -3.76 M180.94 5.03 C180.67 1.74, 177.05 0.53, 172.54 -2.66 M181.27 4.73 C178.14 1.5, 175.42 -0.22, 173.42 -2.52" stroke="#40c057" stroke-width="0.5" fill="none"></path><path d="M-1.72 -0.22 C41.39 -3.15, 87.91 -2.06, 179.08 -1.22 M0.81 0.93 C59.01 -1.25, 120.37 -2.08, 181.81 -0.58 M182.24 0.14 C178.4 30.29, 180.85 58.47, 180.45 117.07 M181.54 -0.27 C181.48 32.6, 179.9 65.47, 180.4 116.77 M180.09 117.94 C118.5 116.77, 57.44 113.9, -0.53 115.85 M180.63 116.64 C124.28 116.26, 67.15 116.49, 0.64 116.39 M-1.67 116.35 C1 82.66, 1.6 53.99, 1.17 0.29 M0.81 117.92 C0.12 90.37, 0.1 64.98, -0.24 -0.19" stroke="#000000" stroke-width="1" fill="none"></path></g><g transform="translate(337.31746031746025 249.15079365079328) rotate(0 85.5 23)"><text x="85.5" y="33" font-family="Virgil, Segoe UI Emoji" font-size="36px" fill="#000000" text-anchor="middle" style="white-space: pre;" direction="ltr">Compiler</text></g><g stroke-linecap="round" transform="translate(863.726190476191 213.65079365079328) rotate(0 106 58.5)"><path d="M-0.67 -0.27 C53.52 -0.27, 112.01 -0.97, 211.84 -0.55 M-0.17 -0.11 C70.62 1.36, 141.77 1.11, 211.61 0.25 M210.89 -0.75 C213.59 39.54, 211.3 76.23, 213.13 118.66 M212.16 -0.87 C212.12 35.22, 211.34 70.81, 211.12 117.13 M212.48 115.93 C157.98 116.76, 101.93 115.76, -0.3 118.43 M211.93 116.52 C160.02 117.88, 106.68 116.93, 0.8 116.89 M1.31 118.22 C-0.81 75.53, 0.61 32.28, 1.49 0.72 M-0.86 116.89 C-1.93 87.38, -0.18 56.94, -0.22 0.04" stroke="#000000" stroke-width="1" fill="none"></path></g><g transform="translate(868.726190476191 226.15079365079328) rotate(0 101 46)"><text x="101" y="33" font-family="Virgil, Segoe UI Emoji" font-size="36px" fill="#000000" text-anchor="middle" style="white-space: pre;" direction="ltr">Evaluation</text><text x="101" y="79" font-family="Virgil, Segoe UI Emoji" font-size="36px" fill="#000000" text-anchor="middle" style="white-space: pre;" direction="ltr">Loop</text></g><g stroke-linecap="round"><g transform="translate(1095.6710133333338 282.91601178468363) rotate(0 19.877688726299766 0.443915746704306)"><path d="M1.08 0.64 C7.8 0.7, 33.23 1.23, 39.56 1.21 M0.19 -0.06 C6.87 -0.39, 32.53 -0.06, 38.89 -0.32" stroke="#000000" stroke-width="2" fill="none"></path></g><g transform="translate(1095.6710133333338 282.91601178468363) rotate(0 19.877688726299766 0.443915746704306)"><path d="M21.66 7.4 C26.73 4.86, 29.9 2.61, 38.01 1.35 M21.51 5.66 C25.39 4.14, 32.06 2.86, 39.67 -1.2" stroke="#000000" stroke-width="2" fill="none"></path></g><g transform="translate(1095.6710133333338 282.91601178468363) rotate(0 19.877688726299766 0.443915746704306)"><path d="M21.52 -5.96 C26.72 -5.35, 29.92 -4.45, 38.01 1.35 M21.37 -7.7 C25.26 -5.07, 31.96 -2.21, 39.67 -1.2" stroke="#000000" stroke-width="2" fill="none"></path></g></g><g stroke-linecap="round" transform="translate(291.9603174603169 10) rotate(0 404.8809523809525 209.99999999999977)"><path d="M-0.29 -0.15 C193.49 -2.22, 385.66 -2.51, 810.05 0.51 M809.01 0.52 C811.04 139.29, 811 277.78, 810.72 419.95 M810.16 420.15 C580.18 420.47, 349.55 419.33, -0.48 420.23 M0.72 419.39 C2.64 304.2, 2.61 187.12, 0.28 -1.02" stroke="#000000" stroke-width="1.5" fill="none" stroke-dasharray="8 9"></path></g><g transform="translate(448.3412698412694 44.92857142857156) rotate(0 248.5000000000001 69)"><text x="248.5" y="33" font-family="Virgil, Segoe UI Emoji" font-size="36px" fill="#000000" text-anchor="middle" style="white-space: pre;" direction="ltr">Part 2</text><text x="248.5" y="79" font-family="Virgil, Segoe UI Emoji" font-size="36px" fill="#000000" text-anchor="middle" style="white-space: pre;" direction="ltr">From Abstract Syntax Tree</text><text x="248.5" y="125" font-family="Virgil, Segoe UI Emoji" font-size="36px" fill="#000000" text-anchor="middle" style="white-space: pre;" direction="ltr">To Magic (Execution)</text></g><g stroke-linecap="round" transform="translate(1143.892857142857 225.23412698412676) rotate(0 100.5 56.5)"><path d="M102.21 0.87 C115.14 0.16, 131.21 1.81, 143.44 5.09 C155.68 8.36, 166.89 14.83, 175.62 20.52 C184.34 26.22, 191.79 32.07, 195.8 39.27 C199.82 46.46, 201.22 55.81, 199.72 63.7 C198.23 71.58, 193.96 79.98, 186.83 86.59 C179.69 93.2, 168.01 99.09, 156.9 103.35 C145.79 107.6, 133.5 110.7, 120.17 112.11 C106.84 113.52, 90.48 113.51, 76.93 111.81 C63.38 110.12, 49.63 106.57, 38.88 101.93 C28.13 97.3, 18.9 90.86, 12.42 84 C5.93 77.13, 1.09 68.56, -0.04 60.75 C-1.16 52.94, 1.07 44.41, 5.67 37.15 C10.26 29.88, 18.13 22.59, 27.55 17.17 C36.96 11.76, 46.96 7.32, 62.15 4.66 C77.33 1.99, 106.41 1.05, 118.64 1.17 C130.88 1.28, 135.78 4.4, 135.53 5.35 M74.19 2.97 C86.28 0.07, 101.99 0.38, 115.31 1.23 C128.63 2.07, 142.82 3.83, 154.11 8.06 C165.39 12.29, 175.55 20.1, 183.02 26.6 C190.48 33.1, 196.54 39.99, 198.91 47.07 C201.28 54.14, 200.27 61.75, 197.25 69.05 C194.23 76.36, 189.2 84.88, 180.8 90.89 C172.39 96.91, 159.15 101.63, 146.8 105.13 C134.45 108.63, 120.1 111.4, 106.72 111.9 C93.33 112.4, 79.17 110.53, 66.47 108.12 C53.77 105.71, 40.63 102.31, 30.53 97.43 C20.43 92.55, 10.93 86.23, 5.89 78.84 C0.85 71.46, -0.69 60.94, 0.29 53.12 C1.27 45.3, 5.7 38.47, 11.77 31.94 C17.83 25.41, 26.59 18.8, 36.68 13.94 C46.77 9.09, 66.3 4.46, 72.29 2.82 C78.28 1.18, 71.93 3.17, 72.62 4.09" stroke="#000000" stroke-width="1" fill="none"></path></g><g transform="translate(1148.892857142857 258.73412698412676) rotate(0 95.5 23)"><text x="95.5" y="33" font-family="Virgil, Segoe UI Emoji" font-size="36px" fill="#000000" text-anchor="middle" style="white-space: pre;" direction="ltr">Magic</text></g><g stroke-linecap="round" transform="translate(10 214.84523809523807) rotate(0 124 56)"><path d="M11.29 32.34 C11.29 32.34, 11.29 32.34, 11.29 32.34 M11.29 32.34 C11.29 32.34, 11.29 32.34, 11.29 32.34 M1.84 46.91 C9.87 42.3, 14.71 34.41, 24.29 25.92 M3.91 47.05 C8.87 39.96, 14.85 33, 23.07 24.62 M0.21 54.34 C12.08 44.04, 22.21 34.34, 35.62 16.73 M1.2 55.25 C9.67 46.23, 18.89 34.79, 34.16 17.69 M4.29 58.73 C16.04 44.77, 30.44 29.72, 42.27 17.59 M3.7 59 C12.04 49.58, 18.38 41.36, 41.81 15.56 M5.78 65.28 C20.49 45.59, 37.56 27.55, 47.97 12.6 M3.42 63.75 C15.15 53.72, 26.47 40.71, 48.51 13.36 M6.55 68.6 C16.11 57.36, 28.42 42.94, 55.16 12.62 M6.88 69.31 C17.39 55.07, 29.1 41.59, 54.29 11.44 M7.82 72.81 C23.96 56.15, 41.04 37.99, 61.22 9.96 M8.74 73.39 C27.96 49.33, 50.36 24.79, 61.46 9.51 M9.69 75.49 C27.28 55.63, 46.58 33.56, 70.81 10.18 M9.93 77.08 C28.93 53.37, 47.87 31.45, 69.43 7.93 M12.9 77.91 C26.04 62.79, 45.09 42.93, 76.87 7.03 M11.79 80.62 C34.41 55.89, 55.23 32.23, 76.22 6.22 M16.48 79.84 C37.6 60.39, 57.55 36.52, 81.63 5.5 M16.32 81.63 C33.1 63.75, 47.99 43.7, 83.95 5.51 M20.09 85.03 C48.3 51.72, 72.07 22.28, 88.28 2.28 M18.96 84.15 C42.85 54.32, 69.67 25.65, 89.06 4.59 M23.65 85.15 C49.4 52.86, 76.33 22.31, 93.91 4.29 M22.73 86.07 C46.17 59.03, 70.97 30.25, 93.71 3.88 M26.34 89.14 C56.91 56.54, 84.48 20.07, 98.6 4.17 M25.76 87.94 C53.75 58.39, 81.13 24.73, 99.36 4.45 M29.67 92.37 C57.67 55.63, 87.28 22.15, 104.36 1 M28.83 91.71 C49.67 67.42, 68.43 45.19, 106.22 2.24 M31.06 94.45 C62.67 59.08, 93.54 24.87, 113.48 2.39 M33.43 93.96 C53.34 67.58, 76.48 41.15, 112.18 1.61 M35.56 96.2 C52.86 73.03, 71.66 50.16, 117.56 2.85 M36.05 96.41 C52.54 75.75, 72.07 54.16, 118.16 1.3 M38.16 96.67 C70.1 61.76, 102.61 23.64, 123.77 1.91 M38.93 98.41 C58.77 75.49, 77.87 54.01, 123.06 1.93 M44.8 100.61 C73.69 65.49, 99.38 35.27, 129.25 1.54 M43.58 97.97 C66.91 70.7, 90.3 42.71, 128.55 -0.99 M46.03 100.76 C70.92 74.69, 91.73 52.34, 134.78 0.95 M46.97 99.48 C80.7 59.78, 115.75 20.87, 135.27 1.22 M50.72 100.06 C83.77 65.24, 114.13 29.1, 139.71 0.8 M51.7 101.49 C78.98 67.79, 108.19 34.97, 140.27 0.09 M56.96 104.43 C90.9 65.3, 125.2 26.5, 145.71 0.23 M55.41 102.9 C89.31 65.55, 120.59 27.7, 143.2 2.58 M61.16 102.26 C82.13 82, 100.33 57.32, 149.68 3.33 M60.42 104.05 C84.44 78.34, 107.79 51.12, 147.84 3 M65.02 105.15 C96.1 68.09, 132.41 26.59, 152.19 3.43 M63.14 106.88 C97.76 68.39, 131.44 29.32, 152.92 2.83 M66.47 108.68 C85.96 86.78, 106.57 63.88, 159.72 4.08 M67.55 107.23 C87.33 82.88, 107.96 61.07, 158.91 3.18 M72.77 107.88 C92.18 88.05, 109.65 67.62, 165.05 3.28 M72.78 107.85 C96.13 82.66, 119.16 55.4, 162.94 4.55 M76.77 108.51 C109.58 70.51, 142.04 32.2, 166.25 6.27 M77.89 109.12 C110.8 69.67, 144.3 32.53, 168.22 5.09 M83.29 109.06 C116.8 71.96, 149.06 30.68, 173.63 6.24 M82.73 108.54 C108.14 78.75, 133.88 50.29, 171.55 4.82 M87.43 110.24 C114.58 78.56, 141.49 47.55, 178.18 4.61 M86.75 109.79 C111.6 81.81, 137.06 52.68, 176.23 7.44 M93.53 111.68 C112.22 88.79, 130.2 68.7, 181.1 8.77 M92.5 110.9 C122.17 73.89, 155.78 36.8, 180.11 7.49 M96.25 111.55 C115.85 87, 140.06 63.13, 184.26 10.06 M97.14 111.32 C129.86 73.75, 161.21 37.69, 184.52 7.94 M100.2 110.44 C134.34 71.14, 168.58 33.53, 187.13 10.83 M102.63 111.39 C137.25 70.17, 170.87 31.17, 189.73 10.63 M107.59 111.93 C134.59 80.5, 161.33 46.86, 194.42 12.34 M105.85 112.32 C127.29 86.84, 150.89 59.33, 193.08 11.79 M109.91 110.55 C144.91 74.58, 177.61 32.13, 197.18 14.37 M110.79 111.72 C141.64 79.58, 170.44 46.89, 198.57 13.06 M116.94 111.32 C140.88 81.52, 167.63 52.31, 199.72 15.9 M116.05 112.59 C133.32 91.82, 152.92 69.5, 202.29 15.71 M119.74 114.47 C141.88 89.98, 161.02 69.16, 206.61 15.87 M120.36 113.59 C151.41 78.52, 181.35 43.46, 205.92 16.88 M126.94 114.69 C155.06 78.63, 185.04 48.73, 211.74 16.7 M127.34 113.73 C153.92 81.62, 180.71 50.69, 210.28 16.64 M133.21 113.9 C160.91 80.26, 187.64 49.18, 213.25 17.03 M132.46 112.69 C152.57 88.62, 174.33 64.49, 212.8 18.17 M136.77 110.49 C161.95 85.34, 184.06 61.24, 215.91 21.21 M137.08 111.55 C161.19 84.37, 183.76 57.42, 218.33 20.8 M144.47 110.82 C165.26 87.83, 189.23 63.27, 221.44 25.32 M144.02 111.76 C162.31 88.84, 182.45 66.13, 220.01 23.51 M149.44 111.45 C169.43 92.89, 186.17 70.5, 224.81 24.38 M149.71 110.91 C167.57 89.64, 187.14 66.82, 224.06 25.65 M156.09 110.18 C172.84 93.8, 188.35 73.79, 226.66 28.69 M155.69 111.25 C182.89 78.24, 210.84 46.27, 226.7 28.73 M161.76 108.27 C177.93 92.74, 193.79 73.45, 230.85 29.44 M160.76 109.38 C186.21 80.52, 211.58 52.76, 230.2 29.64 M167.12 108.44 C188.32 86.64, 209.33 60.19, 235.57 32.1 M167.86 109.85 C191.29 82.86, 212.63 56.43, 234.48 31.4 M174.4 107.9 C192.81 84.96, 212.01 62.32, 236.27 33.58 M174.83 107.54 C187.53 92.85, 199.62 77.23, 236.56 35.97 M181.81 104.81 C194.03 88.02, 208.74 73, 238.68 36.77 M181.32 105.76 C191.6 90.98, 205.08 78.51, 240.06 38.13 M189.17 104.06 C202.05 88.49, 214.41 72.4, 241.81 39.77 M186.92 103.46 C208.81 79.65, 230.13 53.82, 242.7 40.35 M193.59 101.75 C212.17 84.68, 225.9 67.09, 243 43.42 M195.32 101.21 C208.88 84.28, 223.05 69.43, 243.88 43.74 M202.44 100.22 C210.36 87.43, 223.04 76.88, 245.45 50.24 M201.83 99.74 C217.35 82.1, 231.26 64.2, 246.66 48.52 M210.38 98.99 C223.34 79.14, 238.43 65.4, 248.04 52.25 M208.85 98.41 C222.98 82.97, 236.16 66.21, 248.14 53.32 M220.95 92.55 C225.16 81.95, 232.82 76.92, 248.24 59.19 M220 90.43 C229.43 79.44, 239.03 69.67, 246.81 58.91 M230.78 84.35 C234.13 81.73, 234.93 79.19, 237.48 76.78 M231.8 83.39 C234.44 81.11, 236.64 78.42, 237.97 76.39 M7.35 75.37 C7.35 75.37, 7.35 75.37, 7.35 75.37 M7.35 75.37 C7.35 75.37, 7.35 75.37, 7.35 75.37 M34.78 93.7 C28.07 87.33, 23.41 83.09, 5.13 69.36 M34.8 93.14 C25.23 85.32, 14.91 78.09, 3.86 68.49 M46.17 97.26 C37.16 88.28, 27.97 82.95, 2.71 58.38 M43.63 97.79 C29.19 83.03, 13.78 71.13, 2.62 60.97 M52.76 99.31 C35.05 80.99, 13.25 66.6, 1.64 54.81 M53.98 99.55 C42.54 88.54, 30.27 78.58, 1.42 54.75 M65.71 105.24 C51.32 93.95, 38.76 80.75, 1.62 52 M63.55 103.56 C48.52 92.06, 34.08 78.88, 2.41 50.25 M71.66 106.38 C49 87.31, 28.89 65.47, 6.05 47.58 M73.36 106.36 C49.15 86.36, 26.2 66.14, 3.86 47.1 M79.8 108.25 C57.85 86.9, 32.81 66.34, 6.66 41.05 M79.3 105.57 C61.97 92.19, 44.8 76.86, 7.13 43.2 M86.11 108.87 C69.75 93.88, 54.44 78.35, 9.46 38.09 M86.89 107.77 C60.88 85.81, 34.05 61.85, 9.23 38.57 M95.34 107.2 C75.14 92.49, 61.42 77.08, 11.73 33.62 M93.74 108.37 C67.87 85.21, 40.27 60.18, 10.25 35.89 M98.79 106.75 C71.76 85.54, 44.37 60.13, 11.04 30.79 M99.82 108.76 C75.1 86.52, 48.41 62.01, 12.9 30.99 M106.28 109.22 C86.67 89.98, 65.23 71.73, 15.75 29.25 M107.98 109.45 C78.78 83.27, 47.04 55.75, 15.51 28.61 M114.64 109.56 C82.55 82.59, 49.5 53.65, 17.48 28.26 M114.91 110.6 C80.8 80.43, 44.37 48.8, 18.99 27.06 M123.01 108.93 C79.08 76.63, 40.34 43.72, 20.63 25.62 M120.89 110.54 C95.15 87.87, 67.05 65.46, 22.88 24.56 M125.79 109.72 C89.39 78.2, 55.97 49.99, 25.91 23.35 M125.35 110.21 C99.2 85.76, 72.01 62.88, 25.33 22.49 M132.7 109.15 C107.68 88.24, 82.56 65.85, 28.03 19.32 M131.3 108.35 C110.14 91.26, 89.48 72.91, 29.34 20.53 M135.68 109.06 C97.84 74.94, 59.98 41.4, 33.76 19.66 M136.89 108.68 C97.49 73.66, 55.8 40.32, 33.28 18.52 M141.77 110.14 C115.21 81.92, 84.13 58.17, 35.36 17.72 M142.59 107.74 C118.73 88.96, 95.65 68.06, 36.87 14.93 M149.22 106.3 C124.62 86.8, 100.84 68.36, 40.68 14.36 M148.01 108.71 C115.24 78.9, 82.68 50.68, 39.69 12.68 M152.63 107.69 C131.76 89.97, 109.62 69.84, 44.3 11.01 M153.36 107.9 C127.45 84.27, 102.54 62.12, 44.96 11.67 M159.07 107 C127.58 80.25, 99.21 51.85, 48.11 12.68 M158.2 106.61 C132.08 80.21, 103.72 55.63, 50.45 11.31 M165.71 106.43 C130.26 79.4, 96.54 46.9, 54 10.25 M165.47 107.56 C124.86 73.33, 84.16 37.43, 53.83 10.32 M169.41 106.83 C135.96 75.33, 98.86 45.85, 58.44 8.79 M171.69 105.55 C138.26 80.12, 108.6 52.84, 59.62 8.49 M174.14 107.18 C149.51 85.84, 126.27 60.82, 64.88 6.64 M176.76 104.42 C135.22 67.72, 93.3 31.21, 64.21 7.32 M182.12 103.06 C153.46 80.1, 123.18 55.47, 67.08 4.33 M179.68 103.04 C152.2 80.88, 124.08 55.59, 67.58 6.43 M184.11 102.23 C143.38 65.87, 99.22 27.55, 72.34 5.59 M185.34 102.39 C158.49 79.83, 131.78 56.25, 73.08 4.07 M191.9 99.7 C166.2 79.96, 143.79 59.79, 77.97 4.4 M189.44 102.09 C161.34 77.16, 132.7 51.9, 78.42 3.63 M193.54 98.69 C152.75 64.1, 108.52 24.48, 83.31 2.61 M194.32 98.94 C151.08 61.5, 106.98 24.15, 82.18 2.84 M200.64 99.63 C171.04 72.54, 138.87 45.51, 86 0.31 M198.68 99.33 C174.58 77.78, 149.06 55.87, 86.51 1.53 M204.83 99.18 C159.69 61.38, 115.25 20.57, 91.7 -0.57 M204.56 97.82 C178.19 74.98, 149.97 51.46, 93.48 0.84 M209.77 95.88 C177.4 68.92, 144.31 38.65, 96.85 0.83 M207.89 96.28 C176.5 67.98, 142.12 40, 98.21 1.75 M213.89 95.18 C173.59 62.54, 134.12 27.61, 103.93 1.24 M211.66 94.39 C184.19 70.97, 157.16 48.28, 104.71 1.52 M215.93 92.38 C184.47 64.57, 150.84 33.1, 109.68 -0.39 M216.03 92.11 C190.34 68.14, 163.73 46.61, 110.61 -0.43 M219.38 87.67 C195.26 69.68, 171.88 51.19, 114.15 0.11 M219.22 90.23 C187.68 62.04, 155.09 34.16, 114.61 -0.06 M223.05 86.47 C187.95 55.05, 155.02 24.06, 121.64 -0.88 M222.59 88.17 C194.43 63.14, 168.7 38.69, 122.06 -0.18 M226.74 87.07 C198.77 64.54, 173.5 42.63, 125.77 0.24 M226.86 85.15 C193.42 55.85, 160.24 28.03, 126.4 -1.95 M229.3 85.01 C190.57 49.57, 155.03 18.58, 128.9 -4 M230.57 84.06 C192.7 49.8, 155.69 16.82, 131.18 -3.72 M234.11 80.02 C201.07 51.18, 169.43 24.04, 138.72 -2.64 M232.17 79.91 C212.89 62.64, 190.97 42.94, 137.07 -1.94 M235.09 80.4 C203.42 49.48, 171.08 20.81, 143.66 0.96 M236.43 77.68 C215.67 61.03, 194.5 41.15, 145.84 -0.48 M237.67 74 C210.34 48.89, 182.21 25.53, 152.43 1.28 M240.01 74.85 C207.15 46.55, 174.19 19.91, 152.36 -0.95 M241.32 72.54 C220.38 53.07, 202.95 37.02, 160.04 -0.98 M240.4 71.17 C215.38 50.57, 191.72 28.73, 159.12 1.19 M244.56 66.64 C224.81 51.39, 204.17 34.04, 164.78 0.1 M243.48 67.23 C216.05 43.2, 188.77 21.33, 165.73 1.11 M244.42 63.46 C222.28 42.84, 200.87 24.92, 175.49 4.62 M245.46 63.56 C225.73 49.22, 207.81 32.01, 176.65 5.09 M246.22 62.38 C228.53 44.05, 211.48 31.48, 186.49 8.62 M247.19 59.85 C224.14 40.25, 202.26 20.88, 186.7 7.78 M249.3 58.67 C235.32 46.38, 218.91 31.2, 195.16 11.02 M248.36 58.1 C235.99 45.61, 220.35 34.04, 197.04 12.61 M248.52 51.9 C236.52 43.06, 229.16 32.53, 206.92 16.62 M247.48 50.52 C236.37 40.32, 226.6 31.84, 206.71 16.33 M245.32 40.7 C239.88 35.98, 233.59 31.64, 213.95 17.11 M243.51 41.83 C236.4 36.49, 230.42 30.61, 215.86 17.5" stroke="#40c057" stroke-width="0.5" fill="none"></path><path d="M128.95 -0.89 C143.84 -1.52, 161.78 2.17, 176.07 5.41 C190.36 8.65, 203.92 13.21, 214.7 18.55 C225.49 23.89, 235.27 30.7, 240.78 37.44 C246.29 44.18, 248.43 52.06, 247.74 58.98 C247.05 65.9, 243.29 72.61, 236.63 78.97 C229.96 85.33, 219.53 92.28, 207.74 97.14 C195.94 102, 180.63 105.59, 165.87 108.13 C151.1 110.67, 134.86 112.59, 119.13 112.4 C103.41 112.21, 85.83 110.03, 71.52 106.98 C57.22 103.92, 43.99 99.33, 33.29 94.06 C22.6 88.79, 12.92 81.99, 7.35 75.37 C1.79 68.76, -0.76 61.55, -0.11 54.38 C0.55 47.21, 4.7 39.01, 11.29 32.34 C17.88 25.66, 27.74 19.17, 39.44 14.31 C51.15 9.45, 64.56 5.53, 81.53 3.17 C98.49 0.81, 129.76 0.34, 141.24 0.14 C152.72 -0.05, 150.73 1.06, 150.42 1.98 M102.47 1.08 C116.52 -1.05, 133.74 0.38, 149.12 1.99 C164.5 3.6, 181.57 6.72, 194.75 10.74 C207.93 14.75, 219.46 20.03, 228.21 26.09 C236.96 32.16, 244.45 40.34, 247.27 47.11 C250.1 53.87, 248.59 59.65, 245.17 66.7 C241.75 73.74, 235.74 83.16, 226.74 89.4 C217.75 95.63, 204.42 100.53, 191.2 104.1 C177.97 107.66, 162.79 109.61, 147.37 110.77 C131.96 111.93, 114.61 112.56, 98.71 111.05 C82.8 109.55, 65.1 105.92, 51.94 101.72 C38.78 97.52, 27.99 91.82, 19.74 85.87 C11.49 79.92, 5.23 73.17, 2.42 66.03 C-0.38 58.88, -0.19 50.06, 2.93 42.99 C6.05 35.92, 12.02 29.53, 21.16 23.63 C30.29 17.74, 44.06 11.36, 57.74 7.64 C71.41 3.91, 95.56 2.21, 103.23 1.27 C110.89 0.34, 103.8 1.33, 103.74 2.03" stroke="#000000" stroke-width="1" fill="none"></path></g><g transform="translate(15 247.84523809523807) rotate(0 119 23)"><text x="119" y="33" font-family="Virgil, Segoe UI Emoji" font-size="36px" fill="#000000" text-anchor="middle" style="white-space: pre;" direction="ltr">AST</text></g><g stroke-linecap="round"><g transform="translate(272.21153672356854 273.61009880565825) rotate(0 23.372000001955826 -0.21091791581420694)"><path d="M-0.96 0.18 C6.91 -0.04, 39.65 -0.92, 47.7 -0.88 M0.74 -0.78 C8.38 -0.86, 39.03 0.56, 46.61 0.46" stroke="#000000" stroke-width="2" fill="none"></path></g><g transform="translate(272.21153672356854 273.61009880565825) rotate(0 23.372000001955826 -0.21091791581420694)"><path d="M24.21 7.77 C31.04 4.68, 41.01 4, 46.92 1 M24.24 7.98 C33.63 4.78, 41.61 1.24, 46.29 0.16" stroke="#000000" stroke-width="2" fill="none"></path></g><g transform="translate(272.21153672356854 273.61009880565825) rotate(0 23.372000001955826 -0.21091791581420694)"><path d="M24.54 -8.64 C31.31 -6.11, 41.17 -1.18, 46.92 1 M24.57 -8.43 C33.88 -5.26, 41.74 -2.44, 46.29 0.16" stroke="#000000" stroke-width="2" fill="none"></path></g></g><g stroke-linecap="round"><g transform="translate(528.8815546031753 281.41413683716155) rotate(0 22.43317088037304 -0.31806107846023224)"><path d="M-0.72 -1.07 C7.06 -1.34, 37.97 -1.58, 45.58 -1.61 M1.11 0.98 C8.85 0.86, 37.68 -0.24, 44.85 -0.43" stroke="#000000" stroke-width="2" fill="none"></path></g><g transform="translate(528.8815546031753 281.41413683716155) rotate(0 22.43317088037304 -0.31806107846023224)"><path d="M22.09 8.67 C27.22 6.03, 32.21 3.93, 45.94 -0.43 M23.21 8.3 C30.95 5.14, 35.23 2.62, 44.07 -0.84" stroke="#000000" stroke-width="2" fill="none"></path></g><g transform="translate(528.8815546031753 281.41413683716155) rotate(0 22.43317088037304 -0.31806107846023224)"><path d="M21.59 -6.78 C26.82 -6.15, 31.92 -4.97, 45.94 -0.43 M22.71 -7.15 C30.55 -5.79, 34.99 -3.79, 44.07 -0.84" stroke="#000000" stroke-width="2" fill="none"></path></g></g><g stroke-linecap="round" transform="translate(582.6428571428573 222.73412698412676) rotate(0 105 54)"><path d="M5.44 39.18 C5.44 39.18, 5.44 39.18, 5.44 39.18 M5.44 39.18 C5.44 39.18, 5.44 39.18, 5.44 39.18 M1.99 46.43 C8.35 41.28, 18.48 33.02, 25.12 21.8 M3.21 47.2 C8.78 42.05, 14.49 34.07, 26.4 21.13 M0.13 55.04 C10.17 47.16, 19.85 35.69, 36.12 15.69 M2.25 54.94 C15.35 41.35, 28.09 26.71, 36.1 16.23 M2.51 63.29 C18.15 42.08, 31.95 27.37, 42.96 13.15 M2.28 61.95 C11.86 49.42, 22.61 38.68, 43.94 11.85 M3.84 66.47 C24.07 43.17, 41.1 21.21, 51.93 10.67 M3.65 65.44 C21.88 44.54, 40.87 23.24, 52.28 9.24 M7.2 68.59 C20.31 52.2, 36.51 36.26, 59.91 6.5 M5.36 68.33 C24.68 49.38, 41.31 29.95, 60.92 5.78 M7.57 73.9 C20.18 58.7, 32.31 45.4, 66.78 4.85 M9.19 72.11 C25.67 51.39, 42.95 32.52, 65.97 4.78 M10.19 76.85 C21.92 62.05, 35.56 44.39, 72.95 5.1 M10.49 76.46 C27.64 58.44, 42.53 40.53, 71.9 4.16 M11.6 77.08 C29.46 59.45, 46.73 43.56, 77.14 5.16 M13.74 79.67 C30.74 58.4, 47.59 38.82, 77.83 3.2 M16.63 82.51 C44.18 49.65, 69.52 20.06, 85.39 4.38 M16.02 83.19 C34.64 61, 51.74 41.3, 85 3.14 M19.36 84.22 C45.56 51.84, 73.92 18.63, 92.65 1.31 M18.52 86.08 C32.61 68.5, 48.74 51.28, 90.92 2.31 M21.49 86.03 C50.11 55.15, 80.16 20.88, 94.51 2.78 M21.37 88.07 C51.38 55.62, 78.67 22.29, 95.56 0.7 M25.37 88 C47.47 62.43, 70.08 35.8, 102.12 0.01 M25.15 90.53 C43.9 67.77, 63.96 45.48, 102.78 -0.32 M26.95 92.88 C54.78 59.65, 81.73 27.53, 106.7 1.53 M28.39 90.45 C51.33 67.24, 71.66 45.42, 109.3 0.28 M31.44 94.65 C50.35 74.38, 64.98 53.22, 114.95 0 M31.72 92.49 C61.65 61.07, 91.76 27.01, 112.71 -0.34 M34.35 93.51 C69.58 58.76, 97.66 22.14, 118.26 0.35 M35.39 95.42 C67.31 57.9, 98.82 21.94, 117.07 0.62 M37.81 99.64 C66.9 68.01, 92.64 35.12, 122.26 1.45 M40.07 97.42 C66.74 64.46, 95.74 31.56, 123.04 2.84 M42.2 101.16 C60.5 78.08, 77.33 58.48, 127.89 3.68 M43.05 99.55 C65.4 74.39, 88.67 47.94, 127.39 1.9 M47.21 99.68 C69.33 79.98, 90.05 54.46, 131.03 0.84 M45.73 100.78 C64.33 78.15, 84.47 55.85, 133.19 2.77 M52.79 100.76 C76.39 72.14, 98.76 48.1, 138.84 3.98 M51.11 101.92 C71.82 79.27, 92.14 55.35, 136.59 3.08 M54.87 102.96 C81.78 73.34, 109.8 41.39, 142.77 4.37 M55.99 102.25 C77.52 77.6, 98.1 53.17, 142.36 3.56 M60.31 106.03 C82.36 78.19, 104.69 55, 146.87 5.23 M60.45 103.13 C81.06 80.19, 103.64 54.3, 146.74 5.36 M65.24 104.96 C89.08 78.69, 113.01 49.6, 150.82 6.52 M64.63 103.57 C88.9 76.41, 113.17 50.83, 150.85 6.28 M70.1 107.19 C100.27 69.42, 130.44 36.12, 156.24 6.89 M70.34 104.99 C95.27 77.35, 118.17 48.41, 155.65 8.23 M72.57 107.14 C96.11 83.53, 113.26 60.38, 159.01 6.98 M74.46 107.19 C92.45 87.77, 109.67 67.29, 158.66 8.01 M78.64 107.44 C109.23 73.23, 140.96 35.54, 161.67 9.66 M78.48 107.09 C108.12 70.99, 141.06 34.12, 162.88 11.11 M81.59 108.21 C109.09 78.45, 130.55 53.49, 167.67 12.98 M84.02 107.55 C113.78 74.12, 144.91 37.2, 167.55 12.09 M86.96 109.51 C113.85 79.3, 137.88 54.17, 169.09 15.24 M88.31 109.28 C112.4 78.35, 139.99 47.81, 170.41 13.22 M92.22 107.87 C116.17 80.43, 139.93 52.82, 176.94 15.96 M92.31 108.88 C117.77 80.29, 141.92 53.02, 174.39 14.85 M99.84 107.83 C117.67 85.8, 139.19 58, 180.89 16.86 M98.32 109.87 C130.54 73.42, 162.65 35.13, 177.96 16.01 M104.2 110.1 C126.37 86.02, 148.44 60.37, 183.5 18.89 M103.38 110.38 C132.09 75.79, 162.19 41.78, 183.78 16.86 M109.97 109.63 C139.48 72.07, 171.91 40.71, 186.69 20.73 M108.14 108.69 C130.73 82.84, 152.45 57.33, 185.7 20.7 M115.12 108.85 C131.16 89.73, 150.39 67.79, 189.89 23.25 M114.38 109.99 C142.54 77.6, 172.07 44.61, 189.44 23.97 M120.53 107.37 C145.64 75.38, 177.31 44.23, 190.56 26.31 M119.12 109.59 C142.66 82.52, 164.59 59.06, 191.52 26.5 M125.73 111.08 C140.58 91.27, 154.77 75.85, 193.06 27.23 M124.88 109.44 C149.52 81.03, 174.22 52.03, 194.76 29.51 M131.82 108.26 C154.68 81.92, 175.43 60.23, 197.06 32.55 M131.04 107.89 C156.31 79.14, 181.51 51.45, 197.06 30.86 M136.56 107.48 C158.32 84.58, 177.81 60.46, 202.5 33.04 M137.49 106.91 C157.37 82.94, 178.05 59.44, 200.95 33.55 M145.99 105.5 C159.15 86.89, 173.1 69.11, 202.6 34.67 M144.71 103.65 C158.78 87.99, 174.75 71.8, 203.05 36.22 M152.07 101.54 C166.39 84.99, 182.95 66.11, 204.88 37.64 M151.96 102.13 C171.73 79.12, 192.44 54.7, 207.61 39.67 M157.07 101.06 C176.95 80.52, 194.96 56.53, 206.15 45.63 M158.11 100.49 C175.08 83.49, 190.16 64.05, 208 43.57 M166.51 98.72 C177.21 87.94, 188.82 72.92, 208.09 49.27 M165.14 99.54 C174.84 89.25, 183.68 77.94, 208.81 47.48 M172.91 98.91 C182.83 85.06, 197.18 70.56, 209.75 54.9 M170.3 98.74 C186.64 80.31, 201.22 62.7, 210.79 53.11 M181.27 92.95 C189.98 84.07, 196.54 73.14, 209.11 58.37 M182.2 92.86 C189.68 82.11, 199.98 71.01, 210.97 59.56 M15.33 82.97 C15.33 82.97, 15.33 82.97, 15.33 82.97 M15.33 82.97 C15.33 82.97, 15.33 82.97, 15.33 82.97 M33.26 91.92 C26.54 85.24, 20.42 82.76, 4.84 68.73 M33.14 92.23 C25.3 86.35, 18.43 80.72, 5.7 68.54 M47.06 97.02 C30.76 85.66, 18.92 76.52, 2.89 59.48 M46.19 98.22 C31.9 86.87, 18.38 74.79, 1.16 60.59 M54.16 101.26 C35.28 82.97, 13.75 67.1, 2.55 57.61 M53.96 100.55 C42.51 89.44, 30.55 81.26, 2.2 55.32 M59.58 99.78 C38.27 83.22, 14.96 63.56, 2.83 53.06 M60.73 100.45 C43.48 86.47, 27.2 72.22, 3.02 52.06 M68.62 102.31 C50.38 86.93, 28.66 67.49, 2.55 46.53 M68.86 103.15 C44.88 82.24, 19.6 60.98, 3.97 47.78 M76.59 104.83 C56.88 89.59, 42.55 73.45, 3.56 43.95 M77.04 105.07 C51.09 81.95, 24.62 59.72, 5.23 43.19 M85.59 107.85 C55.77 81.68, 23.89 52.93, 6.73 38.15 M85.61 105.56 C56.22 82.49, 26.11 56.75, 7.35 37.73 M92.23 106.81 C66.34 85.23, 39.11 62.65, 9.74 36.5 M90.72 106.84 C71 87.72, 49.13 70.12, 9.5 34.84 M96.94 106.33 C64.94 77.14, 30.39 50.85, 12.28 32.58 M96.16 105.72 C79.13 90.16, 58.66 72.57, 13.2 33.11 M104.42 107.22 C80.68 87.29, 55.29 68.04, 14.56 30.57 M104.35 106.14 C75.77 81.33, 47.55 57.45, 15.33 30.13 M110.39 107.56 C88.87 88.12, 62.15 69.01, 17.33 26.83 M109.52 107.7 C89.5 87.63, 70.08 71.86, 18.62 27.58 M116.84 107.64 C87.1 82.8, 57.04 56.49, 20.64 22.93 M115.55 106.16 C84.16 78.03, 50.6 49.64, 20.93 23.8 M123.32 106.94 C91.22 83.66, 62.81 58.45, 22.55 22.68 M121.67 105.88 C96.82 84.48, 72.65 62.67, 24.46 22.28 M126.64 106.54 C103.12 86.1, 83.2 67.78, 25.42 19.76 M126.69 105.73 C94.8 77.33, 61.43 47.48, 26.53 18.8 M133.64 103.37 C93.08 71.51, 53.62 36.32, 31.62 16.09 M132.32 104.9 C108.68 84.27, 82.56 62.87, 29.82 17.29 M135.72 102.58 C114.54 84.11, 91.05 64.76, 36.31 16.11 M136.1 102.67 C102.19 73.14, 69.93 43.21, 35.62 15.65 M138.78 101.87 C102.61 65.52, 59.6 34.02, 37.44 15.17 M139.96 102.3 C107.47 71.94, 72.14 44, 38.32 13.6 M147.53 101.84 C123.2 79.21, 96.57 58.04, 42.97 12.51 M144.91 100.89 C104.94 65.7, 65.34 31.46, 43.18 11.16 M147.91 98.3 C112.62 68.21, 76.22 35.73, 47.17 9.58 M150.08 99.18 C117.91 72.76, 87.45 44.47, 47.06 10.48 M154.46 99.29 C115.87 66.72, 76.87 29.39, 51.57 9.03 M154.46 98.01 C113.93 63.06, 73.58 28.48, 51.94 8.37 M158.7 96.04 C129.17 71.71, 102.86 45.61, 53.22 5.11 M159.91 96.9 C123.3 67.11, 87.98 36.26, 53.64 6.11 M165.19 96.71 C126.24 61.62, 90.82 29.49, 56.75 5.23 M163.63 95.17 C139.52 73.94, 114.72 52.24, 58.36 4.59 M167.8 96.64 C133.21 60.65, 92.19 28.98, 62.02 0.39 M168.93 95.77 C141.41 70.93, 113.37 47.42, 62.9 2.22 M173.88 92.76 C148.75 72.2, 121.57 50.62, 67.95 2.12 M174 93.14 C143.33 67.9, 115.04 42.16, 66.94 1.33 M174.86 91.84 C142.51 57.86, 107.69 29.39, 70.74 -0.49 M176.86 91.02 C143.04 61.34, 110.6 33.19, 71.74 0.76 M179.18 89.57 C150.71 62.53, 121.73 39.99, 79.84 0.88 M180.92 88.94 C153.38 64.93, 127.47 42.44, 78.68 -0.99 M184.57 84.83 C146.82 53.81, 109.89 20.65, 83.02 0.79 M183.69 86.08 C146 52.22, 106.63 17.71, 82.74 -1.29 M188.77 84.74 C158.29 59.21, 129.21 32.23, 89.57 -3.05 M188.02 83.79 C153.28 53.15, 117.79 22.82, 88.27 -0.92 M191.08 83.64 C158.52 53.93, 123.61 21.86, 94.8 -2.65 M190.14 82.01 C155.97 51.73, 120.62 21.96, 94 -1.46 M195.06 80.07 C168.16 54.24, 139.81 28.89, 99.3 -2.81 M194.9 79.84 C157.93 46.89, 119.49 14.34, 98.72 -2.86 M199.31 77.82 C163.38 48.13, 127.82 15.88, 104.21 -4.15 M198.96 78.06 C165.78 49.43, 132.54 21.15, 105.12 -2.97 M201.45 75.56 C179.82 56.01, 158.97 34.41, 112.45 -3.37 M201.39 74.22 C181.65 58.02, 163.18 41.86, 111.49 -2.3 M200.66 71.13 C178.69 50.35, 150.17 27.47, 119.21 -0.97 M202.6 70.51 C175.92 48.53, 149.35 24.67, 118.73 -2.22 M203.62 65.97 C183.14 48.67, 157.6 26.27, 123.44 -3.53 M204.87 67.58 C186.25 50.7, 166.02 35.31, 124.34 -1.77 M208.05 62.72 C177.97 37.95, 151.95 15.29, 133.43 -0.79 M206.32 63.76 C191.21 50.61, 175.13 36.31, 132.43 -1.24 M208.98 60.92 C182.76 37.33, 158.54 17.29, 137.68 0.11 M209.69 60.14 C182.25 38.64, 156.68 13.53, 139.22 -0.88 M209.67 58.65 C187.2 37.49, 162.91 13.9, 145.54 0.18 M211.84 57.85 C196.45 44.55, 179.43 30.25, 148.06 2.11 M208.17 48.94 C193.88 36.45, 174.1 20.18, 156.61 5.02 M208.69 49.81 C192.57 34.76, 175.3 20.19, 157.4 5.57 M206.6 41.91 C196.53 31.15, 183.51 21.88, 170.51 8.49 M207.08 42.53 C197.69 34.2, 189.93 26.51, 169.03 9.5" stroke="#40c057" stroke-width="0.5" fill="none"></path><path d="M102.51 -0.65 C116.13 -1.67, 132.92 0.28, 146.11 3.18 C159.3 6.08, 171.96 11.15, 181.65 16.75 C191.34 22.35, 199.58 29.78, 204.25 36.78 C208.93 43.77, 210.97 51.54, 209.7 58.71 C208.43 65.89, 203.55 73.56, 196.64 79.84 C189.72 86.13, 179.44 91.93, 168.21 96.43 C156.97 100.94, 143.13 105.16, 129.23 106.87 C115.32 108.59, 98.89 107.96, 84.79 106.71 C70.69 105.47, 56.22 103.39, 44.63 99.42 C33.04 95.46, 22.65 89.19, 15.27 82.92 C7.89 76.65, 2.03 69.06, 0.36 61.8 C-1.3 54.54, 0.98 46.42, 5.27 39.38 C9.56 32.33, 17.1 25.34, 26.12 19.53 C35.15 13.72, 46.29 7.62, 59.44 4.52 C72.59 1.42, 97.06 1.56, 105.01 0.93 C112.96 0.3, 107.27 0.02, 107.15 0.74 M108.65 -0.01 C121.99 -0.28, 139 3.66, 151.73 6.75 C164.46 9.83, 176.12 13.12, 185.05 18.51 C193.98 23.9, 201.54 31.7, 205.3 39.08 C209.06 46.47, 209.68 55.42, 207.64 62.83 C205.59 70.23, 200.45 77.27, 193.03 83.5 C185.6 89.73, 174.7 96.08, 163.08 100.19 C151.47 104.31, 137.17 106.94, 123.35 108.19 C109.53 109.44, 94.03 109.51, 80.16 107.71 C66.29 105.91, 51.39 102.09, 40.14 97.4 C28.9 92.71, 19.29 86.45, 12.69 79.56 C6.09 72.68, 1.71 63.31, 0.54 56.09 C-0.64 48.86, 0.8 42.7, 5.66 36.2 C10.52 29.7, 19.66 22.55, 29.7 17.08 C39.75 11.61, 52.6 6.24, 65.91 3.41 C79.22 0.57, 102.47 0.55, 109.56 0.07 C116.65 -0.41, 108.57 -0.52, 108.45 0.54" stroke="#000000" stroke-width="1" fill="none"></path></g><g transform="translate(587.6428571428573 253.73412698412676) rotate(0 100 23)"><text x="100" y="33" font-family="Virgil, Segoe UI Emoji" font-size="36px" fill="#000000" text-anchor="middle" style="white-space: pre;" direction="ltr">Bytecode</text></g><g stroke-linecap="round"><g transform="translate(802.4674631312766 280.3270879323659) rotate(0 25.107300155075677 0.6206332037208995)"><path d="M0.34 -0.81 C9.01 -0.55, 42.9 1.58, 51.15 2.05 M-0.93 1.38 C7.74 1.29, 42.41 0.71, 50.72 0.52" stroke="#000000" stroke-width="2" fill="none"></path></g><g transform="translate(802.4674631312766 280.3270879323659) rotate(0 25.107300155075677 0.6206332037208995)"><path d="M25.97 11.2 C34.47 6.89, 39.69 4.87, 49.07 2.51 M27 9.61 C35.69 6.78, 44.09 3.13, 51.37 0.22" stroke="#000000" stroke-width="2" fill="none"></path></g><g transform="translate(802.4674631312766 280.3270879323659) rotate(0 25.107300155075677 0.6206332037208995)"><path d="M25.64 -5.96 C34.28 -6.36, 39.58 -4.49, 49.07 2.51 M26.67 -7.55 C35.57 -4.06, 44.09 -1.41, 51.37 0.22" stroke="#000000" stroke-width="2" fill="none"></path></g></g></svg>