<svg version="1.1" xmlns="http://www.w3.org/2000/svg" viewBox="0 0 1654.892857142857 441.11111111111086" width="3309.785714285714" height="882.2222222222217">
  <!-- svg-source:excalidraw -->
  
  <defs>
    <style>
      @font-face {
        font-family: "Virgil";
        src: url("https://excalidraw.com/Virgil.woff2");
      }
      @font-face {
        font-family: "Cascadia";
        src: url("https://excalidraw.com/Cascadia.woff2");
      }
    </style>
  </defs>
  <g stroke-linecap="round" transform="translate(341.8412698412697 213.65079365079328) rotate(0 100.5 58.5)"><path d="M1.23 -1.42 C73 -2.1, 143.58 -0.73, 201.17 0.19 M0.72 -0.81 C57.4 1.64, 115.75 2.08, 201.44 -0.67 M201.96 -0.63 C202.01 30.65, 199.57 59.97, 202.6 115.78 M200.54 0.78 C201.16 34.46, 202.26 66.96, 200.7 117.24 M202.17 115.29 C138.45 116.34, 77.68 116.26, -1.25 116.29 M200.9 117.5 C124.32 117.88, 46.12 118.56, 0.49 116.95 M-1.87 117.91 C0.99 76.4, 0.66 32.74, -0.09 -1.66 M-0.38 117.74 C-0.87 71.29, 0.12 26.87, -0.45 0.2" stroke="#000000" stroke-width="1" fill="none"></path></g><g transform="translate(346.8412698412697 249.15079365079328) rotate(0 95.5 23)"><text x="95.5" y="33" font-family="Virgil, Segoe UI Emoji" font-size="36px" fill="#000000" text-anchor="middle" style="white-space: pre;" direction="ltr">Tokenizer</text></g><g stroke-linecap="round" transform="translate(10 216.09523809523785) rotate(0 124 56)"><path d="M76.47 4.89 C89.57 1.37, 107.96 -0.65, 123.54 -0.9 C139.12 -1.14, 155.51 0.46, 169.95 3.43 C184.39 6.4, 198.81 11.69, 210.17 16.93 C221.54 22.16, 231.72 28.26, 238.12 34.83 C244.52 41.4, 248.55 49.39, 248.58 56.35 C248.62 63.31, 244.29 70.22, 238.35 76.57 C232.41 82.92, 223.85 89.41, 212.94 94.47 C202.03 99.52, 187.45 103.88, 172.91 106.88 C158.37 109.88, 141.65 112.37, 125.71 112.47 C109.77 112.57, 91.99 110.33, 77.27 107.47 C62.56 104.6, 48.76 100.21, 37.42 95.29 C26.08 90.37, 15.37 84.29, 9.25 77.96 C3.14 71.63, 0.85 64.62, 0.71 57.31 C0.58 49.99, 2.55 40.81, 8.45 34.06 C14.35 27.32, 24.63 21.74, 36.11 16.86 C47.58 11.98, 69.74 6.73, 77.29 4.81 C84.84 2.89, 80.37 4.63, 81.39 5.34 M157.97 1.35 C173.03 2.46, 190.74 6.47, 203.14 11.26 C215.54 16.04, 224.94 23.68, 232.37 30.07 C239.8 36.45, 245.81 42.71, 247.72 49.59 C249.62 56.47, 248.51 64.15, 243.8 71.33 C239.1 78.51, 229.62 87.04, 219.47 92.68 C209.32 98.32, 196.93 102.18, 182.91 105.2 C168.88 108.21, 151.25 109.86, 135.34 110.79 C119.44 111.73, 102.43 112.46, 87.49 110.82 C72.54 109.17, 57.59 105.43, 45.67 100.94 C33.75 96.45, 23.67 90.55, 15.98 83.87 C8.3 77.19, 1.21 68, -0.45 60.87 C-2.1 53.74, 1.21 47.76, 6.06 41.09 C10.91 34.42, 18.94 26.39, 28.65 20.87 C38.37 15.35, 50.66 11.3, 64.33 7.96 C78 4.62, 94.73 1.98, 110.68 0.84 C126.63 -0.3, 151.93 0.92, 160.02 1.13 C168.1 1.33, 159.82 1.03, 159.19 2.06" stroke="#000000" stroke-width="1" fill="none"></path></g><g transform="translate(15 249.09523809523785) rotate(0 119 23)"><text x="119" y="33" font-family="Virgil, Segoe UI Emoji" font-size="36px" fill="#000000" text-anchor="middle" style="white-space: pre;" direction="ltr">Source Code</text></g><g stroke-linecap="round" transform="translate(638.6666666666669 213.65079365079328) rotate(0 94 58.5)"><path d="M0.19 0.21 C37.48 1.4, 73.83 2.04, 186.19 -0.36 M0.49 -0.74 C58.65 -1.61, 117.49 -0.7, 187.69 0.76 M189.6 -1.22 C187.25 35.89, 187.53 67.75, 189.57 115.49 M187.7 0.24 C188.44 41.52, 187.88 84.13, 187.05 116.08 M186.61 116.21 C130.22 117.63, 69.92 117, 1.11 118.05 M188.54 116.95 C129.58 118.93, 69.93 117.77, 0.46 117.63 M-0.09 115.34 C1.19 74.08, -0.94 27.95, 1.49 -0.31 M-0.45 117.2 C-1.18 87.12, -1.17 58.79, -0.29 0.21" stroke="#000000" stroke-width="1" fill="none"></path></g><g transform="translate(643.6666666666669 249.15079365079328) rotate(0 89 23)"><text x="89" y="33" font-family="Virgil, Segoe UI Emoji" font-size="36px" fill="#000000" text-anchor="middle" style="white-space: pre;" direction="ltr">Parser</text></g><g stroke-linecap="round"><g transform="translate(555.803914739229 279.2749203912681) rotate(0 31.83301110931066 0.4207742845717348)"><path d="M0.97 -1.09 C11.48 -0.88, 53.03 -0.1, 63.65 0.21 M0.01 0.96 C10.3 1.47, 51.86 2.19, 62.59 1.84" stroke="#000000" stroke-width="2" fill="none"></path></g><g transform="translate(555.803914739229 279.2749203912681) rotate(0 31.83301110931066 0.4207742845717348)"><path d="M32.63 11.85 C44.63 9.76, 55.43 5.72, 61.1 1.1 M34.13 12.96 C41.66 8.94, 48.16 7.54, 61.98 1.73" stroke="#000000" stroke-width="2" fill="none"></path></g><g transform="translate(555.803914739229 279.2749203912681) rotate(0 31.83301110931066 0.4207742845717348)"><path d="M32.55 -8.67 C44.4 -3.6, 55.23 -0.48, 61.1 1.1 M34.05 -7.56 C41.49 -6.31, 48.02 -2.44, 61.98 1.73" stroke="#000000" stroke-width="2" fill="none"></path></g></g><g stroke-linecap="round" transform="translate(302.31746031746013 11.111111111111086) rotate(0 275.71428571428584 209.9999999999999)"><path d="M0.5 0.39 C155.03 -1.84, 310.9 -1.98, 551.81 -0.25 M550.58 0.85 C550.63 157.79, 552.11 315.84, 550.94 420.84 M550.77 419.76 C427.75 420.79, 303.52 420.35, 0.52 419.24 M0.13 419.26 C-0.79 333.39, -0.14 245.44, -0.12 0.59" stroke="#000000" stroke-width="1.5" fill="none" stroke-dasharray="8 9"></path></g><g transform="translate(378.64285714285705 44.92857142857156) rotate(0 200.5 69)"><text x="200.5" y="33" font-family="Virgil, Segoe UI Emoji" font-size="36px" fill="#000000" text-anchor="middle" style="white-space: pre;" direction="ltr">Part 1</text><text x="200.5" y="79" font-family="Virgil, Segoe UI Emoji" font-size="36px" fill="#000000" text-anchor="middle" style="white-space: pre;" direction="ltr">From Source Code to</text><text x="200.5" y="125" font-family="Virgil, Segoe UI Emoji" font-size="36px" fill="#000000" text-anchor="middle" style="white-space: pre;" direction="ltr">Abstract Syntax Tree</text></g><g stroke-linecap="round" transform="translate(902.3174603174602 213.65079365079328) rotate(0 90.5 58.5)"><path d="M-1.72 -0.22 C41.39 -3.15, 87.91 -2.06, 179.08 -1.22 M0.81 0.93 C59.01 -1.25, 120.37 -2.08, 181.81 -0.58 M182.24 0.14 C178.4 30.29, 180.85 58.47, 180.45 117.07 M181.54 -0.27 C181.48 32.6, 179.9 65.47, 180.4 116.77 M180.09 117.94 C118.5 116.77, 57.44 113.9, -0.53 115.85 M180.63 116.64 C124.28 116.26, 67.15 116.49, 0.64 116.39 M-1.67 116.35 C1 82.66, 1.6 53.99, 1.17 0.29 M0.81 117.92 C0.12 90.37, 0.1 64.98, -0.24 -0.19" stroke="#000000" stroke-width="1" fill="none"></path></g><g transform="translate(907.3174603174602 249.15079365079328) rotate(0 85.5 23)"><text x="85.5" y="33" font-family="Virgil, Segoe UI Emoji" font-size="36px" fill="#000000" text-anchor="middle" style="white-space: pre;" direction="ltr">Compiler</text></g><g stroke-linecap="round" transform="translate(1172.4761904761908 213.65079365079328) rotate(0 106 58.5)"><path d="M-0.67 -0.27 C53.52 -0.27, 112.01 -0.97, 211.84 -0.55 M-0.17 -0.11 C70.62 1.36, 141.77 1.11, 211.61 0.25 M210.89 -0.75 C213.59 39.54, 211.3 76.23, 213.13 118.66 M212.16 -0.87 C212.12 35.22, 211.34 70.81, 211.12 117.13 M212.48 115.93 C157.98 116.76, 101.93 115.76, -0.3 118.43 M211.93 116.52 C160.02 117.88, 106.68 116.93, 0.8 116.89 M1.31 118.22 C-0.81 75.53, 0.61 32.28, 1.49 0.72 M-0.86 116.89 C-1.93 87.38, -0.18 56.94, -0.22 0.04" stroke="#000000" stroke-width="1" fill="none"></path></g><g transform="translate(1177.4761904761908 226.15079365079328) rotate(0 101 46)"><text x="101" y="33" font-family="Virgil, Segoe UI Emoji" font-size="36px" fill="#000000" text-anchor="middle" style="white-space: pre;" direction="ltr">Evaluation</text><text x="101" y="79" font-family="Virgil, Segoe UI Emoji" font-size="36px" fill="#000000" text-anchor="middle" style="white-space: pre;" direction="ltr">Loop</text></g><g stroke-linecap="round"><g transform="translate(1096.2801052154193 279.2696557704562) rotate(0 28.386326013682705 -0.28089161945877095)"><path d="M0.3 -0.3 C9.93 -0.33, 48.29 0.8, 57.77 0.93 M-1 -1.5 C8.52 -1.35, 47.56 -0.7, 57.12 -0.72" stroke="#000000" stroke-width="2" fill="none"></path></g><g transform="translate(1096.2801052154193 279.2696557704562) rotate(0 28.386326013682705 -0.28089161945877095)"><path d="M29.67 9.78 C39.66 5.85, 47.02 1.93, 57.04 0.24 M31.12 9.59 C38.26 5.8, 48.08 2.71, 56.68 -1.29" stroke="#000000" stroke-width="2" fill="none"></path></g><g transform="translate(1096.2801052154193 279.2696557704562) rotate(0 28.386326013682705 -0.28089161945877095)"><path d="M29.84 -9.78 C39.97 -7.83, 47.28 -5.88, 57.04 0.24 M31.3 -9.97 C38.18 -7.62, 47.95 -4.57, 56.68 -1.29" stroke="#000000" stroke-width="2" fill="none"></path></g></g><g stroke-linecap="round"><g transform="translate(1398.5964190476195 282.7100383763559) rotate(0 31.931351474764085 0.28443961206357926)"><path d="M0.34 -0.81 C11.29 -0.7, 54.27 0.82, 64.8 1.13 M-0.93 1.38 C10.02 1.13, 53.79 -0.05, 64.37 -0.4" stroke="#000000" stroke-width="2" fill="none"></path></g><g transform="translate(1398.5964190476195 282.7100383763559) rotate(0 31.931351474764085 0.28443961206357926)"><path d="M35.14 12.33 C44.65 7.54, 50.89 5.05, 62.72 1.59 M36.17 10.74 C46.5 7.18, 56.55 2.77, 65.02 -0.7" stroke="#000000" stroke-width="2" fill="none"></path></g><g transform="translate(1398.5964190476195 282.7100383763559) rotate(0 31.931351474764085 0.28443961206357926)"><path d="M34.54 -8.18 C44.27 -8.3, 50.64 -6.13, 62.72 1.59 M35.57 -9.77 C46.22 -5.79, 56.49 -2.66, 65.02 -0.7" stroke="#000000" stroke-width="2" fill="none"></path></g></g><g stroke-linecap="round" transform="translate(869.460317460317 10) rotate(0 272.3809523809526 209.99999999999977)"><path d="M-0.29 -0.15 C130.31 -1.57, 259.3 -1.87, 545.05 0.51 M544.01 0.52 C546.04 139.29, 546 277.78, 545.72 419.95 M545.16 420.15 C390.52 420.46, 235.24 419.32, -0.48 420.23 M0.72 419.39 C2.64 304.2, 2.61 187.12, 0.28 -1.02" stroke="#000000" stroke-width="1.5" fill="none" stroke-dasharray="8 9"></path></g><g transform="translate(893.3412698412695 44.92857142857156) rotate(0 248.5 69)"><text x="248.5" y="33" font-family="Virgil, Segoe UI Emoji" font-size="36px" fill="#000000" text-anchor="middle" style="white-space: pre;" direction="ltr">Part 2</text><text x="248.5" y="79" font-family="Virgil, Segoe UI Emoji" font-size="36px" fill="#000000" text-anchor="middle" style="white-space: pre;" direction="ltr">From Abstract Syntax Tree</text><text x="248.5" y="125" font-family="Virgil, Segoe UI Emoji" font-size="36px" fill="#000000" text-anchor="middle" style="white-space: pre;" direction="ltr">To Magic (Execution)</text></g><g stroke-linecap="round" transform="translate(1468.892857142857 241.73412698412676) rotate(0 88 40)"><path d="M85.93 -0.65 C98.13 -1.42, 113.35 0.11, 125 2.58 C136.64 5.05, 147.72 9.45, 155.81 14.16 C163.89 18.87, 170.43 25.17, 173.51 30.87 C176.59 36.56, 176.95 42.79, 174.29 48.34 C171.63 53.89, 165.36 59.7, 157.57 64.17 C149.78 68.64, 138.8 72.45, 127.54 75.14 C116.28 77.84, 102.82 80.18, 90.04 80.34 C77.26 80.5, 62.57 78.37, 50.86 76.09 C39.16 73.81, 27.84 70.91, 19.8 66.67 C11.75 62.43, 5.68 56.26, 2.59 50.63 C-0.51 45, -1.47 38.56, 1.23 32.89 C3.92 27.22, 10.84 21.27, 18.76 16.63 C26.68 11.99, 37.23 7.94, 48.73 5.05 C60.24 2.17, 80.84 -0.16, 87.81 -0.71 C94.78 -1.26, 90.61 1.02, 90.57 1.75 M52.97 3.13 C63.33 0.28, 76.64 -0.44, 89.14 -0.05 C101.63 0.34, 116.59 3, 127.91 5.46 C139.24 7.91, 149.53 10.32, 157.1 14.67 C164.68 19.01, 170.86 25.54, 173.36 31.54 C175.86 37.54, 175.17 44.9, 172.11 50.67 C169.05 56.44, 162.92 61.67, 154.98 66.16 C147.03 70.65, 135.78 75.15, 124.45 77.61 C113.11 80.07, 99.46 81.02, 86.95 80.93 C74.45 80.84, 60.83 79.66, 49.41 77.06 C37.98 74.46, 26.22 70.09, 18.42 65.34 C10.61 60.6, 5.14 54.67, 2.57 48.61 C0 42.55, 0.18 34.5, 3 28.97 C5.81 23.44, 11.44 19.51, 19.48 15.43 C27.53 11.35, 45.88 6.39, 51.26 4.47 C56.65 2.56, 51.14 3.48, 51.81 3.94" stroke="#000000" stroke-width="1" fill="none"></path></g><g transform="translate(1473.892857142857 258.73412698412676) rotate(0 83 23)"><text x="83" y="33" font-family="Virgil, Segoe UI Emoji" font-size="36px" fill="#000000" text-anchor="middle" style="white-space: pre;" direction="ltr">Magic</text></g><g stroke-linecap="round"><g transform="translate(833.7857142857137 275.2182539682515) rotate(0 30.953142363057047 -0.03767316474875315)"><path d="M-0.34 -1.1 C9.82 -1.06, 49.74 -0.66, 60.08 -0.47 M1.68 0.94 C12.28 1.21, 52.33 0.75, 62.25 0.82" stroke="#000000" stroke-width="2" fill="none"></path></g><g transform="translate(833.7857142857137 275.2182539682515) rotate(0 30.953142363057047 -0.03767316474875315)"><path d="M32.26 9.45 C39.69 9.86, 46.83 5.66, 63.74 1.9 M34.35 10.87 C43.53 8.3, 51.43 4.12, 63.24 0.48" stroke="#000000" stroke-width="2" fill="none"></path></g><g transform="translate(833.7857142857137 275.2182539682515) rotate(0 30.953142363057047 -0.03767316474875315)"><path d="M32.2 -11.07 C39.52 -6.06, 46.68 -5.66, 63.74 1.9 M34.29 -9.65 C43.41 -6, 51.33 -3.95, 63.24 0.48" stroke="#000000" stroke-width="2" fill="none"></path></g></g><g stroke-linecap="round"><g transform="translate(272.21153672356854 274.860098805658) rotate(0 23.577085767717165 0.2789171933418402)"><path d="M0.43 -0.76 C8.48 -1.03, 40.17 -0.81, 47.96 -0.78 M-0.81 1.45 C7.11 1.29, 38.59 0.75, 47.01 0.61" stroke="#000000" stroke-width="2" fill="none"></path></g><g transform="translate(272.21153672356854 274.860098805658) rotate(0 23.577085767717165 0.2789171933418402)"><path d="M23.34 9.18 C30.17 5.51, 36.5 5.65, 48.22 2.03 M23.72 9.46 C31.06 7.03, 38.19 4.01, 46.51 0.38" stroke="#000000" stroke-width="2" fill="none"></path></g><g transform="translate(272.21153672356854 274.860098805658) rotate(0 23.577085767717165 0.2789171933418402)"><path d="M23.06 -7.22 C30.08 -6.44, 36.48 -1.85, 48.22 2.03 M23.44 -6.95 C30.72 -4.26, 37.94 -2.16, 46.51 0.38" stroke="#000000" stroke-width="2" fill="none"></path></g></g></svg>